<svg width="58.198mm" height="20.941mm" version="1.1" viewBox="0 0 58.198 20.941" xml:space="preserve" xmlns="http://www.w3.org/2000/svg"><defs><marker id="ConcaveTriangle-16-42-5-1-1-7-6-6-2-1-6-9-3-7-3-7-8-93-94-8-4" overflow="visible" markerHeight="0.60000002" markerWidth="0.60000002" orient="auto-start-reverse" preserveAspectRatio="xMidYMid" viewBox="0 0 1 1"><path transform="scale(.7)" d="m-2-4 11 4-11 4c2-2.33 2-5.66 0-8z" fill="context-stroke" fill-rule="evenodd"/></marker><marker id="ConcaveTriangle-16-42-5-1-1-7-6-6-2-1-6-9-3-7-3-7-8-93-94-8-0-9-2-6" overflow="visible" markerHeight="0.60000002" markerWidth="0.60000002" orient="auto-start-reverse" preserveAspectRatio="xMidYMid" viewBox="0 0 1 1"><path transform="scale(.7)" d="m-2-4 11 4-11 4c2-2.33 2-5.66 0-8z" fill="context-stroke" fill-rule="evenodd"/></marker><marker id="ConcaveTriangle-16-42-5-1-1-7-6-6-2-1-6-9-3-7-3-7-8-93-94-8-0-9-2-6-5" overflow="visible" markerHeight="0.60000002" markerWidth="0.60000002" orient="auto-start-reverse" preserveAspectRatio="xMidYMid" viewBox="0 0 1 1"><path transform="scale(.7)" d="m-2-4 11 4-11 4c2-2.33 2-5.66 0-8z" fill="context-stroke" fill-rule="evenodd"/></marker></defs><g transform="translate(-544.9 -54.901)" stroke-linecap="round" stroke-linejoin="round"><text x="574.05518" y="56.936417" fill="none" font-family="Arial" font-size="1.4111px" font-weight="bold" stroke="#000000" stroke-width=".19844" xml:space="preserve"><tspan x="574.05518" y="56.936417" fill="#000000" font-family="sans-serif" font-style="italic" font-weight="normal" stroke="none" stroke-width=".19844" text-align="center" text-anchor="middle">Capacitors</tspan></text><text x="554" y="63.985302" fill="none" font-family="Arial" font-size="1.4111px" font-weight="bold" stroke="#000000" stroke-width=".19844" xml:space="preserve"><tspan x="554" y="63.985302" fill="#000000" font-family="sans-serif" font-style="italic" font-weight="normal" stroke="none" stroke-width=".19844" text-align="center" text-anchor="middle">MOS capacitors</tspan></text><text x="574" y="63.999996" fill="none" font-family="Arial" font-size="1.4111px" font-weight="bold" stroke="#000000" stroke-width=".19844" xml:space="preserve"><tspan x="574" y="63.999996" fill="#000000" font-family="sans-serif" font-style="italic" font-weight="normal" stroke="none" stroke-width=".19844" text-align="center" text-anchor="middle">MIM capacitors</tspan></text><text x="594" y="63.999996" fill="none" font-family="Arial" font-size="1.4111px" font-weight="bold" stroke="#000000" stroke-width=".19844" xml:space="preserve"><tspan x="594" y="63.999996" fill="#000000" font-family="sans-serif" font-style="italic" font-weight="normal" stroke="none" stroke-width=".19844" text-align="center" text-anchor="middle">MOM capacitors</tspan></text><text x="567" y="65" fill="#000000" font-family="sans-serif" font-size="1.4111px" stroke-width=".198" xml:space="preserve"><tspan x="567" y="65"/><tspan x="567" y="66.763885" fill="#00c800" font-size="1.0583px">+ High capacitance density</tspan><tspan x="567" y="68.527779" fill="#00c800" font-size="1.0583px">+ High Q (good for RF)</tspan><tspan x="567" y="70.291664" fill="#00c800" font-size="1.0583px">+ High linearity</tspan><tspan x="567" y="72.05555" fill="#00c800" font-size="1.0583px">+ High stability</tspan><tspan x="567" y="73.819435" fill="#c80000" font-size="1.0583px">- Bottom plate parasitics</tspan><tspan x="567" y="75.583328" fill="#c80000" font-size="1.0583px">- Require extra mask (cost)</tspan><tspan x="567" y="77.347214" fill="#c80000" font-size="1.0583px"/><tspan x="567" y="79.111099" font-size="1.0583px"/></text><rect x="545" y="62" width="18" height="3" fill="none" stroke="#000" stroke-width=".198"/><rect x="565" y="62" width="18" height="3" fill="none" stroke="#000" stroke-width=".198"/><rect x="585" y="62" width="18" height="3" fill="none" stroke="#000" stroke-width=".198"/><rect x="565" y="55" width="18" height="3" fill="none" stroke="#000" stroke-width=".198"/><path d="m577 58c0.76431 1 1.559 1.2072 2.5756 1.3607 3.0304 0.45742 15.457 0.45742 15.457 1.8438" fill="none" marker-end="url(#ConcaveTriangle-16-42-5-1-1-7-6-6-2-1-6-9-3-7-3-7-8-93-94-8-0-9-2-6)" stroke="#000" stroke-width=".198"/><path d="m573 58c-0.76431 1-1.559 1.2072-2.5756 1.3607-3.0304 0.45742-15.457 0.45742-15.457 1.8438" fill="none" marker-end="url(#ConcaveTriangle-16-42-5-1-1-7-6-6-2-1-6-9-3-7-3-7-8-93-94-8-0-9-2-6-5)" stroke="#000" stroke-width=".198"/><path d="m575 57.983v3.3009" fill="none" marker-end="url(#ConcaveTriangle-16-42-5-1-1-7-6-6-2-1-6-9-3-7-3-7-8-93-94-8-4)" stroke="#000" stroke-width=".19791"/><text x="586.92096" y="65.040192" fill="#000000" font-family="sans-serif" font-size="1.4111px" stroke-width=".198" xml:space="preserve"><tspan x="586.92096" y="65.040192"/><tspan x="586.92096" y="66.804077" fill="#00c800" font-size="1.0583px">+ High capacitance density</tspan><tspan x="586.92096" y="68.56797" fill="#00c800" font-size="1.0583px">+ Doesn't require extra </tspan><tspan x="586.92096" y="70.331856" fill="#00c800" font-size="1.0583px">mask (cost)</tspan><tspan x="586.92096" y="72.095741" fill="#00c800" font-size="1.0583px">+ High Q (good for RF)</tspan><tspan x="586.92096" y="73.859627" fill="#c80000" font-size="1.0583px">- High parasitic R and L</tspan><tspan x="586.92096" y="75.62352" fill="#c80000" font-size="1.0583px">- Low breakdown voltage</tspan><tspan x="586.92096" y="77.387405" fill="#c80000" font-size="1.0583px"/><tspan x="586.92096" y="79.151291" fill="#c80000" font-size="1.0583px"/><tspan x="586.92096" y="80.915176" font-size="1.0583px"/></text><text x="545.92096" y="65.040192" fill="#000000" font-family="sans-serif" font-size="1.4111px" stroke-width=".198" xml:space="preserve"><tspan x="545.92096" y="65.040192"/><tspan x="545.92096" y="66.804077" fill="#00c800" font-size="1.0583px">+ High capacitance density</tspan><tspan x="545.92096" y="68.56797" fill="#00c800" font-size="1.0583px">+ Doesn't require extra </tspan><tspan x="545.92096" y="70.331856" fill="#00c800" font-size="1.0583px">mask (cost) </tspan><tspan x="545.92096" y="72.095741" fill="#c80000" font-size="1.0583px">- Bottom plate parasitics</tspan><tspan x="545.92096" y="73.859627" fill="#c80000" font-size="1.0583px">- Capacitance variation with voltage</tspan><tspan x="545.92096" y="75.62352" fill="#c80000" font-size="1.0583px"/><tspan x="545.92096" y="77.387405" font-size="1.0583px"/></text></g></svg>
