<svg width="24.644mm" height="10.835mm" version="1.1" viewBox="0 0 24.644 10.835" xml:space="preserve" xmlns="http://www.w3.org/2000/svg"><defs><marker id="ConcaveTriangle-16-42-5-1-1-7-6-6-2-1-6-9-3-7-3-7-8-93-94-8-4" overflow="visible" markerHeight="0.60000002" markerWidth="0.60000002" orient="auto-start-reverse" preserveAspectRatio="xMidYMid" viewBox="0 0 1 1"><path transform="scale(.7)" d="m-2-4 11 4-11 4c2-2.33 2-5.66 0-8z" fill="context-stroke" fill-rule="evenodd"/></marker><marker id="ConcaveTriangle-16-42-5-1-1-7-6-6-2-1-6-9-3-7-3-7-8-93-94-8-4-2" overflow="visible" markerHeight="0.60000002" markerWidth="0.60000002" orient="auto-start-reverse" preserveAspectRatio="xMidYMid" viewBox="0 0 1 1"><path transform="scale(.7)" d="m-2-4 11 4-11 4c2-2.33 2-5.66 0-8z" fill="context-stroke" fill-rule="evenodd"/></marker><marker id="ConcaveTriangle-16-42-5-1-1-7-6-6-2-1-6-9-3-7-3-7-8-93-94-8-4-6" overflow="visible" markerHeight="0.60000002" markerWidth="0.60000002" orient="auto-start-reverse" preserveAspectRatio="xMidYMid" viewBox="0 0 1 1"><path transform="scale(.7)" d="m-2-4 11 4-11 4c2-2.33 2-5.66 0-8z" fill="context-stroke" fill-rule="evenodd"/></marker></defs><g transform="translate(-16.206 -184.18)"><path d="m20 190h17" fill="none" stroke="#000" stroke-linecap="round" stroke-linejoin="round" stroke-width=".19844" style="paint-order:markers stroke fill"/><path d="m17 187.5v-2.4957 1" fill="none" stroke="#000" stroke-linecap="round" stroke-linejoin="round" stroke-width=".19844" style="paint-order:markers stroke fill"/><path d="m21 190v-3" fill="none" stroke="#000" stroke-linecap="round" stroke-linejoin="round" stroke-width=".19844" style="paint-order:markers stroke fill"/><path d="m17 187h4" fill="none" stroke="#000" stroke-linecap="round" stroke-linejoin="round" stroke-width=".19844" style="paint-order:markers stroke fill"/><circle cx="17" cy="187" r=".29766"/><circle cx="21" cy="190" r=".29766"/><circle cx="21" cy="190" r=".29766"/><path d="m30 187.5v-2.4957" fill="none" stroke="#000" stroke-linecap="round" stroke-linejoin="round" stroke-width=".19844" style="paint-order:markers stroke fill"/><path d="m40 187.5v-2.4957" fill="none" stroke="#000" stroke-linecap="round" stroke-linejoin="round" stroke-width=".19844" style="paint-order:markers stroke fill"/><text x="16.155499" y="195" fill="#b7e07b" font-family="Inter" font-size="1.4111px" stroke-linecap="round" stroke-linejoin="round" stroke-width=".19844" style="paint-order:markers stroke fill" xml:space="preserve"><tspan x="16.155499" y="195" fill="#b7e07b" font-weight="bold" stroke-width=".19844">2A</tspan></text><text x="29.155499" y="195" fill="#7be0d7" font-family="Inter" font-size="1.4111px" stroke-linecap="round" stroke-linejoin="round" stroke-width=".19844" style="paint-order:markers stroke fill" xml:space="preserve"><tspan x="29.155499" y="195" fill="#7be0d7" font-weight="bold" stroke-width=".19844">4B</tspan></text><text x="39" y="195" fill="#a47be0" font-family="Inter" font-size="1.4111px" stroke-linecap="round" stroke-linejoin="round" stroke-width=".19844" style="paint-order:markers stroke fill" xml:space="preserve"><tspan x="39" y="195" fill="#a47be0" font-weight="bold" stroke-width=".19844">8C</tspan></text><path d="m30 192.5v-1.3604" fill="none" stroke="#000" stroke-linecap="round" stroke-linejoin="bevel" stroke-width=".19844" style="paint-order:normal"/><path d="m30 187.5v1.4675" fill="none" stroke="#000" stroke-linecap="round" stroke-width=".19844"/><path d="m28.48 191.61v-3.2178" fill="none" stroke="#000" stroke-linecap="round" stroke-width=".19844"/><path d="m27.995 188.39v3.2178" fill="none" stroke="#000" stroke-linecap="round" stroke-width=".19844"/><path d="m27 190 0.97902-1e-5" fill="none" stroke="#000" stroke-linecap="round" stroke-width=".19844"/><path d="m30 188.96h-1.4978" fill="none" stroke="#000" stroke-linecap="round" stroke-width=".19844"/><path d="m29.293 191.14h-0.69408" fill="none" marker-start="url(#ConcaveTriangle-16-42-5-1-1-7-6-6-2-1-6-9-3-7-3-7-8-93-94-8-4)" stroke="#000" stroke-linecap="round" stroke-linejoin="round" stroke-width=".19844"/><path d="m40 192.5v-1.3604" fill="none" stroke="#000" stroke-linecap="round" stroke-linejoin="bevel" stroke-width=".19844" style="paint-order:normal"/><path d="m40 187.5v1.4675" fill="none" stroke="#000" stroke-linecap="round" stroke-width=".19844"/><path d="m38.48 191.61v-3.2178" fill="none" stroke="#000" stroke-linecap="round" stroke-width=".19844"/><path d="m37.995 188.39v3.2178" fill="none" stroke="#000" stroke-linecap="round" stroke-width=".19844"/><path d="m37 190 0.97902-1e-5" fill="none" stroke="#000" stroke-linecap="round" stroke-width=".19844"/><path d="m40 188.96h-1.4978" fill="none" stroke="#000" stroke-linecap="round" stroke-width=".19844"/><path d="m39.293 191.14h-0.69408" fill="none" marker-start="url(#ConcaveTriangle-16-42-5-1-1-7-6-6-2-1-6-9-3-7-3-7-8-93-94-8-4-2)" stroke="#000" stroke-linecap="round" stroke-linejoin="round" stroke-width=".19844"/><path d="m17 192.5v-1.3604" fill="none" stroke="#000" stroke-linecap="round" stroke-linejoin="bevel" stroke-width=".19844" style="paint-order:normal"/><path d="m17 187.5v1.4675" fill="none" stroke="#000" stroke-linecap="round" stroke-width=".19844"/><path d="m18.52 191.61v-3.2178" fill="none" stroke="#000" stroke-linecap="round" stroke-width=".19844"/><path d="m19.005 188.39v3.2178" fill="none" stroke="#000" stroke-linecap="round" stroke-width=".19844"/><path d="m20 190-0.97902-1e-5" fill="none" stroke="#000" stroke-linecap="round" stroke-width=".19844"/><path d="m17 188.96h1.4978" fill="none" stroke="#000" stroke-linecap="round" stroke-width=".19844"/><path d="m17.707 191.14h0.69408" fill="none" marker-start="url(#ConcaveTriangle-16-42-5-1-1-7-6-6-2-1-6-9-3-7-3-7-8-93-94-8-4-6)" stroke="#000" stroke-linecap="round" stroke-linejoin="round" stroke-width=".19844"/><g transform="matrix(-.44713 0 0 .44713 46.139 147.59)" stroke-width=".4438"><title>GND</title><g transform="translate(-.26259 -.11701)" stroke-width=".4438"><g transform="translate(33.547 3.5594)" fill="none" stroke="#000" stroke-linecap="round" stroke-width=".4438"><path d="m31.884 97.901v-0.91358" stroke-linejoin="round"/><path d="m30.561 97.901h2.6458"/><path d="m31.884 99.224 1.3229-1.3229"/><path d="m30.561 97.901 1.3229 1.3229"/></g></g><title>GND</title></g><g transform="matrix(-.44713 0 0 .44713 59.139 147.59)" stroke-width=".4438"><title>GND</title><g transform="translate(-.26259 -.11701)" stroke-width=".4438"><g transform="translate(33.547 3.5594)" fill="none" stroke="#000" stroke-linecap="round" stroke-width=".4438"><path d="m31.884 97.901v-0.91358" stroke-linejoin="round"/><path d="m30.561 97.901h2.6458"/><path d="m31.884 99.224 1.3229-1.3229"/><path d="m30.561 97.901 1.3229 1.3229"/></g></g><title>GND</title></g><g transform="matrix(-.44713 0 0 .44713 69.139 147.59)" stroke-width=".4438"><title>GND</title><g transform="translate(-.26259 -.11701)" stroke-width=".4438"><g transform="translate(33.547 3.5594)" fill="none" stroke="#000" stroke-linecap="round" stroke-width=".4438"><path d="m31.884 97.901v-0.91358" stroke-linejoin="round"/><path d="m30.561 97.901h2.6458"/><path d="m31.884 99.224 1.3229-1.3229"/><path d="m30.561 97.901 1.3229 1.3229"/></g></g><title>GND</title></g><circle cx="17" cy="184.64" r=".35968" fill="none" stroke="#000" stroke-linecap="round" stroke-linejoin="bevel" stroke-width=".19844" style="paint-order:normal"/><circle cx="30" cy="184.64" r=".35968" fill="none" stroke="#000" stroke-linecap="round" stroke-linejoin="bevel" stroke-width=".19844" style="paint-order:normal"/><circle cx="40" cy="184.64" r=".35968" fill="none" stroke="#000" stroke-linecap="round" stroke-linejoin="bevel" stroke-width=".19844" style="paint-order:normal"/></g></svg>
