<svg width="52.251mm" height="40.856mm" version="1.1" viewBox="0 0 52.251 40.856" xml:space="preserve" xmlns="http://www.w3.org/2000/svg"><defs><marker id="ConcaveTriangle-16-42-5-1-1-7-6-6-2-1-6-9-3-7-3-7-8-93-94-8-4-8-2-8-9-3" overflow="visible" markerHeight="0.60000002" markerWidth="0.60000002" orient="auto-start-reverse" preserveAspectRatio="xMidYMid" viewBox="0 0 1 1"><path transform="scale(.7)" d="m-2-4 11 4-11 4c2-2.33 2-5.66 0-8z" fill="context-stroke" fill-rule="evenodd"/></marker><marker id="ConcaveTriangle-16-42-5-1-1-7-6-6-2-1-6-9-3-7-3-7-8-93-94-8-4-8-2-8-9-7-2" overflow="visible" markerHeight="0.60000002" markerWidth="0.60000002" orient="auto-start-reverse" preserveAspectRatio="xMidYMid" viewBox="0 0 1 1"><path transform="scale(.7)" d="m-2-4 11 4-11 4c2-2.33 2-5.66 0-8z" fill="context-stroke" fill-rule="evenodd"/></marker><marker id="ConcaveTriangle-16-42-5-1-1-7-6-6-2-1-6-9-3-7-3-7-8-93-94-8-4-22-2-7-1-7" overflow="visible" markerHeight="0.60000002" markerWidth="0.60000002" orient="auto-start-reverse" preserveAspectRatio="xMidYMid" viewBox="0 0 1 1"><path transform="scale(.7)" d="m-2-4 11 4-11 4c2-2.33 2-5.66 0-8z" fill="context-stroke" fill-rule="evenodd"/></marker><marker id="ConcaveTriangle-16-42-5-1-1-7-6-6-2-1-6-9-3-7-3-7-8-93-94-8-4-22-2-7-1-4-1" overflow="visible" markerHeight="0.60000002" markerWidth="0.60000002" orient="auto-start-reverse" preserveAspectRatio="xMidYMid" viewBox="0 0 1 1"><path transform="scale(.7)" d="m-2-4 11 4-11 4c2-2.33 2-5.66 0-8z" fill="context-stroke" fill-rule="evenodd"/></marker></defs><g transform="translate(-714.37 -337.9)"><rect transform="scale(-1,1)" x="-763.61" y="338.03" width="46" height="24" fill="#96e196" opacity=".65"/><path d="m763.61 338.03h-46v23.868h46v-23.868" fill="none" opacity=".65" stroke="#000" stroke-linecap="round" stroke-linejoin="round" stroke-width=".26458"/><path d="m761.61 340.03h-42v19.86h42v-19.86" fill="none" opacity=".65" stroke="#000" stroke-linecap="round" stroke-linejoin="round" stroke-width=".26458"/><rect transform="scale(-1,1)" x="-761.06" y="338.6" width=".90101" height=".82837" stroke="#000" stroke-linecap="round" stroke-linejoin="round" stroke-width=".198"/><rect transform="scale(-1,1)" x="-758.95" y="338.58" width=".90101" height=".82837" stroke="#000" stroke-linecap="round" stroke-linejoin="round" stroke-width=".198"/><rect transform="scale(-1,1)" x="-756.95" y="338.58" width=".90101" height=".82837" stroke="#000" stroke-linecap="round" stroke-linejoin="round" stroke-width=".198"/><rect transform="scale(-1,1)" x="-754.95" y="338.58" width=".90101" height=".82837" stroke="#000" stroke-linecap="round" stroke-linejoin="round" stroke-width=".198"/><rect transform="scale(-1,1)" x="-752.95" y="338.58" width=".90101" height=".82837" stroke="#000" stroke-linecap="round" stroke-linejoin="round" stroke-width=".198"/><rect transform="scale(-1,1)" x="-750.9" y="338.58" width=".90101" height=".82837" stroke="#000" stroke-linecap="round" stroke-linejoin="round" stroke-width=".198"/><rect transform="scale(-1,1)" x="-748.9" y="338.58" width=".90101" height=".82837" stroke="#000" stroke-linecap="round" stroke-linejoin="round" stroke-width=".198"/><rect transform="scale(-1,1)" x="-746.9" y="338.58" width=".90101" height=".82837" stroke="#000" stroke-linecap="round" stroke-linejoin="round" stroke-width=".198"/><rect transform="scale(-1,1)" x="-744.9" y="338.58" width=".90101" height=".82837" stroke="#000" stroke-linecap="round" stroke-linejoin="round" stroke-width=".198"/><rect transform="scale(-1,1)" x="-742.94" y="338.58" width=".90101" height=".82837" stroke="#000" stroke-linecap="round" stroke-linejoin="round" stroke-width=".198"/><rect transform="scale(-1,1)" x="-740.94" y="338.58" width=".90101" height=".82837" stroke="#000" stroke-linecap="round" stroke-linejoin="round" stroke-width=".198"/><rect transform="scale(-1,1)" x="-738.94" y="338.58" width=".90101" height=".82837" stroke="#000" stroke-linecap="round" stroke-linejoin="round" stroke-width=".198"/><rect transform="scale(-1,1)" x="-736.94" y="338.58" width=".90101" height=".82837" stroke="#000" stroke-linecap="round" stroke-linejoin="round" stroke-width=".198"/><rect transform="scale(-1,1)" x="-734.89" y="338.58" width=".90101" height=".82837" stroke="#000" stroke-linecap="round" stroke-linejoin="round" stroke-width=".198"/><rect transform="scale(-1,1)" x="-732.89" y="338.58" width=".90101" height=".82837" stroke="#000" stroke-linecap="round" stroke-linejoin="round" stroke-width=".198"/><rect transform="scale(-1,1)" x="-730.89" y="338.58" width=".90101" height=".82837" stroke="#000" stroke-linecap="round" stroke-linejoin="round" stroke-width=".198"/><rect transform="scale(-1,1)" x="-728.89" y="338.58" width=".90101" height=".82837" stroke="#000" stroke-linecap="round" stroke-linejoin="round" stroke-width=".198"/><rect transform="scale(-1,1)" x="-726.72" y="338.56" width=".90101" height=".82837" stroke="#000" stroke-linecap="round" stroke-linejoin="round" stroke-width=".198"/><rect transform="scale(-1,1)" x="-724.76" y="338.56" width=".90101" height=".82837" stroke="#000" stroke-linecap="round" stroke-linejoin="round" stroke-width=".198"/><rect transform="scale(-1,1)" x="-722.76" y="338.56" width=".90101" height=".82837" stroke="#000" stroke-linecap="round" stroke-linejoin="round" stroke-width=".198"/><rect transform="scale(-1,1)" x="-720.76" y="338.56" width=".90101" height=".82837" stroke="#000" stroke-linecap="round" stroke-linejoin="round" stroke-width=".198"/><rect transform="scale(-1,1)" x="-761.1" y="360.51" width=".90101" height=".82837" stroke="#000" stroke-linecap="round" stroke-linejoin="round" stroke-width=".198"/><rect transform="scale(-1,1)" x="-758.99" y="360.48" width=".90101" height=".82837" stroke="#000" stroke-linecap="round" stroke-linejoin="round" stroke-width=".198"/><rect transform="scale(-1,1)" x="-756.99" y="360.48" width=".90101" height=".82837" stroke="#000" stroke-linecap="round" stroke-linejoin="round" stroke-width=".198"/><rect transform="scale(-1,1)" x="-754.99" y="360.48" width=".90101" height=".82837" stroke="#000" stroke-linecap="round" stroke-linejoin="round" stroke-width=".198"/><rect transform="scale(-1,1)" x="-752.99" y="360.48" width=".90101" height=".82837" stroke="#000" stroke-linecap="round" stroke-linejoin="round" stroke-width=".198"/><rect transform="scale(-1,1)" x="-750.94" y="360.48" width=".90101" height=".82837" stroke="#000" stroke-linecap="round" stroke-linejoin="round" stroke-width=".198"/><rect transform="scale(-1,1)" x="-748.94" y="360.48" width=".90101" height=".82837" stroke="#000" stroke-linecap="round" stroke-linejoin="round" stroke-width=".198"/><rect transform="scale(-1,1)" x="-746.94" y="360.48" width=".90101" height=".82837" stroke="#000" stroke-linecap="round" stroke-linejoin="round" stroke-width=".198"/><rect transform="scale(-1,1)" x="-744.94" y="360.48" width=".90101" height=".82837" stroke="#000" stroke-linecap="round" stroke-linejoin="round" stroke-width=".198"/><rect transform="scale(-1,1)" x="-742.98" y="360.48" width=".90101" height=".82837" stroke="#000" stroke-linecap="round" stroke-linejoin="round" stroke-width=".198"/><rect transform="scale(-1,1)" x="-740.98" y="360.48" width=".90101" height=".82837" stroke="#000" stroke-linecap="round" stroke-linejoin="round" stroke-width=".198"/><rect transform="scale(-1,1)" x="-738.98" y="360.48" width=".90101" height=".82837" stroke="#000" stroke-linecap="round" stroke-linejoin="round" stroke-width=".198"/><rect transform="scale(-1,1)" x="-736.98" y="360.48" width=".90101" height=".82837" stroke="#000" stroke-linecap="round" stroke-linejoin="round" stroke-width=".198"/><rect transform="scale(-1,1)" x="-734.93" y="360.48" width=".90101" height=".82837" stroke="#000" stroke-linecap="round" stroke-linejoin="round" stroke-width=".198"/><rect transform="scale(-1,1)" x="-732.93" y="360.48" width=".90101" height=".82837" stroke="#000" stroke-linecap="round" stroke-linejoin="round" stroke-width=".198"/><rect transform="scale(-1,1)" x="-730.93" y="360.48" width=".90101" height=".82837" stroke="#000" stroke-linecap="round" stroke-linejoin="round" stroke-width=".198"/><rect transform="scale(-1,1)" x="-728.93" y="360.48" width=".90101" height=".82837" stroke="#000" stroke-linecap="round" stroke-linejoin="round" stroke-width=".198"/><rect transform="scale(-1,1)" x="-726.76" y="360.46" width=".90101" height=".82837" stroke="#000" stroke-linecap="round" stroke-linejoin="round" stroke-width=".198"/><rect transform="scale(-1,1)" x="-724.8" y="360.46" width=".90101" height=".82837" stroke="#000" stroke-linecap="round" stroke-linejoin="round" stroke-width=".198"/><rect transform="scale(-1,1)" x="-722.8" y="360.46" width=".90101" height=".82837" stroke="#000" stroke-linecap="round" stroke-linejoin="round" stroke-width=".198"/><rect transform="scale(-1,1)" x="-720.8" y="360.46" width=".90101" height=".82837" stroke="#000" stroke-linecap="round" stroke-linejoin="round" stroke-width=".198"/><rect transform="matrix(0,-1,-1,0,0,0)" x="-359.42" y="-719" width=".90101" height=".82837" stroke="#000" stroke-linecap="round" stroke-linejoin="round" stroke-width=".198"/><rect transform="matrix(0,-1,-1,0,0,0)" x="-357.42" y="-719" width=".90101" height=".82837" stroke="#000" stroke-linecap="round" stroke-linejoin="round" stroke-width=".198"/><rect transform="matrix(0,-1,-1,0,0,0)" x="-355.37" y="-719" width=".90101" height=".82837" stroke="#000" stroke-linecap="round" stroke-linejoin="round" stroke-width=".198"/><rect transform="matrix(0,-1,-1,0,0,0)" x="-353.37" y="-719" width=".90101" height=".82837" stroke="#000" stroke-linecap="round" stroke-linejoin="round" stroke-width=".198"/><rect transform="matrix(0,-1,-1,0,0,0)" x="-351.37" y="-719" width=".90101" height=".82837" stroke="#000" stroke-linecap="round" stroke-linejoin="round" stroke-width=".198"/><rect transform="matrix(0,-1,-1,0,0,0)" x="-349.37" y="-719" width=".90101" height=".82837" stroke="#000" stroke-linecap="round" stroke-linejoin="round" stroke-width=".198"/><rect transform="matrix(0,-1,-1,0,0,0)" x="-347.2" y="-719.02" width=".90101" height=".82837" stroke="#000" stroke-linecap="round" stroke-linejoin="round" stroke-width=".198"/><rect transform="matrix(0,-1,-1,0,0,0)" x="-345.24" y="-719.02" width=".90101" height=".82837" stroke="#000" stroke-linecap="round" stroke-linejoin="round" stroke-width=".198"/><rect transform="matrix(0,-1,-1,0,0,0)" x="-343.24" y="-719.02" width=".90101" height=".82837" stroke="#000" stroke-linecap="round" stroke-linejoin="round" stroke-width=".198"/><rect transform="matrix(0,-1,-1,0,0,0)" x="-341.24" y="-719.02" width=".90101" height=".82837" stroke="#000" stroke-linecap="round" stroke-linejoin="round" stroke-width=".198"/><rect transform="matrix(0,-1,-1,0,0,0)" x="-359.53" y="-763.02" width=".90101" height=".82837" stroke="#000" stroke-linecap="round" stroke-linejoin="round" stroke-width=".198"/><rect transform="matrix(0,-1,-1,0,0,0)" x="-357.53" y="-763.02" width=".90101" height=".82837" stroke="#000" stroke-linecap="round" stroke-linejoin="round" stroke-width=".198"/><rect transform="matrix(0,-1,-1,0,0,0)" x="-355.48" y="-763.02" width=".90101" height=".82837" stroke="#000" stroke-linecap="round" stroke-linejoin="round" stroke-width=".198"/><rect transform="matrix(0,-1,-1,0,0,0)" x="-353.48" y="-763.02" width=".90101" height=".82837" stroke="#000" stroke-linecap="round" stroke-linejoin="round" stroke-width=".198"/><rect transform="matrix(0,-1,-1,0,0,0)" x="-351.48" y="-763.02" width=".90101" height=".82837" stroke="#000" stroke-linecap="round" stroke-linejoin="round" stroke-width=".198"/><rect transform="matrix(0,-1,-1,0,0,0)" x="-349.48" y="-763.02" width=".90101" height=".82837" stroke="#000" stroke-linecap="round" stroke-linejoin="round" stroke-width=".198"/><rect transform="matrix(0,-1,-1,0,0,0)" x="-347.3" y="-763.04" width=".90101" height=".82837" stroke="#000" stroke-linecap="round" stroke-linejoin="round" stroke-width=".198"/><rect transform="matrix(0,-1,-1,0,0,0)" x="-345.34" y="-763.04" width=".90101" height=".82837" stroke="#000" stroke-linecap="round" stroke-linejoin="round" stroke-width=".198"/><rect transform="matrix(0,-1,-1,0,0,0)" x="-343.34" y="-763.04" width=".90101" height=".82837" stroke="#000" stroke-linecap="round" stroke-linejoin="round" stroke-width=".198"/><rect transform="matrix(0,-1,-1,0,0,0)" x="-341.34" y="-763.04" width=".90101" height=".82837" stroke="#000" stroke-linecap="round" stroke-linejoin="round" stroke-width=".198"/><rect transform="matrix(0,-1,-1,0,0,0)" x="-355.02" y="-756.41" width="10.02" height="7.8016" fill="#c8c8c8" stroke="#000" stroke-linecap="round" stroke-linejoin="round" stroke-width=".19844"/><rect transform="matrix(0,-1,-1,0,0,0)" x="-355.92" y="-753.51" width="11.822" height="2" fill="#c8c8c8" stroke="#000" stroke-linecap="round" stroke-linejoin="round" stroke-width=".198"/><rect transform="matrix(0,-1,-1,0,0,0)" x="-353.97" y="-755.77" width="7.9688" height="1.5014" fill="#e1e1e1" stroke="#000" stroke-linecap="round" stroke-linejoin="round" stroke-width=".198"/><rect transform="matrix(0,-1,-1,0,0,0)" x="-353.47" y="-755.44" width=".90101" height=".82837" stroke="#000" stroke-linecap="round" stroke-linejoin="round" stroke-width=".198"/><rect transform="matrix(0,-1,-1,0,0,0)" x="-351.47" y="-755.44" width=".90101" height=".82837" stroke="#000" stroke-linecap="round" stroke-linejoin="round" stroke-width=".198"/><rect transform="matrix(0,-1,-1,0,0,0)" x="-349.47" y="-755.44" width=".90101" height=".82837" stroke="#000" stroke-linecap="round" stroke-linejoin="round" stroke-width=".198"/><rect transform="matrix(0,-1,-1,0,0,0)" x="-347.47" y="-755.44" width=".90101" height=".82837" stroke="#000" stroke-linecap="round" stroke-linejoin="round" stroke-width=".198"/><rect transform="rotate(-90)" x="-355.02" y="724.01" width="10.02" height="7.8016" fill="#c8c8c8" stroke="#000" stroke-linecap="round" stroke-linejoin="round" stroke-width=".19844"/><rect transform="rotate(-90)" x="-355.92" y="726.91" width="11.822" height="2" fill="#c8c8c8" stroke="#000" stroke-linecap="round" stroke-linejoin="round" stroke-width=".198"/><rect transform="rotate(-90)" x="-353.97" y="724.64" width="7.9688" height="1.5014" fill="#e1e1e1" stroke="#000" stroke-linecap="round" stroke-linejoin="round" stroke-width=".198"/><rect transform="rotate(-90)" x="-353.47" y="724.97" width=".90101" height=".82837" stroke="#000" stroke-linecap="round" stroke-linejoin="round" stroke-width=".198"/><rect transform="rotate(-90)" x="-351.47" y="724.97" width=".90101" height=".82837" stroke="#000" stroke-linecap="round" stroke-linejoin="round" stroke-width=".198"/><rect transform="rotate(-90)" x="-349.47" y="724.97" width=".90101" height=".82837" stroke="#000" stroke-linecap="round" stroke-linejoin="round" stroke-width=".198"/><rect transform="rotate(-90)" x="-347.47" y="724.97" width=".90101" height=".82837" stroke="#000" stroke-linecap="round" stroke-linejoin="round" stroke-width=".198"/><rect transform="rotate(-90)" x="-355.02" y="728.91" width="10.02" height="7.8016" fill="#e13200" stroke="#000" stroke-linecap="round" stroke-linejoin="round" stroke-width=".19844"/><rect transform="rotate(-90)" x="-355.92" y="731.81" width="11.822" height="2" fill="#c8c8c8" stroke="#000" stroke-linecap="round" stroke-linejoin="round" stroke-width=".198"/><rect transform="rotate(-90)" x="-353.97" y="729.55" width="7.9688" height="1.5014" fill="#ffffaf" stroke="#000" stroke-linecap="round" stroke-linejoin="round" stroke-width=".198"/><rect transform="rotate(-90)" x="-353.47" y="729.87" width=".90101" height=".82837" stroke="#000" stroke-linecap="round" stroke-linejoin="round" stroke-width=".198"/><rect transform="rotate(-90)" x="-351.47" y="729.87" width=".90101" height=".82837" stroke="#000" stroke-linecap="round" stroke-linejoin="round" stroke-width=".198"/><rect transform="rotate(-90)" x="-349.47" y="729.87" width=".90101" height=".82837" stroke="#000" stroke-linecap="round" stroke-linejoin="round" stroke-width=".198"/><rect transform="rotate(-90)" x="-347.47" y="729.87" width=".90101" height=".82837" stroke="#000" stroke-linecap="round" stroke-linejoin="round" stroke-width=".198"/><rect transform="rotate(-90)" x="-355.02" y="733.81" width="10.02" height="7.8016" fill="#0096c8" stroke="#000" stroke-linecap="round" stroke-linejoin="round" stroke-width=".19844"/><rect transform="rotate(-90)" x="-355.92" y="736.71" width="11.822" height="2" fill="#c8c8c8" stroke="#000" stroke-linecap="round" stroke-linejoin="round" stroke-width=".198"/><rect transform="rotate(-90)" x="-353.97" y="734.46" width="7.9688" height="1.5014" fill="#ffffaf" stroke="#000" stroke-linecap="round" stroke-linejoin="round" stroke-width=".198"/><rect transform="rotate(-90)" x="-353.47" y="734.79" width=".90101" height=".82837" stroke="#000" stroke-linecap="round" stroke-linejoin="round" stroke-width=".198"/><rect transform="rotate(-90)" x="-351.47" y="734.79" width=".90101" height=".82837" stroke="#000" stroke-linecap="round" stroke-linejoin="round" stroke-width=".198"/><rect transform="rotate(-90)" x="-349.47" y="734.79" width=".90101" height=".82837" stroke="#000" stroke-linecap="round" stroke-linejoin="round" stroke-width=".198"/><rect transform="rotate(-90)" x="-347.47" y="734.79" width=".90101" height=".82837" stroke="#000" stroke-linecap="round" stroke-linejoin="round" stroke-width=".198"/><text x="737.84454" y="358.02591" fill="none" font-family="Arial" font-size="1.4111px" font-weight="bold" stroke="#000000" stroke-linecap="round" stroke-linejoin="round" stroke-width=".19844" xml:space="preserve"><tspan x="737.84454" y="358.02591" fill="#0096c8" font-family="sans-serif" font-weight="bold" stroke="none" stroke-width=".19844" text-align="center" text-anchor="middle">A</tspan></text><rect transform="matrix(0,-1,-1,0,0,0)" x="-355.02" y="-751.41" width="10.02" height="7.8016" fill="#e13200" stroke="#000" stroke-linecap="round" stroke-linejoin="round" stroke-width=".19844"/><rect transform="matrix(0,-1,-1,0,0,0)" x="-355.92" y="-748.51" width="11.822" height="2" fill="#c8c8c8" stroke="#000" stroke-linecap="round" stroke-linejoin="round" stroke-width=".198"/><rect transform="matrix(0,-1,-1,0,0,0)" x="-353.97" y="-750.77" width="7.9688" height="1.5014" fill="#ffffaf" stroke="#000" stroke-linecap="round" stroke-linejoin="round" stroke-width=".198"/><rect transform="matrix(0,-1,-1,0,0,0)" x="-353.47" y="-750.44" width=".90101" height=".82837" stroke="#000" stroke-linecap="round" stroke-linejoin="round" stroke-width=".198"/><rect transform="matrix(0,-1,-1,0,0,0)" x="-351.47" y="-750.44" width=".90101" height=".82837" stroke="#000" stroke-linecap="round" stroke-linejoin="round" stroke-width=".198"/><rect transform="matrix(0,-1,-1,0,0,0)" x="-349.47" y="-750.44" width=".90101" height=".82837" stroke="#000" stroke-linecap="round" stroke-linejoin="round" stroke-width=".198"/><rect transform="matrix(0,-1,-1,0,0,0)" x="-347.47" y="-750.44" width=".90101" height=".82837" stroke="#000" stroke-linecap="round" stroke-linejoin="round" stroke-width=".198"/><rect transform="matrix(0,-1,-1,0,0,0)" x="-355.02" y="-746.51" width="10.02" height="7.8016" fill="#0096c8" stroke="#000" stroke-linecap="round" stroke-linejoin="round" stroke-width=".19844"/><rect transform="matrix(0,-1,-1,0,0,0)" x="-355.92" y="-743.61" width="11.822" height="2" fill="#c8c8c8" stroke="#000" stroke-linecap="round" stroke-linejoin="round" stroke-width=".198"/><rect transform="matrix(0,-1,-1,0,0,0)" x="-353.97" y="-745.85" width="7.9688" height="1.5014" fill="#ffffaf" stroke="#000" stroke-linecap="round" stroke-linejoin="round" stroke-width=".198"/><rect transform="matrix(0,-1,-1,0,0,0)" x="-353.47" y="-745.52" width=".90101" height=".82837" stroke="#000" stroke-linecap="round" stroke-linejoin="round" stroke-width=".198"/><rect transform="matrix(0,-1,-1,0,0,0)" x="-351.47" y="-745.52" width=".90101" height=".82837" stroke="#000" stroke-linecap="round" stroke-linejoin="round" stroke-width=".198"/><rect transform="matrix(0,-1,-1,0,0,0)" x="-349.47" y="-745.52" width=".90101" height=".82837" stroke="#000" stroke-linecap="round" stroke-linejoin="round" stroke-width=".198"/><rect transform="matrix(0,-1,-1,0,0,0)" x="-347.47" y="-745.52" width=".90101" height=".82837" stroke="#000" stroke-linecap="round" stroke-linejoin="round" stroke-width=".198"/><rect transform="matrix(0,-1,-1,0,0,0)" x="-353.97" y="-740.94" width="7.9688" height="1.5014" fill="#ffffaf" stroke="#000" stroke-linecap="round" stroke-linejoin="round" stroke-width=".198"/><rect transform="matrix(0,-1,-1,0,0,0)" x="-353.47" y="-740.61" width=".90101" height=".82837" stroke="#000" stroke-linecap="round" stroke-linejoin="round" stroke-width=".198"/><rect transform="matrix(0,-1,-1,0,0,0)" x="-351.47" y="-740.61" width=".90101" height=".82837" stroke="#000" stroke-linecap="round" stroke-linejoin="round" stroke-width=".198"/><rect transform="matrix(0,-1,-1,0,0,0)" x="-349.47" y="-740.61" width=".90101" height=".82837" stroke="#000" stroke-linecap="round" stroke-linejoin="round" stroke-width=".198"/><rect transform="matrix(0,-1,-1,0,0,0)" x="-347.47" y="-740.61" width=".90101" height=".82837" stroke="#000" stroke-linecap="round" stroke-linejoin="round" stroke-width=".198"/><text transform="scale(-1,1)" x="-742.47131" y="358.02591" fill="none" font-family="Arial" font-size="1.4111px" font-weight="bold" stroke="#000000" stroke-linecap="round" stroke-linejoin="round" stroke-width=".19844" xml:space="preserve"><tspan x="-742.47131" y="358.02591" fill="#0096c8" font-family="sans-serif" font-weight="bold" stroke="none" stroke-width=".19844" text-align="center" text-anchor="middle">A</tspan></text><text x="727.89526" y="358" fill="none" font-family="Arial" font-size="1.4111px" font-weight="bold" stroke="#000000" stroke-linecap="round" stroke-linejoin="round" stroke-width=".19844" xml:space="preserve"><tspan x="727.89526" y="358" fill="#969696" font-family="sans-serif" font-weight="bold" stroke="none" stroke-width=".19844" text-align="center" text-anchor="middle">D</tspan></text><text x="752.61481" y="358.02594" fill="none" font-family="Arial" font-size="1.4111px" font-weight="bold" stroke="#000000" stroke-linecap="round" stroke-linejoin="round" stroke-width=".19844" xml:space="preserve"><tspan x="752.61481" y="358.02594" fill="#969696" font-family="sans-serif" font-weight="bold" stroke="none" stroke-width=".19844" text-align="center" text-anchor="middle">D</tspan></text><text x="747.53125" y="358.03012" fill="none" font-family="Arial" font-size="1.4111px" font-weight="bold" stroke="#000000" stroke-linecap="round" stroke-linejoin="round" stroke-width=".19844" xml:space="preserve"><tspan x="747.53125" y="358.03012" fill="#e13200" font-family="sans-serif" font-weight="bold" stroke="none" stroke-width=".19844" text-align="center" text-anchor="middle">B</tspan></text><text x="732.81647" y="358.02594" fill="none" font-family="Arial" font-size="1.4111px" font-weight="bold" stroke="#000000" stroke-linecap="round" stroke-linejoin="round" stroke-width=".19844" xml:space="preserve"><tspan x="732.81647" y="358.02594" fill="#e13200" font-family="sans-serif" font-weight="bold" stroke="none" stroke-width=".19844" text-align="center" text-anchor="middle">B</tspan></text><text x="733" y="378.46756" fill="none" font-family="Arial" font-size="1.4111px" font-weight="bold" stroke="#000000" stroke-linecap="round" stroke-linejoin="round" stroke-width=".19844" xml:space="preserve"><tspan x="733" y="378.46756" fill="#0096c8" font-family="sans-serif" font-weight="bold" stroke="none" stroke-width=".19844" text-align="center" text-anchor="middle">A(2)</tspan></text><path d="m748 373.01h-1.4978" fill="none" stroke="#00c800" stroke-linecap="round" stroke-width=".19844"/><path d="m758 372.92h-2.5201" fill="none" stroke="#00c800" stroke-linecap="round" stroke-width=".19844"/><path d="m748 375.47v-1.828" fill="none" stroke="#e13200" stroke-linecap="round" stroke-linejoin="bevel" stroke-width=".19844" style="paint-order:normal"/><path d="m748 370v1.4675" fill="none" stroke="#e13200" stroke-linecap="round" stroke-width=".19844"/><path d="m746.48 374.11v-3.2178" fill="none" stroke="#e13200" stroke-linecap="round" stroke-width=".19844"/><path d="m745.99 370.9v3.2178" fill="none" stroke="#e13200" stroke-linecap="round" stroke-width=".19844"/><path d="m745 372.5 0.97902-1e-5" fill="none" stroke="#e13200" stroke-linecap="round" stroke-width=".19844"/><path d="m748 371.47h-1.4978" fill="none" stroke="#e13200" stroke-linecap="round" stroke-width=".19844"/><path d="m747.29 373.64h-0.69408" fill="none" marker-start="url(#ConcaveTriangle-16-42-5-1-1-7-6-6-2-1-6-9-3-7-3-7-8-93-94-8-4-8-2-8-9-3)" stroke="#e13200" stroke-linecap="round" stroke-linejoin="round" stroke-width=".19844"/><g transform="matrix(-.44713 0 0 .44713 777.14 330.56)" stroke="#00c800" stroke-width=".4438"><title>GND</title><g transform="translate(-.26259 -.11701)" stroke="#00c800" stroke-width=".4438"><g transform="translate(33.547 3.5594)" fill="none" stroke="#00c800" stroke-linecap="round" stroke-width=".4438"><path d="m31.884 97.901v-0.91358" stroke-linejoin="round"/><path d="m30.561 97.901h2.6458"/><path d="m31.884 99.224 1.3229-1.3229"/><path d="m30.561 97.901 1.3229 1.3229"/></g></g><title>GND</title></g><path d="m748 373.01h2v1" fill="none" stroke="#00c800" stroke-linecap="round" stroke-linejoin="round" stroke-width=".19844"/><g transform="matrix(-.44713 0 0 .44713 779.14 329.1)" stroke="#00c800" stroke-width=".4438"><title>GND</title><g transform="translate(-.26259 -.11701)" stroke="#00c800" stroke-width=".4438"><g transform="translate(33.547 3.5594)" fill="none" stroke="#00c800" stroke-linecap="round" stroke-width=".4438"><path d="m31.884 97.901v-0.91358" stroke-linejoin="round"/><path d="m30.561 97.901h2.6458"/><path d="m31.884 99.224 1.3229-1.3229"/><path d="m30.561 97.901 1.3229 1.3229"/></g></g><title>GND</title></g><path d="m733 373.01h1.4978" fill="none" stroke="#00c800" stroke-linecap="round" stroke-width=".19844"/><path d="m733 375.47v-1.828" stroke="#0096c8" stroke-linecap="round" stroke-linejoin="bevel" stroke-width=".19844" style="paint-order:normal"/><path d="m733 370v1.4675" stroke="#0096c8" stroke-linecap="round" stroke-width=".19844"/><path d="m734.52 374.11v-3.2178" stroke="#0096c8" stroke-linecap="round" stroke-width=".19844"/><path d="m735.01 370.9v3.2178" stroke="#0096c8" stroke-linecap="round" stroke-width=".19844"/><path d="m736 372.5-0.97902-1e-5" fill="none" stroke="#0096c8" stroke-linecap="round" stroke-width=".19844"/><path d="m733 371.47h1.4978" stroke="#0096c8" stroke-linecap="round" stroke-width=".19844"/><path d="m733.71 373.64h0.69408" marker-start="url(#ConcaveTriangle-16-42-5-1-1-7-6-6-2-1-6-9-3-7-3-7-8-93-94-8-4-8-2-8-9-7-2)" stroke="#0096c8" stroke-linecap="round" stroke-linejoin="round" stroke-width=".19844"/><g transform="matrix(.44713 0 0 .44713 703.86 330.56)" stroke="#00c800" stroke-width=".4438"><title>GND</title><g transform="translate(-.26259 -.11701)" stroke="#00c800" stroke-width=".4438"><g transform="translate(33.547 3.5594)" fill="none" stroke="#00c800" stroke-linecap="round" stroke-width=".4438"><path d="m31.884 97.901v-0.91358" stroke-linejoin="round"/><path d="m30.561 97.901h2.6458"/><path d="m31.884 99.224 1.3229-1.3229"/><path d="m30.561 97.901 1.3229 1.3229"/></g></g><title>GND</title></g><path d="m733 373.01h-2v1" fill="none" stroke="#00c800" stroke-linecap="round" stroke-linejoin="round" stroke-width=".19844"/><g transform="matrix(.44713 0 0 .44713 701.86 329.1)" stroke="#00c800" stroke-width=".4438"><title>GND</title><g transform="translate(-.26259 -.11701)" stroke="#00c800" stroke-width=".4438"><g transform="translate(33.547 3.5594)" fill="none" stroke="#00c800" stroke-linecap="round" stroke-width=".4438"><path d="m31.884 97.901v-0.91358" stroke-linejoin="round"/><path d="m30.561 97.901h2.6458"/><path d="m31.884 99.224 1.3229-1.3229"/><path d="m30.561 97.901 1.3229 1.3229"/></g></g><title>GND</title></g><path d="m745 372.5h-9" fill="none" stroke="#000" stroke-linecap="round" stroke-linejoin="round" stroke-width=".19844"/><circle cx="733" cy="366" r=".35968" fill="none" stroke="#000" stroke-linecap="round" stroke-linejoin="bevel" stroke-width=".19844" style="paint-order:normal"/><path d="m733 370v-3.6403" fill="#c8c8c8" stroke="#000" stroke-linecap="round" stroke-linejoin="round" stroke-width=".19844"/><path d="m733 369h4" fill="#c8c8c8" stroke="#000" stroke-linecap="round" stroke-linejoin="round" stroke-width=".19844"/><path d="m737 369v3.5044" fill="#c8c8c8" stroke="#000" stroke-linecap="round" stroke-linejoin="round" stroke-width=".19844"/><circle cx="733" cy="369" r=".29766"/><circle cx="733" cy="369" r=".29766"/><circle cx="748" cy="366" r=".35968" fill="none" stroke="#000" stroke-linecap="round" stroke-linejoin="bevel" stroke-width=".19844" style="paint-order:normal"/><path d="m748 370v-3.6403" fill="#c8c8c8" stroke="#000" stroke-linecap="round" stroke-linejoin="round" stroke-width=".19844"/><path d="m757 375v-1.3604" fill="none" stroke="#969696" stroke-linecap="round" stroke-linejoin="bevel" stroke-width=".19844" style="paint-order:normal"/><path d="m757 370v1.4675" fill="none" stroke="#969696" stroke-linecap="round" stroke-width=".19844"/><path d="m755.48 374.11v-3.2178" fill="none" stroke="#969696" stroke-linecap="round" stroke-width=".19844"/><path d="m754.99 370.9v3.2178" fill="none" stroke="#969696" stroke-linecap="round" stroke-width=".19844"/><path d="m754 372.5 0.97902-1e-5" fill="none" stroke="#969696" stroke-linecap="round" stroke-width=".19844"/><path d="m757 371.47h-1.4978" fill="none" stroke="#969696" stroke-linecap="round" stroke-width=".19844"/><path d="m756.29 373.64h-0.69408" fill="none" marker-start="url(#ConcaveTriangle-16-42-5-1-1-7-6-6-2-1-6-9-3-7-3-7-8-93-94-8-4-22-2-7-1-7)" stroke="#969696" stroke-linecap="round" stroke-linejoin="round" stroke-width=".19844"/><text x="757" y="378.46756" fill="none" font-family="Arial" font-size="1.4111px" font-weight="bold" stroke="#000000" stroke-linecap="round" stroke-linejoin="round" stroke-width=".19844" xml:space="preserve"><tspan x="757" y="378.46756" fill="#969696" font-family="sans-serif" font-weight="bold" stroke="none" stroke-width=".19844" text-align="center" text-anchor="middle">D</tspan></text><path d="m760.68 372h2.6315" fill="none" stroke="#969696" stroke-linecap="round" stroke-linejoin="round" stroke-width=".19844" style="paint-order:markers stroke fill"/><path d="m762 374.87v-1.9997" fill="none" stroke="#969696" stroke-linecap="round" stroke-linejoin="round" stroke-width=".19844" style="paint-order:markers stroke fill"/><path d="m760.68 372.74h2.6315" fill="none" stroke="#969696" stroke-linecap="round" stroke-linejoin="round" stroke-width=".19844" style="paint-order:markers stroke fill"/><g transform="matrix(-.44713 0 0 .44713 791.14 330.43)" stroke="#00c800" stroke-width=".4438"><title>GND</title><g transform="translate(-.26259 -.11701)" stroke="#00c800" stroke-linecap="round"><g transform="translate(33.547 3.5594)" fill="none" stroke-width=".4438"><path d="m31.884 97.901v-0.91358" stroke-linejoin="round"/><path d="m30.561 97.901h2.6458"/><path d="m31.884 99.224 1.3229-1.3229"/><path d="m30.561 97.901 1.3229 1.3229"/></g><path d="m65.431 100.55v-1.0457" fill="#fa3232" stroke-linejoin="round" stroke-width=".44283"/></g><title>GND</title></g><text x="764.32935" y="372.86743" fill="none" font-family="Arial" font-size="1.4111px" font-weight="bold" stroke="#000000" stroke-linecap="round" stroke-linejoin="round" stroke-width=".19844" xml:space="preserve"><tspan x="764.32935" y="372.86743" fill="#000000" font-family="sans-serif" font-style="italic" font-weight="normal" stroke="none" stroke-width=".19844">C<tspan baseline-shift="sub" font-size="65%">GB</tspan></tspan></text><path d="m754 372.5h-1l2e-5 2.4957" fill="none" stroke="#000" stroke-linecap="round" stroke-linejoin="round" stroke-width=".198"/><path d="m762 372v-1.9997" fill="none" stroke="#969696" stroke-linecap="round" stroke-linejoin="round" stroke-width=".19844" style="paint-order:markers stroke fill"/><path d="m758 372.92v2.0754" fill="#fa3232" stroke="#00c800" stroke-linecap="round" stroke-linejoin="round" stroke-width=".198"/><text x="748" y="378.46756" fill="none" font-family="Arial" font-size="1.4111px" font-weight="bold" stroke="#000000" stroke-linecap="round" stroke-linejoin="round" stroke-width=".19844" xml:space="preserve"><tspan x="748" y="378.46756" fill="#e13200" font-family="sans-serif" font-weight="bold" stroke="none" stroke-width=".19844" text-align="center" text-anchor="middle">B(2)</tspan></text><g transform="matrix(-.44713 0 0 .44713 787.14 329.89)" stroke="#00c800" stroke-width=".4438"><title>GND</title><g transform="translate(-.26259 -.11701)" stroke="#00c800" stroke-width=".4438"><g transform="translate(33.547 3.5594)" fill="none" stroke="#00c800" stroke-linecap="round" stroke-width=".4438"><path d="m31.884 97.901v-0.91358" stroke-linejoin="round"/><path d="m30.561 97.901h2.6458"/><path d="m31.884 99.224 1.3229-1.3229"/><path d="m30.561 97.901 1.3229 1.3229"/></g></g><title>GND</title></g><path d="m753 375h4" fill="#e13200" stroke="#000" stroke-linecap="round" stroke-linejoin="round" stroke-width=".198"/><path d="m762 370h-14" fill="#e13200" stroke="#000" stroke-linecap="round" stroke-linejoin="round" stroke-width=".198"/><circle cx="748" cy="370" r=".297"/><circle cx="748" cy="370" r=".297"/><path d="m753 372.5v-2.5043" fill="#e13200" stroke="#000" stroke-linecap="round" stroke-linejoin="round" stroke-width=".198"/><path d="m723 372.92h2.5201" fill="none" stroke="#00c800" stroke-linecap="round" stroke-width=".19844"/><path d="m724 375v-1.3604" fill="none" stroke="#969696" stroke-linecap="round" stroke-linejoin="bevel" stroke-width=".19844" style="paint-order:normal"/><path d="m724 370v1.4675" fill="none" stroke="#969696" stroke-linecap="round" stroke-width=".19844"/><path d="m725.52 374.11v-3.2178" fill="none" stroke="#969696" stroke-linecap="round" stroke-width=".19844"/><path d="m726.01 370.9v3.2178" fill="none" stroke="#969696" stroke-linecap="round" stroke-width=".19844"/><path d="m727 372.5-0.97902-1e-5" fill="none" stroke="#969696" stroke-linecap="round" stroke-width=".19844"/><path d="m724 371.47h1.4978" fill="none" stroke="#969696" stroke-linecap="round" stroke-width=".19844"/><path d="m724.71 373.64h0.69408" fill="none" marker-start="url(#ConcaveTriangle-16-42-5-1-1-7-6-6-2-1-6-9-3-7-3-7-8-93-94-8-4-22-2-7-1-4-1)" stroke="#969696" stroke-linecap="round" stroke-linejoin="round" stroke-width=".19844"/><text x="723.94012" y="378.46756" fill="none" font-family="Arial" font-size="1.4111px" font-weight="bold" stroke="#000000" stroke-linecap="round" stroke-linejoin="round" stroke-width=".19844" xml:space="preserve"><tspan x="723.94012" y="378.46756" fill="#969696" font-family="sans-serif" font-weight="bold" stroke="none" stroke-width=".19844" text-align="center" text-anchor="middle">D</tspan></text><path d="m720.32 372h-2.6315" fill="none" stroke="#969696" stroke-linecap="round" stroke-linejoin="round" stroke-width=".19844" style="paint-order:markers stroke fill"/><path d="m719 374.87v-1.9997" fill="none" stroke="#969696" stroke-linecap="round" stroke-linejoin="round" stroke-width=".19844" style="paint-order:markers stroke fill"/><path d="m720.32 372.74h-2.6315" fill="none" stroke="#969696" stroke-linecap="round" stroke-linejoin="round" stroke-width=".19844" style="paint-order:markers stroke fill"/><g transform="matrix(.44713 0 0 .44713 689.86 330.43)" stroke="#00c800" stroke-width=".4438"><title>GND</title><g transform="translate(-.26259 -.11701)" stroke="#00c800" stroke-linecap="round"><g transform="translate(33.547 3.5594)" fill="none" stroke-width=".4438"><path d="m31.884 97.901v-0.91358" stroke-linejoin="round"/><path d="m30.561 97.901h2.6458"/><path d="m31.884 99.224 1.3229-1.3229"/><path d="m30.561 97.901 1.3229 1.3229"/></g><path d="m65.431 100.55v-1.0457" fill="#fa3232" stroke-linejoin="round" stroke-width=".44283"/></g><title>GND</title></g><text x="714.2829" y="372.86743" fill="none" font-family="Arial" font-size="1.4111px" font-weight="bold" stroke="#000000" stroke-linecap="round" stroke-linejoin="round" stroke-width=".19844" xml:space="preserve"><tspan x="714.2829" y="372.86743" fill="#000000" font-family="sans-serif" font-style="italic" font-weight="normal" stroke="none" stroke-width=".19844">C<tspan baseline-shift="sub" font-size="65%">GB</tspan></tspan></text><path d="m727 372.5h1l-2e-5 2.4957" fill="none" stroke="#000" stroke-linecap="round" stroke-linejoin="round" stroke-width=".198"/><path d="m719 372v-1.9997" fill="none" stroke="#969696" stroke-linecap="round" stroke-linejoin="round" stroke-width=".19844" style="paint-order:markers stroke fill"/><path d="m723 372.92v2.0754" fill="#fa3232" stroke="#00c800" stroke-linecap="round" stroke-linejoin="round" stroke-width=".198"/><g transform="matrix(.44713 0 0 .44713 693.86 329.89)" stroke="#00c800" stroke-width=".4438"><title>GND</title><g transform="translate(-.26259 -.11701)" stroke="#00c800" stroke-width=".4438"><g transform="translate(33.547 3.5594)" fill="none" stroke="#00c800" stroke-linecap="round" stroke-width=".4438"><path d="m31.884 97.901v-0.91358" stroke-linejoin="round"/><path d="m30.561 97.901h2.6458"/><path d="m31.884 99.224 1.3229-1.3229"/><path d="m30.561 97.901 1.3229 1.3229"/></g></g><title>GND</title></g><path d="m728 375h-4" fill="#e13200" stroke="#000" stroke-linecap="round" stroke-linejoin="round" stroke-width=".198"/><path d="m719 370h14" fill="#e13200" stroke="#000" stroke-linecap="round" stroke-linejoin="round" stroke-width=".198"/><circle transform="scale(-1,1)" cx="-733" cy="370" r=".297"/><circle transform="scale(-1,1)" cx="-733" cy="370" r=".297"/><path d="m728 372.5v-2.5043" fill="#e13200" stroke="#000" stroke-linecap="round" stroke-linejoin="round" stroke-width=".198"/></g></svg>
