<svg width="76.265mm" height="39.884mm" version="1.1" viewBox="0 0 76.265 39.884" xml:space="preserve" xmlns="http://www.w3.org/2000/svg"><defs><marker id="ConcaveTriangle-16-42-5-1-1-7-6-6-2-1-6-9-3-7-3-7-8-93-94-8-4-8-2-8-9-5-7" overflow="visible" markerHeight="0.60000002" markerWidth="0.60000002" orient="auto-start-reverse" preserveAspectRatio="xMidYMid" viewBox="0 0 1 1"><path transform="scale(.7)" d="m-2-4 11 4-11 4c2-2.33 2-5.66 0-8z" fill="context-stroke" fill-rule="evenodd"/></marker><marker id="ConcaveTriangle-16-42-5-1-1-7-6-6-2-1-6-9-3-7-3-7-8-93-94-8-4-8-2-8-9-7-9-0" overflow="visible" markerHeight="0.60000002" markerWidth="0.60000002" orient="auto-start-reverse" preserveAspectRatio="xMidYMid" viewBox="0 0 1 1"><path transform="scale(.7)" d="m-2-4 11 4-11 4c2-2.33 2-5.66 0-8z" fill="context-stroke" fill-rule="evenodd"/></marker><marker id="ConcaveTriangle-16-42-5-1-1-7-6-6-2-1-6-9-3-7-3-7-8-93-94-8-4-22-2-7-1-1-1" overflow="visible" markerHeight="0.60000002" markerWidth="0.60000002" orient="auto-start-reverse" preserveAspectRatio="xMidYMid" viewBox="0 0 1 1"><path transform="scale(.7)" d="m-2-4 11 4-11 4c2-2.33 2-5.66 0-8z" fill="context-stroke" fill-rule="evenodd"/></marker><marker id="ConcaveTriangle-16-42-5-1-1-7-6-6-2-1-6-9-3-7-3-7-8-93-94-8-4-22-2-7-1-8-5-2" overflow="visible" markerHeight="0.60000002" markerWidth="0.60000002" orient="auto-start-reverse" preserveAspectRatio="xMidYMid" viewBox="0 0 1 1"><path transform="scale(.7)" d="m-2-4 11 4-11 4c2-2.33 2-5.66 0-8z" fill="context-stroke" fill-rule="evenodd"/></marker></defs><g transform="translate(-702.87 -287.87)"><rect transform="scale(-1,1)" x="-779.13" y="288" width="76.132" height="24" fill="#96e196" opacity=".65"/><path d="m779 288h-76v23.868h76v-23.868" fill="none" opacity=".65" stroke="#000" stroke-linecap="round" stroke-linejoin="round" stroke-width=".26458"/><path d="m776.87 290h-71.868v19.86h71.868v-19.86" fill="none" opacity=".65" stroke="#000" stroke-linecap="round" stroke-linejoin="round" stroke-width=".26458"/><rect transform="scale(-1,1)" x="-776.51" y="288.57" width=".90101" height=".82837" stroke="#000" stroke-linecap="round" stroke-linejoin="round" stroke-width=".198"/><rect transform="scale(-1,1)" x="-774.51" y="288.57" width=".90101" height=".82837" stroke="#000" stroke-linecap="round" stroke-linejoin="round" stroke-width=".198"/><rect transform="scale(-1,1)" x="-772.51" y="288.57" width=".90101" height=".82837" stroke="#000" stroke-linecap="round" stroke-linejoin="round" stroke-width=".198"/><rect transform="scale(-1,1)" x="-770.51" y="288.57" width=".90101" height=".82837" stroke="#000" stroke-linecap="round" stroke-linejoin="round" stroke-width=".198"/><rect transform="scale(-1,1)" x="-768.46" y="288.57" width=".90101" height=".82837" stroke="#000" stroke-linecap="round" stroke-linejoin="round" stroke-width=".198"/><rect transform="scale(-1,1)" x="-766.46" y="288.57" width=".90101" height=".82837" stroke="#000" stroke-linecap="round" stroke-linejoin="round" stroke-width=".198"/><rect transform="scale(-1,1)" x="-764.46" y="288.57" width=".90101" height=".82837" stroke="#000" stroke-linecap="round" stroke-linejoin="round" stroke-width=".198"/><rect transform="scale(-1,1)" x="-762.46" y="288.57" width=".90101" height=".82837" stroke="#000" stroke-linecap="round" stroke-linejoin="round" stroke-width=".198"/><rect transform="scale(-1,1)" x="-760.5" y="288.57" width=".90101" height=".82837" stroke="#000" stroke-linecap="round" stroke-linejoin="round" stroke-width=".198"/><rect transform="scale(-1,1)" x="-758.5" y="288.57" width=".90101" height=".82837" stroke="#000" stroke-linecap="round" stroke-linejoin="round" stroke-width=".198"/><rect transform="scale(-1,1)" x="-756.5" y="288.57" width=".90101" height=".82837" stroke="#000" stroke-linecap="round" stroke-linejoin="round" stroke-width=".198"/><rect transform="scale(-1,1)" x="-754.5" y="288.57" width=".90101" height=".82837" stroke="#000" stroke-linecap="round" stroke-linejoin="round" stroke-width=".198"/><rect transform="scale(-1,1)" x="-752.45" y="288.57" width=".90101" height=".82837" stroke="#000" stroke-linecap="round" stroke-linejoin="round" stroke-width=".198"/><rect transform="scale(-1,1)" x="-750.45" y="288.57" width=".90101" height=".82837" stroke="#000" stroke-linecap="round" stroke-linejoin="round" stroke-width=".198"/><rect transform="scale(-1,1)" x="-748.45" y="288.57" width=".90101" height=".82837" stroke="#000" stroke-linecap="round" stroke-linejoin="round" stroke-width=".198"/><rect transform="scale(-1,1)" x="-746.45" y="288.57" width=".90101" height=".82837" stroke="#000" stroke-linecap="round" stroke-linejoin="round" stroke-width=".198"/><rect transform="scale(-1,1)" x="-744.34" y="288.55" width=".90101" height=".82837" stroke="#000" stroke-linecap="round" stroke-linejoin="round" stroke-width=".198"/><rect transform="scale(-1,1)" x="-742.34" y="288.55" width=".90101" height=".82837" stroke="#000" stroke-linecap="round" stroke-linejoin="round" stroke-width=".198"/><rect transform="scale(-1,1)" x="-740.34" y="288.55" width=".90101" height=".82837" stroke="#000" stroke-linecap="round" stroke-linejoin="round" stroke-width=".198"/><rect transform="scale(-1,1)" x="-738.34" y="288.55" width=".90101" height=".82837" stroke="#000" stroke-linecap="round" stroke-linejoin="round" stroke-width=".198"/><rect transform="scale(-1,1)" x="-736.29" y="288.55" width=".90101" height=".82837" stroke="#000" stroke-linecap="round" stroke-linejoin="round" stroke-width=".198"/><rect transform="scale(-1,1)" x="-734.29" y="288.55" width=".90101" height=".82837" stroke="#000" stroke-linecap="round" stroke-linejoin="round" stroke-width=".198"/><rect transform="scale(-1,1)" x="-732.29" y="288.55" width=".90101" height=".82837" stroke="#000" stroke-linecap="round" stroke-linejoin="round" stroke-width=".198"/><rect transform="scale(-1,1)" x="-730.29" y="288.55" width=".90101" height=".82837" stroke="#000" stroke-linecap="round" stroke-linejoin="round" stroke-width=".198"/><rect transform="scale(-1,1)" x="-728.33" y="288.55" width=".90101" height=".82837" stroke="#000" stroke-linecap="round" stroke-linejoin="round" stroke-width=".198"/><rect transform="scale(-1,1)" x="-726.33" y="288.55" width=".90101" height=".82837" stroke="#000" stroke-linecap="round" stroke-linejoin="round" stroke-width=".198"/><rect transform="scale(-1,1)" x="-724.33" y="288.55" width=".90101" height=".82837" stroke="#000" stroke-linecap="round" stroke-linejoin="round" stroke-width=".198"/><rect transform="scale(-1,1)" x="-722.33" y="288.55" width=".90101" height=".82837" stroke="#000" stroke-linecap="round" stroke-linejoin="round" stroke-width=".198"/><rect transform="scale(-1,1)" x="-720.28" y="288.55" width=".90101" height=".82837" stroke="#000" stroke-linecap="round" stroke-linejoin="round" stroke-width=".198"/><rect transform="scale(-1,1)" x="-718.28" y="288.55" width=".90101" height=".82837" stroke="#000" stroke-linecap="round" stroke-linejoin="round" stroke-width=".198"/><rect transform="scale(-1,1)" x="-716.28" y="288.55" width=".90101" height=".82837" stroke="#000" stroke-linecap="round" stroke-linejoin="round" stroke-width=".198"/><rect transform="scale(-1,1)" x="-714.28" y="288.55" width=".90101" height=".82837" stroke="#000" stroke-linecap="round" stroke-linejoin="round" stroke-width=".198"/><rect transform="scale(-1,1)" x="-712.11" y="288.53" width=".90101" height=".82837" stroke="#000" stroke-linecap="round" stroke-linejoin="round" stroke-width=".198"/><rect transform="scale(-1,1)" x="-710.15" y="288.53" width=".90101" height=".82837" stroke="#000" stroke-linecap="round" stroke-linejoin="round" stroke-width=".198"/><rect transform="scale(-1,1)" x="-708.15" y="288.53" width=".90101" height=".82837" stroke="#000" stroke-linecap="round" stroke-linejoin="round" stroke-width=".198"/><rect transform="scale(-1,1)" x="-706.15" y="288.53" width=".90101" height=".82837" stroke="#000" stroke-linecap="round" stroke-linejoin="round" stroke-width=".198"/><rect transform="scale(-1,1)" x="-776.55" y="310.48" width=".90101" height=".82837" stroke="#000" stroke-linecap="round" stroke-linejoin="round" stroke-width=".198"/><rect transform="scale(-1,1)" x="-774.55" y="310.48" width=".90101" height=".82837" stroke="#000" stroke-linecap="round" stroke-linejoin="round" stroke-width=".198"/><rect transform="scale(-1,1)" x="-772.55" y="310.48" width=".90101" height=".82837" stroke="#000" stroke-linecap="round" stroke-linejoin="round" stroke-width=".198"/><rect transform="scale(-1,1)" x="-770.55" y="310.48" width=".90101" height=".82837" stroke="#000" stroke-linecap="round" stroke-linejoin="round" stroke-width=".198"/><rect transform="scale(-1,1)" x="-768.5" y="310.48" width=".90101" height=".82837" stroke="#000" stroke-linecap="round" stroke-linejoin="round" stroke-width=".198"/><rect transform="scale(-1,1)" x="-766.5" y="310.48" width=".90101" height=".82837" stroke="#000" stroke-linecap="round" stroke-linejoin="round" stroke-width=".198"/><rect transform="scale(-1,1)" x="-764.5" y="310.48" width=".90101" height=".82837" stroke="#000" stroke-linecap="round" stroke-linejoin="round" stroke-width=".198"/><rect transform="scale(-1,1)" x="-762.5" y="310.48" width=".90101" height=".82837" stroke="#000" stroke-linecap="round" stroke-linejoin="round" stroke-width=".198"/><rect transform="scale(-1,1)" x="-760.54" y="310.48" width=".90101" height=".82837" stroke="#000" stroke-linecap="round" stroke-linejoin="round" stroke-width=".198"/><rect transform="scale(-1,1)" x="-758.54" y="310.48" width=".90101" height=".82837" stroke="#000" stroke-linecap="round" stroke-linejoin="round" stroke-width=".198"/><rect transform="scale(-1,1)" x="-756.54" y="310.48" width=".90101" height=".82837" stroke="#000" stroke-linecap="round" stroke-linejoin="round" stroke-width=".198"/><rect transform="scale(-1,1)" x="-754.54" y="310.48" width=".90101" height=".82837" stroke="#000" stroke-linecap="round" stroke-linejoin="round" stroke-width=".198"/><rect transform="scale(-1,1)" x="-752.49" y="310.48" width=".90101" height=".82837" stroke="#000" stroke-linecap="round" stroke-linejoin="round" stroke-width=".198"/><rect transform="scale(-1,1)" x="-750.49" y="310.48" width=".90101" height=".82837" stroke="#000" stroke-linecap="round" stroke-linejoin="round" stroke-width=".198"/><rect transform="scale(-1,1)" x="-748.49" y="310.48" width=".90101" height=".82837" stroke="#000" stroke-linecap="round" stroke-linejoin="round" stroke-width=".198"/><rect transform="scale(-1,1)" x="-746.49" y="310.48" width=".90101" height=".82837" stroke="#000" stroke-linecap="round" stroke-linejoin="round" stroke-width=".198"/><rect transform="scale(-1,1)" x="-744.38" y="310.45" width=".90101" height=".82837" stroke="#000" stroke-linecap="round" stroke-linejoin="round" stroke-width=".198"/><rect transform="scale(-1,1)" x="-742.38" y="310.45" width=".90101" height=".82837" stroke="#000" stroke-linecap="round" stroke-linejoin="round" stroke-width=".198"/><rect transform="scale(-1,1)" x="-740.38" y="310.45" width=".90101" height=".82837" stroke="#000" stroke-linecap="round" stroke-linejoin="round" stroke-width=".198"/><rect transform="scale(-1,1)" x="-738.38" y="310.45" width=".90101" height=".82837" stroke="#000" stroke-linecap="round" stroke-linejoin="round" stroke-width=".198"/><rect transform="scale(-1,1)" x="-736.33" y="310.45" width=".90101" height=".82837" stroke="#000" stroke-linecap="round" stroke-linejoin="round" stroke-width=".198"/><rect transform="scale(-1,1)" x="-734.33" y="310.45" width=".90101" height=".82837" stroke="#000" stroke-linecap="round" stroke-linejoin="round" stroke-width=".198"/><rect transform="scale(-1,1)" x="-732.33" y="310.45" width=".90101" height=".82837" stroke="#000" stroke-linecap="round" stroke-linejoin="round" stroke-width=".198"/><rect transform="scale(-1,1)" x="-730.33" y="310.45" width=".90101" height=".82837" stroke="#000" stroke-linecap="round" stroke-linejoin="round" stroke-width=".198"/><rect transform="scale(-1,1)" x="-728.37" y="310.45" width=".90101" height=".82837" stroke="#000" stroke-linecap="round" stroke-linejoin="round" stroke-width=".198"/><rect transform="scale(-1,1)" x="-726.37" y="310.45" width=".90101" height=".82837" stroke="#000" stroke-linecap="round" stroke-linejoin="round" stroke-width=".198"/><rect transform="scale(-1,1)" x="-724.37" y="310.45" width=".90101" height=".82837" stroke="#000" stroke-linecap="round" stroke-linejoin="round" stroke-width=".198"/><rect transform="scale(-1,1)" x="-722.37" y="310.45" width=".90101" height=".82837" stroke="#000" stroke-linecap="round" stroke-linejoin="round" stroke-width=".198"/><rect transform="scale(-1,1)" x="-720.32" y="310.45" width=".90101" height=".82837" stroke="#000" stroke-linecap="round" stroke-linejoin="round" stroke-width=".198"/><rect transform="scale(-1,1)" x="-718.32" y="310.45" width=".90101" height=".82837" stroke="#000" stroke-linecap="round" stroke-linejoin="round" stroke-width=".198"/><rect transform="scale(-1,1)" x="-716.32" y="310.45" width=".90101" height=".82837" stroke="#000" stroke-linecap="round" stroke-linejoin="round" stroke-width=".198"/><rect transform="scale(-1,1)" x="-714.32" y="310.45" width=".90101" height=".82837" stroke="#000" stroke-linecap="round" stroke-linejoin="round" stroke-width=".198"/><rect transform="scale(-1,1)" x="-712.15" y="310.43" width=".90101" height=".82837" stroke="#000" stroke-linecap="round" stroke-linejoin="round" stroke-width=".198"/><rect transform="scale(-1,1)" x="-710.19" y="310.43" width=".90101" height=".82837" stroke="#000" stroke-linecap="round" stroke-linejoin="round" stroke-width=".198"/><rect transform="scale(-1,1)" x="-708.19" y="310.43" width=".90101" height=".82837" stroke="#000" stroke-linecap="round" stroke-linejoin="round" stroke-width=".198"/><rect transform="scale(-1,1)" x="-706.19" y="310.43" width=".90101" height=".82837" stroke="#000" stroke-linecap="round" stroke-linejoin="round" stroke-width=".198"/><rect transform="matrix(0,-1,-1,0,0,0)" x="-309.39" y="-704.39" width=".90101" height=".82837" stroke="#000" stroke-linecap="round" stroke-linejoin="round" stroke-width=".198"/><rect transform="matrix(0,-1,-1,0,0,0)" x="-307.39" y="-704.39" width=".90101" height=".82837" stroke="#000" stroke-linecap="round" stroke-linejoin="round" stroke-width=".198"/><rect transform="matrix(0,-1,-1,0,0,0)" x="-305.34" y="-704.39" width=".90101" height=".82837" stroke="#000" stroke-linecap="round" stroke-linejoin="round" stroke-width=".198"/><rect transform="matrix(0,-1,-1,0,0,0)" x="-303.34" y="-704.39" width=".90101" height=".82837" stroke="#000" stroke-linecap="round" stroke-linejoin="round" stroke-width=".198"/><rect transform="matrix(0,-1,-1,0,0,0)" x="-301.34" y="-704.39" width=".90101" height=".82837" stroke="#000" stroke-linecap="round" stroke-linejoin="round" stroke-width=".198"/><rect transform="matrix(0,-1,-1,0,0,0)" x="-299.34" y="-704.39" width=".90101" height=".82837" stroke="#000" stroke-linecap="round" stroke-linejoin="round" stroke-width=".198"/><rect transform="matrix(0,-1,-1,0,0,0)" x="-297.17" y="-704.41" width=".90101" height=".82837" stroke="#000" stroke-linecap="round" stroke-linejoin="round" stroke-width=".198"/><rect transform="matrix(0,-1,-1,0,0,0)" x="-295.21" y="-704.41" width=".90101" height=".82837" stroke="#000" stroke-linecap="round" stroke-linejoin="round" stroke-width=".198"/><rect transform="matrix(0,-1,-1,0,0,0)" x="-293.21" y="-704.41" width=".90101" height=".82837" stroke="#000" stroke-linecap="round" stroke-linejoin="round" stroke-width=".198"/><rect transform="matrix(0,-1,-1,0,0,0)" x="-291.21" y="-704.41" width=".90101" height=".82837" stroke="#000" stroke-linecap="round" stroke-linejoin="round" stroke-width=".198"/><rect transform="matrix(0,-1,-1,0,0,0)" x="-309.5" y="-778.39" width=".90101" height=".82837" stroke="#000" stroke-linecap="round" stroke-linejoin="round" stroke-width=".198"/><rect transform="matrix(0,-1,-1,0,0,0)" x="-307.5" y="-778.39" width=".90101" height=".82837" stroke="#000" stroke-linecap="round" stroke-linejoin="round" stroke-width=".198"/><rect transform="matrix(0,-1,-1,0,0,0)" x="-305.45" y="-778.39" width=".90101" height=".82837" stroke="#000" stroke-linecap="round" stroke-linejoin="round" stroke-width=".198"/><rect transform="matrix(0,-1,-1,0,0,0)" x="-303.45" y="-778.39" width=".90101" height=".82837" stroke="#000" stroke-linecap="round" stroke-linejoin="round" stroke-width=".198"/><rect transform="matrix(0,-1,-1,0,0,0)" x="-301.45" y="-778.39" width=".90101" height=".82837" stroke="#000" stroke-linecap="round" stroke-linejoin="round" stroke-width=".198"/><rect transform="matrix(0,-1,-1,0,0,0)" x="-299.45" y="-778.39" width=".90101" height=".82837" stroke="#000" stroke-linecap="round" stroke-linejoin="round" stroke-width=".198"/><rect transform="matrix(0,-1,-1,0,0,0)" x="-297.27" y="-778.41" width=".90101" height=".82837" stroke="#000" stroke-linecap="round" stroke-linejoin="round" stroke-width=".198"/><rect transform="matrix(0,-1,-1,0,0,0)" x="-295.31" y="-778.41" width=".90101" height=".82837" stroke="#000" stroke-linecap="round" stroke-linejoin="round" stroke-width=".198"/><rect transform="matrix(0,-1,-1,0,0,0)" x="-293.31" y="-778.41" width=".90101" height=".82837" stroke="#000" stroke-linecap="round" stroke-linejoin="round" stroke-width=".198"/><rect transform="matrix(0,-1,-1,0,0,0)" x="-291.31" y="-778.41" width=".90101" height=".82837" stroke="#000" stroke-linecap="round" stroke-linejoin="round" stroke-width=".198"/><rect transform="rotate(-90)" x="-304.02" y="718.9" width="10.02" height="7.8016" fill="#e13200" stroke="#000" stroke-linecap="round" stroke-linejoin="round" stroke-width=".19844"/><rect transform="rotate(-90)" x="-304.92" y="721.8" width="11.822" height="2" fill="#c8c8c8" stroke="#000" stroke-linecap="round" stroke-linejoin="round" stroke-width=".198"/><rect transform="rotate(-90)" x="-302.97" y="719.54" width="7.9688" height="1.5014" fill="#ffffaf" stroke="#000" stroke-linecap="round" stroke-linejoin="round" stroke-width=".198"/><rect transform="rotate(-90)" x="-302.47" y="719.87" width=".90101" height=".82837" stroke="#000" stroke-linecap="round" stroke-linejoin="round" stroke-width=".198"/><rect transform="rotate(-90)" x="-300.47" y="719.87" width=".90101" height=".82837" stroke="#000" stroke-linecap="round" stroke-linejoin="round" stroke-width=".198"/><rect transform="rotate(-90)" x="-298.47" y="719.87" width=".90101" height=".82837" stroke="#000" stroke-linecap="round" stroke-linejoin="round" stroke-width=".198"/><rect transform="rotate(-90)" x="-296.47" y="719.87" width=".90101" height=".82837" stroke="#000" stroke-linecap="round" stroke-linejoin="round" stroke-width=".198"/><rect transform="rotate(-90)" x="-302.97" y="724.48" width="7.9688" height="1.5014" fill="#ffffaf" stroke="#000" stroke-linecap="round" stroke-linejoin="round" stroke-width=".198"/><rect transform="rotate(-90)" x="-302.47" y="724.8" width=".90101" height=".82837" stroke="#000" stroke-linecap="round" stroke-linejoin="round" stroke-width=".198"/><rect transform="rotate(-90)" x="-300.47" y="724.8" width=".90101" height=".82837" stroke="#000" stroke-linecap="round" stroke-linejoin="round" stroke-width=".198"/><rect transform="rotate(-90)" x="-298.47" y="724.8" width=".90101" height=".82837" stroke="#000" stroke-linecap="round" stroke-linejoin="round" stroke-width=".198"/><rect transform="rotate(-90)" x="-296.47" y="724.8" width=".90101" height=".82837" stroke="#000" stroke-linecap="round" stroke-linejoin="round" stroke-width=".198"/><rect transform="rotate(-90)" x="-304.02" y="730.7" width="10.02" height="7.8016" fill="#0096c8" stroke="#000" stroke-linecap="round" stroke-linejoin="round" stroke-width=".19844"/><rect transform="rotate(-90)" x="-304.92" y="733.6" width="11.822" height="2" fill="#c8c8c8" stroke="#000" stroke-linecap="round" stroke-linejoin="round" stroke-width=".198"/><rect transform="rotate(-90)" x="-302.97" y="731.36" width="7.9688" height="1.5014" fill="#ffffaf" stroke="#000" stroke-linecap="round" stroke-linejoin="round" stroke-width=".198"/><rect transform="rotate(-90)" x="-302.47" y="731.69" width=".90101" height=".82837" stroke="#000" stroke-linecap="round" stroke-linejoin="round" stroke-width=".198"/><rect transform="rotate(-90)" x="-300.47" y="731.69" width=".90101" height=".82837" stroke="#000" stroke-linecap="round" stroke-linejoin="round" stroke-width=".198"/><rect transform="rotate(-90)" x="-298.47" y="731.69" width=".90101" height=".82837" stroke="#000" stroke-linecap="round" stroke-linejoin="round" stroke-width=".198"/><rect transform="rotate(-90)" x="-296.47" y="731.69" width=".90101" height=".82837" stroke="#000" stroke-linecap="round" stroke-linejoin="round" stroke-width=".198"/><rect transform="rotate(-90)" x="-302.97" y="736.27" width="7.9688" height="1.5014" fill="#ffffaf" stroke="#000" stroke-linecap="round" stroke-linejoin="round" stroke-width=".198"/><rect transform="rotate(-90)" x="-302.47" y="736.6" width=".90101" height=".82837" stroke="#000" stroke-linecap="round" stroke-linejoin="round" stroke-width=".198"/><rect transform="rotate(-90)" x="-300.47" y="736.6" width=".90101" height=".82837" stroke="#000" stroke-linecap="round" stroke-linejoin="round" stroke-width=".198"/><rect transform="rotate(-90)" x="-298.47" y="736.6" width=".90101" height=".82837" stroke="#000" stroke-linecap="round" stroke-linejoin="round" stroke-width=".198"/><rect transform="rotate(-90)" x="-296.47" y="736.6" width=".90101" height=".82837" stroke="#000" stroke-linecap="round" stroke-linejoin="round" stroke-width=".198"/><rect transform="matrix(0,-1,-1,0,0,0)" x="-304.02" y="-762.31" width="10.02" height="7.8016" fill="#e13200" stroke="#000" stroke-linecap="round" stroke-linejoin="round" stroke-width=".19844"/><rect transform="matrix(0,-1,-1,0,0,0)" x="-304.92" y="-759.4" width="11.822" height="2" fill="#c8c8c8" stroke="#000" stroke-linecap="round" stroke-linejoin="round" stroke-width=".198"/><rect transform="matrix(0,-1,-1,0,0,0)" x="-302.97" y="-761.67" width="7.9688" height="1.5014" fill="#ffffaf" stroke="#000" stroke-linecap="round" stroke-linejoin="round" stroke-width=".198"/><rect transform="matrix(0,-1,-1,0,0,0)" x="-302.47" y="-761.34" width=".90101" height=".82837" stroke="#000" stroke-linecap="round" stroke-linejoin="round" stroke-width=".198"/><rect transform="matrix(0,-1,-1,0,0,0)" x="-300.47" y="-761.34" width=".90101" height=".82837" stroke="#000" stroke-linecap="round" stroke-linejoin="round" stroke-width=".198"/><rect transform="matrix(0,-1,-1,0,0,0)" x="-298.47" y="-761.34" width=".90101" height=".82837" stroke="#000" stroke-linecap="round" stroke-linejoin="round" stroke-width=".198"/><rect transform="matrix(0,-1,-1,0,0,0)" x="-296.47" y="-761.34" width=".90101" height=".82837" stroke="#000" stroke-linecap="round" stroke-linejoin="round" stroke-width=".198"/><rect transform="matrix(0,-1,-1,0,0,0)" x="-302.97" y="-756.73" width="7.9688" height="1.5014" fill="#ffffaf" stroke="#000" stroke-linecap="round" stroke-linejoin="round" stroke-width=".198"/><rect transform="matrix(0,-1,-1,0,0,0)" x="-302.47" y="-756.4" width=".90101" height=".82837" stroke="#000" stroke-linecap="round" stroke-linejoin="round" stroke-width=".198"/><rect transform="matrix(0,-1,-1,0,0,0)" x="-300.47" y="-756.4" width=".90101" height=".82837" stroke="#000" stroke-linecap="round" stroke-linejoin="round" stroke-width=".198"/><rect transform="matrix(0,-1,-1,0,0,0)" x="-298.47" y="-756.4" width=".90101" height=".82837" stroke="#000" stroke-linecap="round" stroke-linejoin="round" stroke-width=".198"/><rect transform="matrix(0,-1,-1,0,0,0)" x="-296.47" y="-756.4" width=".90101" height=".82837" stroke="#000" stroke-linecap="round" stroke-linejoin="round" stroke-width=".198"/><rect transform="matrix(0,-1,-1,0,0,0)" x="-304.02" y="-750.5" width="10.02" height="7.8016" fill="#0096c8" stroke="#000" stroke-linecap="round" stroke-linejoin="round" stroke-width=".19844"/><rect transform="matrix(0,-1,-1,0,0,0)" x="-304.92" y="-747.6" width="11.822" height="2" fill="#c8c8c8" stroke="#000" stroke-linecap="round" stroke-linejoin="round" stroke-width=".198"/><rect transform="matrix(0,-1,-1,0,0,0)" x="-302.97" y="-749.85" width="7.9688" height="1.5014" fill="#ffffaf" stroke="#000" stroke-linecap="round" stroke-linejoin="round" stroke-width=".198"/><rect transform="matrix(0,-1,-1,0,0,0)" x="-302.47" y="-749.52" width=".90101" height=".82837" stroke="#000" stroke-linecap="round" stroke-linejoin="round" stroke-width=".198"/><rect transform="matrix(0,-1,-1,0,0,0)" x="-300.47" y="-749.52" width=".90101" height=".82837" stroke="#000" stroke-linecap="round" stroke-linejoin="round" stroke-width=".198"/><rect transform="matrix(0,-1,-1,0,0,0)" x="-298.47" y="-749.52" width=".90101" height=".82837" stroke="#000" stroke-linecap="round" stroke-linejoin="round" stroke-width=".198"/><rect transform="matrix(0,-1,-1,0,0,0)" x="-296.47" y="-749.52" width=".90101" height=".82837" stroke="#000" stroke-linecap="round" stroke-linejoin="round" stroke-width=".198"/><rect transform="matrix(0,-1,-1,0,0,0)" x="-302.97" y="-744.93" width="7.9688" height="1.5014" fill="#ffffaf" stroke="#000" stroke-linecap="round" stroke-linejoin="round" stroke-width=".198"/><rect transform="matrix(0,-1,-1,0,0,0)" x="-302.47" y="-744.6" width=".90101" height=".82837" stroke="#000" stroke-linecap="round" stroke-linejoin="round" stroke-width=".198"/><rect transform="matrix(0,-1,-1,0,0,0)" x="-300.47" y="-744.6" width=".90101" height=".82837" stroke="#000" stroke-linecap="round" stroke-linejoin="round" stroke-width=".198"/><rect transform="matrix(0,-1,-1,0,0,0)" x="-298.47" y="-744.6" width=".90101" height=".82837" stroke="#000" stroke-linecap="round" stroke-linejoin="round" stroke-width=".198"/><rect transform="matrix(0,-1,-1,0,0,0)" x="-296.47" y="-744.6" width=".90101" height=".82837" stroke="#000" stroke-linecap="round" stroke-linejoin="round" stroke-width=".198"/><rect transform="matrix(0,-1,-1,0,0,0)" x="-304.02" y="-773.7" width="10.02" height="7.8016" fill="#c8c8c8" stroke="#000" stroke-linecap="round" stroke-linejoin="round" stroke-width=".19844"/><rect transform="matrix(0,-1,-1,0,0,0)" x="-304.92" y="-770.8" width="11.822" height="2" fill="#c8c8c8" stroke="#000" stroke-linecap="round" stroke-linejoin="round" stroke-width=".198"/><rect transform="matrix(0,-1,-1,0,0,0)" x="-302.97" y="-773.06" width="7.9688" height="1.5014" fill="#e1e1e1" stroke="#000" stroke-linecap="round" stroke-linejoin="round" stroke-width=".198"/><rect transform="matrix(0,-1,-1,0,0,0)" x="-302.47" y="-772.74" width=".90101" height=".82837" stroke="#000" stroke-linecap="round" stroke-linejoin="round" stroke-width=".198"/><rect transform="matrix(0,-1,-1,0,0,0)" x="-300.47" y="-772.74" width=".90101" height=".82837" stroke="#000" stroke-linecap="round" stroke-linejoin="round" stroke-width=".198"/><rect transform="matrix(0,-1,-1,0,0,0)" x="-298.47" y="-772.74" width=".90101" height=".82837" stroke="#000" stroke-linecap="round" stroke-linejoin="round" stroke-width=".198"/><rect transform="matrix(0,-1,-1,0,0,0)" x="-296.47" y="-772.74" width=".90101" height=".82837" stroke="#000" stroke-linecap="round" stroke-linejoin="round" stroke-width=".198"/><rect transform="matrix(0,-1,-1,0,0,0)" x="-302.97" y="-768.13" width="7.9688" height="1.5014" fill="#e1e1e1" stroke="#000" stroke-linecap="round" stroke-linejoin="round" stroke-width=".198"/><rect transform="matrix(0,-1,-1,0,0,0)" x="-302.47" y="-767.8" width=".90101" height=".82837" stroke="#000" stroke-linecap="round" stroke-linejoin="round" stroke-width=".198"/><rect transform="matrix(0,-1,-1,0,0,0)" x="-300.47" y="-767.8" width=".90101" height=".82837" stroke="#000" stroke-linecap="round" stroke-linejoin="round" stroke-width=".198"/><rect transform="matrix(0,-1,-1,0,0,0)" x="-298.47" y="-767.8" width=".90101" height=".82837" stroke="#000" stroke-linecap="round" stroke-linejoin="round" stroke-width=".198"/><rect transform="matrix(0,-1,-1,0,0,0)" x="-296.47" y="-767.8" width=".90101" height=".82837" stroke="#000" stroke-linecap="round" stroke-linejoin="round" stroke-width=".198"/><rect transform="matrix(0,-1,-1,0,0,0)" x="-304.02" y="-714.9" width="10.02" height="7.8016" fill="#c8c8c8" stroke="#000" stroke-linecap="round" stroke-linejoin="round" stroke-width=".19844"/><rect transform="matrix(0,-1,-1,0,0,0)" x="-304.92" y="-712" width="11.822" height="2" fill="#c8c8c8" stroke="#000" stroke-linecap="round" stroke-linejoin="round" stroke-width=".198"/><rect transform="matrix(0,-1,-1,0,0,0)" x="-302.97" y="-714.26" width="7.9688" height="1.5014" fill="#e1e1e1" stroke="#000" stroke-linecap="round" stroke-linejoin="round" stroke-width=".198"/><rect transform="matrix(0,-1,-1,0,0,0)" x="-302.47" y="-713.93" width=".90101" height=".82837" stroke="#000" stroke-linecap="round" stroke-linejoin="round" stroke-width=".198"/><rect transform="matrix(0,-1,-1,0,0,0)" x="-300.47" y="-713.93" width=".90101" height=".82837" stroke="#000" stroke-linecap="round" stroke-linejoin="round" stroke-width=".198"/><rect transform="matrix(0,-1,-1,0,0,0)" x="-298.47" y="-713.93" width=".90101" height=".82837" stroke="#000" stroke-linecap="round" stroke-linejoin="round" stroke-width=".198"/><rect transform="matrix(0,-1,-1,0,0,0)" x="-296.47" y="-713.93" width=".90101" height=".82837" stroke="#000" stroke-linecap="round" stroke-linejoin="round" stroke-width=".198"/><rect transform="matrix(0,-1,-1,0,0,0)" x="-302.97" y="-709.33" width="7.9688" height="1.5014" fill="#e1e1e1" stroke="#000" stroke-linecap="round" stroke-linejoin="round" stroke-width=".198"/><rect transform="matrix(0,-1,-1,0,0,0)" x="-302.47" y="-709" width=".90101" height=".82837" stroke="#000" stroke-linecap="round" stroke-linejoin="round" stroke-width=".198"/><rect transform="matrix(0,-1,-1,0,0,0)" x="-300.47" y="-709" width=".90101" height=".82837" stroke="#000" stroke-linecap="round" stroke-linejoin="round" stroke-width=".198"/><rect transform="matrix(0,-1,-1,0,0,0)" x="-298.47" y="-709" width=".90101" height=".82837" stroke="#000" stroke-linecap="round" stroke-linejoin="round" stroke-width=".198"/><rect transform="matrix(0,-1,-1,0,0,0)" x="-296.47" y="-709" width=".90101" height=".82837" stroke="#000" stroke-linecap="round" stroke-linejoin="round" stroke-width=".198"/><text transform="scale(-1,1)" x="-746.6098" y="307.02597" fill="none" font-family="Arial" font-size="1.4111px" font-weight="bold" stroke="#000000" stroke-linecap="round" stroke-linejoin="round" stroke-width=".19844" xml:space="preserve"><tspan x="-746.6098" y="307.02597" fill="#0096c8" font-family="sans-serif" font-weight="bold" stroke="none" stroke-width=".19844" text-align="center" text-anchor="middle">A</tspan></text><text x="769.90076" y="307.026" fill="none" font-family="Arial" font-size="1.4111px" font-weight="bold" stroke="#000000" stroke-linecap="round" stroke-linejoin="round" stroke-width=".19844" xml:space="preserve"><tspan x="769.90076" y="307.026" fill="#969696" font-family="sans-serif" font-weight="bold" stroke="none" stroke-width=".19844" text-align="center" text-anchor="middle">D</tspan></text><text x="758.4295" y="307.03018" fill="none" font-family="Arial" font-size="1.4111px" font-weight="bold" stroke="#000000" stroke-linecap="round" stroke-linejoin="round" stroke-width=".19844" xml:space="preserve"><tspan x="758.4295" y="307.03018" fill="#e13200" font-family="sans-serif" font-weight="bold" stroke="none" stroke-width=".19844" text-align="center" text-anchor="middle">B</tspan></text><text transform="scale(-1,1)" x="-734.60309" y="307.00003" fill="none" font-family="Arial" font-size="1.4111px" font-weight="bold" stroke="#000000" stroke-linecap="round" stroke-linejoin="round" stroke-width=".19844" xml:space="preserve"><tspan x="-734.60309" y="307.00003" fill="#0096c8" font-family="sans-serif" font-weight="bold" stroke="none" stroke-width=".19844" text-align="center" text-anchor="middle">A</tspan></text><text x="711.10339" y="307.00006" fill="none" font-family="Arial" font-size="1.4111px" font-weight="bold" stroke="#000000" stroke-linecap="round" stroke-linejoin="round" stroke-width=".19844" xml:space="preserve"><tspan x="711.10339" y="307.00006" fill="#969696" font-family="sans-serif" font-weight="bold" stroke="none" stroke-width=".19844" text-align="center" text-anchor="middle">D</tspan></text><text x="722.90076" y="307.00424" fill="none" font-family="Arial" font-size="1.4111px" font-weight="bold" stroke="#000000" stroke-linecap="round" stroke-linejoin="round" stroke-width=".19844" xml:space="preserve"><tspan x="722.90076" y="307.00424" fill="#e13200" font-family="sans-serif" font-weight="bold" stroke="none" stroke-width=".19844" text-align="center" text-anchor="middle">B</tspan></text><text x="733" y="327.46756" fill="none" font-family="Arial" font-size="1.4111px" font-weight="bold" stroke="#000000" stroke-linecap="round" stroke-linejoin="round" stroke-width=".19844" xml:space="preserve"><tspan x="733" y="327.46756" fill="#0096c8" font-family="sans-serif" font-weight="bold" stroke="none" stroke-width=".19844" text-align="center" text-anchor="middle">A(2)</tspan></text><path d="m748 322.01h-1.4978" fill="none" stroke="#00c800" stroke-linecap="round" stroke-width=".19844"/><path d="m758 321.92h-2.5201" fill="none" stroke="#00c800" stroke-linecap="round" stroke-width=".19844"/><path d="m748 324.47v-1.828" fill="none" stroke="#e13200" stroke-linecap="round" stroke-linejoin="bevel" stroke-width=".19844" style="paint-order:normal"/><path d="m748 319v1.4675" fill="none" stroke="#e13200" stroke-linecap="round" stroke-width=".19844"/><path d="m746.48 323.11v-3.2178" fill="none" stroke="#e13200" stroke-linecap="round" stroke-width=".19844"/><path d="m745.99 319.9v3.2178" fill="none" stroke="#e13200" stroke-linecap="round" stroke-width=".19844"/><path d="m745 321.5 0.97902-1e-5" fill="none" stroke="#e13200" stroke-linecap="round" stroke-width=".19844"/><path d="m748 320.47h-1.4978" fill="none" stroke="#e13200" stroke-linecap="round" stroke-width=".19844"/><path d="m747.29 322.64h-0.69408" fill="none" marker-start="url(#ConcaveTriangle-16-42-5-1-1-7-6-6-2-1-6-9-3-7-3-7-8-93-94-8-4-8-2-8-9-5-7)" stroke="#e13200" stroke-linecap="round" stroke-linejoin="round" stroke-width=".19844"/><g transform="matrix(-.44713 0 0 .44713 777.14 279.56)" stroke="#00c800" stroke-width=".4438"><title>GND</title><g transform="translate(-.26259 -.11701)" stroke="#00c800" stroke-width=".4438"><g transform="translate(33.547 3.5594)" fill="none" stroke="#00c800" stroke-linecap="round" stroke-width=".4438"><path d="m31.884 97.901v-0.91358" stroke-linejoin="round"/><path d="m30.561 97.901h2.6458"/><path d="m31.884 99.224 1.3229-1.3229"/><path d="m30.561 97.901 1.3229 1.3229"/></g></g><title>GND</title></g><path d="m748 322.01h2v1" fill="none" stroke="#00c800" stroke-linecap="round" stroke-linejoin="round" stroke-width=".19844"/><g transform="matrix(-.44713 0 0 .44713 779.14 278.1)" stroke="#00c800" stroke-width=".4438"><title>GND</title><g transform="translate(-.26259 -.11701)" stroke="#00c800" stroke-width=".4438"><g transform="translate(33.547 3.5594)" fill="none" stroke="#00c800" stroke-linecap="round" stroke-width=".4438"><path d="m31.884 97.901v-0.91358" stroke-linejoin="round"/><path d="m30.561 97.901h2.6458"/><path d="m31.884 99.224 1.3229-1.3229"/><path d="m30.561 97.901 1.3229 1.3229"/></g></g><title>GND</title></g><path d="m733 322.01h1.4978" fill="none" stroke="#00c800" stroke-linecap="round" stroke-width=".19844"/><path d="m733 324.47v-1.828" stroke="#0096c8" stroke-linecap="round" stroke-linejoin="bevel" stroke-width=".19844" style="paint-order:normal"/><path d="m733 319v1.4675" stroke="#0096c8" stroke-linecap="round" stroke-width=".19844"/><path d="m734.52 323.11v-3.2178" stroke="#0096c8" stroke-linecap="round" stroke-width=".19844"/><path d="m735.01 319.9v3.2178" stroke="#0096c8" stroke-linecap="round" stroke-width=".19844"/><path d="m736 321.5-0.97902-1e-5" fill="none" stroke="#0096c8" stroke-linecap="round" stroke-width=".19844"/><path d="m733 320.47h1.4978" stroke="#0096c8" stroke-linecap="round" stroke-width=".19844"/><path d="m733.71 322.64h0.69408" marker-start="url(#ConcaveTriangle-16-42-5-1-1-7-6-6-2-1-6-9-3-7-3-7-8-93-94-8-4-8-2-8-9-7-9-0)" stroke="#0096c8" stroke-linecap="round" stroke-linejoin="round" stroke-width=".19844"/><g transform="matrix(.44713 0 0 .44713 703.86 279.56)" stroke="#00c800" stroke-width=".4438"><title>GND</title><g transform="translate(-.26259 -.11701)" stroke="#00c800" stroke-width=".4438"><g transform="translate(33.547 3.5594)" fill="none" stroke="#00c800" stroke-linecap="round" stroke-width=".4438"><path d="m31.884 97.901v-0.91358" stroke-linejoin="round"/><path d="m30.561 97.901h2.6458"/><path d="m31.884 99.224 1.3229-1.3229"/><path d="m30.561 97.901 1.3229 1.3229"/></g></g><title>GND</title></g><path d="m733 322.01h-2v1" fill="none" stroke="#00c800" stroke-linecap="round" stroke-linejoin="round" stroke-width=".19844"/><g transform="matrix(.44713 0 0 .44713 701.86 278.1)" stroke="#00c800" stroke-width=".4438"><title>GND</title><g transform="translate(-.26259 -.11701)" stroke="#00c800" stroke-width=".4438"><g transform="translate(33.547 3.5594)" fill="none" stroke="#00c800" stroke-linecap="round" stroke-width=".4438"><path d="m31.884 97.901v-0.91358" stroke-linejoin="round"/><path d="m30.561 97.901h2.6458"/><path d="m31.884 99.224 1.3229-1.3229"/><path d="m30.561 97.901 1.3229 1.3229"/></g></g><title>GND</title></g><path d="m745 321.5h-9" fill="none" stroke="#000" stroke-linecap="round" stroke-linejoin="round" stroke-width=".19844"/><circle cx="733" cy="315" r=".35968" fill="none" stroke="#000" stroke-linecap="round" stroke-linejoin="bevel" stroke-width=".19844" style="paint-order:normal"/><path d="m733 319v-3.6403" fill="#c8c8c8" stroke="#000" stroke-linecap="round" stroke-linejoin="round" stroke-width=".19844"/><path d="m733 318h4" fill="#c8c8c8" stroke="#000" stroke-linecap="round" stroke-linejoin="round" stroke-width=".19844"/><path d="m737 318v3.5044" fill="#c8c8c8" stroke="#000" stroke-linecap="round" stroke-linejoin="round" stroke-width=".19844"/><circle cx="733" cy="318" r=".29766"/><circle cx="733" cy="318" r=".29766"/><circle cx="748" cy="315" r=".35968" fill="none" stroke="#000" stroke-linecap="round" stroke-linejoin="bevel" stroke-width=".19844" style="paint-order:normal"/><path d="m748 319v-3.6403" fill="#c8c8c8" stroke="#000" stroke-linecap="round" stroke-linejoin="round" stroke-width=".19844"/><path d="m757 324v-1.3604" fill="none" stroke="#969696" stroke-linecap="round" stroke-linejoin="bevel" stroke-width=".19844" style="paint-order:normal"/><path d="m757 319v1.4675" fill="none" stroke="#969696" stroke-linecap="round" stroke-width=".19844"/><path d="m755.48 323.11v-3.2178" fill="none" stroke="#969696" stroke-linecap="round" stroke-width=".19844"/><path d="m754.99 319.9v3.2178" fill="none" stroke="#969696" stroke-linecap="round" stroke-width=".19844"/><path d="m754 321.5 0.97902-1e-5" fill="none" stroke="#969696" stroke-linecap="round" stroke-width=".19844"/><path d="m757 320.47h-1.4978" fill="none" stroke="#969696" stroke-linecap="round" stroke-width=".19844"/><path d="m756.29 322.64h-0.69408" fill="none" marker-start="url(#ConcaveTriangle-16-42-5-1-1-7-6-6-2-1-6-9-3-7-3-7-8-93-94-8-4-22-2-7-1-1-1)" stroke="#969696" stroke-linecap="round" stroke-linejoin="round" stroke-width=".19844"/><text x="757" y="327.46756" fill="none" font-family="Arial" font-size="1.4111px" font-weight="bold" stroke="#000000" stroke-linecap="round" stroke-linejoin="round" stroke-width=".19844" xml:space="preserve"><tspan x="757" y="327.46756" fill="#969696" font-family="sans-serif" font-weight="bold" stroke="none" stroke-width=".19844" text-align="center" text-anchor="middle">D</tspan></text><path d="m764.68 321.19h2.6315" fill="none" stroke="#969696" stroke-linecap="round" stroke-linejoin="round" stroke-width=".19844" style="paint-order:markers stroke fill"/><path d="m766 324.06v-1.9997" fill="none" stroke="#969696" stroke-linecap="round" stroke-linejoin="round" stroke-width=".19844" style="paint-order:markers stroke fill"/><path d="m764.68 321.93h2.6315" fill="none" stroke="#969696" stroke-linecap="round" stroke-linejoin="round" stroke-width=".19844" style="paint-order:markers stroke fill"/><g transform="matrix(-.44713 0 0 .44713 795.14 279.62)" stroke="#00c800" stroke-width=".4438"><title>GND</title><g transform="translate(-.26259 -.11701)" stroke="#00c800" stroke-linecap="round"><g transform="translate(33.547 3.5594)" fill="none" stroke-width=".4438"><path d="m31.884 97.901v-0.91358" stroke-linejoin="round"/><path d="m30.561 97.901h2.6458"/><path d="m31.884 99.224 1.3229-1.3229"/><path d="m30.561 97.901 1.3229 1.3229"/></g><path d="m65.431 100.55v-1.0457" fill="#fa3232" stroke-linejoin="round" stroke-width=".44283"/></g><title>GND</title></g><text x="768.32916" y="322.05905" fill="none" font-family="Arial" font-size="1.4111px" font-weight="bold" stroke="#000000" stroke-linecap="round" stroke-linejoin="round" stroke-width=".19844" xml:space="preserve"><tspan x="768.32916" y="322.05905" fill="#000000" font-family="sans-serif" font-style="italic" font-weight="normal" stroke="none" stroke-width=".19844">C<tspan baseline-shift="sub" font-size="65%">GB</tspan></tspan></text><path d="m754 321.5h-1l2e-5 2.4957" fill="none" stroke="#00c800" stroke-linecap="round" stroke-linejoin="round" stroke-width=".198"/><path d="m757 319h3" fill="none" stroke="#00c800" stroke-linecap="round" stroke-linejoin="round" stroke-width=".198"/><path d="m763 318.99h3" fill="none" stroke="#00c800" stroke-linecap="round" stroke-linejoin="round" stroke-width=".198"/><g transform="matrix(-.44713 0 0 .44713 786.14 279.56)" stroke="#00c800" stroke-width=".44283"><title>GND</title><g transform="translate(-.26259 -.11701)" stroke="#00c800" stroke-width=".44283"><g transform="translate(33.547 3.5594)" fill="none" stroke="#00c800" stroke-linecap="round" stroke-width=".44283"><path d="m31.884 97.901v-0.91358" stroke-linejoin="round"/><path d="m30.561 97.901h2.6458"/><path d="m31.884 99.224 1.3229-1.3229"/><path d="m30.561 97.901 1.3229 1.3229"/></g></g><title>GND</title></g><path d="m759 319h1v5" fill="none" stroke="#00c800" stroke-linecap="round" stroke-linejoin="round" stroke-width=".198"/><path d="m753 324h7" fill="none" stroke="#00c800" stroke-linecap="round" stroke-linejoin="round" stroke-width=".198"/><path d="m766 321.19v-1.9997" fill="none" stroke="#969696" stroke-linecap="round" stroke-linejoin="round" stroke-width=".19844" style="paint-order:markers stroke fill"/><path d="m758 321.92v2.0754" fill="#fa3232" stroke="#00c800" stroke-linecap="round" stroke-linejoin="round" stroke-width=".198"/><path d="m766 318.99-2.1e-4 0.1982" fill="#fa3232" stroke="#00c800" stroke-linecap="round" stroke-linejoin="round" stroke-width=".198"/><path d="m763 318.99-2.1e-4 5.4741" fill="#fa3232" stroke="#00c800" stroke-linecap="round" stroke-linejoin="round" stroke-width=".198"/><g transform="matrix(-.44713 0 0 .44713 792.14 279.62)" stroke="#00c800" stroke-width=".4438"><title>GND</title><g transform="translate(-.26259 -.11701)" stroke="#00c800" stroke-width=".4438"><g transform="translate(33.547 3.5594)" fill="none" stroke="#00c800" stroke-linecap="round" stroke-width=".4438"><path d="m31.884 97.901v-0.91358" stroke-linejoin="round"/><path d="m30.561 97.901h2.6458"/><path d="m31.884 99.224 1.3229-1.3229"/><path d="m30.561 97.901 1.3229 1.3229"/></g></g><title>GND</title></g><path d="m757 324.47v-0.46755" fill="#fa3232" stroke="#00c800" stroke-linecap="round" stroke-linejoin="round" stroke-width=".198"/><path d="m723 321.92h2.5201" fill="none" stroke="#00c800" stroke-linecap="round" stroke-width=".19844"/><path d="m724 324v-1.3604" fill="none" stroke="#969696" stroke-linecap="round" stroke-linejoin="bevel" stroke-width=".19844" style="paint-order:normal"/><path d="m724 319v1.4675" fill="none" stroke="#969696" stroke-linecap="round" stroke-width=".19844"/><path d="m725.52 323.11v-3.2178" fill="none" stroke="#969696" stroke-linecap="round" stroke-width=".19844"/><path d="m726.01 319.9v3.2178" fill="none" stroke="#969696" stroke-linecap="round" stroke-width=".19844"/><path d="m727 321.5-0.97902-1e-5" fill="none" stroke="#969696" stroke-linecap="round" stroke-width=".19844"/><path d="m724 320.47h1.4978" fill="none" stroke="#969696" stroke-linecap="round" stroke-width=".19844"/><path d="m724.71 322.64h0.69408" fill="none" marker-start="url(#ConcaveTriangle-16-42-5-1-1-7-6-6-2-1-6-9-3-7-3-7-8-93-94-8-4-22-2-7-1-8-5-2)" stroke="#969696" stroke-linecap="round" stroke-linejoin="round" stroke-width=".19844"/><text x="724" y="327.4935" fill="none" font-family="Arial" font-size="1.4111px" font-weight="bold" stroke="#000000" stroke-linecap="round" stroke-linejoin="round" stroke-width=".19844" xml:space="preserve"><tspan x="724" y="327.4935" fill="#969696" font-family="sans-serif" font-weight="bold" stroke="none" stroke-width=".19844" text-align="center" text-anchor="middle">D</tspan></text><path d="m716.32 321.19h-2.6315" fill="none" stroke="#969696" stroke-linecap="round" stroke-linejoin="round" stroke-width=".19844" style="paint-order:markers stroke fill"/><path d="m715 324.06v-1.9997" fill="none" stroke="#969696" stroke-linecap="round" stroke-linejoin="round" stroke-width=".19844" style="paint-order:markers stroke fill"/><path d="m716.32 321.93h-2.6315" fill="none" stroke="#969696" stroke-linecap="round" stroke-linejoin="round" stroke-width=".19844" style="paint-order:markers stroke fill"/><g transform="matrix(.44713 0 0 .44713 685.86 279.62)" stroke="#00c800" stroke-width=".4438"><title>GND</title><g transform="translate(-.26259 -.11701)" stroke="#00c800" stroke-linecap="round"><g transform="translate(33.547 3.5594)" fill="none" stroke-width=".4438"><path d="m31.884 97.901v-0.91358" stroke-linejoin="round"/><path d="m30.561 97.901h2.6458"/><path d="m31.884 99.224 1.3229-1.3229"/><path d="m30.561 97.901 1.3229 1.3229"/></g><path d="m65.431 100.55v-1.0457" fill="#fa3232" stroke-linejoin="round" stroke-width=".44283"/></g><title>GND</title></g><text x="710.28308" y="322.05905" fill="none" font-family="Arial" font-size="1.4111px" font-weight="bold" stroke="#000000" stroke-linecap="round" stroke-linejoin="round" stroke-width=".19844" xml:space="preserve"><tspan x="710.28308" y="322.05905" fill="#000000" font-family="sans-serif" font-style="italic" font-weight="normal" stroke="none" stroke-width=".19844">C<tspan baseline-shift="sub" font-size="65%">GB</tspan></tspan></text><path d="m727 321.5h1l-2e-5 2.4957" fill="none" stroke="#00c800" stroke-linecap="round" stroke-linejoin="round" stroke-width=".198"/><path d="m724 319h-3" fill="none" stroke="#00c800" stroke-linecap="round" stroke-linejoin="round" stroke-width=".198"/><path d="m718 318.99h-3" fill="none" stroke="#00c800" stroke-linecap="round" stroke-linejoin="round" stroke-width=".198"/><g transform="matrix(.44713 0 0 .44713 694.86 279.56)" stroke="#00c800" stroke-width=".44283"><title>GND</title><g transform="translate(-.26259 -.11701)" stroke="#00c800" stroke-width=".44283"><g transform="translate(33.547 3.5594)" fill="none" stroke="#00c800" stroke-linecap="round" stroke-width=".44283"><path d="m31.884 97.901v-0.91358" stroke-linejoin="round"/><path d="m30.561 97.901h2.6458"/><path d="m31.884 99.224 1.3229-1.3229"/><path d="m30.561 97.901 1.3229 1.3229"/></g></g><title>GND</title></g><path d="m722 319h-1v5" fill="none" stroke="#00c800" stroke-linecap="round" stroke-linejoin="round" stroke-width=".198"/><path d="m728 324h-7" fill="none" stroke="#00c800" stroke-linecap="round" stroke-linejoin="round" stroke-width=".198"/><path d="m715 321.19v-1.9997" fill="none" stroke="#969696" stroke-linecap="round" stroke-linejoin="round" stroke-width=".19844" style="paint-order:markers stroke fill"/><path d="m723 321.92v2.0754" fill="#fa3232" stroke="#00c800" stroke-linecap="round" stroke-linejoin="round" stroke-width=".198"/><path d="m715 318.99 2.1e-4 0.1982" fill="#fa3232" stroke="#00c800" stroke-linecap="round" stroke-linejoin="round" stroke-width=".198"/><path d="m718 318.99 2.1e-4 5.4741" fill="#fa3232" stroke="#00c800" stroke-linecap="round" stroke-linejoin="round" stroke-width=".198"/><g transform="matrix(.44713 0 0 .44713 688.86 279.62)" stroke="#00c800" stroke-width=".4438"><title>GND</title><g transform="translate(-.26259 -.11701)" stroke="#00c800" stroke-width=".4438"><g transform="translate(33.547 3.5594)" fill="none" stroke="#00c800" stroke-linecap="round" stroke-width=".4438"><path d="m31.884 97.901v-0.91358" stroke-linejoin="round"/><path d="m30.561 97.901h2.6458"/><path d="m31.884 99.224 1.3229-1.3229"/><path d="m30.561 97.901 1.3229 1.3229"/></g></g><title>GND</title></g><path d="m724 324.47v-0.46755" fill="#fa3232" stroke="#00c800" stroke-linecap="round" stroke-linejoin="round" stroke-width=".198"/><text x="748" y="327.46756" fill="none" font-family="Arial" font-size="1.4111px" font-weight="bold" stroke="#000000" stroke-linecap="round" stroke-linejoin="round" stroke-width=".19844" xml:space="preserve"><tspan x="748" y="327.46756" fill="#e13200" font-family="sans-serif" font-weight="bold" stroke="none" stroke-width=".19844" text-align="center" text-anchor="middle">B(2)</tspan></text></g></svg>
