<svg width="55.251mm" height="29.989mm" version="1.1" viewBox="0 0 55.251 29.989" xml:space="preserve" xmlns="http://www.w3.org/2000/svg"><defs><marker id="ConcaveTriangle-16-42-5-1-1-7-6-6-2-1-6-9-3-7-3-7-8-93-94-8-4-22-5" overflow="visible" markerHeight="0.60000002" markerWidth="0.60000002" orient="auto-start-reverse" preserveAspectRatio="xMidYMid" viewBox="0 0 1 1"><path transform="scale(.7)" d="m-2-4 11 4-11 4c2-2.33 2-5.66 0-8z" fill="context-stroke" fill-rule="evenodd"/></marker><marker id="ConcaveTriangle-16-42-5-1-1-7-6-6-2-1-6-9-3-7-3-7-8-93-94-8-4-22-3-6" overflow="visible" markerHeight="0.60000002" markerWidth="0.60000002" orient="auto-start-reverse" preserveAspectRatio="xMidYMid" viewBox="0 0 1 1"><path transform="scale(.7)" d="m-2-4 11 4-11 4c2-2.33 2-5.66 0-8z" fill="context-stroke" fill-rule="evenodd"/></marker><marker id="ConcaveTriangle-16-42-5-1-1-7-6-6-2-1-6-9-3-7-3-7-8-93-94-8-4-22-2-7" overflow="visible" markerHeight="0.60000002" markerWidth="0.60000002" orient="auto-start-reverse" preserveAspectRatio="xMidYMid" viewBox="0 0 1 1"><path transform="scale(.7)" d="m-2-4 11 4-11 4c2-2.33 2-5.66 0-8z" fill="context-stroke" fill-rule="evenodd"/></marker><marker id="ConcaveTriangle-16-42-5-1-1-7-6-6-2-1-6-9-3-7-3-7-8-93-94-8-4-22-2-7-2" overflow="visible" markerHeight="0.60000002" markerWidth="0.60000002" orient="auto-start-reverse" preserveAspectRatio="xMidYMid" viewBox="0 0 1 1"><path transform="scale(.7)" d="m-2-4 11 4-11 4c2-2.33 2-5.66 0-8z" fill="context-stroke" fill-rule="evenodd"/></marker></defs><g transform="translate(-717.37 -343.04)"><rect transform="matrix(0,-1,-1,0,0,0)" x="-370.02" y="-762" width="10.02" height="7.8016" fill="#c8c8c8" stroke="#000" stroke-linecap="round" stroke-linejoin="round" stroke-width=".19844"/><rect transform="matrix(0,-1,-1,0,0,0)" x="-370.92" y="-759.1" width="11.822" height="2" fill="#c8c8c8" stroke="#000" stroke-linecap="round" stroke-linejoin="round" stroke-width=".198"/><rect transform="matrix(0,-1,-1,0,0,0)" x="-368.97" y="-761.36" width="7.9688" height="1.5014" fill="#e1e1e1" stroke="#000" stroke-linecap="round" stroke-linejoin="round" stroke-width=".198"/><rect transform="matrix(0,-1,-1,0,0,0)" x="-368.47" y="-761.03" width=".90101" height=".82837" stroke="#000" stroke-linecap="round" stroke-linejoin="round" stroke-width=".198"/><rect transform="matrix(0,-1,-1,0,0,0)" x="-366.47" y="-761.03" width=".90101" height=".82837" stroke="#000" stroke-linecap="round" stroke-linejoin="round" stroke-width=".198"/><rect transform="matrix(0,-1,-1,0,0,0)" x="-364.47" y="-761.03" width=".90101" height=".82837" stroke="#000" stroke-linecap="round" stroke-linejoin="round" stroke-width=".198"/><rect transform="matrix(0,-1,-1,0,0,0)" x="-362.47" y="-761.03" width=".90101" height=".82837" stroke="#000" stroke-linecap="round" stroke-linejoin="round" stroke-width=".198"/><text x="758.13367" y="372.99997" fill="none" font-family="Arial" font-size="1.4111px" font-weight="bold" stroke="#000000" stroke-linecap="round" stroke-linejoin="round" stroke-width=".19844" xml:space="preserve"><tspan x="758.13367" y="372.99997" fill="#c8c8c8" font-family="sans-serif" font-weight="bold" stroke="none" stroke-width=".19844" text-align="center" text-anchor="middle">D</tspan></text><rect transform="rotate(-90)" x="-370.02" y="729.6" width="10.02" height="7.8016" fill="#c8c8c8" stroke="#000" stroke-linecap="round" stroke-linejoin="round" stroke-width=".19844"/><rect transform="rotate(-90)" x="-370.92" y="732.5" width="11.822" height="2" fill="#c8c8c8" stroke="#000" stroke-linecap="round" stroke-linejoin="round" stroke-width=".198"/><rect transform="rotate(-90)" x="-368.97" y="730.24" width="7.9688" height="1.5014" fill="#e1e1e1" stroke="#000" stroke-linecap="round" stroke-linejoin="round" stroke-width=".198"/><rect transform="rotate(-90)" x="-368.47" y="730.56" width=".90101" height=".82837" stroke="#000" stroke-linecap="round" stroke-linejoin="round" stroke-width=".198"/><rect transform="rotate(-90)" x="-366.47" y="730.56" width=".90101" height=".82837" stroke="#000" stroke-linecap="round" stroke-linejoin="round" stroke-width=".198"/><rect transform="rotate(-90)" x="-364.47" y="730.56" width=".90101" height=".82837" stroke="#000" stroke-linecap="round" stroke-linejoin="round" stroke-width=".198"/><rect transform="rotate(-90)" x="-362.47" y="730.56" width=".90101" height=".82837" stroke="#000" stroke-linecap="round" stroke-linejoin="round" stroke-width=".198"/><text x="733.40161" y="372.99997" fill="none" font-family="Arial" font-size="1.4111px" font-weight="bold" stroke="#000000" stroke-linecap="round" stroke-linejoin="round" stroke-width=".19844" xml:space="preserve"><tspan x="733.40161" y="372.99997" fill="#c8c8c8" font-family="sans-serif" font-weight="bold" stroke="none" stroke-width=".19844" text-align="center" text-anchor="middle">D</tspan></text><rect transform="rotate(-90)" x="-370.02" y="734.5" width="10.02" height="7.8016" fill="#ffffaf" stroke="#000" stroke-linecap="round" stroke-linejoin="round" stroke-width=".19844"/><rect transform="rotate(-90)" x="-370.92" y="737.4" width="11.822" height="2" fill="#c8c8c8" stroke="#000" stroke-linecap="round" stroke-linejoin="round" stroke-width=".198"/><rect transform="rotate(-90)" x="-368.97" y="735.14" width="7.9688" height="1.5014" fill="#32c832" stroke="#000" stroke-linecap="round" stroke-linejoin="round" stroke-width=".198"/><rect transform="rotate(-90)" x="-368.47" y="735.46" width=".90101" height=".82837" stroke="#000" stroke-linecap="round" stroke-linejoin="round" stroke-width=".198"/><rect transform="rotate(-90)" x="-366.47" y="735.46" width=".90101" height=".82837" stroke="#000" stroke-linecap="round" stroke-linejoin="round" stroke-width=".198"/><rect transform="rotate(-90)" x="-364.47" y="735.46" width=".90101" height=".82837" stroke="#000" stroke-linecap="round" stroke-linejoin="round" stroke-width=".198"/><rect transform="rotate(-90)" x="-362.47" y="735.46" width=".90101" height=".82837" stroke="#000" stroke-linecap="round" stroke-linejoin="round" stroke-width=".198"/><rect transform="rotate(-90)" x="-370.02" y="739.4" width="10.02" height="7.8016" fill="#afffff" stroke="#000" stroke-linecap="round" stroke-linejoin="round" stroke-width=".19844"/><rect transform="rotate(-90)" x="-370.92" y="742.3" width="11.822" height="2" fill="#c8c8c8" stroke="#000" stroke-linecap="round" stroke-linejoin="round" stroke-width=".198"/><rect transform="rotate(-90)" x="-368.97" y="740.05" width="7.9688" height="1.5014" fill="#32c832" stroke="#000" stroke-linecap="round" stroke-linejoin="round" stroke-width=".198"/><rect transform="rotate(-90)" x="-368.47" y="740.38" width=".90101" height=".82837" stroke="#000" stroke-linecap="round" stroke-linejoin="round" stroke-width=".198"/><rect transform="rotate(-90)" x="-366.47" y="740.38" width=".90101" height=".82837" stroke="#000" stroke-linecap="round" stroke-linejoin="round" stroke-width=".198"/><rect transform="rotate(-90)" x="-364.47" y="740.38" width=".90101" height=".82837" stroke="#000" stroke-linecap="round" stroke-linejoin="round" stroke-width=".198"/><rect transform="rotate(-90)" x="-362.47" y="740.38" width=".90101" height=".82837" stroke="#000" stroke-linecap="round" stroke-linejoin="round" stroke-width=".198"/><text x="738.29761" y="373.02591" fill="none" font-family="Arial" font-size="1.4111px" font-weight="bold" stroke="#000000" stroke-linecap="round" stroke-linejoin="round" stroke-width=".19844" xml:space="preserve"><tspan x="738.29761" y="373.02591" fill="#c8c800" font-family="sans-serif" font-weight="bold" stroke="none" stroke-width=".19844" text-align="center" text-anchor="middle">B</tspan></text><text x="743.43463" y="373.02591" fill="none" font-family="Arial" font-size="1.4111px" font-weight="bold" stroke="#000000" stroke-linecap="round" stroke-linejoin="round" stroke-width=".19844" xml:space="preserve"><tspan x="743.43463" y="373.02591" fill="#0096c8" font-family="sans-serif" font-weight="bold" stroke="none" stroke-width=".19844" text-align="center" text-anchor="middle">A</tspan></text><rect transform="matrix(0,-1,-1,0,0,0)" x="-370.02" y="-757" width="10.02" height="7.8016" fill="#ffffaf" stroke="#000" stroke-linecap="round" stroke-linejoin="round" stroke-width=".19844"/><rect transform="matrix(0,-1,-1,0,0,0)" x="-370.92" y="-754.1" width="11.822" height="2" fill="#c8c8c8" stroke="#000" stroke-linecap="round" stroke-linejoin="round" stroke-width=".198"/><rect transform="matrix(0,-1,-1,0,0,0)" x="-368.97" y="-756.36" width="7.9688" height="1.5014" fill="#32c832" stroke="#000" stroke-linecap="round" stroke-linejoin="round" stroke-width=".198"/><rect transform="matrix(0,-1,-1,0,0,0)" x="-368.47" y="-756.03" width=".90101" height=".82837" stroke="#000" stroke-linecap="round" stroke-linejoin="round" stroke-width=".198"/><rect transform="matrix(0,-1,-1,0,0,0)" x="-366.47" y="-756.03" width=".90101" height=".82837" stroke="#000" stroke-linecap="round" stroke-linejoin="round" stroke-width=".198"/><rect transform="matrix(0,-1,-1,0,0,0)" x="-364.47" y="-756.03" width=".90101" height=".82837" stroke="#000" stroke-linecap="round" stroke-linejoin="round" stroke-width=".198"/><rect transform="matrix(0,-1,-1,0,0,0)" x="-362.47" y="-756.03" width=".90101" height=".82837" stroke="#000" stroke-linecap="round" stroke-linejoin="round" stroke-width=".198"/><rect transform="matrix(0,-1,-1,0,0,0)" x="-370.02" y="-752.1" width="10.02" height="7.8016" fill="#afffff" stroke="#000" stroke-linecap="round" stroke-linejoin="round" stroke-width=".19844"/><rect transform="matrix(0,-1,-1,0,0,0)" x="-370.92" y="-749.2" width="11.822" height="2" fill="#c8c8c8" stroke="#000" stroke-linecap="round" stroke-linejoin="round" stroke-width=".198"/><rect transform="matrix(0,-1,-1,0,0,0)" x="-368.97" y="-751.44" width="7.9688" height="1.5014" fill="#32c832" stroke="#000" stroke-linecap="round" stroke-linejoin="round" stroke-width=".198"/><rect transform="matrix(0,-1,-1,0,0,0)" x="-368.47" y="-751.11" width=".90101" height=".82837" stroke="#000" stroke-linecap="round" stroke-linejoin="round" stroke-width=".198"/><rect transform="matrix(0,-1,-1,0,0,0)" x="-366.47" y="-751.11" width=".90101" height=".82837" stroke="#000" stroke-linecap="round" stroke-linejoin="round" stroke-width=".198"/><rect transform="matrix(0,-1,-1,0,0,0)" x="-364.47" y="-751.11" width=".90101" height=".82837" stroke="#000" stroke-linecap="round" stroke-linejoin="round" stroke-width=".198"/><rect transform="matrix(0,-1,-1,0,0,0)" x="-362.47" y="-751.11" width=".90101" height=".82837" stroke="#000" stroke-linecap="round" stroke-linejoin="round" stroke-width=".198"/><rect transform="matrix(0,-1,-1,0,0,0)" x="-368.97" y="-746.53" width="7.9688" height="1.5014" fill="#32c832" stroke="#000" stroke-linecap="round" stroke-linejoin="round" stroke-width=".198"/><rect transform="matrix(0,-1,-1,0,0,0)" x="-368.47" y="-746.2" width=".90101" height=".82837" stroke="#000" stroke-linecap="round" stroke-linejoin="round" stroke-width=".198"/><rect transform="matrix(0,-1,-1,0,0,0)" x="-366.47" y="-746.2" width=".90101" height=".82837" stroke="#000" stroke-linecap="round" stroke-linejoin="round" stroke-width=".198"/><rect transform="matrix(0,-1,-1,0,0,0)" x="-364.47" y="-746.2" width=".90101" height=".82837" stroke="#000" stroke-linecap="round" stroke-linejoin="round" stroke-width=".198"/><rect transform="matrix(0,-1,-1,0,0,0)" x="-362.47" y="-746.2" width=".90101" height=".82837" stroke="#000" stroke-linecap="round" stroke-linejoin="round" stroke-width=".198"/><text x="753.13367" y="373.02591" fill="none" font-family="Arial" font-size="1.4111px" font-weight="bold" stroke="#000000" stroke-linecap="round" stroke-linejoin="round" stroke-width=".19844" xml:space="preserve"><tspan x="753.13367" y="373.02591" fill="#c8c800" font-family="sans-serif" font-weight="bold" stroke="none" stroke-width=".19844" text-align="center" text-anchor="middle">B</tspan></text><text transform="scale(-1,1)" x="-748.0614" y="373.02591" fill="none" font-family="Arial" font-size="1.4111px" font-weight="bold" stroke="#000000" stroke-linecap="round" stroke-linejoin="round" stroke-width=".19844" xml:space="preserve"><tspan x="-748.0614" y="373.02591" fill="#0096c8" font-family="sans-serif" font-weight="bold" stroke="none" stroke-width=".19844" text-align="center" text-anchor="middle">A</tspan></text><path d="m752.5 352.5v-1.3604" fill="none" stroke="#c8c84b" stroke-linecap="round" stroke-linejoin="bevel" stroke-width=".19844" style="paint-order:normal"/><path d="m752.5 347.5v1.4675" fill="none" stroke="#c8c84b" stroke-linecap="round" stroke-width=".19844"/><path d="m750.98 351.61v-3.2178" fill="none" stroke="#c8c84b" stroke-linecap="round" stroke-width=".19844"/><path d="m750.49 348.39v3.2178" fill="none" stroke="#c8c84b" stroke-linecap="round" stroke-width=".19844"/><path d="m749.5 350 0.97902-1e-5" fill="none" stroke="#c8c84b" stroke-linecap="round" stroke-width=".19844"/><path d="m752.5 348.96h-1.4978" fill="none" stroke="#c8c84b" stroke-linecap="round" stroke-width=".19844"/><path d="m751.79 351.14h-0.69408" fill="none" marker-start="url(#ConcaveTriangle-16-42-5-1-1-7-6-6-2-1-6-9-3-7-3-7-8-93-94-8-4-22-5)" stroke="#c8c84b" stroke-linecap="round" stroke-linejoin="round" stroke-width=".19844"/><g transform="matrix(-.44713 0 0 .44713 766.64 307.59)" stroke-width=".4438"><title>GND</title><g transform="translate(-.26259 -.11701)" stroke-width=".4438"><g transform="translate(33.547 3.5594)" fill="none" stroke="#000" stroke-linecap="round" stroke-width=".4438"><path d="m31.884 97.901v-0.91358" stroke-linejoin="round"/><path d="m30.561 97.901h2.6458"/><path d="m31.884 99.224 1.3229-1.3229"/><path d="m30.561 97.901 1.3229 1.3229"/></g></g><title>GND</title></g><circle cx="737.5" cy="343.5" r=".35968" fill="none" stroke="#000" stroke-linecap="round" stroke-linejoin="bevel" stroke-width=".19844" style="paint-order:normal"/><path d="m737.5 352.5v-1.3604" fill="none" stroke="#72ffff" stroke-linecap="round" stroke-linejoin="bevel" stroke-width=".19844" style="paint-order:normal"/><path d="m737.5 347.5v1.4675" fill="none" stroke="#72ffff" stroke-linecap="round" stroke-width=".19844"/><path d="m739.02 351.61v-3.2178" fill="none" stroke="#72ffff" stroke-linecap="round" stroke-width=".19844"/><path d="m739.51 348.39v3.2178" fill="none" stroke="#72ffff" stroke-linecap="round" stroke-width=".19844"/><path d="m740.5 350-0.97902-1e-5" fill="none" stroke="#72ffff" stroke-linecap="round" stroke-width=".19844"/><path d="m737.5 348.96h1.4978" fill="none" stroke="#72ffff" stroke-linecap="round" stroke-width=".19844"/><path d="m738.21 351.14h0.69408" fill="none" marker-start="url(#ConcaveTriangle-16-42-5-1-1-7-6-6-2-1-6-9-3-7-3-7-8-93-94-8-4-22-3-6)" stroke="#72ffff" stroke-linecap="round" stroke-linejoin="round" stroke-width=".19844"/><g transform="matrix(-.44713 0 0 .44713 781.64 307.59)" stroke-width=".4438"><title>GND</title><g transform="translate(-.26259 -.11701)" stroke-width=".4438"><g transform="translate(33.547 3.5594)" fill="none" stroke="#000" stroke-linecap="round" stroke-width=".4438"><path d="m31.884 97.901v-0.91358" stroke-linejoin="round"/><path d="m30.561 97.901h2.6458"/><path d="m31.884 99.224 1.3229-1.3229"/><path d="m30.561 97.901 1.3229 1.3229"/></g></g><title>GND</title></g><path d="m737.5 347.5v-3.6403" fill="#c8c8c8" stroke="#000" stroke-linecap="round" stroke-linejoin="round" stroke-width=".19844"/><path d="m737.5 346.5h4" fill="#c8c8c8" stroke="#000" stroke-linecap="round" stroke-linejoin="round" stroke-width=".19844"/><path d="m740.5 350h9" fill="#c8c8c8" stroke="#000" stroke-linecap="round" stroke-linejoin="round" stroke-width=".19844"/><path d="m741.5 346.5v3.5044" fill="#c8c8c8" stroke="#000" stroke-linecap="round" stroke-linejoin="round" stroke-width=".19844"/><circle cx="737.5" cy="346.5" r=".29766"/><circle cx="737.5" cy="346.5" r=".29766"/><circle cx="752.5" cy="343.5" r=".35968" fill="none" stroke="#000" stroke-linecap="round" stroke-linejoin="bevel" stroke-width=".19844" style="paint-order:normal"/><path d="m752.5 347.5v-3.6403" fill="#c8c8c8" stroke="#000" stroke-linecap="round" stroke-linejoin="round" stroke-width=".19844"/><path d="m760 352.5v-1.3604" fill="none" stroke="#c8c8c8" stroke-linecap="round" stroke-linejoin="bevel" stroke-width=".19844" style="paint-order:normal"/><path d="m760 347.5v1.4675" fill="none" stroke="#c8c8c8" stroke-linecap="round" stroke-width=".19844"/><path d="m758.48 351.61v-3.2178" fill="none" stroke="#c8c8c8" stroke-linecap="round" stroke-width=".19844"/><path d="m757.99 348.39v3.2178" fill="none" stroke="#c8c8c8" stroke-linecap="round" stroke-width=".19844"/><path d="m757 350 0.97902-1e-5" fill="none" stroke="#c8c8c8" stroke-linecap="round" stroke-width=".19844"/><path d="m760 348.96h-1.4978" fill="none" stroke="#c8c8c8" stroke-linecap="round" stroke-width=".19844"/><path d="m759.29 351.14h-0.69408" fill="none" marker-start="url(#ConcaveTriangle-16-42-5-1-1-7-6-6-2-1-6-9-3-7-3-7-8-93-94-8-4-22-2-7)" stroke="#c8c8c8" stroke-linecap="round" stroke-linejoin="round" stroke-width=".19844"/><text x="760.51099" y="355.46536" fill="none" font-family="Arial" font-size="1.4111px" font-weight="bold" stroke="#000000" stroke-linecap="round" stroke-linejoin="round" stroke-width=".19844" xml:space="preserve"><tspan x="760.51099" y="355.46536" fill="#c8c8c8" font-family="sans-serif" font-weight="bold" stroke="none" stroke-width=".19844" text-align="center" text-anchor="middle">D</tspan></text><text transform="scale(-1,1)" x="-737.5" y="355.49567" fill="none" font-family="Arial" font-size="1.4111px" font-weight="bold" stroke="#000000" stroke-linecap="round" stroke-linejoin="round" stroke-width=".19844" xml:space="preserve"><tspan x="-737.5" y="355.49567" fill="#0096c8" font-family="sans-serif" font-weight="bold" stroke="none" stroke-width=".19844" text-align="center" text-anchor="middle">A</tspan></text><text x="752.5" y="355.49567" fill="none" font-family="Arial" font-size="1.4111px" font-weight="bold" stroke="#000000" stroke-linecap="round" stroke-linejoin="round" stroke-width=".19844" xml:space="preserve"><tspan x="752.5" y="355.49567" fill="#c8c800" font-family="sans-serif" font-weight="bold" stroke="none" stroke-width=".19844" text-align="center" text-anchor="middle">B</tspan></text><circle cx="752.5" cy="345.01" r=".29766"/><path d="m760 352.5v0.50435h2v-8h-9.5" fill="none" stroke="#000" stroke-linecap="round" stroke-linejoin="round" stroke-width=".19844"/><path d="m760 347.5v-2.4957" fill="none" stroke="#000" stroke-linecap="round" stroke-linejoin="round" stroke-width=".19844"/><path d="m757 350h-0.99999" fill="none" stroke="#000" stroke-linecap="round" stroke-linejoin="round" stroke-width=".19844"/><path d="m756 350v-5" fill="none" stroke="#000" stroke-linecap="round" stroke-linejoin="round" stroke-width=".19844"/><path d="m766.68 350.13h2.6315" fill="none" stroke="#000" stroke-linecap="round" stroke-linejoin="round" stroke-width=".19844" style="paint-order:markers stroke fill"/><path d="m768 350v-1" fill="none" stroke="#000" stroke-linecap="round" stroke-linejoin="round" stroke-width=".19844" style="paint-order:markers stroke fill"/><path d="m768 353v-1.9997" fill="none" stroke="#000" stroke-linecap="round" stroke-linejoin="round" stroke-width=".19844" style="paint-order:markers stroke fill"/><path d="m766.68 350.87h2.6315" fill="none" stroke="#000" stroke-linecap="round" stroke-linejoin="round" stroke-width=".19844" style="paint-order:markers stroke fill"/><g transform="matrix(-.44713 0 0 .44713 797.14 308.1)" stroke-width=".4438"><title>GND</title><g transform="translate(-.26259 -.11701)" stroke-width=".4438"><g transform="translate(33.547 3.5594)" fill="none" stroke="#000" stroke-linecap="round" stroke-width=".4438"><path d="m31.884 97.901v-0.91358" stroke-linejoin="round"/><path d="m30.561 97.901h2.6458"/><path d="m31.884 99.224 1.3229-1.3229"/><path d="m30.561 97.901 1.3229 1.3229"/></g></g><title>GND</title></g><path d="m762 345c3.6157 0.48551 6 2.1502 6 4" fill="none" stroke="#000" stroke-linecap="round" stroke-linejoin="round" stroke-width=".19844"/><text x="770.32935" y="351" fill="none" font-family="Arial" font-size="1.4111px" font-weight="bold" stroke="#000000" stroke-linecap="round" stroke-linejoin="round" stroke-width=".19844" xml:space="preserve"><tspan x="770.32935" y="351" fill="#000000" font-family="sans-serif" font-style="italic" font-weight="normal" stroke="none" stroke-width=".19844">C<tspan baseline-shift="sub" font-size="65%">GB</tspan></tspan></text><circle cx="762" cy="345" r=".29766"/><path d="m730 352.5v-1.3604" fill="none" stroke="#c8c8c8" stroke-linecap="round" stroke-linejoin="bevel" stroke-width=".19844" style="paint-order:normal"/><path d="m730 347.5v1.4675" fill="none" stroke="#c8c8c8" stroke-linecap="round" stroke-width=".19844"/><path d="m731.52 351.61v-3.2178" fill="none" stroke="#c8c8c8" stroke-linecap="round" stroke-width=".19844"/><path d="m732.01 348.39v3.2178" fill="none" stroke="#c8c8c8" stroke-linecap="round" stroke-width=".19844"/><path d="m733 350-0.97902-1e-5" fill="none" stroke="#c8c8c8" stroke-linecap="round" stroke-width=".19844"/><path d="m730 348.96h1.4978" fill="none" stroke="#c8c8c8" stroke-linecap="round" stroke-width=".19844"/><path d="m730.71 351.14h0.69408" fill="none" marker-start="url(#ConcaveTriangle-16-42-5-1-1-7-6-6-2-1-6-9-3-7-3-7-8-93-94-8-4-22-2-7-2)" stroke="#c8c8c8" stroke-linecap="round" stroke-linejoin="round" stroke-width=".19844"/><text x="729.21411" y="355.2504" fill="none" font-family="Arial" font-size="1.4111px" font-weight="bold" stroke="#000000" stroke-linecap="round" stroke-linejoin="round" stroke-width=".19844" xml:space="preserve"><tspan x="729.21411" y="355.2504" fill="#c8c8c8" font-family="sans-serif" font-weight="bold" stroke="none" stroke-width=".19844" text-align="center" text-anchor="middle">D</tspan></text><circle transform="scale(-1,1)" cx="-737.5" cy="345.01" r=".29766"/><path d="m730 352.5v0.50435h-2v-8h9.5" fill="none" stroke="#000" stroke-linecap="round" stroke-linejoin="round" stroke-width=".19844"/><path d="m730 347.5v-2.4957" fill="none" stroke="#000" stroke-linecap="round" stroke-linejoin="round" stroke-width=".19844"/><path d="m733 350h0.99999" fill="none" stroke="#000" stroke-linecap="round" stroke-linejoin="round" stroke-width=".19844"/><path d="m734 350v-5" fill="none" stroke="#000" stroke-linecap="round" stroke-linejoin="round" stroke-width=".19844"/><path d="m723.32 350.13h-2.6315" fill="none" stroke="#000" stroke-linecap="round" stroke-linejoin="round" stroke-width=".19844" style="paint-order:markers stroke fill"/><path d="m722 350v-1" fill="none" stroke="#000" stroke-linecap="round" stroke-linejoin="round" stroke-width=".19844" style="paint-order:markers stroke fill"/><path d="m722 353v-1.9997" fill="none" stroke="#000" stroke-linecap="round" stroke-linejoin="round" stroke-width=".19844" style="paint-order:markers stroke fill"/><path d="m723.32 350.87h-2.6315" fill="none" stroke="#000" stroke-linecap="round" stroke-linejoin="round" stroke-width=".19844" style="paint-order:markers stroke fill"/><g transform="matrix(.44713 0 0 .44713 692.86 308.1)" stroke-width=".4438"><title>GND</title><g transform="translate(-.26259 -.11701)" stroke-width=".4438"><g transform="translate(33.547 3.5594)" fill="none" stroke="#000" stroke-linecap="round" stroke-width=".4438"><path d="m31.884 97.901v-0.91358" stroke-linejoin="round"/><path d="m30.561 97.901h2.6458"/><path d="m31.884 99.224 1.3229-1.3229"/><path d="m30.561 97.901 1.3229 1.3229"/></g></g><title>GND</title></g><path d="m728 345c-3.6157 0.48551-6 2.1502-6 4" fill="none" stroke="#000" stroke-linecap="round" stroke-linejoin="round" stroke-width=".19844"/><text x="717.28284" y="351" fill="none" font-family="Arial" font-size="1.4111px" font-weight="bold" stroke="#000000" stroke-linecap="round" stroke-linejoin="round" stroke-width=".19844" xml:space="preserve"><tspan x="717.28284" y="351" fill="#000000" font-family="sans-serif" font-style="italic" font-weight="normal" stroke="none" stroke-width=".19844">C<tspan baseline-shift="sub" font-size="65%">GB</tspan></tspan></text><circle transform="scale(-1,1)" cx="-728" cy="345" r=".29766"/></g></svg>
