<svg width="66.802mm" height="32.485mm" version="1.1" viewBox="0 0 66.802 32.485" xml:space="preserve" xmlns="http://www.w3.org/2000/svg"><defs><marker id="ConcaveTriangle-16-42-5-1-1-7-6-6-2-1-6-9-3-7-3-7-8-93-94-8-4-22" overflow="visible" markerHeight="0.60000002" markerWidth="0.60000002" orient="auto-start-reverse" preserveAspectRatio="xMidYMid" viewBox="0 0 1 1"><path transform="scale(.7)" d="m-2-4 11 4-11 4c2-2.33 2-5.66 0-8z" fill="context-stroke" fill-rule="evenodd"/></marker><marker id="ConcaveTriangle-16-42-5-1-1-7-6-6-2-1-6-9-3-7-3-7-8-93-94-8-4-22-3" overflow="visible" markerHeight="0.60000002" markerWidth="0.60000002" orient="auto-start-reverse" preserveAspectRatio="xMidYMid" viewBox="0 0 1 1"><path transform="scale(.7)" d="m-2-4 11 4-11 4c2-2.33 2-5.66 0-8z" fill="context-stroke" fill-rule="evenodd"/></marker><marker id="ConcaveTriangle-16-42-5-1-1-7-6-6-2-1-6-9-3-7-3-7-8-93-94-8-4-22-2" overflow="visible" markerHeight="0.60000002" markerWidth="0.60000002" orient="auto-start-reverse" preserveAspectRatio="xMidYMid" viewBox="0 0 1 1"><path transform="scale(.7)" d="m-2-4 11 4-11 4c2-2.33 2-5.66 0-8z" fill="context-stroke" fill-rule="evenodd"/></marker><marker id="ConcaveTriangle-16-42-5-1-1-7-6-6-2-1-6-9-3-7-3-7-8-93-94-8-4-22-2-8" overflow="visible" markerHeight="0.60000002" markerWidth="0.60000002" orient="auto-start-reverse" preserveAspectRatio="xMidYMid" viewBox="0 0 1 1"><path transform="scale(.7)" d="m-2-4 11 4-11 4c2-2.33 2-5.66 0-8z" fill="context-stroke" fill-rule="evenodd"/></marker></defs><g transform="translate(-715.1 -300.54)"><rect transform="rotate(-90)" x="-330.02" y="727" width="10.02" height="7.8016" fill="#ffffaf" stroke="#000" stroke-linecap="round" stroke-linejoin="round" stroke-width=".19844"/><rect transform="rotate(-90)" x="-330.92" y="729.9" width="11.822" height="2" fill="#c8c8c8" stroke="#000" stroke-linecap="round" stroke-linejoin="round" stroke-width=".198"/><rect transform="rotate(-90)" x="-328.97" y="727.64" width="7.9688" height="1.5014" fill="#32c832" stroke="#000" stroke-linecap="round" stroke-linejoin="round" stroke-width=".198"/><rect transform="rotate(-90)" x="-328.47" y="727.97" width=".90101" height=".82837" stroke="#000" stroke-linecap="round" stroke-linejoin="round" stroke-width=".198"/><rect transform="rotate(-90)" x="-326.47" y="727.97" width=".90101" height=".82837" stroke="#000" stroke-linecap="round" stroke-linejoin="round" stroke-width=".198"/><rect transform="rotate(-90)" x="-324.47" y="727.97" width=".90101" height=".82837" stroke="#000" stroke-linecap="round" stroke-linejoin="round" stroke-width=".198"/><rect transform="rotate(-90)" x="-322.47" y="727.97" width=".90101" height=".82837" stroke="#000" stroke-linecap="round" stroke-linejoin="round" stroke-width=".198"/><rect transform="rotate(-90)" x="-328.97" y="732.57" width="7.9688" height="1.5014" fill="#32c832" stroke="#000" stroke-linecap="round" stroke-linejoin="round" stroke-width=".198"/><rect transform="rotate(-90)" x="-328.47" y="732.9" width=".90101" height=".82837" stroke="#000" stroke-linecap="round" stroke-linejoin="round" stroke-width=".198"/><rect transform="rotate(-90)" x="-326.47" y="732.9" width=".90101" height=".82837" stroke="#000" stroke-linecap="round" stroke-linejoin="round" stroke-width=".198"/><rect transform="rotate(-90)" x="-324.47" y="732.9" width=".90101" height=".82837" stroke="#000" stroke-linecap="round" stroke-linejoin="round" stroke-width=".198"/><rect transform="rotate(-90)" x="-322.47" y="732.9" width=".90101" height=".82837" stroke="#000" stroke-linecap="round" stroke-linejoin="round" stroke-width=".198"/><rect transform="rotate(-90)" x="-330.02" y="738.8" width="10.02" height="7.8016" fill="#afffff" stroke="#000" stroke-linecap="round" stroke-linejoin="round" stroke-width=".19844"/><rect transform="rotate(-90)" x="-330.92" y="741.7" width="11.822" height="2" fill="#c8c8c8" stroke="#000" stroke-linecap="round" stroke-linejoin="round" stroke-width=".198"/><rect transform="rotate(-90)" x="-328.97" y="739.46" width="7.9688" height="1.5014" fill="#32c832" stroke="#000" stroke-linecap="round" stroke-linejoin="round" stroke-width=".198"/><rect transform="rotate(-90)" x="-328.47" y="739.79" width=".90101" height=".82837" stroke="#000" stroke-linecap="round" stroke-linejoin="round" stroke-width=".198"/><rect transform="rotate(-90)" x="-326.47" y="739.79" width=".90101" height=".82837" stroke="#000" stroke-linecap="round" stroke-linejoin="round" stroke-width=".198"/><rect transform="rotate(-90)" x="-324.47" y="739.79" width=".90101" height=".82837" stroke="#000" stroke-linecap="round" stroke-linejoin="round" stroke-width=".198"/><rect transform="rotate(-90)" x="-322.47" y="739.79" width=".90101" height=".82837" stroke="#000" stroke-linecap="round" stroke-linejoin="round" stroke-width=".198"/><rect transform="rotate(-90)" x="-328.97" y="744.37" width="7.9688" height="1.5014" fill="#32c832" stroke="#000" stroke-linecap="round" stroke-linejoin="round" stroke-width=".198"/><rect transform="rotate(-90)" x="-328.47" y="744.7" width=".90101" height=".82837" stroke="#000" stroke-linecap="round" stroke-linejoin="round" stroke-width=".198"/><rect transform="rotate(-90)" x="-326.47" y="744.7" width=".90101" height=".82837" stroke="#000" stroke-linecap="round" stroke-linejoin="round" stroke-width=".198"/><rect transform="rotate(-90)" x="-324.47" y="744.7" width=".90101" height=".82837" stroke="#000" stroke-linecap="round" stroke-linejoin="round" stroke-width=".198"/><rect transform="rotate(-90)" x="-322.47" y="744.7" width=".90101" height=".82837" stroke="#000" stroke-linecap="round" stroke-linejoin="round" stroke-width=".198"/><text x="730.80157" y="333.02591" fill="none" font-family="Arial" font-size="1.4111px" font-weight="bold" stroke="#000000" stroke-linecap="round" stroke-linejoin="round" stroke-width=".19844" xml:space="preserve"><tspan x="730.80157" y="333.02591" fill="#c8c800" font-family="sans-serif" font-weight="bold" stroke="none" stroke-width=".19844" text-align="center" text-anchor="middle">B</tspan></text><text x="742.83936" y="333.02591" fill="none" font-family="Arial" font-size="1.4111px" font-weight="bold" stroke="#000000" stroke-linecap="round" stroke-linejoin="round" stroke-width=".19844" xml:space="preserve"><tspan x="742.83936" y="333.02591" fill="#0096c8" font-family="sans-serif" font-weight="bold" stroke="none" stroke-width=".19844" text-align="center" text-anchor="middle">A</tspan></text><rect transform="matrix(0,-1,-1,0,0,0)" x="-330.02" y="-770.4" width="10.02" height="7.8016" fill="#ffffaf" stroke="#000" stroke-linecap="round" stroke-linejoin="round" stroke-width=".19844"/><rect transform="matrix(0,-1,-1,0,0,0)" x="-330.92" y="-767.5" width="11.822" height="2" fill="#c8c8c8" stroke="#000" stroke-linecap="round" stroke-linejoin="round" stroke-width=".198"/><rect transform="matrix(0,-1,-1,0,0,0)" x="-328.97" y="-769.76" width="7.9688" height="1.5014" fill="#32c832" stroke="#000" stroke-linecap="round" stroke-linejoin="round" stroke-width=".198"/><rect transform="matrix(0,-1,-1,0,0,0)" x="-328.47" y="-769.44" width=".90101" height=".82837" stroke="#000" stroke-linecap="round" stroke-linejoin="round" stroke-width=".198"/><rect transform="matrix(0,-1,-1,0,0,0)" x="-326.47" y="-769.44" width=".90101" height=".82837" stroke="#000" stroke-linecap="round" stroke-linejoin="round" stroke-width=".198"/><rect transform="matrix(0,-1,-1,0,0,0)" x="-324.47" y="-769.44" width=".90101" height=".82837" stroke="#000" stroke-linecap="round" stroke-linejoin="round" stroke-width=".198"/><rect transform="matrix(0,-1,-1,0,0,0)" x="-322.47" y="-769.44" width=".90101" height=".82837" stroke="#000" stroke-linecap="round" stroke-linejoin="round" stroke-width=".198"/><rect transform="matrix(0,-1,-1,0,0,0)" x="-328.97" y="-764.83" width="7.9688" height="1.5014" fill="#32c832" stroke="#000" stroke-linecap="round" stroke-linejoin="round" stroke-width=".198"/><rect transform="matrix(0,-1,-1,0,0,0)" x="-328.47" y="-764.5" width=".90101" height=".82837" stroke="#000" stroke-linecap="round" stroke-linejoin="round" stroke-width=".198"/><rect transform="matrix(0,-1,-1,0,0,0)" x="-326.47" y="-764.5" width=".90101" height=".82837" stroke="#000" stroke-linecap="round" stroke-linejoin="round" stroke-width=".198"/><rect transform="matrix(0,-1,-1,0,0,0)" x="-324.47" y="-764.5" width=".90101" height=".82837" stroke="#000" stroke-linecap="round" stroke-linejoin="round" stroke-width=".198"/><rect transform="matrix(0,-1,-1,0,0,0)" x="-322.47" y="-764.5" width=".90101" height=".82837" stroke="#000" stroke-linecap="round" stroke-linejoin="round" stroke-width=".198"/><rect transform="matrix(0,-1,-1,0,0,0)" x="-330.02" y="-758.6" width="10.02" height="7.8016" fill="#afffff" stroke="#000" stroke-linecap="round" stroke-linejoin="round" stroke-width=".19844"/><rect transform="matrix(0,-1,-1,0,0,0)" x="-330.92" y="-755.7" width="11.822" height="2" fill="#c8c8c8" stroke="#000" stroke-linecap="round" stroke-linejoin="round" stroke-width=".198"/><rect transform="matrix(0,-1,-1,0,0,0)" x="-328.97" y="-757.95" width="7.9688" height="1.5014" fill="#32c832" stroke="#000" stroke-linecap="round" stroke-linejoin="round" stroke-width=".198"/><rect transform="matrix(0,-1,-1,0,0,0)" x="-328.47" y="-757.62" width=".90101" height=".82837" stroke="#000" stroke-linecap="round" stroke-linejoin="round" stroke-width=".198"/><rect transform="matrix(0,-1,-1,0,0,0)" x="-326.47" y="-757.62" width=".90101" height=".82837" stroke="#000" stroke-linecap="round" stroke-linejoin="round" stroke-width=".198"/><rect transform="matrix(0,-1,-1,0,0,0)" x="-324.47" y="-757.62" width=".90101" height=".82837" stroke="#000" stroke-linecap="round" stroke-linejoin="round" stroke-width=".198"/><rect transform="matrix(0,-1,-1,0,0,0)" x="-322.47" y="-757.62" width=".90101" height=".82837" stroke="#000" stroke-linecap="round" stroke-linejoin="round" stroke-width=".198"/><rect transform="matrix(0,-1,-1,0,0,0)" x="-328.97" y="-753.03" width="7.9688" height="1.5014" fill="#32c832" stroke="#000" stroke-linecap="round" stroke-linejoin="round" stroke-width=".198"/><rect transform="matrix(0,-1,-1,0,0,0)" x="-328.47" y="-752.7" width=".90101" height=".82837" stroke="#000" stroke-linecap="round" stroke-linejoin="round" stroke-width=".198"/><rect transform="matrix(0,-1,-1,0,0,0)" x="-326.47" y="-752.7" width=".90101" height=".82837" stroke="#000" stroke-linecap="round" stroke-linejoin="round" stroke-width=".198"/><rect transform="matrix(0,-1,-1,0,0,0)" x="-324.47" y="-752.7" width=".90101" height=".82837" stroke="#000" stroke-linecap="round" stroke-linejoin="round" stroke-width=".198"/><rect transform="matrix(0,-1,-1,0,0,0)" x="-322.47" y="-752.7" width=".90101" height=".82837" stroke="#000" stroke-linecap="round" stroke-linejoin="round" stroke-width=".198"/><text x="766.53839" y="333.02591" fill="none" font-family="Arial" font-size="1.4111px" font-weight="bold" stroke="#000000" stroke-linecap="round" stroke-linejoin="round" stroke-width=".19844" xml:space="preserve"><tspan x="766.53839" y="333.02591" fill="#c8c800" font-family="sans-serif" font-weight="bold" stroke="none" stroke-width=".19844" text-align="center" text-anchor="middle">B</tspan></text><text transform="scale(-1,1)" x="-754.56537" y="333.02591" fill="none" font-family="Arial" font-size="1.4111px" font-weight="bold" stroke="#000000" stroke-linecap="round" stroke-linejoin="round" stroke-width=".19844" xml:space="preserve"><tspan x="-754.56537" y="333.02591" fill="#0096c8" font-family="sans-serif" font-weight="bold" stroke="none" stroke-width=".19844" text-align="center" text-anchor="middle">A</tspan></text><rect transform="matrix(0,-1,-1,0,0,0)" x="-330.02" y="-781.8" width="10.02" height="7.8016" fill="#c8c8c8" stroke="#000" stroke-linecap="round" stroke-linejoin="round" stroke-width=".19844"/><rect transform="matrix(0,-1,-1,0,0,0)" x="-330.92" y="-778.9" width="11.822" height="2" fill="#c8c8c8" stroke="#000" stroke-linecap="round" stroke-linejoin="round" stroke-width=".198"/><rect transform="matrix(0,-1,-1,0,0,0)" x="-328.97" y="-781.16" width="7.9688" height="1.5014" fill="#e1e1e1" stroke="#000" stroke-linecap="round" stroke-linejoin="round" stroke-width=".198"/><rect transform="matrix(0,-1,-1,0,0,0)" x="-328.47" y="-780.84" width=".90101" height=".82837" stroke="#000" stroke-linecap="round" stroke-linejoin="round" stroke-width=".198"/><rect transform="matrix(0,-1,-1,0,0,0)" x="-326.47" y="-780.84" width=".90101" height=".82837" stroke="#000" stroke-linecap="round" stroke-linejoin="round" stroke-width=".198"/><rect transform="matrix(0,-1,-1,0,0,0)" x="-324.47" y="-780.84" width=".90101" height=".82837" stroke="#000" stroke-linecap="round" stroke-linejoin="round" stroke-width=".198"/><rect transform="matrix(0,-1,-1,0,0,0)" x="-322.47" y="-780.84" width=".90101" height=".82837" stroke="#000" stroke-linecap="round" stroke-linejoin="round" stroke-width=".198"/><rect transform="matrix(0,-1,-1,0,0,0)" x="-328.97" y="-776.23" width="7.9688" height="1.5014" fill="#e1e1e1" stroke="#000" stroke-linecap="round" stroke-linejoin="round" stroke-width=".198"/><rect transform="matrix(0,-1,-1,0,0,0)" x="-328.47" y="-775.9" width=".90101" height=".82837" stroke="#000" stroke-linecap="round" stroke-linejoin="round" stroke-width=".198"/><rect transform="matrix(0,-1,-1,0,0,0)" x="-326.47" y="-775.9" width=".90101" height=".82837" stroke="#000" stroke-linecap="round" stroke-linejoin="round" stroke-width=".198"/><rect transform="matrix(0,-1,-1,0,0,0)" x="-324.47" y="-775.9" width=".90101" height=".82837" stroke="#000" stroke-linecap="round" stroke-linejoin="round" stroke-width=".198"/><rect transform="matrix(0,-1,-1,0,0,0)" x="-322.47" y="-775.9" width=".90101" height=".82837" stroke="#000" stroke-linecap="round" stroke-linejoin="round" stroke-width=".198"/><text x="777.93524" y="332.99997" fill="none" font-family="Arial" font-size="1.4111px" font-weight="bold" stroke="#000000" stroke-linecap="round" stroke-linejoin="round" stroke-width=".19844" xml:space="preserve"><tspan x="777.93524" y="332.99997" fill="#c8c8c8" font-family="sans-serif" font-weight="bold" stroke="none" stroke-width=".19844" text-align="center" text-anchor="middle">D</tspan></text><rect transform="matrix(0,-1,-1,0,0,0)" x="-330.02" y="-723" width="10.02" height="7.8016" fill="#c8c8c8" stroke="#000" stroke-linecap="round" stroke-linejoin="round" stroke-width=".19844"/><rect transform="matrix(0,-1,-1,0,0,0)" x="-330.92" y="-720.1" width="11.822" height="2" fill="#c8c8c8" stroke="#000" stroke-linecap="round" stroke-linejoin="round" stroke-width=".198"/><rect transform="matrix(0,-1,-1,0,0,0)" x="-328.97" y="-722.36" width="7.9688" height="1.5014" fill="#e1e1e1" stroke="#000" stroke-linecap="round" stroke-linejoin="round" stroke-width=".198"/><rect transform="matrix(0,-1,-1,0,0,0)" x="-328.47" y="-722.03" width=".90101" height=".82837" stroke="#000" stroke-linecap="round" stroke-linejoin="round" stroke-width=".198"/><rect transform="matrix(0,-1,-1,0,0,0)" x="-326.47" y="-722.03" width=".90101" height=".82837" stroke="#000" stroke-linecap="round" stroke-linejoin="round" stroke-width=".198"/><rect transform="matrix(0,-1,-1,0,0,0)" x="-324.47" y="-722.03" width=".90101" height=".82837" stroke="#000" stroke-linecap="round" stroke-linejoin="round" stroke-width=".198"/><rect transform="matrix(0,-1,-1,0,0,0)" x="-322.47" y="-722.03" width=".90101" height=".82837" stroke="#000" stroke-linecap="round" stroke-linejoin="round" stroke-width=".198"/><rect transform="matrix(0,-1,-1,0,0,0)" x="-328.97" y="-717.43" width="7.9688" height="1.5014" fill="#e1e1e1" stroke="#000" stroke-linecap="round" stroke-linejoin="round" stroke-width=".198"/><rect transform="matrix(0,-1,-1,0,0,0)" x="-328.47" y="-717.1" width=".90101" height=".82837" stroke="#000" stroke-linecap="round" stroke-linejoin="round" stroke-width=".198"/><rect transform="matrix(0,-1,-1,0,0,0)" x="-326.47" y="-717.1" width=".90101" height=".82837" stroke="#000" stroke-linecap="round" stroke-linejoin="round" stroke-width=".198"/><rect transform="matrix(0,-1,-1,0,0,0)" x="-324.47" y="-717.1" width=".90101" height=".82837" stroke="#000" stroke-linecap="round" stroke-linejoin="round" stroke-width=".198"/><rect transform="matrix(0,-1,-1,0,0,0)" x="-322.47" y="-717.1" width=".90101" height=".82837" stroke="#000" stroke-linecap="round" stroke-linejoin="round" stroke-width=".198"/><text x="719.13367" y="332.99997" fill="none" font-family="Arial" font-size="1.4111px" font-weight="bold" stroke="#000000" stroke-linecap="round" stroke-linejoin="round" stroke-width=".19844" xml:space="preserve"><tspan x="719.13367" y="332.99997" fill="#c8c8c8" font-family="sans-serif" font-weight="bold" stroke="none" stroke-width=".19844" text-align="center" text-anchor="middle">D</tspan></text><path d="m760 310v-1.3604" fill="none" stroke="#c8c84b" stroke-linecap="round" stroke-linejoin="bevel" stroke-width=".19844" style="paint-order:normal"/><path d="m760 305v1.4675" fill="none" stroke="#c8c84b" stroke-linecap="round" stroke-width=".19844"/><path d="m758.48 309.11v-3.2178" fill="none" stroke="#c8c84b" stroke-linecap="round" stroke-width=".19844"/><path d="m757.99 305.9v3.2178" fill="none" stroke="#c8c84b" stroke-linecap="round" stroke-width=".19844"/><path d="m757 307.5 0.97902-1e-5" fill="none" stroke="#c8c84b" stroke-linecap="round" stroke-width=".19844"/><path d="m760 306.47h-1.4978" fill="none" stroke="#c8c84b" stroke-linecap="round" stroke-width=".19844"/><path d="m759.29 308.64h-0.69408" fill="none" marker-start="url(#ConcaveTriangle-16-42-5-1-1-7-6-6-2-1-6-9-3-7-3-7-8-93-94-8-4-22)" stroke="#c8c84b" stroke-linecap="round" stroke-linejoin="round" stroke-width=".19844"/><g transform="matrix(-.44713 0 0 .44713 774.14 265.1)" stroke-width=".4438"><title>GND</title><g transform="translate(-.26259 -.11701)" stroke-width=".4438"><g transform="translate(33.547 3.5594)" fill="none" stroke="#000" stroke-linecap="round" stroke-width=".4438"><path d="m31.884 97.901v-0.91358" stroke-linejoin="round"/><path d="m30.561 97.901h2.6458"/><path d="m31.884 99.224 1.3229-1.3229"/><path d="m30.561 97.901 1.3229 1.3229"/></g></g><title>GND</title></g><circle cx="745" cy="301" r=".35968" fill="none" stroke="#000" stroke-linecap="round" stroke-linejoin="bevel" stroke-width=".19844" style="paint-order:normal"/><path d="m745 310v-1.3604" fill="none" stroke="#72ffff" stroke-linecap="round" stroke-linejoin="bevel" stroke-width=".19844" style="paint-order:normal"/><path d="m745 305v1.4675" fill="none" stroke="#72ffff" stroke-linecap="round" stroke-width=".19844"/><path d="m746.52 309.11v-3.2178" fill="none" stroke="#72ffff" stroke-linecap="round" stroke-width=".19844"/><path d="m747.01 305.9v3.2178" fill="none" stroke="#72ffff" stroke-linecap="round" stroke-width=".19844"/><path d="m748 307.5-0.97902-1e-5" fill="none" stroke="#72ffff" stroke-linecap="round" stroke-width=".19844"/><path d="m745 306.47h1.4978" fill="none" stroke="#72ffff" stroke-linecap="round" stroke-width=".19844"/><path d="m745.71 308.64h0.69408" fill="none" marker-start="url(#ConcaveTriangle-16-42-5-1-1-7-6-6-2-1-6-9-3-7-3-7-8-93-94-8-4-22-3)" stroke="#72ffff" stroke-linecap="round" stroke-linejoin="round" stroke-width=".19844"/><g transform="matrix(-.44713 0 0 .44713 789.14 265.1)" stroke-width=".4438"><title>GND</title><g transform="translate(-.26259 -.11701)" stroke-width=".4438"><g transform="translate(33.547 3.5594)" fill="none" stroke="#000" stroke-linecap="round" stroke-width=".4438"><path d="m31.884 97.901v-0.91358" stroke-linejoin="round"/><path d="m30.561 97.901h2.6458"/><path d="m31.884 99.224 1.3229-1.3229"/><path d="m30.561 97.901 1.3229 1.3229"/></g></g><title>GND</title></g><path d="m745 305v-3.6403" fill="#c8c8c8" stroke="#000" stroke-linecap="round" stroke-linejoin="round" stroke-width=".19844"/><path d="m745 304h4" fill="#c8c8c8" stroke="#000" stroke-linecap="round" stroke-linejoin="round" stroke-width=".19844"/><path d="m748 307.5h9" fill="#c8c8c8" stroke="#000" stroke-linecap="round" stroke-linejoin="round" stroke-width=".19844"/><path d="m749 304v3.5044" fill="#c8c8c8" stroke="#000" stroke-linecap="round" stroke-linejoin="round" stroke-width=".19844"/><circle cx="745" cy="304" r=".29766"/><circle cx="745" cy="304" r=".29766"/><circle cx="760" cy="301" r=".35968" fill="none" stroke="#000" stroke-linecap="round" stroke-linejoin="bevel" stroke-width=".19844" style="paint-order:normal"/><path d="m760 305v-3.6403" fill="#c8c8c8" stroke="#000" stroke-linecap="round" stroke-linejoin="round" stroke-width=".19844"/><path d="m768 310v-1.3604" fill="none" stroke="#c8c8c8" stroke-linecap="round" stroke-linejoin="bevel" stroke-width=".19844" style="paint-order:normal"/><path d="m768 305v1.4675" fill="none" stroke="#c8c8c8" stroke-linecap="round" stroke-width=".19844"/><path d="m766.48 309.11v-3.2178" fill="none" stroke="#c8c8c8" stroke-linecap="round" stroke-width=".19844"/><path d="m765.99 305.9v3.2178" fill="none" stroke="#c8c8c8" stroke-linecap="round" stroke-width=".19844"/><path d="m765 307.5 0.97902-1e-5" fill="none" stroke="#c8c8c8" stroke-linecap="round" stroke-width=".19844"/><path d="m768 306.47h-1.4978" fill="none" stroke="#c8c8c8" stroke-linecap="round" stroke-width=".19844"/><path d="m767.29 308.64h-0.69408" fill="none" marker-start="url(#ConcaveTriangle-16-42-5-1-1-7-6-6-2-1-6-9-3-7-3-7-8-93-94-8-4-22-2)" stroke="#c8c8c8" stroke-linecap="round" stroke-linejoin="round" stroke-width=".19844"/><g transform="matrix(-.44713 0 0 .44713 797.14 265.1)" stroke-width=".4438"><title>GND</title><g transform="translate(-.26259 -.11701)" stroke-width=".4438"><g transform="translate(33.547 3.5594)" fill="none" stroke="#000" stroke-linecap="round" stroke-width=".4438"><path d="m31.884 97.901v-0.91358" stroke-linejoin="round"/><path d="m30.561 97.901h2.6458"/><path d="m31.884 99.224 1.3229-1.3229"/><path d="m30.561 97.901 1.3229 1.3229"/></g></g><title>GND</title></g><g transform="matrix(-.44713 0 0 .44713 793.14 265.1)" stroke-width=".4438"><title>GND</title><g transform="translate(-.26259 -.11701)" stroke-width=".4438"><g transform="translate(33.547 3.5594)" fill="none" stroke="#000" stroke-linecap="round" stroke-width=".4438"><path d="m31.884 97.901v-0.91358" stroke-linejoin="round"/><path d="m30.561 97.901h2.6458"/><path d="m31.884 99.224 1.3229-1.3229"/><path d="m30.561 97.901 1.3229 1.3229"/></g></g><title>GND</title></g><path d="m765 307.5h-1l2e-5 2.4957" fill="none" stroke="#000" stroke-linecap="round" stroke-linejoin="round" stroke-width=".19844"/><path d="m768 305h3" fill="none" stroke="#000" stroke-linecap="round" stroke-linejoin="round" stroke-width=".19844"/><g transform="matrix(-.44713 0 0 .44713 800.14 265.1)" stroke-width=".4438"><title>GND</title><g transform="translate(-.26259 -.11701)" stroke-width=".4438"><g transform="translate(33.547 3.5594)" fill="none" stroke="#000" stroke-linecap="round" stroke-width=".4438"><path d="m31.884 97.901v-0.91358" stroke-linejoin="round"/><path d="m30.561 97.901h2.6458"/><path d="m31.884 99.224 1.3229-1.3229"/><path d="m30.561 97.901 1.3229 1.3229"/></g></g><title>GND</title></g><path d="m770 305h1v5" fill="none" stroke="#000" stroke-linecap="round" stroke-linejoin="round" stroke-width=".19844"/><path d="m737 310v-1.3604" fill="none" stroke="#c8c8c8" stroke-linecap="round" stroke-linejoin="bevel" stroke-width=".19844" style="paint-order:normal"/><path d="m737 305v1.4675" fill="none" stroke="#c8c8c8" stroke-linecap="round" stroke-width=".19844"/><path d="m738.52 309.11v-3.2178" fill="none" stroke="#c8c8c8" stroke-linecap="round" stroke-width=".19844"/><path d="m739.01 305.9v3.2178" fill="none" stroke="#c8c8c8" stroke-linecap="round" stroke-width=".19844"/><path d="m740 307.5-0.97902-1e-5" fill="none" stroke="#c8c8c8" stroke-linecap="round" stroke-width=".19844"/><path d="m737 306.47h1.4978" fill="none" stroke="#c8c8c8" stroke-linecap="round" stroke-width=".19844"/><path d="m737.71 308.64h0.69408" fill="none" marker-start="url(#ConcaveTriangle-16-42-5-1-1-7-6-6-2-1-6-9-3-7-3-7-8-93-94-8-4-22-2-8)" stroke="#c8c8c8" stroke-linecap="round" stroke-linejoin="round" stroke-width=".19844"/><g transform="matrix(.44713 0 0 .44713 707.86 265.1)" stroke-width=".4438"><title>GND</title><g transform="translate(-.26259 -.11701)" stroke-width=".4438"><g transform="translate(33.547 3.5594)" fill="none" stroke="#000" stroke-linecap="round" stroke-width=".4438"><path d="m31.884 97.901v-0.91358" stroke-linejoin="round"/><path d="m30.561 97.901h2.6458"/><path d="m31.884 99.224 1.3229-1.3229"/><path d="m30.561 97.901 1.3229 1.3229"/></g></g><title>GND</title></g><g transform="matrix(.44713 0 0 .44713 711.86 265.1)" stroke-width=".4438"><title>GND</title><g transform="translate(-.26259 -.11701)" stroke-width=".4438"><g transform="translate(33.547 3.5594)" fill="none" stroke="#000" stroke-linecap="round" stroke-width=".4438"><path d="m31.884 97.901v-0.91358" stroke-linejoin="round"/><path d="m30.561 97.901h2.6458"/><path d="m31.884 99.224 1.3229-1.3229"/><path d="m30.561 97.901 1.3229 1.3229"/></g></g><title>GND</title></g><path d="m740 307.5h1l-2e-5 2.4957" fill="none" stroke="#000" stroke-linecap="round" stroke-linejoin="round" stroke-width=".19844"/><path d="m737 305h-3" fill="none" stroke="#000" stroke-linecap="round" stroke-linejoin="round" stroke-width=".19844"/><g transform="matrix(.44713 0 0 .44713 704.86 265.1)" stroke-width=".4438"><title>GND</title><g transform="translate(-.26259 -.11701)" stroke-width=".4438"><g transform="translate(33.547 3.5594)" fill="none" stroke="#000" stroke-linecap="round" stroke-width=".4438"><path d="m31.884 97.901v-0.91358" stroke-linejoin="round"/><path d="m30.561 97.901h2.6458"/><path d="m31.884 99.224 1.3229-1.3229"/><path d="m30.561 97.901 1.3229 1.3229"/></g></g><title>GND</title></g><path d="m735 305h-1v5" fill="none" stroke="#000" stroke-linecap="round" stroke-linejoin="round" stroke-width=".19844"/><text x="768.01099" y="312.9697" fill="none" font-family="Arial" font-size="1.4111px" font-weight="bold" stroke="#000000" stroke-linecap="round" stroke-linejoin="round" stroke-width=".19844" xml:space="preserve"><tspan x="768.01099" y="312.9697" fill="#c8c8c8" font-family="sans-serif" font-weight="bold" stroke="none" stroke-width=".19844" text-align="center" text-anchor="middle">D</tspan></text><text x="737" y="313" fill="none" font-family="Arial" font-size="1.4111px" font-weight="bold" stroke="#000000" stroke-linecap="round" stroke-linejoin="round" stroke-width=".19844" xml:space="preserve"><tspan x="737" y="313" fill="#c8c8c8" font-family="sans-serif" font-weight="bold" stroke="none" stroke-width=".19844" text-align="center" text-anchor="middle">D</tspan></text><text transform="scale(-1,1)" x="-745" y="313" fill="none" font-family="Arial" font-size="1.4111px" font-weight="bold" stroke="#000000" stroke-linecap="round" stroke-linejoin="round" stroke-width=".19844" xml:space="preserve"><tspan x="-745" y="313" fill="#0096c8" font-family="sans-serif" font-weight="bold" stroke="none" stroke-width=".19844" text-align="center" text-anchor="middle">A</tspan></text><text x="760" y="313" fill="none" font-family="Arial" font-size="1.4111px" font-weight="bold" stroke="#000000" stroke-linecap="round" stroke-linejoin="round" stroke-width=".19844" xml:space="preserve"><tspan x="760" y="313" fill="#c8c800" font-family="sans-serif" font-weight="bold" stroke="none" stroke-width=".19844" text-align="center" text-anchor="middle">B</tspan></text></g></svg>
