<svg width="76.246mm" height="28.993mm" version="1.1" viewBox="0 0 76.246 28.993" xml:space="preserve" xmlns="http://www.w3.org/2000/svg" xmlns:xlink="http://www.w3.org/1999/xlink"><defs><linearGradient id="linearGradient14" x1="640" x2="660" y1="180" y2="180" gradientTransform="matrix(3.6 0 0 .99927 -3081 40.132)" gradientUnits="userSpaceOnUse"><stop stop-color="#c81400" offset=".20492"/><stop stop-color="#c83200" stop-opacity="0" offset="1"/></linearGradient><marker id="ConcaveTriangle-16-42-5-1-1-7-6-6-2-1-6-9-3-7-3-7-8-93-94-8-0-1-1-3" overflow="visible" markerHeight="0.60000002" markerWidth="0.60000002" orient="auto-start-reverse" preserveAspectRatio="xMidYMid" viewBox="0 0 1 1"><path transform="scale(.7)" d="m-2-4 11 4-11 4c2-2.33 2-5.66 0-8z" fill="context-stroke" fill-rule="evenodd"/></marker></defs><g transform="translate(-704.86 -210.01)"><rect transform="scale(-1,1)" x="-777" y="210.01" width="72" height="19.985" fill="url(#linearGradient14)" opacity=".65"/><rect transform="rotate(-90)" x="-225.02" y="719" width="10.02" height="7.8016" fill="#ffffaf" stroke="#000" stroke-linecap="round" stroke-linejoin="round" stroke-width=".19844"/><rect transform="rotate(-90)" x="-225.92" y="721.9" width="11.822" height="2" fill="#c8c8c8" stroke="#000" stroke-linecap="round" stroke-linejoin="round" stroke-width=".198"/><rect transform="rotate(-90)" x="-223.97" y="719.64" width="7.9688" height="1.5014" fill="#32c832" stroke="#000" stroke-linecap="round" stroke-linejoin="round" stroke-width=".198"/><rect transform="rotate(-90)" x="-223.47" y="719.97" width=".90101" height=".82837" stroke="#000" stroke-linecap="round" stroke-linejoin="round" stroke-width=".198"/><rect transform="rotate(-90)" x="-221.47" y="719.97" width=".90101" height=".82837" stroke="#000" stroke-linecap="round" stroke-linejoin="round" stroke-width=".198"/><rect transform="rotate(-90)" x="-219.47" y="719.97" width=".90101" height=".82837" stroke="#000" stroke-linecap="round" stroke-linejoin="round" stroke-width=".198"/><rect transform="rotate(-90)" x="-217.47" y="719.97" width=".90101" height=".82837" stroke="#000" stroke-linecap="round" stroke-linejoin="round" stroke-width=".198"/><rect transform="rotate(-90)" x="-223.97" y="724.57" width="7.9688" height="1.5014" fill="#32c832" stroke="#000" stroke-linecap="round" stroke-linejoin="round" stroke-width=".198"/><rect transform="rotate(-90)" x="-223.47" y="724.9" width=".90101" height=".82837" stroke="#000" stroke-linecap="round" stroke-linejoin="round" stroke-width=".198"/><rect transform="rotate(-90)" x="-221.47" y="724.9" width=".90101" height=".82837" stroke="#000" stroke-linecap="round" stroke-linejoin="round" stroke-width=".198"/><rect transform="rotate(-90)" x="-219.47" y="724.9" width=".90101" height=".82837" stroke="#000" stroke-linecap="round" stroke-linejoin="round" stroke-width=".198"/><rect transform="rotate(-90)" x="-217.47" y="724.9" width=".90101" height=".82837" stroke="#000" stroke-linecap="round" stroke-linejoin="round" stroke-width=".198"/><rect transform="rotate(-90)" x="-225.02" y="730.8" width="10.02" height="7.8016" fill="#afffff" stroke="#000" stroke-linecap="round" stroke-linejoin="round" stroke-width=".19844"/><rect transform="rotate(-90)" x="-225.92" y="733.7" width="11.822" height="2" fill="#c8c8c8" stroke="#000" stroke-linecap="round" stroke-linejoin="round" stroke-width=".198"/><rect transform="rotate(-90)" x="-223.97" y="731.46" width="7.9688" height="1.5014" fill="#32c832" stroke="#000" stroke-linecap="round" stroke-linejoin="round" stroke-width=".198"/><rect transform="rotate(-90)" x="-223.47" y="731.79" width=".90101" height=".82837" stroke="#000" stroke-linecap="round" stroke-linejoin="round" stroke-width=".198"/><rect transform="rotate(-90)" x="-221.47" y="731.79" width=".90101" height=".82837" stroke="#000" stroke-linecap="round" stroke-linejoin="round" stroke-width=".198"/><rect transform="rotate(-90)" x="-219.47" y="731.79" width=".90101" height=".82837" stroke="#000" stroke-linecap="round" stroke-linejoin="round" stroke-width=".198"/><rect transform="rotate(-90)" x="-217.47" y="731.79" width=".90101" height=".82837" stroke="#000" stroke-linecap="round" stroke-linejoin="round" stroke-width=".198"/><rect transform="rotate(-90)" x="-223.97" y="736.37" width="7.9688" height="1.5014" fill="#32c832" stroke="#000" stroke-linecap="round" stroke-linejoin="round" stroke-width=".198"/><rect transform="rotate(-90)" x="-223.47" y="736.7" width=".90101" height=".82837" stroke="#000" stroke-linecap="round" stroke-linejoin="round" stroke-width=".198"/><rect transform="rotate(-90)" x="-221.47" y="736.7" width=".90101" height=".82837" stroke="#000" stroke-linecap="round" stroke-linejoin="round" stroke-width=".198"/><rect transform="rotate(-90)" x="-219.47" y="736.7" width=".90101" height=".82837" stroke="#000" stroke-linecap="round" stroke-linejoin="round" stroke-width=".198"/><rect transform="rotate(-90)" x="-217.47" y="736.7" width=".90101" height=".82837" stroke="#000" stroke-linecap="round" stroke-linejoin="round" stroke-width=".198"/><rect transform="rotate(-90)" x="-225.02" y="707" width="10.02" height="7.8016" fill="#ffffaf" stroke="#000" stroke-linecap="round" stroke-linejoin="round" stroke-width=".19844"/><rect transform="rotate(-90)" x="-225.92" y="709.9" width="11.822" height="2" fill="#c8c8c8" stroke="#000" stroke-linecap="round" stroke-linejoin="round" stroke-width=".198"/><rect transform="rotate(-90)" x="-223.97" y="707.64" width="7.9688" height="1.5014" fill="#32c832" stroke="#000" stroke-linecap="round" stroke-linejoin="round" stroke-width=".198"/><rect transform="rotate(-90)" x="-223.47" y="707.97" width=".90101" height=".82837" stroke="#000" stroke-linecap="round" stroke-linejoin="round" stroke-width=".198"/><rect transform="rotate(-90)" x="-221.47" y="707.97" width=".90101" height=".82837" stroke="#000" stroke-linecap="round" stroke-linejoin="round" stroke-width=".198"/><rect transform="rotate(-90)" x="-219.47" y="707.97" width=".90101" height=".82837" stroke="#000" stroke-linecap="round" stroke-linejoin="round" stroke-width=".198"/><rect transform="rotate(-90)" x="-217.47" y="707.97" width=".90101" height=".82837" stroke="#000" stroke-linecap="round" stroke-linejoin="round" stroke-width=".198"/><rect transform="rotate(-90)" x="-223.97" y="712.57" width="7.9688" height="1.5014" fill="#32c832" stroke="#000" stroke-linecap="round" stroke-linejoin="round" stroke-width=".198"/><rect transform="rotate(-90)" x="-223.47" y="712.9" width=".90101" height=".82837" stroke="#000" stroke-linecap="round" stroke-linejoin="round" stroke-width=".198"/><rect transform="rotate(-90)" x="-221.47" y="712.9" width=".90101" height=".82837" stroke="#000" stroke-linecap="round" stroke-linejoin="round" stroke-width=".198"/><rect transform="rotate(-90)" x="-219.47" y="712.9" width=".90101" height=".82837" stroke="#000" stroke-linecap="round" stroke-linejoin="round" stroke-width=".198"/><rect transform="rotate(-90)" x="-217.47" y="712.9" width=".90101" height=".82837" stroke="#000" stroke-linecap="round" stroke-linejoin="round" stroke-width=".198"/><text x="710.80157" y="213.02594" fill="none" font-family="Arial" font-size="1.4111px" font-weight="bold" stroke="#000000" stroke-linecap="round" stroke-linejoin="round" stroke-width=".19844" xml:space="preserve"><tspan x="710.80157" y="213.02594" fill="#c8c800" font-family="sans-serif" font-weight="bold" stroke="none" stroke-width=".19844" text-align="center" text-anchor="middle">B</tspan></text><text x="722.80157" y="213.02594" fill="none" font-family="Arial" font-size="1.4111px" font-weight="bold" stroke="#000000" stroke-linecap="round" stroke-linejoin="round" stroke-width=".19844" xml:space="preserve"><tspan x="722.80157" y="213.02594" fill="#c8c800" font-family="sans-serif" font-weight="bold" stroke="none" stroke-width=".19844" text-align="center" text-anchor="middle">B</tspan></text><text x="734.83936" y="213.02594" fill="none" font-family="Arial" font-size="1.4111px" font-weight="bold" stroke="#000000" stroke-linecap="round" stroke-linejoin="round" stroke-width=".19844" xml:space="preserve"><tspan x="734.83936" y="213.02594" fill="#0096c8" font-family="sans-serif" font-weight="bold" stroke="none" stroke-width=".19844" text-align="center" text-anchor="middle">A</tspan></text><rect transform="matrix(0,-1,-1,0,0,0)" x="-225.02" y="-762.4" width="10.02" height="7.8016" fill="#ffffaf" stroke="#000" stroke-linecap="round" stroke-linejoin="round" stroke-width=".19844"/><rect transform="matrix(0,-1,-1,0,0,0)" x="-225.92" y="-759.5" width="11.822" height="2" fill="#c8c8c8" stroke="#000" stroke-linecap="round" stroke-linejoin="round" stroke-width=".198"/><rect transform="matrix(0,-1,-1,0,0,0)" x="-223.97" y="-761.76" width="7.9688" height="1.5014" fill="#32c832" stroke="#000" stroke-linecap="round" stroke-linejoin="round" stroke-width=".198"/><rect transform="matrix(0,-1,-1,0,0,0)" x="-223.47" y="-761.44" width=".90101" height=".82837" stroke="#000" stroke-linecap="round" stroke-linejoin="round" stroke-width=".198"/><rect transform="matrix(0,-1,-1,0,0,0)" x="-221.47" y="-761.44" width=".90101" height=".82837" stroke="#000" stroke-linecap="round" stroke-linejoin="round" stroke-width=".198"/><rect transform="matrix(0,-1,-1,0,0,0)" x="-219.47" y="-761.44" width=".90101" height=".82837" stroke="#000" stroke-linecap="round" stroke-linejoin="round" stroke-width=".198"/><rect transform="matrix(0,-1,-1,0,0,0)" x="-217.47" y="-761.44" width=".90101" height=".82837" stroke="#000" stroke-linecap="round" stroke-linejoin="round" stroke-width=".198"/><rect transform="matrix(0,-1,-1,0,0,0)" x="-223.97" y="-756.83" width="7.9688" height="1.5014" fill="#32c832" stroke="#000" stroke-linecap="round" stroke-linejoin="round" stroke-width=".198"/><rect transform="matrix(0,-1,-1,0,0,0)" x="-223.47" y="-756.5" width=".90101" height=".82837" stroke="#000" stroke-linecap="round" stroke-linejoin="round" stroke-width=".198"/><rect transform="matrix(0,-1,-1,0,0,0)" x="-221.47" y="-756.5" width=".90101" height=".82837" stroke="#000" stroke-linecap="round" stroke-linejoin="round" stroke-width=".198"/><rect transform="matrix(0,-1,-1,0,0,0)" x="-219.47" y="-756.5" width=".90101" height=".82837" stroke="#000" stroke-linecap="round" stroke-linejoin="round" stroke-width=".198"/><rect transform="matrix(0,-1,-1,0,0,0)" x="-217.47" y="-756.5" width=".90101" height=".82837" stroke="#000" stroke-linecap="round" stroke-linejoin="round" stroke-width=".198"/><rect transform="matrix(0,-1,-1,0,0,0)" x="-225.02" y="-750.6" width="10.02" height="7.8016" fill="#afffff" stroke="#000" stroke-linecap="round" stroke-linejoin="round" stroke-width=".19844"/><rect transform="matrix(0,-1,-1,0,0,0)" x="-225.92" y="-747.7" width="11.822" height="2" fill="#c8c8c8" stroke="#000" stroke-linecap="round" stroke-linejoin="round" stroke-width=".198"/><rect transform="matrix(0,-1,-1,0,0,0)" x="-223.97" y="-749.95" width="7.9688" height="1.5014" fill="#32c832" stroke="#000" stroke-linecap="round" stroke-linejoin="round" stroke-width=".198"/><rect transform="matrix(0,-1,-1,0,0,0)" x="-223.47" y="-749.62" width=".90101" height=".82837" stroke="#000" stroke-linecap="round" stroke-linejoin="round" stroke-width=".198"/><rect transform="matrix(0,-1,-1,0,0,0)" x="-221.47" y="-749.62" width=".90101" height=".82837" stroke="#000" stroke-linecap="round" stroke-linejoin="round" stroke-width=".198"/><rect transform="matrix(0,-1,-1,0,0,0)" x="-219.47" y="-749.62" width=".90101" height=".82837" stroke="#000" stroke-linecap="round" stroke-linejoin="round" stroke-width=".198"/><rect transform="matrix(0,-1,-1,0,0,0)" x="-217.47" y="-749.62" width=".90101" height=".82837" stroke="#000" stroke-linecap="round" stroke-linejoin="round" stroke-width=".198"/><rect transform="matrix(0,-1,-1,0,0,0)" x="-223.97" y="-745.03" width="7.9688" height="1.5014" fill="#32c832" stroke="#000" stroke-linecap="round" stroke-linejoin="round" stroke-width=".198"/><rect transform="matrix(0,-1,-1,0,0,0)" x="-223.47" y="-744.7" width=".90101" height=".82837" stroke="#000" stroke-linecap="round" stroke-linejoin="round" stroke-width=".198"/><rect transform="matrix(0,-1,-1,0,0,0)" x="-221.47" y="-744.7" width=".90101" height=".82837" stroke="#000" stroke-linecap="round" stroke-linejoin="round" stroke-width=".198"/><rect transform="matrix(0,-1,-1,0,0,0)" x="-219.47" y="-744.7" width=".90101" height=".82837" stroke="#000" stroke-linecap="round" stroke-linejoin="round" stroke-width=".198"/><rect transform="matrix(0,-1,-1,0,0,0)" x="-217.47" y="-744.7" width=".90101" height=".82837" stroke="#000" stroke-linecap="round" stroke-linejoin="round" stroke-width=".198"/><rect transform="matrix(0,-1,-1,0,0,0)" x="-225.02" y="-774.4" width="10.02" height="7.8016" fill="#ffffaf" stroke="#000" stroke-linecap="round" stroke-linejoin="round" stroke-width=".19844"/><rect transform="matrix(0,-1,-1,0,0,0)" x="-225.92" y="-771.5" width="11.822" height="2" fill="#c8c8c8" stroke="#000" stroke-linecap="round" stroke-linejoin="round" stroke-width=".198"/><rect transform="matrix(0,-1,-1,0,0,0)" x="-223.97" y="-773.76" width="7.9688" height="1.5014" fill="#32c832" stroke="#000" stroke-linecap="round" stroke-linejoin="round" stroke-width=".198"/><rect transform="matrix(0,-1,-1,0,0,0)" x="-223.47" y="-773.44" width=".90101" height=".82837" stroke="#000" stroke-linecap="round" stroke-linejoin="round" stroke-width=".198"/><rect transform="matrix(0,-1,-1,0,0,0)" x="-221.47" y="-773.44" width=".90101" height=".82837" stroke="#000" stroke-linecap="round" stroke-linejoin="round" stroke-width=".198"/><rect transform="matrix(0,-1,-1,0,0,0)" x="-219.47" y="-773.44" width=".90101" height=".82837" stroke="#000" stroke-linecap="round" stroke-linejoin="round" stroke-width=".198"/><rect transform="matrix(0,-1,-1,0,0,0)" x="-217.47" y="-773.44" width=".90101" height=".82837" stroke="#000" stroke-linecap="round" stroke-linejoin="round" stroke-width=".198"/><rect transform="matrix(0,-1,-1,0,0,0)" x="-223.97" y="-768.83" width="7.9688" height="1.5014" fill="#32c832" stroke="#000" stroke-linecap="round" stroke-linejoin="round" stroke-width=".198"/><rect transform="matrix(0,-1,-1,0,0,0)" x="-223.47" y="-768.5" width=".90101" height=".82837" stroke="#000" stroke-linecap="round" stroke-linejoin="round" stroke-width=".198"/><rect transform="matrix(0,-1,-1,0,0,0)" x="-221.47" y="-768.5" width=".90101" height=".82837" stroke="#000" stroke-linecap="round" stroke-linejoin="round" stroke-width=".198"/><rect transform="matrix(0,-1,-1,0,0,0)" x="-219.47" y="-768.5" width=".90101" height=".82837" stroke="#000" stroke-linecap="round" stroke-linejoin="round" stroke-width=".198"/><rect transform="matrix(0,-1,-1,0,0,0)" x="-217.47" y="-768.5" width=".90101" height=".82837" stroke="#000" stroke-linecap="round" stroke-linejoin="round" stroke-width=".198"/><text x="770.53839" y="213.02594" fill="none" font-family="Arial" font-size="1.4111px" font-weight="bold" stroke="#000000" stroke-linecap="round" stroke-linejoin="round" stroke-width=".19844" xml:space="preserve"><tspan x="770.53839" y="213.02594" fill="#c8c800" font-family="sans-serif" font-weight="bold" stroke="none" stroke-width=".19844" text-align="center" text-anchor="middle">B</tspan></text><text x="758.53839" y="213.02594" fill="none" font-family="Arial" font-size="1.4111px" font-weight="bold" stroke="#000000" stroke-linecap="round" stroke-linejoin="round" stroke-width=".19844" xml:space="preserve"><tspan x="758.53839" y="213.02594" fill="#c8c800" font-family="sans-serif" font-weight="bold" stroke="none" stroke-width=".19844" text-align="center" text-anchor="middle">B</tspan></text><text transform="scale(-1,1)" x="-746.56537" y="213.02594" fill="none" font-family="Arial" font-size="1.4111px" font-weight="bold" stroke="#000000" stroke-linecap="round" stroke-linejoin="round" stroke-width=".19844" xml:space="preserve"><tspan x="-746.56537" y="213.02594" fill="#0096c8" font-family="sans-serif" font-weight="bold" stroke="none" stroke-width=".19844" text-align="center" text-anchor="middle">A</tspan></text><path d="m740.8 210.19v19.807" fill="#f00" stroke="#000" stroke-dasharray="0.198, 0.594" stroke-linecap="round" stroke-linejoin="round" stroke-width=".198"/><path d="m705 230h71.004" fill="none" marker-end="url(#ConcaveTriangle-16-42-5-1-1-7-6-6-2-1-6-9-3-7-3-7-8-93-94-8-0-1-1-3)" stroke="#000" stroke-linecap="round" stroke-linejoin="round" stroke-width=".26458"/><text x="778" y="232" fill="#000000" font-family="sans-serif" font-size="1.4111px" font-style="italic" stroke-linecap="round" stroke-linejoin="round" stroke-width=".19844" text-anchor="middle" xml:space="preserve"><tspan x="778" y="232" text-align="center">Gradient</tspan><tspan x="778" y="233.78023" text-align="center">intensity</tspan></text><path d="m711 230.53v-1.076" fill="none" stroke="#000" stroke-linecap="round" stroke-linejoin="round" stroke-width=".26458"/><text x="710.93646" y="232" fill="none" font-family="Arial" font-size="1.4111px" font-weight="bold" stroke="#000000" stroke-linecap="round" stroke-linejoin="round" stroke-width=".19844" xml:space="preserve"><tspan x="710.93646" y="232" fill="#000000" font-family="sans-serif" font-style="italic" font-weight="normal" stroke="none" stroke-width=".19844" text-align="center" text-anchor="middle">1</tspan></text><path d="m723 230.54v-1.076" fill="none" stroke="#000" stroke-linecap="round" stroke-linejoin="round" stroke-width=".26458"/><text x="722.93646" y="232.00731" fill="none" font-family="Arial" font-size="1.4111px" font-weight="bold" stroke="#000000" stroke-linecap="round" stroke-linejoin="round" stroke-width=".19844" xml:space="preserve"><tspan x="722.93646" y="232.00731" fill="#000000" font-family="sans-serif" font-style="italic" font-weight="normal" stroke="none" stroke-width=".19844" text-align="center" text-anchor="middle">2</tspan></text><path d="m734.86 230.53v-1.076" fill="none" stroke="#000" stroke-linecap="round" stroke-linejoin="round" stroke-width=".26458"/><text x="734.7959" y="231.99998" fill="none" font-family="Arial" font-size="1.4111px" font-weight="bold" stroke="#000000" stroke-linecap="round" stroke-linejoin="round" stroke-width=".19844" xml:space="preserve"><tspan x="734.7959" y="231.99998" fill="#000000" font-family="sans-serif" font-style="italic" font-weight="normal" stroke="none" stroke-width=".19844" text-align="center" text-anchor="middle">3</tspan></text><path d="m746.67 230.58v-1.076" fill="none" stroke="#000" stroke-linecap="round" stroke-linejoin="round" stroke-width=".26458"/><text x="746.60522" y="232.04523" fill="none" font-family="Arial" font-size="1.4111px" font-weight="bold" stroke="#000000" stroke-linecap="round" stroke-linejoin="round" stroke-width=".19844" xml:space="preserve"><tspan x="746.60522" y="232.04523" fill="#000000" font-family="sans-serif" font-style="italic" font-weight="normal" stroke="none" stroke-width=".19844" text-align="center" text-anchor="middle">4</tspan></text><path d="m758.67 230.58v-1.076" fill="none" stroke="#000" stroke-linecap="round" stroke-linejoin="round" stroke-width=".26458"/><text x="758.60522" y="232.04523" fill="none" font-family="Arial" font-size="1.4111px" font-weight="bold" stroke="#000000" stroke-linecap="round" stroke-linejoin="round" stroke-width=".19844" xml:space="preserve"><tspan x="758.60522" y="232.04523" fill="#000000" font-family="sans-serif" font-style="italic" font-weight="normal" stroke="none" stroke-width=".19844" text-align="center" text-anchor="middle">5</tspan></text><path d="m770.67 230.58v-1.076" fill="none" stroke="#000" stroke-linecap="round" stroke-linejoin="round" stroke-width=".26458"/><text x="770.60522" y="232.04523" fill="none" font-family="Arial" font-size="1.4111px" font-weight="bold" stroke="#000000" stroke-linecap="round" stroke-linejoin="round" stroke-width=".19844" xml:space="preserve"><tspan x="770.60522" y="232.04523" fill="#000000" font-family="sans-serif" font-style="italic" font-weight="normal" stroke="none" stroke-width=".19844" text-align="center" text-anchor="middle">6</tspan></text><text x="745.60699" y="238.96796" fill="none" font-family="Arial" font-size="2.1167px" font-weight="bold" stroke="#000000" stroke-linecap="round" stroke-linejoin="round" stroke-width=".19844" xml:space="preserve"><tspan x="745.60699" y="238.96796" fill="#c8c800" font-family="sans-serif" font-size="2.1167px" font-weight="bold" stroke="none" stroke-width=".19844" text-align="center" text-anchor="middle">B = 1 +2 + 5+ 6 = 14</tspan></text><text x="740.97784" y="235.96796" fill="none" font-family="Arial" font-size="2.1167px" font-weight="bold" stroke="#000000" stroke-linecap="round" stroke-linejoin="round" stroke-width=".19844" xml:space="preserve"><tspan x="740.97784" y="235.96796" fill="#0096c8" font-family="sans-serif" font-size="2.1167px" font-weight="bold" stroke="none" stroke-width=".19844" text-align="center" text-anchor="middle">A = 3 + 4 = 7</tspan></text></g></svg>
