<svg width="178.98mm" height="82.608mm" version="1.1" viewBox="0 0 178.98 82.608" xml:space="preserve" xmlns="http://www.w3.org/2000/svg"><g transform="translate(-17.071 -227.52)"><g transform="matrix(.26458 0 0 .26458 17.083 237.06)"><path d="m0 0h200v30h-200" fill="#ff6" stroke="#000"/><text x="1" y="25" font-size="10px" font-weight="bold">p-type substrate</text><path d="m0-10h200v10h-200" fill="#ccc" stroke="#000"/><text x="1" y="-3" font-size="10px" font-weight="bold">ox.</text><text y="-26.874554">1. Grow field oxide</text></g><g transform="matrix(.26458 0 0 .26458 17.083 257.06)"><path d="m0 0h200v30h-200" fill="#ff6" stroke="#000"/><text x="1" y="25" font-size="10px" font-weight="bold">p-type substrate</text><path d="m0-10h115v10h70v-10h15v10h-200" fill="#ccc" stroke="#000"/><text x="1" y="-3" font-size="10px" font-weight="bold">ox.</text><text x="7.1054274e-14" y="-26.692904">2. Etch oxide for pMOSFET</text></g><g transform="matrix(.26458 0 0 .26458 17.098 279.06)"><path d="m0 0h200v30h-200" fill="#ff6" stroke="#000"/><text x="1" y="25" font-size="10px" font-weight="bold">p-type substrate</text><path d="m110 0q0 20 10 20h60q10 0 10-20z" fill="#6ff" stroke="#000"/><text x="115" y="18" font-size="10px" font-weight="bold">n-well</text><path d="m0-10h115v10h70v-10h15v10h-200" fill="#ccc" stroke="#000"/><text x="1" y="-3" font-size="10px" font-weight="bold">ox.</text><text x="-1.2789769e-13" y="-34.251961">3. Diffuse n-well</text></g><g transform="matrix(.26458 0 0 .26458 19.988 302.06)"><g transform="translate(-11.024)"><path d="m0 0h200v30h-200" fill="#ff6" stroke="#000"/><text x="1" y="25" font-size="10px" font-weight="bold">p-type substrate</text><path d="m110 0q0 20 10 20h60q10 0 10-20z" fill="#6ff" stroke="#000"/><text x="115" y="18" font-size="10px" font-weight="bold">n-well</text><path d="m0-10h15v10h70v-10h30v10h70v-10h15v10h-200" fill="#ccc" stroke="#000"/><text x="1" y="-3" font-size="10px" font-weight="bold">ox</text></g><text x="-11.023616" y="-34.251961">4. Etch oxide for nMOSFET</text></g><g transform="matrix(.26458 0 0 .26458 80 237.06)"><path d="m0 0h200v30h-200" fill="#ff6" stroke="#000"/><text x="1" y="25" font-size="10px" font-weight="bold">p-type substrate</text><path d="m110 0q0 20 10 20h60q10 0 10-20z" fill="#6ff" stroke="#000"/><text x="115" y="18" font-size="10px" font-weight="bold">n-well</text><path d="m0-15h20v10h60v-10h40v10h60v-10h20v15h-200" fill="#ccc" stroke="#000"/><text x="1" y="-3" font-size="10px" font-weight="bold">ox.</text><text x="-1.1368684e-13" y="-26.6929">5. Grow gate oxide</text></g><g transform="matrix(.26458 0 0 .26458 80 257.06)"><path d="m0 0h200v30h-200" fill="#ff6" stroke="#000"/><text x="1" y="25" font-size="10px" font-weight="bold">p-type substrate</text><path d="m110 0q0 20 10 20h60q10 0 10-20z" fill="#6ff" stroke="#000"/><text x="115" y="18" font-size="10px" font-weight="bold">n-well</text><path d="m0-20h25v10h50v-10h50v10h50v-10h25v20h-200" fill="#0f0" stroke="#000"/><path d="m0-15h20v10h60v-10h40v10h60v-10h20v15h-200" fill="#ccc" stroke="#000"/><text x="1" y="-3" font-size="10px" font-weight="bold">ox.</text><text x="5.6843419e-14" y="-26.692904">6. Deposit polysilicon</text></g><g transform="matrix(.26458 0 0 .26458 80 279.06)"><path d="m0 0h200v30h-200" fill="#ff6" stroke="#000"/><text x="1" y="25" font-size="10px" font-weight="bold">p-type substrate</text><path d="m110 0q0 20 10 20h60q10 0 10-20z" fill="#6ff" stroke="#000"/><text x="115" y="18" font-size="10px" font-weight="bold">n-well</text><path d="m40-5v-5h20v5m80 0v-5h20v5" fill="#0f0" stroke="#000"/><path d="m0-15h20v15h20v-5h20v5h20v-15h40v15h20v-5h20v5h20v-15h20v15h-200" fill="#ccc" stroke="#000"/><text x="1" y="-3" font-size="10px" font-weight="bold">ox.</text><text x="-7.9580786e-13" y="-34.251961">7. Etch polysilicon and oxide</text></g><g transform="matrix(.26458 0 0 .26458 80 302.06)"><path d="m0 0h200v30h-200" fill="#ff6" stroke="#000"/><text x="1" y="25" font-size="10px" font-weight="bold">p-type substrate</text><path d="m110 0q0 20 10 20h60q10 0 10-20z" fill="#6ff" stroke="#000"/><text x="115" y="18" font-size="10px" font-weight="bold">n-well</text><g text-anchor="middle"><path d="m15 0q0 10 5 10h20q5 0 5-10m10 0q0 10 5 10h20q5 0 5-10" fill="#06f" stroke="#000"/><text x="30" y="7" font-size="10px" font-weight="bold">n+</text><text x="70" y="7" font-size="10px" font-weight="bold">n+</text><path d="m115 0q0 10 5 10h20q5 0 5-10m10 0q0 10 5 10h20q5 0 5-10" fill="#f60" stroke="#000"/><text x="130" y="7" font-size="10px" font-weight="bold">p+</text><text x="170" y="7" font-size="10px" font-weight="bold">p+</text></g><path d="m40-5v-5h20v5m80 0v-5h20v5" fill="#0f0" stroke="#000"/><path d="m0-15h20v15h20v-5h20v5h20v-15h40v15h20v-5h20v5h20v-15h20v15h-200" fill="#ccc" stroke="#000"/><text x="1" y="-3" font-size="10px" font-weight="bold">ox.</text><text x="-3.4106051e-13" y="-30.472435">8. Implant sources and drains</text></g><g transform="matrix(.26458 0 0 .26458 143 237.06)"><path d="m0 0h200v30h-200" fill="#ff6" stroke="#000"/><text x="1" y="25" font-size="10px" font-weight="bold">p-type substrate</text><path d="m110 0q0 20 10 20h60q10 0 10-20z" fill="#6ff" stroke="#000"/><text x="115" y="18" font-size="10px" font-weight="bold">n-well</text><g text-anchor="middle"><path d="m15 0q0 10 5 10h20q5 0 5-10m10 0q0 10 5 10h20q5 0 5-10" fill="#06f" stroke="#000"/><text x="30" y="7" font-size="10px" font-weight="bold">n+</text><text x="70" y="7" font-size="10px" font-weight="bold">n+</text><path d="m115 0q0 10 5 10h20q5 0 5-10m10 0q0 10 5 10h20q5 0 5-10" fill="#f60" stroke="#000"/><text x="130" y="7" font-size="10px" font-weight="bold">p+</text><text x="170" y="7" font-size="10px" font-weight="bold">p+</text></g><path d="m0-20h25v5h50v-5h50v5h50v-5h25v20h-200" fill="#999" stroke="#000"/><path d="m40-5v-5h20v5m80 0v-5h20v5" fill="#0f0" stroke="#000"/><path d="m0-15h20v15h20v-5h20v5h20v-15h40v15h20v-5h20v5h20v-15h20v15h-200" fill="#ccc" stroke="#000"/><text x="1" y="-3" font-size="10px" font-weight="bold">ox.</text><text x="1.1368684e-13" y="-26.87454">9. Grow nitride</text></g><g transform="matrix(.26458 0 0 .26458 143 257.06)"><path d="m0 0h200v30h-200" fill="#ff6" stroke="#000"/><text x="1" y="25" font-size="10px" font-weight="bold">p-type substrate</text><path d="m110 0q0 20 10 20h60q10 0 10-20z" fill="#6ff" stroke="#000"/><text x="115" y="18" font-size="10px" font-weight="bold">n-well</text><g text-anchor="middle"><path d="m15 0q0 10 5 10h20q5 0 5-10m10 0q0 10 5 10h20q5 0 5-10" fill="#06f" stroke="#000"/><text x="30" y="7" font-size="10px" font-weight="bold">n+</text><text x="70" y="7" font-size="10px" font-weight="bold">n+</text><path d="m115 0q0 10 5 10h20q5 0 5-10m10 0q0 10 5 10h20q5 0 5-10" fill="#f60" stroke="#000"/><text x="130" y="7" font-size="10px" font-weight="bold">p+</text><text x="170" y="7" font-size="10px" font-weight="bold">p+</text></g><path d="m0-20h25v20h10v-15h10v5h10v-5h10v15h10v-20h50v20h10v-15h10v5h10v-5h10v15h10v-20h25v20h-200" fill="#999" stroke="#000"/><path d="m40-5v-5h20v5m80 0v-5h20v5" fill="#0f0" stroke="#000"/><path d="m0-15h20v15h20v-5h20v5h20v-15h40v15h20v-5h20v5h20v-15h20v15h-200" fill="#ccc" stroke="#000"/><text x="1" y="-3" font-size="10px" font-weight="bold">ox.</text><text y="-26.692904">10. Etch nitride</text></g><g transform="matrix(.26458 0 0 .26458 143 279.06)"><path d="m0 0h200v30h-200" fill="#ff6" stroke="#000"/><text x="1" y="25" font-size="10px" font-weight="bold">p-type substrate</text><path d="m110 0q0 20 10 20h60q10 0 10-20z" fill="#6ff" stroke="#000"/><text x="115" y="18" font-size="10px" font-weight="bold">n-well</text><g text-anchor="middle"><path d="m15 0q0 10 5 10h20q5 0 5-10m10 0q0 10 5 10h20q5 0 5-10" fill="#06f" stroke="#000"/><text x="30" y="7" font-size="10px" font-weight="bold">n+</text><text x="70" y="7" font-size="10px" font-weight="bold">n+</text><path d="m115 0q0 10 5 10h20q5 0 5-10m10 0q0 10 5 10h20q5 0 5-10" fill="#f60" stroke="#000"/><text x="130" y="7" font-size="10px" font-weight="bold">p+</text><text x="170" y="7" font-size="10px" font-weight="bold">p+</text></g><path d="m0-25h35v5h30v-5h70v5h30v-5h35v25h-200" fill="#333" stroke="#000"/><path d="m0-20h25v20h10v-15h10v5h10v-5h10v15h10v-20h50v20h10v-15h10v5h10v-5h10v15h10v-20h25v20h-200" fill="#999" stroke="#000"/><path d="m40-5v-5h20v5m80 0v-5h20v5" fill="#0f0" stroke="#000"/><path d="m0-15h20v15h20v-5h20v5h20v-15h40v15h20v-5h20v5h20v-15h20v15h-200" fill="#ccc" stroke="#000"/><text x="1" y="-3" font-size="10px" font-weight="bold">ox.</text><text x="-3.4106051e-13" y="-34.251961">11. Deposit metal</text></g><g transform="matrix(.26458 0 0 .26458 143 302.06)"><path d="m0 0h200v30h-200" fill="#ff6" stroke="#000"/><text x="1" y="25" font-size="10px" font-weight="bold">p-type substrate</text><path d="m110 0q0 20 10 20h60q10 0 10-20z" fill="#6ff" stroke="#000"/><text x="115" y="18" font-size="10px" font-weight="bold">n-well</text><g text-anchor="middle"><path d="m15 0q0 10 5 10h20q5 0 5-10m10 0q0 10 5 10h20q5 0 5-10" fill="#06f" stroke="#000"/><text x="30" y="7" font-size="10px" font-weight="bold">n+</text><text x="70" y="7" font-size="10px" font-weight="bold">n+</text><path d="m115 0q0 10 5 10h20q5 0 5-10m10 0q0 10 5 10h20q5 0 5-10" fill="#f60" stroke="#000"/><text x="130" y="7" font-size="10px" font-weight="bold">p+</text><text x="170" y="7" font-size="10px" font-weight="bold">p+</text></g><path d="m0-25h35v25h10v-20h10v20h10v-25h70v25h10v-20h10v20h10v-25h35v25h-200" fill="#333" stroke="#000"/><path d="m0-20h25v20h10v-15h10v5h10v-5h10v15h10v-20h50v20h10v-15h10v5h10v-5h10v15h10v-20h25v20h-200" fill="#999" stroke="#000"/><path d="m40-5v-5h20v5m80 0v-5h20v5" fill="#0f0" stroke="#000"/><path d="m0-15h20v15h20v-5h20v5h20v-15h40v15h20v-5h20v5h20v-15h20v15h-200" fill="#ccc" stroke="#000"/><text x="1" y="-3" font-size="10px" font-weight="bold">ox.</text><text x="-3.4106051e-13" y="-34.251961">12. Etch metal</text></g></g></svg>
