<svg width="7801" height="2981" xmlns="http://www.w3.org/2000/svg" xmlns:xlink="http://www.w3.org/1999/xlink" xml:space="preserve" overflow="hidden"><g transform="translate(-662 -1277)"><text font-family="Arial,Arial_MSFontService,sans-serif" font-weight="700" font-size="165" text-decoration="underline" transform="matrix(1 0 0 1 898.66 1606)">Placement:</text><text font-family="Arial,Arial_MSFontService,sans-serif" font-weight="400" font-size="165" transform="matrix(1 0 0 1 898.66 1804)">•</text><text font-family="Arial,Arial_MSFontService,sans-serif" font-weight="400" font-size="165" transform="matrix(1 0 0 1 1104.91 1804)">Place devices close to each other;</text><text font-family="Arial,Arial_MSFontService,sans-serif" font-weight="400" font-size="165" transform="matrix(1 0 0 1 898.66 2002)">•</text><text font-family="Arial,Arial_MSFontService,sans-serif" font-weight="400" font-size="165" transform="matrix(1 0 0 1 1104.91 2002)">Place devices symmetrically;</text><text font-family="Arial,Arial_MSFontService,sans-serif" font-weight="400" font-size="165" transform="matrix(1 0 0 1 898.66 2200)">•</text><text font-family="Arial,Arial_MSFontService,sans-serif" font-weight="400" font-size="165" transform="matrix(1 0 0 1 1104.91 2200)">Place devices away from </text><text font-family="Arial,Arial_MSFontService,sans-serif" font-weight="400" font-size="165" transform="matrix(1 0 0 1 1104.91 2398)">aggressors/stress area.</text><text font-family="Arial,Arial_MSFontService,sans-serif" font-weight="700" font-size="165" text-decoration="underline" transform="matrix(1 0 0 1 842.859 3228)">Orientation:</text><text font-family="Arial,Arial_MSFontService,sans-serif" font-weight="400" font-size="165" transform="matrix(1 0 0 1 842.859 3426)">•</text><text font-family="Arial,Arial_MSFontService,sans-serif" font-weight="400" font-size="165" transform="matrix(1 0 0 1 1049.11 3426)">Keep the same orientation for the </text><text font-family="Arial,Arial_MSFontService,sans-serif" font-weight="400" font-size="165" transform="matrix(1 0 0 1 1049.11 3624)">matched devices;</text><text font-family="Arial,Arial_MSFontService,sans-serif" font-weight="400" font-size="165" transform="matrix(1 0 0 1 842.859 3822)">•</text><text font-family="Arial,Arial_MSFontService,sans-serif" font-weight="400" font-size="165" transform="matrix(1 0 0 1 1049.11 3822)">Keep the same orientation in respect </text><text font-family="Arial,Arial_MSFontService,sans-serif" font-weight="400" font-size="165" transform="matrix(1 0 0 1 1049.11 4020)">of aggressor/stress area.</text><text font-family="Arial,Arial_MSFontService,sans-serif" font-weight="700" font-size="165" text-decoration="underline" transform="matrix(1 0 0 1 5171.58 1613)">Size &amp; Shape:</text><text font-family="Arial,Arial_MSFontService,sans-serif" font-weight="400" font-size="165" transform="matrix(1 0 0 1 5171.58 1811)">•</text><text font-family="Arial,Arial_MSFontService,sans-serif" font-weight="400" font-size="165" transform="matrix(1 0 0 1 5377.83 1811)">Use a unit size devices;</text><text font-family="Arial,Arial_MSFontService,sans-serif" font-weight="400" font-size="165" transform="matrix(1 0 0 1 5171.58 2009)">•</text><text font-family="Arial,Arial_MSFontService,sans-serif" font-weight="400" font-size="165" transform="matrix(1 0 0 1 5377.83 2009)">Maximize size of the unit;</text><text font-family="Arial,Arial_MSFontService,sans-serif" font-weight="400" font-size="165" transform="matrix(1 0 0 1 5171.58 2207)">•</text><text font-family="Arial,Arial_MSFontService,sans-serif" font-weight="400" font-size="165" transform="matrix(1 0 0 1 5377.83 2207)">Target square shape of the devices;</text><text font-family="Arial,Arial_MSFontService,sans-serif" font-weight="400" font-size="165" transform="matrix(1 0 0 1 5171.58 2405)">•</text><text font-family="Arial,Arial_MSFontService,sans-serif" font-weight="400" font-size="165" transform="matrix(1 0 0 1 5377.83 2405)">Target square shape of the array.</text><text font-family="Arial,Arial_MSFontService,sans-serif" font-weight="700" font-size="165" text-decoration="underline" transform="matrix(1 0 0 1 5171.58 3215)">Spacing:</text><text font-family="Arial,Arial_MSFontService,sans-serif" font-weight="400" font-size="165" transform="matrix(1 0 0 1 5171.58 3413)">•</text><text font-family="Arial,Arial_MSFontService,sans-serif" font-weight="400" font-size="165" transform="matrix(1 0 0 1 5377.83 3413)">Minimize spacing between the </text><text font-family="Arial,Arial_MSFontService,sans-serif" font-weight="400" font-size="165" transform="matrix(1 0 0 1 5377.83 3611)">devices;</text><text font-family="Arial,Arial_MSFontService,sans-serif" font-weight="400" font-size="165" transform="matrix(1 0 0 1 5171.58 3809)">•</text><text font-family="Arial,Arial_MSFontService,sans-serif" font-weight="400" font-size="165" transform="matrix(1 0 0 1 5377.83 3809)">Use equal spacing between the </text><text font-family="Arial,Arial_MSFontService,sans-serif" font-weight="400" font-size="165" transform="matrix(1 0 0 1 5377.83 4007)">devices.</text><rect x="676" y="1293" width="3246" height="1362" stroke="#000000" stroke-width="27.5" stroke-linejoin="round" stroke-miterlimit="10" fill="none"/><rect x="676" y="2882" width="3246" height="1362" stroke="#000000" stroke-width="27.5" stroke-linejoin="round" stroke-miterlimit="10" fill="none"/><rect x="5011" y="1291" width="3246" height="1361" stroke="#000000" stroke-width="27.5" stroke-linejoin="round" stroke-miterlimit="10" fill="none"/><rect x="5011" y="2880" width="3246" height="1361" stroke="#000000" stroke-width="27.5" stroke-linejoin="round" stroke-miterlimit="10" fill="none"/><path d="M3592 2774.5C3592 2326.32 3955.32 1963 4403.5 1963 4851.68 1963 5215 2326.32 5215 2774.5 5215 3222.68 4851.68 3586 4403.5 3586 3955.32 3586 3592 3222.68 3592 2774.5Z" stroke="#000000" stroke-width="27.5" stroke-linejoin="round" stroke-miterlimit="10" fill="#FFD862" fill-rule="evenodd"/><text font-family="Arial,Arial_MSFontService,sans-serif" font-weight="700" font-size="275" transform="matrix(1 0 0 1 3800.12 2847)">Matching</text></g></svg>