<svg width="55.972mm" height="29.179mm" version="1.1" viewBox="0 0 55.972 29.179" xml:space="preserve" xmlns="http://www.w3.org/2000/svg"><g transform="translate(-403.09 -157.06)"><rect x="453.13" y="166.1" width="3.8677" height="4" fill="#a47be0" stroke="#000" stroke-linecap="round" stroke-linejoin="round" stroke-width=".26458" style="paint-order:markers stroke fill"/><text x="454.00827" y="169.18558" fill="#000000" font-family="inter" font-size="2.8222px" stroke="#000000" stroke-linecap="round" stroke-linejoin="round" stroke-width=".198" style="paint-order:markers stroke fill" xml:space="preserve"><tspan x="454.00827" y="169.18558" font-size="2.8222px" stroke="none" stroke-width=".198">C</tspan></text><rect x="437" y="172.1" width="3.8677" height="4" fill="#a47be0" stroke="#000" stroke-linecap="round" stroke-linejoin="round" stroke-width=".26458" style="paint-order:markers stroke fill"/><text x="437.87598" y="175.18558" fill="#000000" font-family="inter" font-size="2.8222px" stroke="#000000" stroke-linecap="round" stroke-linejoin="round" stroke-width=".198" style="paint-order:markers stroke fill" xml:space="preserve"><tspan x="437.87598" y="175.18558" font-size="2.8222px" stroke="none" stroke-width=".198">C</tspan></text><rect x="448.13" y="166.1" width="3.8677" height="4" fill="#c8c8c8" stroke="#000" stroke-linecap="round" stroke-linejoin="round" stroke-width=".26458" style="paint-order:markers stroke fill"/><text x="449.10474" y="169.15248" fill="#000000" font-family="inter" font-size="2.8222px" stroke="#000000" stroke-linecap="round" stroke-linejoin="round" stroke-width=".198" style="paint-order:markers stroke fill" xml:space="preserve"><tspan x="449.10474" y="169.15248" font-size="2.8222px" stroke="none" stroke-width=".198">B</tspan></text><rect x="442" y="172.1" width="3.8677" height="4" fill="#c8c8c8" stroke="#000" stroke-linecap="round" stroke-linejoin="round" stroke-width=".26458" style="paint-order:markers stroke fill"/><text x="442.97244" y="175.15248" fill="#000000" font-family="inter" font-size="2.8222px" stroke="#000000" stroke-linecap="round" stroke-linejoin="round" stroke-width=".198" style="paint-order:markers stroke fill" xml:space="preserve"><tspan x="442.97244" y="175.15248" font-size="2.8222px" stroke="none" stroke-width=".198">B</tspan></text><rect x="442" y="166.1" width="3.8677" height="4" fill="#c8c8c8" stroke="#000" stroke-linecap="round" stroke-linejoin="round" stroke-width=".26458" style="paint-order:markers stroke fill"/><text x="442.97244" y="169.15248" fill="#000000" font-family="inter" font-size="2.8222px" stroke="#000000" stroke-linecap="round" stroke-linejoin="round" stroke-width=".198" style="paint-order:markers stroke fill" xml:space="preserve"><tspan x="442.97244" y="169.15248" font-size="2.8222px" stroke="none" stroke-width=".198">A</tspan></text><rect x="448.13" y="172.1" width="3.8677" height="4" fill="#c8c8c8" stroke="#000" stroke-linecap="round" stroke-linejoin="round" stroke-width=".26458" style="paint-order:markers stroke fill"/><text x="449.10474" y="175.15248" fill="#000000" font-family="inter" font-size="2.8222px" stroke="#000000" stroke-linecap="round" stroke-linejoin="round" stroke-width=".198" style="paint-order:markers stroke fill" xml:space="preserve"><tspan x="449.10474" y="175.15248" font-size="2.8222px" stroke="none" stroke-width=".198">A</tspan></text><path d="m435.16 171.1h23.838" fill="none" stroke="#646464" stroke-linecap="round" stroke-linejoin="round" stroke-width=".13229" style="paint-order:markers stroke fill"/><rect x="453.13" y="172.1" width="3.8677" height="4" fill="#c8c8c8" stroke="#000" stroke-linecap="round" stroke-linejoin="round" stroke-width=".26458" style="paint-order:markers stroke fill"/><text x="454.10474" y="175.15247" fill="#000000" font-family="inter" font-size="2.8222px" stroke="#000000" stroke-linecap="round" stroke-linejoin="round" stroke-width=".198" style="paint-order:markers stroke fill" xml:space="preserve"><tspan x="454.10474" y="175.15247" font-size="2.8222px" stroke="none" stroke-width=".198">B</tspan></text><rect x="437" y="166.1" width="3.8677" height="4" fill="#c8c8c8" stroke="#000" stroke-linecap="round" stroke-linejoin="round" stroke-width=".26458" style="paint-order:markers stroke fill"/><text x="437.97244" y="169.15247" fill="#000000" font-family="inter" font-size="2.8222px" stroke="#000000" stroke-linecap="round" stroke-linejoin="round" stroke-width=".198" style="paint-order:markers stroke fill" xml:space="preserve"><tspan x="437.97244" y="169.15247" font-size="2.8222px" stroke="none" stroke-width=".198">B</tspan></text><rect x="416" y="166.1" width="3.8677" height="4" fill="#c8c8c8" stroke="#000" stroke-linecap="round" stroke-linejoin="round" stroke-width=".26458" style="paint-order:markers stroke fill"/><text x="416.97031" y="169.1525" fill="#000000" font-family="inter" font-size="2.8222px" stroke="#000000" stroke-linecap="round" stroke-linejoin="round" stroke-width=".198" style="paint-order:markers stroke fill" xml:space="preserve"><tspan x="416.97031" y="169.1525" font-size="2.8222px" stroke="none" stroke-width=".198">B</tspan></text><rect x="410" y="172.1" width="3.8677" height="4" fill="#c8c8c8" stroke="#000" stroke-linecap="round" stroke-linejoin="round" stroke-width=".26458" style="paint-order:markers stroke fill"/><text x="410.97031" y="175.1525" fill="#000000" font-family="inter" font-size="2.8222px" stroke="#000000" stroke-linecap="round" stroke-linejoin="round" stroke-width=".198" style="paint-order:markers stroke fill" xml:space="preserve"><tspan x="410.97031" y="175.1525" font-size="2.8222px" stroke="none" stroke-width=".198">B</tspan></text><rect x="410" y="166.1" width="3.8677" height="4" fill="#c8c8c8" stroke="#000" stroke-linecap="round" stroke-linejoin="round" stroke-width=".26458" style="paint-order:markers stroke fill"/><text x="410.97031" y="169.1525" fill="#000000" font-family="inter" font-size="2.8222px" stroke="#000000" stroke-linecap="round" stroke-linejoin="round" stroke-width=".198" style="paint-order:markers stroke fill" xml:space="preserve"><tspan x="410.97031" y="169.1525" font-size="2.8222px" stroke="none" stroke-width=".198">A</tspan></text><rect x="416.13" y="172.1" width="3.8677" height="4" fill="#c8c8c8" stroke="#000" stroke-linecap="round" stroke-linejoin="round" stroke-width=".26458" style="paint-order:markers stroke fill"/><text x="417.10257" y="175.1525" fill="#000000" font-family="inter" font-size="2.8222px" stroke="#000000" stroke-linecap="round" stroke-linejoin="round" stroke-width=".198" style="paint-order:markers stroke fill" xml:space="preserve"><tspan x="417.10257" y="175.1525" font-size="2.8222px" stroke="none" stroke-width=".198">A</tspan></text><path d="m415 160.1v22" fill="none" stroke="#646464" stroke-linecap="round" stroke-linejoin="round" stroke-width=".13229" style="paint-order:markers stroke fill"/><path d="m403.16 171.1h23.838" fill="none" stroke="#646464" stroke-linecap="round" stroke-linejoin="round" stroke-width=".13229" style="paint-order:markers stroke fill"/><rect x="421.13" y="172.1" width="3.8677" height="4" fill="#c8c8c8" stroke="#000" stroke-linecap="round" stroke-linejoin="round" stroke-width=".26458" style="paint-order:markers stroke fill"/><text x="422.10257" y="175.15248" fill="#000000" font-family="inter" font-size="2.8222px" stroke="#000000" stroke-linecap="round" stroke-linejoin="round" stroke-width=".198" style="paint-order:markers stroke fill" xml:space="preserve"><tspan x="422.10257" y="175.15248" font-size="2.8222px" stroke="none" stroke-width=".198">B</tspan></text><rect x="405" y="166.1" width="3.8677" height="4" fill="#c8c8c8" stroke="#000" stroke-linecap="round" stroke-linejoin="round" stroke-width=".26458" style="paint-order:markers stroke fill"/><text x="405.97031" y="169.15248" fill="#000000" font-family="inter" font-size="2.8222px" stroke="#000000" stroke-linecap="round" stroke-linejoin="round" stroke-width=".198" style="paint-order:markers stroke fill" xml:space="preserve"><tspan x="405.97031" y="169.15248" font-size="2.8222px" stroke="none" stroke-width=".198">B</tspan></text><rect x="405" y="160.97" width="3.8677" height="4" fill="#a47be0" stroke="#000" stroke-linecap="round" stroke-linejoin="round" stroke-width=".26458" style="paint-order:markers stroke fill"/><text x="405.87381" y="164.05327" fill="#000000" font-family="inter" font-size="2.8222px" stroke="#000000" stroke-linecap="round" stroke-linejoin="round" stroke-width=".198" style="paint-order:markers stroke fill" xml:space="preserve"><tspan x="405.87381" y="164.05327" fill="#000000" font-size="2.8222px" stroke="none" stroke-width=".198">C</tspan></text><path d="m447 160.1v22" fill="none" stroke="#646464" stroke-linecap="round" stroke-linejoin="round" stroke-width=".13229" style="paint-order:markers stroke fill"/><rect x="410" y="160.97" width="3.8677" height="4" fill="#a47be0" stroke="#000" stroke-linecap="round" stroke-linejoin="round" stroke-width=".26458" style="paint-order:markers stroke fill"/><text x="410.87381" y="164.05328" fill="#000000" font-family="inter" font-size="2.8222px" stroke="#000000" stroke-linecap="round" stroke-linejoin="round" stroke-width=".198" style="paint-order:markers stroke fill" xml:space="preserve"><tspan x="410.87381" y="164.05328" font-size="2.8222px" stroke="none" stroke-width=".198">C</tspan></text><rect x="416" y="160.97" width="3.8677" height="4" fill="#a47be0" stroke="#000" stroke-linecap="round" stroke-linejoin="round" stroke-width=".26458" style="paint-order:markers stroke fill"/><text x="416.87381" y="164.05328" fill="#000000" font-family="inter" font-size="2.8222px" stroke="#000000" stroke-linecap="round" stroke-linejoin="round" stroke-width=".198" style="paint-order:markers stroke fill" xml:space="preserve"><tspan x="416.87381" y="164.05328" font-size="2.8222px" stroke="none" stroke-width=".198">C</tspan></text><rect x="421" y="160.97" width="3.8677" height="4" fill="#a47be0" stroke="#000" stroke-linecap="round" stroke-linejoin="round" stroke-width=".26458" style="paint-order:markers stroke fill"/><text x="421.87381" y="164.05328" fill="#000000" font-family="inter" font-size="2.8222px" stroke="#000000" stroke-linecap="round" stroke-linejoin="round" stroke-width=".198" style="paint-order:markers stroke fill" xml:space="preserve"><tspan x="421.87381" y="164.05328" font-size="2.8222px" stroke="none" stroke-width=".198">C</tspan></text><rect x="405" y="177.23" width="3.8677" height="4" fill="#a47be0" stroke="#000" stroke-linecap="round" stroke-linejoin="round" stroke-width=".26458" style="paint-order:markers stroke fill"/><text x="405.87381" y="180.31787" fill="#000000" font-family="inter" font-size="2.8222px" stroke="#000000" stroke-linecap="round" stroke-linejoin="round" stroke-width=".198" style="paint-order:markers stroke fill" xml:space="preserve"><tspan x="405.87381" y="180.31787" font-size="2.8222px" stroke="none" stroke-width=".198">C</tspan></text><rect x="410" y="177.23" width="3.8677" height="4" fill="#a47be0" stroke="#000" stroke-linecap="round" stroke-linejoin="round" stroke-width=".26458" style="paint-order:markers stroke fill"/><text x="410.87381" y="180.31787" fill="#000000" font-family="inter" font-size="2.8222px" stroke="#000000" stroke-linecap="round" stroke-linejoin="round" stroke-width=".198" style="paint-order:markers stroke fill" xml:space="preserve"><tspan x="410.87381" y="180.31787" font-size="2.8222px" stroke="none" stroke-width=".198">C</tspan></text><rect x="416.13" y="177.23" width="3.8677" height="4" fill="#a47be0" stroke="#000" stroke-linecap="round" stroke-linejoin="round" stroke-width=".26458" style="paint-order:markers stroke fill"/><text x="417.00613" y="180.31787" fill="#000000" font-family="inter" font-size="2.8222px" stroke="#000000" stroke-linecap="round" stroke-linejoin="round" stroke-width=".198" style="paint-order:markers stroke fill" xml:space="preserve"><tspan x="417.00613" y="180.31787" font-size="2.8222px" stroke="none" stroke-width=".198">C</tspan></text><rect x="421.13" y="177.23" width="3.8677" height="4" fill="#a47be0" stroke="#000" stroke-linecap="round" stroke-linejoin="round" stroke-width=".26458" style="paint-order:markers stroke fill"/><text x="422.00613" y="180.31787" fill="#000000" font-family="inter" font-size="2.8222px" stroke="#000000" stroke-linecap="round" stroke-linejoin="round" stroke-width=".198" style="paint-order:markers stroke fill" xml:space="preserve"><tspan x="422.00613" y="180.31787" font-size="2.8222px" stroke="none" stroke-width=".198">C</tspan></text><rect x="442" y="177.23" width="3.8677" height="4" fill="#a47be0" stroke="#000" stroke-linecap="round" stroke-linejoin="round" stroke-width=".26458" style="paint-order:markers stroke fill"/><text x="442.87598" y="180.31787" fill="#000000" font-family="inter" font-size="2.8222px" stroke="#000000" stroke-linecap="round" stroke-linejoin="round" stroke-width=".198" style="paint-order:markers stroke fill" xml:space="preserve"><tspan x="442.87598" y="180.31787" font-size="2.8222px" stroke="none" stroke-width=".198">C</tspan></text><rect x="448.13" y="177.23" width="3.8677" height="4" fill="#a47be0" stroke="#000" stroke-linecap="round" stroke-linejoin="round" stroke-width=".26458" style="paint-order:markers stroke fill"/><text x="449.00827" y="180.31787" fill="#000000" font-family="inter" font-size="2.8222px" stroke="#000000" stroke-linecap="round" stroke-linejoin="round" stroke-width=".198" style="paint-order:markers stroke fill" xml:space="preserve"><tspan x="449.00827" y="180.31787" font-size="2.8222px" stroke="none" stroke-width=".198">C</tspan></text><rect x="453.13" y="177.23" width="3.8677" height="4" fill="#a47be0" stroke="#000" stroke-linecap="round" stroke-linejoin="round" stroke-width=".26458" style="paint-order:markers stroke fill"/><text x="454.00827" y="180.31787" fill="#000000" font-family="inter" font-size="2.8222px" stroke="#000000" stroke-linecap="round" stroke-linejoin="round" stroke-width=".198" style="paint-order:markers stroke fill" xml:space="preserve"><tspan x="454.00827" y="180.31787" font-size="2.8222px" stroke="none" stroke-width=".198">C</tspan></text><rect x="437" y="160.97" width="3.8677" height="4" fill="#a47be0" stroke="#000" stroke-linecap="round" stroke-linejoin="round" stroke-width=".26458" style="paint-order:markers stroke fill"/><text x="437.87598" y="164.05327" fill="#000000" font-family="inter" font-size="2.8222px" stroke="#000000" stroke-linecap="round" stroke-linejoin="round" stroke-width=".198" style="paint-order:markers stroke fill" xml:space="preserve"><tspan x="437.87598" y="164.05327" font-size="2.8222px" stroke="none" stroke-width=".198">C</tspan></text><rect x="442" y="160.97" width="3.8677" height="4" fill="#a47be0" stroke="#000" stroke-linecap="round" stroke-linejoin="round" stroke-width=".26458" style="paint-order:markers stroke fill"/><text x="442.87598" y="164.05328" fill="#000000" font-family="inter" font-size="2.8222px" stroke="#000000" stroke-linecap="round" stroke-linejoin="round" stroke-width=".198" style="paint-order:markers stroke fill" xml:space="preserve"><tspan x="442.87598" y="164.05328" font-size="2.8222px" stroke="none" stroke-width=".198">C</tspan></text><rect x="448.13" y="160.97" width="3.8677" height="4" fill="#a47be0" stroke="#000" stroke-linecap="round" stroke-linejoin="round" stroke-width=".26458" style="paint-order:markers stroke fill"/><text x="449.00827" y="164.05328" fill="#000000" font-family="inter" font-size="2.8222px" stroke="#000000" stroke-linecap="round" stroke-linejoin="round" stroke-width=".198" style="paint-order:markers stroke fill" xml:space="preserve"><tspan x="449.00827" y="164.05328" font-size="2.8222px" stroke="none" stroke-width=".198">C</tspan></text><rect x="453.13" y="160.97" width="3.8677" height="4" fill="#c8c8c8" stroke="#000" stroke-linecap="round" stroke-linejoin="round" stroke-width=".26458" style="paint-order:markers stroke fill"/><text x="454.47684" y="164.44284" fill="#000000" font-family="inter" font-size="2.8222px" stroke="#000000" stroke-linecap="round" stroke-linejoin="round" stroke-width=".198" style="paint-order:markers stroke fill" xml:space="preserve"><tspan x="454.47684" y="164.44284" font-size="2.8222px" stroke="none" stroke-width=".198">*</tspan></text><rect x="437" y="177.23" width="3.8677" height="4" fill="#c8c8c8" stroke="#000" stroke-linecap="round" stroke-linejoin="round" stroke-width=".26458" style="paint-order:markers stroke fill"/><text x="438.34454" y="180.70743" fill="#000000" font-family="inter" font-size="2.8222px" stroke="#000000" stroke-linecap="round" stroke-linejoin="round" stroke-width=".198" style="paint-order:markers stroke fill" xml:space="preserve"><tspan x="438.34454" y="180.70743" font-size="2.8222px" stroke="none" stroke-width=".198">*</tspan></text><rect x="405" y="172.1" width="3.8677" height="4" fill="#c8c8c8" stroke="#000" stroke-linecap="round" stroke-linejoin="round" stroke-width=".26458" style="paint-order:markers stroke fill"/><text x="406.34238" y="175.57513" fill="#000000" font-family="inter" font-size="2.8222px" stroke="#000000" stroke-linecap="round" stroke-linejoin="round" stroke-width=".198" style="paint-order:markers stroke fill" xml:space="preserve"><tspan x="406.34238" y="175.57513" font-size="2.8222px" stroke="none" stroke-width=".198">*</tspan></text><rect x="421" y="166.1" width="3.8677" height="4" fill="#c8c8c8" stroke="#000" stroke-linecap="round" stroke-linejoin="round" stroke-width=".26458" style="paint-order:markers stroke fill"/><text x="422.34238" y="169.57513" fill="#000000" font-family="inter" font-size="2.8222px" stroke="#000000" stroke-linecap="round" stroke-linejoin="round" stroke-width=".198" style="paint-order:markers stroke fill" xml:space="preserve"><tspan x="422.34238" y="169.57513" font-size="2.8222px" stroke="none" stroke-width=".198">*</tspan></text><path d="m448.08 183.7c-0.15487 0.0166-0.41588 0.20925-0.80224 0.59197-0.23412 0.2319-0.51938 0.54102-0.74218 0.80405l-0.037 0.0437-0.0305-0.016c-0.0544-0.0285-0.15345-0.0778-0.20016-0.0997-0.21915-0.1025-0.36047-0.14617-0.45934-0.14213-0.0344 1e-3 -0.0534 6e-3 -0.0799 0.0188-0.0158 8e-3 -0.022 0.0123-0.0354 0.0259-0.0281 0.0281-0.0402 0.0586-0.0402 0.10028 0 0.0368 1e-3 0.0388 0.0655 0.0985 0.0809 0.0754 0.17872 0.1767 0.24463 0.25333 0.15972 0.1856 0.32145 0.42699 0.5115 0.7622 0.0335 0.0592 0.0402 0.0689 0.0519 0.077 0.0287 0.0198 0.0643 0.0178 0.0908-5e-3 0.0107-9e-3 0.0172-0.0218 0.037-0.0718 0.0952-0.23857 0.21915-0.502 0.34127-0.7252 0.20683-0.37787 0.43731-0.70883 0.70317-1.0089 0.1021-0.11524 0.19429-0.20986 0.36088-0.37019 0.11383-0.10937 0.14658-0.14496 0.16377-0.1771 0.0285-0.0534 0.0176-0.10473-0.0289-0.13607-0.0279-0.0188-0.0732-0.0283-0.11463-0.0239z" fill="#00af00"/><path d="m415.94 183.87c-0.17568 0.0499-0.46889 0.23504-0.83688 0.52706-0.0593 0.0475-0.10802 0.0855-0.1104 0.0855-2e-3 0-0.0487-0.0285-0.10446-0.0629-0.1377-0.0867-0.29083-0.17687-0.44633-0.26353-0.11278-0.0629-0.14601-0.0783-0.23861-0.10802-0.29083-0.0961-0.43328-0.10684-0.4772-0.0356-0.0154 0.0261-0.0214 0.10446-0.0142 0.18518 0.0155 0.165 0.0214 0.17094 0.3858 0.35493 0.19349 0.0985 0.31338 0.16382 0.43327 0.23504l0.0712 0.0427-0.17568 0.17806c-0.20656 0.20892-0.34544 0.36087-0.38462 0.41903-0.11395 0.17094-0.19705 0.33951-0.20892 0.42853-6e-3 0.0427 0.0107 0.0855 0.0392 0.10328 0.0249 0.0154 0.0795 0.0297 0.15788 0.0439 0.0736 0.0119 0.10446 0.0119 0.14838-1e-3 0.0309-0.01 0.0439-0.019 0.10446-0.0795 0.038-0.0392 0.11396-0.12464 0.16975-0.19112 0.17687-0.21248 0.37392-0.42378 0.51281-0.55198l0.0688-0.0641 0.0902 0.0677c0.38224 0.28371 0.70393 0.57928 0.91523 0.84163 0.0855 0.10565 0.10683 0.12226 0.1555 0.12226 0.0427 0 0.07-0.0178 0.0855-0.0593 9e-3 -0.0249 0.0107-0.0427 7e-3 -0.12939-8e-3 -0.19942-0.0297-0.35137-0.0558-0.40241-0.0475-0.0938-0.24217-0.3027-0.43566-0.46889-0.10208-0.0867-0.30033-0.2481-0.349-0.28252-0.0155-0.0107-0.0273-0.0214-0.0273-0.0237 0-0.0131 0.28964-0.22911 0.46057-0.34425 0.17095-0.11515 0.2849-0.18162 0.43922-0.25759 0.0724-0.0356 0.13889-0.0712 0.14838-0.0784 0.0273-0.0214 0.0451-0.0617 0.0415-0.0926-8e-3 -0.0558-0.0391-0.076-0.15551-0.0997-0.20298-0.038-0.36086-0.0534-0.41428-0.038z" fill="#af0000" stroke-width=".26458"/><text x="415" y="158.09921" fill="none" font-family="Arial" font-size="1.4111px" font-weight="bold" stroke="#000000" stroke-linecap="round" stroke-linejoin="round" stroke-width=".19844" xml:space="preserve"><tspan x="415" y="158.09921" fill="#af0000" font-family="inter" font-weight="bold" stroke="none" stroke-width=".19844" text-align="center" text-anchor="middle">Device C pushed to the edges</tspan></text><text x="447" y="158.09921" fill="none" font-family="Arial" font-size="1.4111px" font-weight="bold" stroke="#000000" stroke-linecap="round" stroke-linejoin="round" stroke-width=".19844" xml:space="preserve"><tspan x="447" y="158.09921" fill="#00af00" font-family="Inter" font-weight="bold" stroke="none" stroke-width=".19844" text-align="center" text-anchor="middle">Device C distributed evenly</tspan></text></g></svg>
