<svg width="8128" height="3645" xmlns="http://www.w3.org/2000/svg" xmlns:xlink="http://www.w3.org/1999/xlink" xml:space="preserve" overflow="hidden"><g transform="translate(-268 -974)"><rect x="376.5" y="1517.5" width="3560" height="526" stroke="#000000" stroke-width="20.625" stroke-linejoin="round" stroke-miterlimit="10" fill="#FFFFFF"/><text font-family="Arial,Arial_MSFontService,sans-serif" font-weight="700" font-size="202" transform="matrix(1 0 0 1 462.334 1734)">Examine the size </text><text font-family="Arial,Arial_MSFontService,sans-serif" font-weight="400" font-size="202" transform="matrix(1 0 0 1 2144.99 1734)">of transistors in the </text><text font-family="Arial,Arial_MSFontService,sans-serif" font-weight="400" font-size="202" transform="matrix(1 0 0 1 2004.92 1976)">cell</text><path d="M1999 2216 2077.5 2216 2077.5 2043 2234.5 2043 2234.5 2216 2313 2216 2156 2373Z" fill-rule="evenodd"/><rect x="348.5" y="2412.5" width="3561" height="526" stroke="#000000" stroke-width="20.625" stroke-linejoin="round" stroke-miterlimit="10" fill="#FFFFFF"/><text font-family="Arial,Arial_MSFontService,sans-serif" font-weight="700" font-size="202" transform="matrix(1 0 0 1 400.742 2629)">Examine the area </text><text font-family="Arial,Arial_MSFontService,sans-serif" font-weight="400" font-size="202" transform="matrix(1 0 0 1 2117.2 2629)">of matched devices </text><text font-family="Arial,Arial_MSFontService,sans-serif" font-weight="400" font-size="202" transform="matrix(1 0 0 1 1898.64 2871)">array </text><path d="M1999 3111 2077.5 3111 2077.5 2938 2234.5 2938 2234.5 3111 2313 3111 2156 3268Z" fill-rule="evenodd"/><rect x="337.5" y="3303.5" width="3560" height="770" stroke="#000000" stroke-width="20.625" stroke-linejoin="round" stroke-miterlimit="10" fill="#FFFFFF"/><text font-family="Arial,Arial_MSFontService,sans-serif" font-weight="700" font-size="202" transform="matrix(1 0 0 1 524.613 3521)">Split</text><text font-family="Arial,Arial_MSFontService,sans-serif" font-weight="400" font-size="202" transform="matrix(1 0 0 1 1017.89 3521)">transistors size in a number of </text><text font-family="Arial,Arial_MSFontService,sans-serif" font-weight="400" font-size="202" transform="matrix(1 0 0 1 389.978 3763)">layout</text><text font-family="Arial,Arial_MSFontService,sans-serif" font-weight="400" font-size="202" transform="matrix(1 0 0 1 928.519 3763)">-</text><text font-family="Arial,Arial_MSFontService,sans-serif" font-weight="400" font-size="202" transform="matrix(1 0 0 1 995.551 3763)">oriented </text><text font-family="Arial,Arial_MSFontService,sans-serif" font-weight="700" font-size="202" transform="matrix(1 0 0 1 1781.02 3763)">fingers</text><text font-family="Arial,Arial_MSFontService,sans-serif" font-weight="400" font-size="202" transform="matrix(1 0 0 1 2509.77 3763)">(divisor of 2 for </text><text font-family="Arial,Arial_MSFontService,sans-serif" font-weight="400" font-size="202" transform="matrix(1 0 0 1 1618.61 4005)">symmetry);</text><path d="M6362 2226.5 6440.25 2226.5 6440.25 2053 6596.75 2053 6596.75 2226.5 6675 2226.5 6518.5 2383Z" fill-rule="evenodd"/><rect x="4738.5" y="1517.5" width="3561" height="526" stroke="#000000" stroke-width="20.625" stroke-linejoin="round" stroke-miterlimit="10" fill="#FFFFFF"/><text font-family="Arial,Arial_MSFontService,sans-serif" font-weight="700" font-size="202" transform="matrix(1 0 0 1 4926.24 1734)">Split</text><text font-family="Arial,Arial_MSFontService,sans-serif" font-weight="400" font-size="202" transform="matrix(1 0 0 1 5419.52 1734)">transistors size in a number of </text><text font-family="Arial,Arial_MSFontService,sans-serif" font-weight="700" font-size="202" transform="matrix(1 0 0 1 4786.74 1976)">multipliers</text><text font-family="Arial,Arial_MSFontService,sans-serif" font-weight="400" font-size="202" transform="matrix(1 0 0 1 5863.25 1976)">(divisor of 2 for symmetry);</text><path d="M6362 2848.5 6440.25 2848.5 6440.25 2675 6596.75 2675 6596.75 2848.5 6675 2848.5 6518.5 3005Z" fill-rule="evenodd"/><rect x="4738.5" y="3021.5" width="3561" height="282" stroke="#000000" stroke-width="20.625" stroke-linejoin="round" stroke-miterlimit="10" fill="#FFFFFF"/><text font-family="Arial,Arial_MSFontService,sans-serif" font-weight="400" font-size="202" transform="matrix(1 0 0 1 4762.97 3237)">Estimate the area and </text><text font-family="Arial,Arial_MSFontService,sans-serif" font-weight="700" font-size="202" transform="matrix(1 0 0 1 6793.96 3237)">select a pattern</text><path d="M6362 3478.5 6440.25 3478.5 6440.25 3305 6596.75 3305 6596.75 3478.5 6675 3478.5 6518.5 3635Z" fill-rule="evenodd"/><rect x="4738.5" y="2395.5" width="3561" height="281" stroke="#000000" stroke-width="20.625" stroke-linejoin="round" stroke-miterlimit="10" fill="#FFFFFF"/><text font-family="Arial,Arial_MSFontService,sans-serif" font-weight="700" font-size="202" transform="matrix(1 0 0 1 5106.43 2611)">Adjust unit width</text><text font-family="Arial,Arial_MSFontService,sans-serif" font-weight="400" font-size="202" transform="matrix(1 0 0 1 6742.11 2611)">, if necessary</text><rect x="4738.5" y="3637.5" width="3561" height="282" stroke="#000000" stroke-width="20.625" stroke-linejoin="round" stroke-miterlimit="10" fill="#FFFFFF"/><text fill="#003D4C" font-family="Arial,Arial_MSFontService,sans-serif" font-weight="700" font-size="202" transform="matrix(1 0 0 1 5015.33 3853)">Place dummies </text><text fill="#003D4C" font-family="Arial,Arial_MSFontService,sans-serif" font-weight="400" font-size="202" transform="matrix(1 0 0 1 6541.01 3853)">around the array</text><path d="M6362 1338.5 6440.25 1338.5 6440.25 1164 6596.75 1164 6596.75 1338.5 6675 1338.5 6518.5 1495Z" fill-rule="evenodd"/><rect x="4218" y="1164" width="181" height="3455"/><rect x="4218" y="974" width="2387" height="190"/><rect x="2012" y="4429" width="2387" height="190"/><rect x="2005" y="4073" width="191" height="546"/></g></svg>