<svg width="92.921mm" height="22.182mm" version="1.1" viewBox="0 0 92.921 22.182" xml:space="preserve" xmlns="http://www.w3.org/2000/svg"><g transform="translate(-387.08 -80.093)"><rect transform="scale(-1)" x="-398.1" y="-95.867" width="10.02" height="7.8016" fill="#ffffc8" stroke="#000" stroke-linecap="round" stroke-linejoin="round" stroke-width=".19844"/><rect transform="scale(-1)" x="-399" y="-92.967" width="11.822" height="2" fill="#c8c8c8" stroke="#000" stroke-linecap="round" stroke-linejoin="round" stroke-width=".198"/><rect transform="scale(-1)" x="-397.08" y="-95.296" width="7.9688" height="1.5014" fill="#32c832" stroke="#000" stroke-linecap="round" stroke-linejoin="round" stroke-width=".198"/><rect transform="scale(-1)" x="-396.55" y="-94.967" width=".90101" height=".82837" stroke="#000" stroke-linecap="round" stroke-linejoin="round" stroke-width=".198"/><rect transform="scale(-1)" x="-394.55" y="-94.967" width=".90101" height=".82837" stroke="#000" stroke-linecap="round" stroke-linejoin="round" stroke-width=".198"/><rect transform="scale(-1)" x="-392.55" y="-94.967" width=".90101" height=".82837" stroke="#000" stroke-linecap="round" stroke-linejoin="round" stroke-width=".198"/><rect transform="scale(-1)" x="-390.55" y="-94.967" width=".90101" height=".82837" stroke="#000" stroke-linecap="round" stroke-linejoin="round" stroke-width=".198"/><rect transform="scale(-1)" x="-397.08" y="-90.292" width="7.9688" height="1.5014" fill="#32c832" stroke="#000" stroke-linecap="round" stroke-linejoin="round" stroke-width=".198"/><rect transform="scale(-1)" x="-396.55" y="-89.967" width=".90101" height=".82837" stroke="#000" stroke-linecap="round" stroke-linejoin="round" stroke-width=".198"/><rect transform="scale(-1)" x="-394.55" y="-89.967" width=".90101" height=".82837" stroke="#000" stroke-linecap="round" stroke-linejoin="round" stroke-width=".198"/><rect transform="scale(-1)" x="-392.55" y="-89.967" width=".90101" height=".82837" stroke="#000" stroke-linecap="round" stroke-linejoin="round" stroke-width=".198"/><rect transform="scale(-1)" x="-390.55" y="-89.967" width=".90101" height=".82837" stroke="#000" stroke-linecap="round" stroke-linejoin="round" stroke-width=".198"/><rect transform="rotate(-90)" x="-97.086" y="401.1" width="10.02" height="7.8016" fill="#ffffc8" stroke="#000" stroke-linecap="round" stroke-linejoin="round" stroke-width=".19844"/><rect transform="rotate(-90)" x="-97.987" y="404" width="11.822" height="2" fill="#c8c8c8" stroke="#000" stroke-linecap="round" stroke-linejoin="round" stroke-width=".198"/><rect transform="rotate(-90)" x="-96.035" y="401.67" width="7.9688" height="1.5014" fill="#32c832" stroke="#000" stroke-linecap="round" stroke-linejoin="round" stroke-width=".198"/><rect transform="rotate(-90)" x="-95.536" y="402" width=".90101" height=".82837" stroke="#000" stroke-linecap="round" stroke-linejoin="round" stroke-width=".198"/><rect transform="rotate(-90)" x="-93.536" y="402" width=".90101" height=".82837" stroke="#000" stroke-linecap="round" stroke-linejoin="round" stroke-width=".198"/><rect transform="rotate(-90)" x="-91.536" y="402" width=".90101" height=".82837" stroke="#000" stroke-linecap="round" stroke-linejoin="round" stroke-width=".198"/><rect transform="rotate(-90)" x="-89.536" y="402" width=".90101" height=".82837" stroke="#000" stroke-linecap="round" stroke-linejoin="round" stroke-width=".198"/><rect transform="rotate(-90)" x="-96.035" y="406.67" width="7.9688" height="1.5014" fill="#32c832" stroke="#000" stroke-linecap="round" stroke-linejoin="round" stroke-width=".198"/><rect transform="rotate(-90)" x="-95.536" y="407" width=".90101" height=".82837" stroke="#000" stroke-linecap="round" stroke-linejoin="round" stroke-width=".198"/><rect transform="rotate(-90)" x="-93.536" y="407" width=".90101" height=".82837" stroke="#000" stroke-linecap="round" stroke-linejoin="round" stroke-width=".198"/><rect transform="rotate(-90)" x="-91.536" y="407" width=".90101" height=".82837" stroke="#000" stroke-linecap="round" stroke-linejoin="round" stroke-width=".198"/><rect transform="rotate(-90)" x="-89.536" y="407" width=".90101" height=".82837" stroke="#000" stroke-linecap="round" stroke-linejoin="round" stroke-width=".198"/><rect transform="rotate(-90)" x="-97.086" y="414.3" width="10.02" height="7.8016" fill="#ffffc8" stroke="#000" stroke-linecap="round" stroke-linejoin="round" stroke-width=".19844"/><rect transform="rotate(-90)" x="-97.987" y="417.2" width="11.822" height="2" fill="#c8c8c8" stroke="#000" stroke-linecap="round" stroke-linejoin="round" stroke-width=".198"/><rect transform="rotate(-90)" x="-96.035" y="414.96" width="7.9688" height="1.5014" fill="#32c832" stroke="#000" stroke-linecap="round" stroke-linejoin="round" stroke-width=".198"/><rect transform="rotate(-90)" x="-95.536" y="415.27" width=".90101" height=".82837" stroke="#000" stroke-linecap="round" stroke-linejoin="round" stroke-width=".198"/><rect transform="rotate(-90)" x="-93.536" y="415.27" width=".90101" height=".82837" stroke="#000" stroke-linecap="round" stroke-linejoin="round" stroke-width=".198"/><rect transform="rotate(-90)" x="-91.536" y="415.27" width=".90101" height=".82837" stroke="#000" stroke-linecap="round" stroke-linejoin="round" stroke-width=".198"/><rect transform="rotate(-90)" x="-89.536" y="415.27" width=".90101" height=".82837" stroke="#000" stroke-linecap="round" stroke-linejoin="round" stroke-width=".198"/><rect transform="rotate(-90)" x="-96.035" y="419.87" width="7.9688" height="1.5014" fill="#32c832" stroke="#000" stroke-linecap="round" stroke-linejoin="round" stroke-width=".198"/><rect transform="rotate(-90)" x="-95.536" y="420.2" width=".90101" height=".82837" stroke="#000" stroke-linecap="round" stroke-linejoin="round" stroke-width=".198"/><rect transform="rotate(-90)" x="-93.536" y="420.2" width=".90101" height=".82837" stroke="#000" stroke-linecap="round" stroke-linejoin="round" stroke-width=".198"/><rect transform="rotate(-90)" x="-91.536" y="420.2" width=".90101" height=".82837" stroke="#000" stroke-linecap="round" stroke-linejoin="round" stroke-width=".198"/><rect transform="rotate(-90)" x="-89.536" y="420.2" width=".90101" height=".82837" stroke="#000" stroke-linecap="round" stroke-linejoin="round" stroke-width=".198"/><rect transform="rotate(-90)" x="-97.086" y="424.1" width="13.494" height="7.8016" fill="#ffffc8" stroke="#000" stroke-linecap="round" stroke-linejoin="round" stroke-width=".19844"/><rect transform="rotate(-90)" x="-98.299" y="427" width="15.921" height="2" fill="#c8c8c8" stroke="#000" stroke-linecap="round" stroke-linejoin="round" stroke-width=".198"/><rect transform="rotate(-90)" x="-96.411" y="424.8" width="12.032" height="1.5014" fill="#32c832" stroke="#000" stroke-linecap="round" stroke-linejoin="round" stroke-width=".198"/><rect transform="rotate(-90)" x="-95.849" y="425.12" width=".90101" height=".82837" stroke="#000" stroke-linecap="round" stroke-linejoin="round" stroke-width=".198"/><rect transform="rotate(-90)" x="-93.849" y="425.12" width=".90101" height=".82837" stroke="#000" stroke-linecap="round" stroke-linejoin="round" stroke-width=".198"/><rect transform="rotate(-90)" x="-91.849" y="425.12" width=".90101" height=".82837" stroke="#000" stroke-linecap="round" stroke-linejoin="round" stroke-width=".198"/><rect transform="rotate(-90)" x="-89.849" y="425.12" width=".90101" height=".82837" stroke="#000" stroke-linecap="round" stroke-linejoin="round" stroke-width=".198"/><rect transform="rotate(-90)" x="-96.411" y="429.67" width="12.032" height="1.5014" fill="#32c832" stroke="#000" stroke-linecap="round" stroke-linejoin="round" stroke-width=".198"/><rect transform="rotate(-90)" x="-95.849" y="430" width=".90101" height=".82837" stroke="#000" stroke-linecap="round" stroke-linejoin="round" stroke-width=".198"/><rect transform="rotate(-90)" x="-93.849" y="430" width=".90101" height=".82837" stroke="#000" stroke-linecap="round" stroke-linejoin="round" stroke-width=".198"/><rect transform="rotate(-90)" x="-91.849" y="430" width=".90101" height=".82837" stroke="#000" stroke-linecap="round" stroke-linejoin="round" stroke-width=".198"/><rect transform="rotate(-90)" x="-89.849" y="430" width=".90101" height=".82837" stroke="#000" stroke-linecap="round" stroke-linejoin="round" stroke-width=".198"/><rect transform="rotate(-90)" x="-87.915" y="425.12" width=".90101" height=".82837" stroke="#000" stroke-linecap="round" stroke-linejoin="round" stroke-width=".198"/><rect transform="rotate(-90)" x="-85.915" y="425.12" width=".90101" height=".82837" stroke="#000" stroke-linecap="round" stroke-linejoin="round" stroke-width=".198"/><rect transform="rotate(-90)" x="-87.915" y="430.01" width=".90101" height=".82837" stroke="#000" stroke-linecap="round" stroke-linejoin="round" stroke-width=".198"/><rect transform="rotate(-90)" x="-85.915" y="430.01" width=".90101" height=".82837" stroke="#000" stroke-linecap="round" stroke-linejoin="round" stroke-width=".198"/><rect transform="rotate(-90)" x="-97.086" y="437" width="10.02" height="7.8016" fill="#ffffc8" stroke="#000" stroke-linecap="round" stroke-linejoin="round" stroke-width=".19844"/><rect transform="rotate(-90)" x="-97.987" y="439.9" width="11.822" height="2" fill="#c8c8c8" stroke="#000" stroke-linecap="round" stroke-linejoin="round" stroke-width=".198"/><rect transform="rotate(-90)" x="-96.035" y="437.67" width="7.9688" height="1.5014" fill="#32c832" stroke="#000" stroke-linecap="round" stroke-linejoin="round" stroke-width=".198"/><rect transform="rotate(-90)" x="-95.536" y="438" width=".90101" height=".82837" stroke="#000" stroke-linecap="round" stroke-linejoin="round" stroke-width=".198"/><rect transform="rotate(-90)" x="-93.536" y="438" width=".90101" height=".82837" stroke="#000" stroke-linecap="round" stroke-linejoin="round" stroke-width=".198"/><rect transform="rotate(-90)" x="-91.536" y="438" width=".90101" height=".82837" stroke="#000" stroke-linecap="round" stroke-linejoin="round" stroke-width=".198"/><rect transform="rotate(-90)" x="-89.536" y="438" width=".90101" height=".82837" stroke="#000" stroke-linecap="round" stroke-linejoin="round" stroke-width=".198"/><rect transform="rotate(-90)" x="-96.035" y="442.57" width="7.9688" height="1.5014" fill="#32c832" stroke="#000" stroke-linecap="round" stroke-linejoin="round" stroke-width=".198"/><rect transform="rotate(-90)" x="-95.536" y="442.9" width=".90101" height=".82837" stroke="#000" stroke-linecap="round" stroke-linejoin="round" stroke-width=".198"/><rect transform="rotate(-90)" x="-93.536" y="442.9" width=".90101" height=".82837" stroke="#000" stroke-linecap="round" stroke-linejoin="round" stroke-width=".198"/><rect transform="rotate(-90)" x="-91.536" y="442.9" width=".90101" height=".82837" stroke="#000" stroke-linecap="round" stroke-linejoin="round" stroke-width=".198"/><rect transform="rotate(-90)" x="-89.536" y="442.9" width=".90101" height=".82837" stroke="#000" stroke-linecap="round" stroke-linejoin="round" stroke-width=".198"/><rect transform="rotate(-90)" x="-97.086" y="447" width="10.02" height="10" fill="#ffffc8" stroke="#000" stroke-linecap="round" stroke-linejoin="round" stroke-width=".19844"/><rect transform="rotate(-90)" x="-97.987" y="449.9" width="11.822" height="4.0993" fill="#c8c8c8" stroke="#000" stroke-linecap="round" stroke-linejoin="round" stroke-width=".198"/><rect transform="rotate(-90)" x="-96.015" y="447.67" width="7.9688" height="1.5014" fill="#32c832" stroke="#000" stroke-linecap="round" stroke-linejoin="round" stroke-width=".198"/><rect transform="rotate(-90)" x="-95.516" y="448" width=".90101" height=".82837" stroke="#000" stroke-linecap="round" stroke-linejoin="round" stroke-width=".198"/><rect transform="rotate(-90)" x="-93.516" y="448" width=".90101" height=".82837" stroke="#000" stroke-linecap="round" stroke-linejoin="round" stroke-width=".198"/><rect transform="rotate(-90)" x="-91.516" y="448" width=".90101" height=".82837" stroke="#000" stroke-linecap="round" stroke-linejoin="round" stroke-width=".198"/><rect transform="rotate(-90)" x="-89.516" y="448" width=".90101" height=".82837" stroke="#000" stroke-linecap="round" stroke-linejoin="round" stroke-width=".198"/><rect transform="rotate(-90)" x="-96.066" y="454.8" width="7.9688" height="1.5014" fill="#32c832" stroke="#000" stroke-linecap="round" stroke-linejoin="round" stroke-width=".198"/><rect transform="rotate(-90)" x="-95.567" y="455.12" width=".90101" height=".82837" stroke="#000" stroke-linecap="round" stroke-linejoin="round" stroke-width=".198"/><rect transform="rotate(-90)" x="-93.567" y="455.12" width=".90101" height=".82837" stroke="#000" stroke-linecap="round" stroke-linejoin="round" stroke-width=".198"/><rect transform="rotate(-90)" x="-91.567" y="455.12" width=".90101" height=".82837" stroke="#000" stroke-linecap="round" stroke-linejoin="round" stroke-width=".198"/><rect transform="rotate(-90)" x="-89.567" y="455.12" width=".90101" height=".82837" stroke="#000" stroke-linecap="round" stroke-linejoin="round" stroke-width=".198"/><text x="399.03387" y="81.184868" fill="none" font-family="Arial" font-size="1.4111px" font-weight="bold" stroke="#000000" stroke-linecap="round" stroke-linejoin="round" stroke-width=".19844" xml:space="preserve"><tspan x="399.03387" y="81.184868" fill="#af0000" font-family="inter" font-weight="bold" stroke="none" stroke-width=".19844" text-align="center" text-anchor="middle">Different orientation</tspan></text><text x="422.42932" y="81.128593" fill="none" font-family="Arial" font-size="1.4111px" font-weight="bold" stroke="#000000" stroke-linecap="round" stroke-linejoin="round" stroke-width=".19844" xml:space="preserve"><tspan x="422.42932" y="81.128593" fill="#af0000" font-family="inter" font-weight="bold" stroke="none" stroke-width=".19844" text-align="center" text-anchor="middle">Different width</tspan></text><text x="447.33008" y="81.184868" fill="none" font-family="Arial" font-size="1.4111px" font-weight="bold" stroke="#000000" stroke-linecap="round" stroke-linejoin="round" stroke-width=".19844" xml:space="preserve"><tspan x="447.33008" y="81.184868" fill="#af0000" font-family="Inter" font-weight="bold" stroke="none" stroke-width=".19844" text-align="center" text-anchor="middle">Different length</tspan></text><rect transform="rotate(-90)" x="-97.086" y="462.1" width="10.02" height="7.8016" fill="#ffffc8" stroke="#000" stroke-linecap="round" stroke-linejoin="round" stroke-width=".19844"/><rect transform="rotate(-90)" x="-97.987" y="465" width="11.822" height="2" fill="#c8c8c8" stroke="#000" stroke-linecap="round" stroke-linejoin="round" stroke-width=".198"/><rect transform="rotate(-90)" x="-96.035" y="462.67" width="7.9688" height="1.5014" fill="#32c832" stroke="#000" stroke-linecap="round" stroke-linejoin="round" stroke-width=".198"/><rect transform="rotate(-90)" x="-95.536" y="463" width=".90101" height=".82837" stroke="#000" stroke-linecap="round" stroke-linejoin="round" stroke-width=".198"/><rect transform="rotate(-90)" x="-93.536" y="463" width=".90101" height=".82837" stroke="#000" stroke-linecap="round" stroke-linejoin="round" stroke-width=".198"/><rect transform="rotate(-90)" x="-91.536" y="463" width=".90101" height=".82837" stroke="#000" stroke-linecap="round" stroke-linejoin="round" stroke-width=".198"/><rect transform="rotate(-90)" x="-89.536" y="463" width=".90101" height=".82837" stroke="#000" stroke-linecap="round" stroke-linejoin="round" stroke-width=".198"/><rect transform="rotate(-90)" x="-96.035" y="467.67" width="7.9688" height="1.5014" fill="#32c832" stroke="#000" stroke-linecap="round" stroke-linejoin="round" stroke-width=".198"/><rect transform="rotate(-90)" x="-95.536" y="468" width=".90101" height=".82837" stroke="#000" stroke-linecap="round" stroke-linejoin="round" stroke-width=".198"/><rect transform="rotate(-90)" x="-93.536" y="468" width=".90101" height=".82837" stroke="#000" stroke-linecap="round" stroke-linejoin="round" stroke-width=".198"/><rect transform="rotate(-90)" x="-91.536" y="468" width=".90101" height=".82837" stroke="#000" stroke-linecap="round" stroke-linejoin="round" stroke-width=".198"/><rect transform="rotate(-90)" x="-89.536" y="468" width=".90101" height=".82837" stroke="#000" stroke-linecap="round" stroke-linejoin="round" stroke-width=".198"/><rect transform="rotate(-90)" x="-97.086" y="472.1" width="10.02" height="7.8016" fill="#ffffc8" stroke="#000" stroke-linecap="round" stroke-linejoin="round" stroke-width=".19844"/><rect transform="rotate(-90)" x="-97.987" y="475" width="11.822" height="2" fill="#c8c8c8" stroke="#000" stroke-linecap="round" stroke-linejoin="round" stroke-width=".198"/><rect transform="rotate(-90)" x="-96.035" y="472.67" width="7.9688" height="1.5014" fill="#32c832" stroke="#000" stroke-linecap="round" stroke-linejoin="round" stroke-width=".198"/><rect transform="rotate(-90)" x="-95.536" y="473" width=".90101" height=".82837" stroke="#000" stroke-linecap="round" stroke-linejoin="round" stroke-width=".198"/><rect transform="rotate(-90)" x="-93.536" y="473" width=".90101" height=".82837" stroke="#000" stroke-linecap="round" stroke-linejoin="round" stroke-width=".198"/><rect transform="rotate(-90)" x="-91.536" y="473" width=".90101" height=".82837" stroke="#000" stroke-linecap="round" stroke-linejoin="round" stroke-width=".198"/><rect transform="rotate(-90)" x="-89.536" y="473" width=".90101" height=".82837" stroke="#000" stroke-linecap="round" stroke-linejoin="round" stroke-width=".198"/><rect transform="rotate(-90)" x="-96.035" y="477.67" width="7.9688" height="1.5014" fill="#32c832" stroke="#000" stroke-linecap="round" stroke-linejoin="round" stroke-width=".198"/><rect transform="rotate(-90)" x="-95.536" y="478" width=".90101" height=".82837" stroke="#000" stroke-linecap="round" stroke-linejoin="round" stroke-width=".198"/><rect transform="rotate(-90)" x="-93.536" y="478" width=".90101" height=".82837" stroke="#000" stroke-linecap="round" stroke-linejoin="round" stroke-width=".198"/><rect transform="rotate(-90)" x="-91.536" y="478" width=".90101" height=".82837" stroke="#000" stroke-linecap="round" stroke-linejoin="round" stroke-width=".198"/><rect transform="rotate(-90)" x="-89.536" y="478" width=".90101" height=".82837" stroke="#000" stroke-linecap="round" stroke-linejoin="round" stroke-width=".198"/><path d="m472.54 99.744c-0.15487 0.0166-0.41588 0.20925-0.80224 0.59197-0.23412 0.2319-0.51938 0.54102-0.74218 0.80405l-0.037 0.0437-0.0305-0.016c-0.0544-0.0285-0.15345-0.0778-0.20016-0.0997-0.21915-0.1025-0.36047-0.14617-0.45934-0.14213-0.0344 1e-3 -0.0534 6e-3 -0.0799 0.0188-0.0158 8e-3 -0.022 0.0123-0.0354 0.0259-0.0281 0.0281-0.0402 0.0586-0.0402 0.10028 0 0.0368 1e-3 0.0388 0.0655 0.0985 0.0809 0.0754 0.17872 0.1767 0.24463 0.25333 0.15972 0.1856 0.32145 0.42699 0.5115 0.7622 0.0335 0.0592 0.0402 0.0689 0.0519 0.077 0.0287 0.0198 0.0643 0.0178 0.0908-5e-3 0.0107-9e-3 0.0172-0.0218 0.037-0.0718 0.0952-0.23857 0.21915-0.502 0.34127-0.7252 0.20683-0.37787 0.43731-0.70883 0.70317-1.0089 0.1021-0.11524 0.19429-0.20986 0.36088-0.37019 0.11383-0.10937 0.14658-0.14496 0.16377-0.1771 0.0285-0.0534 0.0176-0.10473-0.0289-0.13607-0.0279-0.0188-0.0732-0.0283-0.11463-0.0239z" fill="#00af00"/><text x="471" y="81.184868" fill="none" font-family="Arial" font-size="1.4111px" font-weight="bold" stroke="#000000" stroke-linecap="round" stroke-linejoin="round" stroke-width=".19844" xml:space="preserve"><tspan x="471" y="81.184868" fill="#00af00" font-family="Inter" font-weight="bold" stroke="none" stroke-width=".19844" text-align="center" text-anchor="middle">Identical elements</tspan></text><path d="m446.95 99.908c-0.17568 0.0499-0.46889 0.23504-0.83688 0.52706-0.0593 0.0475-0.10802 0.0855-0.1104 0.0855-2e-3 0-0.0487-0.0285-0.10446-0.0629-0.1377-0.0867-0.29083-0.17687-0.44633-0.26353-0.11278-0.0629-0.14601-0.0783-0.23861-0.10802-0.29083-0.0961-0.43328-0.10684-0.4772-0.0356-0.0154 0.0261-0.0214 0.10446-0.0142 0.18518 0.0155 0.165 0.0214 0.17094 0.3858 0.35493 0.19349 0.0985 0.31338 0.16382 0.43327 0.23504l0.0712 0.0427-0.17568 0.17806c-0.20656 0.20892-0.34544 0.36087-0.38462 0.41903-0.11395 0.17094-0.19705 0.33951-0.20892 0.42853-6e-3 0.0427 0.0107 0.0855 0.0392 0.10328 0.0249 0.0154 0.0795 0.0297 0.15788 0.0439 0.0736 0.0119 0.10446 0.0119 0.14838-1e-3 0.0309-0.01 0.0439-0.019 0.10446-0.0795 0.038-0.0392 0.11396-0.12464 0.16975-0.19112 0.17687-0.21248 0.37392-0.42378 0.51281-0.55198l0.0688-0.0641 0.0902 0.0677c0.38224 0.28371 0.70393 0.57928 0.91523 0.84163 0.0855 0.10565 0.10683 0.12226 0.1555 0.12226 0.0427 0 0.07-0.0178 0.0855-0.0593 9e-3 -0.0249 0.0107-0.0427 7e-3 -0.12939-8e-3 -0.19942-0.0297-0.35137-0.0558-0.40241-0.0475-0.0938-0.24217-0.3027-0.43566-0.46889-0.10208-0.0867-0.30033-0.2481-0.349-0.28252-0.0155-0.0107-0.0273-0.0214-0.0273-0.0237 0-0.0131 0.28964-0.22911 0.46057-0.34425 0.17095-0.11515 0.2849-0.18162 0.43922-0.25759 0.0724-0.0356 0.13889-0.0712 0.14838-0.0784 0.0273-0.0214 0.0451-0.0617 0.0415-0.0926-8e-3 -0.0558-0.0391-0.076-0.15551-0.0997-0.20298-0.038-0.36086-0.0534-0.41428-0.038z" fill="#af0000" stroke-width=".26458"/><path d="m424.13 99.908c-0.17568 0.0499-0.46889 0.23504-0.83688 0.52706-0.0593 0.0475-0.10802 0.0855-0.1104 0.0855-2e-3 0-0.0487-0.0285-0.10446-0.0629-0.1377-0.0867-0.29083-0.17687-0.44633-0.26353-0.11278-0.0629-0.14601-0.0783-0.23861-0.10802-0.29083-0.0961-0.43328-0.10684-0.4772-0.0356-0.0154 0.0261-0.0214 0.10446-0.0142 0.18518 0.0155 0.165 0.0214 0.17094 0.3858 0.35493 0.19349 0.0985 0.31338 0.16382 0.43327 0.23504l0.0712 0.0427-0.17568 0.17806c-0.20656 0.20892-0.34544 0.36087-0.38462 0.41903-0.11395 0.17094-0.19705 0.33951-0.20892 0.42853-6e-3 0.0427 0.0107 0.0855 0.0392 0.10328 0.0249 0.0154 0.0795 0.0297 0.15788 0.0439 0.0736 0.0119 0.10446 0.0119 0.14838-1e-3 0.0309-0.01 0.0439-0.019 0.10446-0.0795 0.038-0.0392 0.11396-0.12464 0.16975-0.19112 0.17687-0.21248 0.37392-0.42378 0.51281-0.55198l0.0688-0.0641 0.0902 0.0677c0.38224 0.28371 0.70393 0.57928 0.91523 0.84163 0.0855 0.10565 0.10683 0.12226 0.1555 0.12226 0.0427 0 0.07-0.0178 0.0855-0.0593 9e-3 -0.0249 0.0107-0.0427 7e-3 -0.12939-8e-3 -0.19942-0.0297-0.35137-0.0558-0.40241-0.0475-0.0938-0.24217-0.3027-0.43566-0.46889-0.10208-0.0867-0.30033-0.2481-0.349-0.28252-0.0155-0.0107-0.0273-0.0214-0.0273-0.0237 0-0.0131 0.28964-0.22911 0.46057-0.34425 0.17095-0.11515 0.2849-0.18162 0.43922-0.25759 0.0724-0.0356 0.13889-0.0712 0.14838-0.0784 0.0273-0.0214 0.0451-0.0617 0.0415-0.0926-8e-3 -0.0558-0.0391-0.076-0.15551-0.0997-0.20298-0.038-0.36086-0.0534-0.41428-0.038z" fill="#af0000" stroke-width=".26458"/><path d="m400.39 99.908c-0.17568 0.0499-0.46889 0.23504-0.83688 0.52706-0.0593 0.0475-0.10802 0.0855-0.1104 0.0855-2e-3 0-0.0487-0.0285-0.10446-0.0629-0.1377-0.0867-0.29083-0.17687-0.44633-0.26353-0.11278-0.0629-0.14601-0.0783-0.23861-0.10802-0.29083-0.0961-0.43328-0.10684-0.4772-0.0356-0.0154 0.0261-0.0214 0.10446-0.0142 0.18518 0.0155 0.165 0.0214 0.17094 0.3858 0.35493 0.19349 0.0985 0.31338 0.16382 0.43327 0.23504l0.0712 0.0427-0.17568 0.17806c-0.20656 0.20892-0.34544 0.36087-0.38462 0.41903-0.11395 0.17094-0.19705 0.33951-0.20892 0.42853-6e-3 0.0427 0.0107 0.0855 0.0392 0.10328 0.0249 0.0154 0.0795 0.0297 0.15788 0.0439 0.0736 0.0119 0.10446 0.0119 0.14838-1e-3 0.0309-0.01 0.0439-0.019 0.10446-0.0795 0.038-0.0392 0.11396-0.12464 0.16975-0.19112 0.17687-0.21248 0.37392-0.42378 0.51281-0.55198l0.0688-0.0641 0.0902 0.0677c0.38224 0.28371 0.70393 0.57928 0.91523 0.84163 0.0855 0.10565 0.10683 0.12226 0.1555 0.12226 0.0427 0 0.07-0.0178 0.0855-0.0593 9e-3 -0.0249 0.0107-0.0427 7e-3 -0.12939-8e-3 -0.19942-0.0297-0.35137-0.0558-0.40241-0.0475-0.0938-0.24217-0.3027-0.43566-0.46889-0.10208-0.0867-0.30033-0.2481-0.349-0.28252-0.0155-0.0107-0.0273-0.0214-0.0273-0.0237 0-0.0131 0.28964-0.22911 0.46057-0.34425 0.17095-0.11515 0.2849-0.18162 0.43922-0.25759 0.0724-0.0356 0.13889-0.0712 0.14838-0.0784 0.0273-0.0214 0.0451-0.0617 0.0415-0.0926-8e-3 -0.0558-0.0391-0.076-0.15551-0.0997-0.20298-0.038-0.36086-0.0534-0.41428-0.038z" fill="#af0000" stroke-width=".26458"/></g></svg>
