<svg width="52mm" height="20.234mm" version="1.1" viewBox="0 0 52 20.234" xml:space="preserve" xmlns="http://www.w3.org/2000/svg"><defs><marker id="ConcaveTriangle-16-42-5-1-1-7-6-6-2-1-6-9-3-7-3-7-8-93-94-8-0" overflow="visible" markerHeight="0.60000002" markerWidth="0.60000002" orient="auto-start-reverse" preserveAspectRatio="xMidYMid" viewBox="0 0 1 1"><path transform="scale(.7)" d="m-2-4 11 4-11 4c2-2.33 2-5.66 0-8z" fill="context-stroke" fill-rule="evenodd"/></marker><marker id="ConcaveTriangle-16-42-5-1-1-7-6-6-2-1-6-9-3-7-3-7-8-93-94-8-4" overflow="visible" markerHeight="0.60000002" markerWidth="0.60000002" orient="auto-start-reverse" preserveAspectRatio="xMidYMid" viewBox="0 0 1 1"><path transform="scale(.7)" d="m-2-4 11 4-11 4c2-2.33 2-5.66 0-8z" fill="context-stroke" fill-rule="evenodd"/></marker><marker id="ConcaveTriangle-16-42-5-1-1-7-6-6-2-1-6-9-3-7-3-7-8-93-94-8-0-12" overflow="visible" markerHeight="0.60000002" markerWidth="0.60000002" orient="auto-start-reverse" preserveAspectRatio="xMidYMid" viewBox="0 0 1 1"><path transform="scale(.7)" d="m-2-4 11 4-11 4c2-2.33 2-5.66 0-8z" fill="context-stroke" fill-rule="evenodd"/></marker><marker id="ConcaveTriangle-16-42-5-1-1-7-6-6-2-1-6-9-3-7-3-7-8-93-94-8-4-0" overflow="visible" markerHeight="0.60000002" markerWidth="0.60000002" orient="auto-start-reverse" preserveAspectRatio="xMidYMid" viewBox="0 0 1 1"><path transform="scale(.7)" d="m-2-4 11 4-11 4c2-2.33 2-5.66 0-8z" fill="context-stroke" fill-rule="evenodd"/></marker></defs><g transform="translate(-406.21 -106.07)"><rect x="436.21" y="111.1" width="3.8677" height="4" fill="#b7e07b" stroke="#000" stroke-linecap="round" stroke-linejoin="round" stroke-width=".26458" style="paint-order:markers stroke fill"/><text x="437.18375" y="114.15249" fill="#000000" font-family="inter" font-size="2.8222px" stroke="#000000" stroke-linecap="round" stroke-linejoin="round" stroke-width=".198" style="paint-order:markers stroke fill" xml:space="preserve"><tspan x="437.18375" y="114.15249" font-size="2.8222px" stroke="none" stroke-width=".198">A</tspan></text><rect x="454.21" y="111.1" width="3.8677" height="4" fill="#b7e07b" stroke="#000" stroke-linecap="round" stroke-linejoin="round" stroke-width=".26458" style="paint-order:markers stroke fill"/><text x="455.18378" y="114.15249" fill="#000000" font-family="inter" font-size="2.8222px" stroke="#000000" stroke-linecap="round" stroke-linejoin="round" stroke-width=".198" style="paint-order:markers stroke fill" xml:space="preserve"><tspan x="455.18378" y="114.15249" font-size="2.8222px" stroke="none" stroke-width=".198">A</tspan></text><rect x="442.21" y="117.1" width="3.8677" height="4" fill="#b7e07b" stroke="#000" stroke-linecap="round" stroke-linejoin="round" stroke-width=".26458" style="paint-order:markers stroke fill"/><text x="443.18375" y="120.15247" fill="#000000" font-family="inter" font-size="2.8222px" stroke="#000000" stroke-linecap="round" stroke-linejoin="round" stroke-width=".198" style="paint-order:markers stroke fill" xml:space="preserve"><tspan x="443.18375" y="120.15247" font-size="2.8222px" stroke="none" stroke-width=".198">A</tspan></text><rect x="448.21" y="117.1" width="3.8677" height="4" fill="#b7e07b" stroke="#000" stroke-linecap="round" stroke-linejoin="round" stroke-width=".26458" style="paint-order:markers stroke fill"/><text x="449.18375" y="120.15247" fill="#000000" font-family="inter" font-size="2.8222px" stroke="#000000" stroke-linecap="round" stroke-linejoin="round" stroke-width=".198" style="paint-order:markers stroke fill" xml:space="preserve"><tspan x="449.18375" y="120.15247" font-size="2.8222px" stroke="none" stroke-width=".198">A</tspan></text><path d="m447.21 110.1v12.027" fill="none" stroke="#646464" stroke-linecap="round" stroke-linejoin="round" stroke-width=".13229" style="paint-order:markers stroke fill"/><rect x="436.28" y="117.1" width="3.8677" height="4" fill="#c8c8c8" stroke="#000" stroke-linecap="round" stroke-linejoin="round" stroke-width=".26458" style="paint-order:markers stroke fill"/><rect x="442.21" y="111.1" width="3.8677" height="4" fill="#c8c8c8" stroke="#000" stroke-linecap="round" stroke-linejoin="round" stroke-width=".26458" style="paint-order:markers stroke fill"/><rect x="448.34" y="111.1" width="3.8677" height="4" fill="#c8c8c8" stroke="#000" stroke-linecap="round" stroke-linejoin="round" stroke-width=".26458" style="paint-order:markers stroke fill"/><rect x="454.21" y="117.1" width="3.8677" height="4" fill="#c8c8c8" stroke="#000" stroke-linecap="round" stroke-linejoin="round" stroke-width=".26458" style="paint-order:markers stroke fill"/><path d="m445.21 109.1c1-1 3-1 4 0" fill="none" marker-end="url(#ConcaveTriangle-16-42-5-1-1-7-6-6-2-1-6-9-3-7-3-7-8-93-94-8-4)" marker-start="url(#ConcaveTriangle-16-42-5-1-1-7-6-6-2-1-6-9-3-7-3-7-8-93-94-8-0)" stroke="#00af00" stroke-linecap="round" stroke-linejoin="round" stroke-width=".198" style="paint-order:markers stroke fill"/><text x="447.2113" y="107.09921" fill="#00af00" font-family="Arial" font-size="1.4111px" font-weight="bold" stroke-linecap="round" stroke-linejoin="round" stroke-width=".198" xml:space="preserve"><tspan x="447.2113" y="107.09921" fill="#00af00" font-family="inter" font-weight="bold" stroke-width=".198" text-align="center" text-anchor="middle">Y-symmetry</tspan></text><rect x="406.34" y="111.1" width="3.8677" height="4" fill="#b7e07b" stroke="#000" stroke-linecap="round" stroke-linejoin="round" stroke-width=".26458" style="paint-order:markers stroke fill"/><text x="407.31607" y="114.1525" fill="#000000" font-family="inter" font-size="2.8222px" stroke="#000000" stroke-linecap="round" stroke-linejoin="round" stroke-width=".198" style="paint-order:markers stroke fill" xml:space="preserve"><tspan x="407.31607" y="114.1525" font-size="2.8222px" stroke="none" stroke-width=".198">A</tspan></text><rect x="424.34" y="111.1" width="3.8677" height="4" fill="#b7e07b" stroke="#000" stroke-linecap="round" stroke-linejoin="round" stroke-width=".26458" style="paint-order:markers stroke fill"/><text x="425.3161" y="114.1525" fill="#000000" font-family="inter" font-size="2.8222px" stroke="#000000" stroke-linecap="round" stroke-linejoin="round" stroke-width=".198" style="paint-order:markers stroke fill" xml:space="preserve"><tspan x="425.3161" y="114.1525" font-size="2.8222px" stroke="none" stroke-width=".198">A</tspan></text><rect x="412.34" y="117.1" width="3.8677" height="4" fill="#b7e07b" stroke="#000" stroke-linecap="round" stroke-linejoin="round" stroke-width=".26458" style="paint-order:markers stroke fill"/><text x="413.31607" y="120.15249" fill="#000000" font-family="inter" font-size="2.8222px" stroke="#000000" stroke-linecap="round" stroke-linejoin="round" stroke-width=".198" style="paint-order:markers stroke fill" xml:space="preserve"><tspan x="413.31607" y="120.15249" font-size="2.8222px" stroke="none" stroke-width=".198">A</tspan></text><rect x="424.34" y="117.1" width="3.8677" height="4" fill="#b7e07b" stroke="#000" stroke-linecap="round" stroke-linejoin="round" stroke-width=".26458" style="paint-order:markers stroke fill"/><text x="425.31613" y="120.15247" fill="#000000" font-family="inter" font-size="2.8222px" stroke="#000000" stroke-linecap="round" stroke-linejoin="round" stroke-width=".198" style="paint-order:markers stroke fill" xml:space="preserve"><tspan x="425.31613" y="120.15247" font-size="2.8222px" stroke="none" stroke-width=".198">A</tspan></text><path d="m417.34 110.1v12.027" fill="none" stroke="#646464" stroke-linecap="round" stroke-linejoin="round" stroke-width=".13229" style="paint-order:markers stroke fill"/><rect x="406.41" y="117.1" width="3.8677" height="4" fill="#c8c8c8" stroke="#000" stroke-linecap="round" stroke-linejoin="round" stroke-width=".26458" style="paint-order:markers stroke fill"/><rect x="412.34" y="111.1" width="3.8677" height="4" fill="#c8c8c8" stroke="#000" stroke-linecap="round" stroke-linejoin="round" stroke-width=".26458" style="paint-order:markers stroke fill"/><rect x="418.48" y="111.1" width="3.8677" height="4" fill="#c8c8c8" stroke="#000" stroke-linecap="round" stroke-linejoin="round" stroke-width=".26458" style="paint-order:markers stroke fill"/><rect x="418.48" y="117.1" width="3.8677" height="4" fill="#c8c8c8" stroke="#000" stroke-linecap="round" stroke-linejoin="round" stroke-width=".26458" style="paint-order:markers stroke fill"/><path d="m415.34 109.1c1-1 3-1 4 0" fill="none" marker-end="url(#ConcaveTriangle-16-42-5-1-1-7-6-6-2-1-6-9-3-7-3-7-8-93-94-8-4-0)" marker-start="url(#ConcaveTriangle-16-42-5-1-1-7-6-6-2-1-6-9-3-7-3-7-8-93-94-8-0-12)" stroke="#af0000" stroke-linecap="round" stroke-linejoin="round" stroke-width=".198" style="paint-order:markers stroke fill"/><text x="417.34363" y="107.09922" fill="#00af00" font-family="Arial" font-size="1.4111px" font-weight="bold" stroke-linecap="round" stroke-linejoin="round" stroke-width=".198" xml:space="preserve"><tspan x="417.34363" y="107.09922" fill="#af0000" font-family="inter" font-weight="bold" stroke-width=".198" text-align="center" text-anchor="middle">Y-asymmetry</tspan></text><path d="m448.81 123.78c-0.15487 0.0166-0.41588 0.20925-0.80224 0.59197-0.23412 0.2319-0.51938 0.54102-0.74218 0.80405l-0.037 0.0437-0.0305-0.016c-0.0544-0.0285-0.15345-0.0778-0.20016-0.0997-0.21915-0.1025-0.36047-0.14617-0.45934-0.14213-0.0344 1e-3 -0.0534 6e-3 -0.0799 0.0188-0.0158 8e-3 -0.022 0.0123-0.0354 0.0259-0.0281 0.0281-0.0402 0.0586-0.0402 0.10028 0 0.0368 1e-3 0.0388 0.0655 0.0985 0.0809 0.0754 0.17872 0.1767 0.24463 0.25333 0.15972 0.1856 0.32145 0.42699 0.5115 0.7622 0.0335 0.0592 0.0402 0.0689 0.0519 0.077 0.0287 0.0198 0.0643 0.0178 0.0908-5e-3 0.0107-9e-3 0.0172-0.0218 0.037-0.0718 0.0952-0.23857 0.21915-0.502 0.34127-0.7252 0.20683-0.37787 0.43731-0.70883 0.70317-1.0089 0.1021-0.11524 0.19429-0.20986 0.36088-0.37019 0.11383-0.10937 0.14658-0.14496 0.16377-0.1771 0.0285-0.0534 0.0176-0.10473-0.0289-0.13607-0.0279-0.0188-0.0732-0.0283-0.11463-0.0239z" fill="#00af00"/><path d="m418.34 123.94c-0.17568 0.0499-0.46889 0.23504-0.83688 0.52706-0.0593 0.0475-0.10802 0.0855-0.1104 0.0855-2e-3 0-0.0487-0.0285-0.10446-0.0629-0.1377-0.0867-0.29083-0.17687-0.44633-0.26353-0.11278-0.0629-0.14601-0.0783-0.23861-0.10802-0.29083-0.0961-0.43328-0.10684-0.4772-0.0356-0.0154 0.0261-0.0214 0.10446-0.0142 0.18518 0.0155 0.165 0.0214 0.17094 0.3858 0.35493 0.19349 0.0985 0.31338 0.16382 0.43327 0.23504l0.0712 0.0427-0.17568 0.17806c-0.20656 0.20892-0.34544 0.36087-0.38462 0.41903-0.11395 0.17094-0.19705 0.33951-0.20892 0.42853-6e-3 0.0427 0.0107 0.0855 0.0392 0.10328 0.0249 0.0154 0.0795 0.0297 0.15788 0.0439 0.0736 0.0119 0.10446 0.0119 0.14838-1e-3 0.0309-0.01 0.0439-0.019 0.10446-0.0795 0.038-0.0392 0.11396-0.12464 0.16975-0.19112 0.17687-0.21248 0.37392-0.42378 0.51281-0.55198l0.0688-0.0641 0.0902 0.0677c0.38224 0.28371 0.70393 0.57928 0.91523 0.84163 0.0855 0.10565 0.10683 0.12226 0.1555 0.12226 0.0427 0 0.07-0.0178 0.0855-0.0593 9e-3 -0.0249 0.0107-0.0427 7e-3 -0.12939-8e-3 -0.19942-0.0297-0.35137-0.0558-0.40241-0.0475-0.0938-0.24217-0.3027-0.43566-0.46889-0.10208-0.0867-0.30033-0.2481-0.349-0.28252-0.0155-0.0107-0.0273-0.0214-0.0273-0.0237 0-0.0131 0.28964-0.22911 0.46057-0.34425 0.17095-0.11515 0.2849-0.18162 0.43922-0.25759 0.0724-0.0356 0.13889-0.0712 0.14838-0.0784 0.0273-0.0214 0.0451-0.0617 0.0415-0.0926-8e-3 -0.0558-0.0391-0.076-0.15551-0.0997-0.20298-0.038-0.36086-0.0534-0.41428-0.038z" fill="#af0000" stroke-width=".26458"/></g></svg>
