<svg width="82.256mm" height="40.915mm" version="1.1" viewBox="0 0 82.256 40.915" xml:space="preserve" xmlns="http://www.w3.org/2000/svg" xmlns:xlink="http://www.w3.org/1999/xlink"><defs><linearGradient id="linearGradient11"><stop stop-color="#c83200" offset=".17623"/><stop stop-color="#c83200" stop-opacity="0" offset="1"/></linearGradient><marker id="ConcaveTriangle-16-42-5-1-1-7-6-6-2-1-6-9-3-7-3-7-8-93-94-8-4" overflow="visible" markerHeight="0.60000002" markerWidth="0.60000002" orient="auto-start-reverse" preserveAspectRatio="xMidYMid" viewBox="0 0 1 1"><path transform="scale(.7)" d="m-2-4 11 4-11 4c2-2.33 2-5.66 0-8z" fill="context-stroke" fill-rule="evenodd"/></marker><linearGradient id="linearGradient81" x1="640" x2="660" y1="180" y2="180" gradientTransform="matrix(1.5012 0 0 1 -765.78 -597)" gradientUnits="userSpaceOnUse" xlink:href="#linearGradient11"/><linearGradient id="linearGradient83" x1="640" x2="660" y1="180" y2="180" gradientTransform="matrix(1.5012 0 0 1.005 -765.78 -635.84)" gradientUnits="userSpaceOnUse" xlink:href="#linearGradient11"/><marker id="ConcaveTriangle-16-42-5-1-1-7-6-6-2-1-6-9-3-7-3-7-8-93-94-8-0-12-0" overflow="visible" markerHeight="0.60000002" markerWidth="0.60000002" orient="auto-start-reverse" preserveAspectRatio="xMidYMid" viewBox="0 0 1 1"><path transform="scale(.7)" d="m-2-4 11 4-11 4c2-2.33 2-5.66 0-8z" fill="context-stroke" fill-rule="evenodd"/></marker><marker id="ConcaveTriangle-16-42-5-1-1-7-6-6-2-1-6-9-3-7-3-7-8-93-94-8-4-0-3" overflow="visible" markerHeight="0.60000002" markerWidth="0.60000002" orient="auto-start-reverse" preserveAspectRatio="xMidYMid" viewBox="0 0 1 1"><path transform="scale(.7)" d="m-2-4 11 4-11 4c2-2.33 2-5.66 0-8z" fill="context-stroke" fill-rule="evenodd"/></marker><marker id="ConcaveTriangle-16-42-5-1-1-7-6-6-2-1-6-9-3-7-3-7-8-93-94-8-0-12-0-6" overflow="visible" markerHeight="0.60000002" markerWidth="0.60000002" orient="auto-start-reverse" preserveAspectRatio="xMidYMid" viewBox="0 0 1 1"><path transform="scale(.7)" d="m-2-4 11 4-11 4c2-2.33 2-5.66 0-8z" fill="context-stroke" fill-rule="evenodd"/></marker><marker id="ConcaveTriangle-16-42-5-1-1-7-6-6-2-1-6-9-3-7-3-7-8-93-94-8-4-0-3-5" overflow="visible" markerHeight="0.60000002" markerWidth="0.60000002" orient="auto-start-reverse" preserveAspectRatio="xMidYMid" viewBox="0 0 1 1"><path transform="scale(.7)" d="m-2-4 11 4-11 4c2-2.33 2-5.66 0-8z" fill="context-stroke" fill-rule="evenodd"/></marker><marker id="ConcaveTriangle-16-42-5-1-1-7-6-6-2-1-6-9-3-7-3-7-8-93-94-8-4-82" overflow="visible" markerHeight="0.60000002" markerWidth="0.60000002" orient="auto-start-reverse" preserveAspectRatio="xMidYMid" viewBox="0 0 1 1"><path transform="scale(.7)" d="m-2-4 11 4-11 4c2-2.33 2-5.66 0-8z" fill="context-stroke" fill-rule="evenodd"/></marker><marker id="ConcaveTriangle-16-42-5-1-1-7-6-6-2-1-6-9-3-7-3-7-8-93-94-8-4-03" overflow="visible" markerHeight="0.60000002" markerWidth="0.60000002" orient="auto-start-reverse" preserveAspectRatio="xMidYMid" viewBox="0 0 1 1"><path transform="scale(.7)" d="m-2-4 11 4-11 4c2-2.33 2-5.66 0-8z" fill="context-stroke" fill-rule="evenodd"/></marker><marker id="ConcaveTriangle-16-42-5-1-1-7-6-6-2-1-6-9-3-7-3-7-8-93-94-8-4-82-9" overflow="visible" markerHeight="0.60000002" markerWidth="0.60000002" orient="auto-start-reverse" preserveAspectRatio="xMidYMid" viewBox="0 0 1 1"><path transform="scale(.7)" d="m-2-4 11 4-11 4c2-2.33 2-5.66 0-8z" fill="context-stroke" fill-rule="evenodd"/></marker></defs><g transform="translate(-394.74 -194.9)"><rect transform="rotate(90)" x="195" y="-427" width="30.024" height="20" fill="url(#linearGradient81)" opacity=".65"/><rect transform="scale(-1)" x="-422.12" y="-225.73" width="10.02" height="7.8016" fill="#ffffc8" stroke="#000" stroke-linecap="round" stroke-linejoin="round" stroke-width=".19844"/><rect transform="scale(-1)" x="-423.02" y="-222.83" width="11.822" height="2" fill="#c8c8c8" stroke="#000" stroke-linecap="round" stroke-linejoin="round" stroke-width=".198"/><rect transform="scale(-1)" x="-421.07" y="-225.15" width="7.9688" height="1.5014" fill="#32c832" stroke="#000" stroke-linecap="round" stroke-linejoin="round" stroke-width=".198"/><rect transform="scale(-1)" x="-420.57" y="-224.83" width=".90101" height=".82837" stroke="#000" stroke-linecap="round" stroke-linejoin="round" stroke-width=".198"/><rect transform="scale(-1)" x="-418.57" y="-224.83" width=".90101" height=".82837" stroke="#000" stroke-linecap="round" stroke-linejoin="round" stroke-width=".198"/><rect transform="scale(-1)" x="-416.57" y="-224.83" width=".90101" height=".82837" stroke="#000" stroke-linecap="round" stroke-linejoin="round" stroke-width=".198"/><rect transform="scale(-1)" x="-414.57" y="-224.83" width=".90101" height=".82837" stroke="#000" stroke-linecap="round" stroke-linejoin="round" stroke-width=".198"/><rect transform="scale(-1)" x="-421.07" y="-220.15" width="7.9688" height="1.5014" fill="#32c832" stroke="#000" stroke-linecap="round" stroke-linejoin="round" stroke-width=".198"/><rect transform="scale(-1)" x="-420.57" y="-219.83" width=".90101" height=".82837" stroke="#000" stroke-linecap="round" stroke-linejoin="round" stroke-width=".198"/><rect transform="scale(-1)" x="-418.57" y="-219.83" width=".90101" height=".82837" stroke="#000" stroke-linecap="round" stroke-linejoin="round" stroke-width=".198"/><rect transform="scale(-1)" x="-416.57" y="-219.83" width=".90101" height=".82837" stroke="#000" stroke-linecap="round" stroke-linejoin="round" stroke-width=".198"/><rect transform="scale(-1)" x="-414.57" y="-219.83" width=".90101" height=".82837" stroke="#000" stroke-linecap="round" stroke-linejoin="round" stroke-width=".198"/><rect transform="scale(-1)" x="-422.12" y="-215.73" width="10.02" height="7.8016" fill="#ffffc8" stroke="#000" stroke-linecap="round" stroke-linejoin="round" stroke-width=".19844"/><rect transform="scale(-1)" x="-423.02" y="-212.83" width="11.822" height="2" fill="#c8c8c8" stroke="#000" stroke-linecap="round" stroke-linejoin="round" stroke-width=".198"/><rect transform="scale(-1)" x="-421.07" y="-215.16" width="7.9688" height="1.5014" fill="#32c832" stroke="#000" stroke-linecap="round" stroke-linejoin="round" stroke-width=".198"/><rect transform="scale(-1)" x="-420.57" y="-214.83" width=".90101" height=".82837" stroke="#000" stroke-linecap="round" stroke-linejoin="round" stroke-width=".198"/><rect transform="scale(-1)" x="-418.57" y="-214.83" width=".90101" height=".82837" stroke="#000" stroke-linecap="round" stroke-linejoin="round" stroke-width=".198"/><rect transform="scale(-1)" x="-416.57" y="-214.83" width=".90101" height=".82837" stroke="#000" stroke-linecap="round" stroke-linejoin="round" stroke-width=".198"/><rect transform="scale(-1)" x="-414.57" y="-214.83" width=".90101" height=".82837" stroke="#000" stroke-linecap="round" stroke-linejoin="round" stroke-width=".198"/><rect transform="scale(-1)" x="-421.07" y="-210.16" width="7.9688" height="1.5014" fill="#32c832" stroke="#000" stroke-linecap="round" stroke-linejoin="round" stroke-width=".198"/><rect transform="scale(-1)" x="-420.57" y="-209.83" width=".90101" height=".82837" stroke="#000" stroke-linecap="round" stroke-linejoin="round" stroke-width=".198"/><rect transform="scale(-1)" x="-418.57" y="-209.83" width=".90101" height=".82837" stroke="#000" stroke-linecap="round" stroke-linejoin="round" stroke-width=".198"/><rect transform="scale(-1)" x="-416.57" y="-209.83" width=".90101" height=".82837" stroke="#000" stroke-linecap="round" stroke-linejoin="round" stroke-width=".198"/><rect transform="scale(-1)" x="-414.57" y="-209.83" width=".90101" height=".82837" stroke="#000" stroke-linecap="round" stroke-linejoin="round" stroke-width=".198"/><rect x="407.1" y="195" width="19.901" height="9.9008" fill="none" stroke="#000" stroke-linecap="round" stroke-linejoin="round" stroke-width=".19844"/><text x="417.18341" y="198.4799" fill="#000000" font-family="Inter" font-size="1.4111px" font-weight="bold" stroke-linecap="round" stroke-linejoin="round" stroke-width=".19844" text-anchor="middle" xml:space="preserve"><tspan x="417.18341" y="198.4799" text-align="center">Noisy or </tspan><tspan x="417.18341" y="200.27892" text-align="center">high-current circuit</tspan><tspan x="417.18341" y="202.07793" text-align="center">(Driver, LDO etc.)</tspan></text><rect transform="rotate(90)" x="195" y="-465" width="30.024" height="20.099" fill="url(#linearGradient83)" opacity=".65"/><rect x="445" y="195" width="19.901" height="9.9008" fill="none" stroke="#000" stroke-linecap="round" stroke-linejoin="round" stroke-width=".19844"/><text x="455.08417" y="198.4799" fill="#000000" font-family="inter" font-size="1.4111px" font-weight="bold" stroke-linecap="round" stroke-linejoin="round" stroke-width=".19844" text-anchor="middle" xml:space="preserve"><tspan x="455.08417" y="198.4799" text-align="center">Noisy or </tspan><tspan x="455.08417" y="200.27892" text-align="center">high-current circuit</tspan><tspan x="455.08417" y="202.07793" text-align="center">(Driver, LDO etc.)</tspan></text><rect transform="rotate(-90)" x="-230.02" y="445.17" width="10.02" height="7.8016" fill="#ffffc8" stroke="#000" stroke-linecap="round" stroke-linejoin="round" stroke-width=".19844"/><rect transform="rotate(-90)" x="-230.92" y="448.07" width="11.822" height="2" fill="#c8c8c8" stroke="#000" stroke-linecap="round" stroke-linejoin="round" stroke-width=".198"/><rect transform="rotate(-90)" x="-228.97" y="445.81" width="7.9688" height="1.5014" fill="#32c832" stroke="#000" stroke-linecap="round" stroke-linejoin="round" stroke-width=".198"/><rect transform="rotate(-90)" x="-228.47" y="446.14" width=".90101" height=".82837" stroke="#000" stroke-linecap="round" stroke-linejoin="round" stroke-width=".198"/><rect transform="rotate(-90)" x="-226.47" y="446.14" width=".90101" height=".82837" stroke="#000" stroke-linecap="round" stroke-linejoin="round" stroke-width=".198"/><rect transform="rotate(-90)" x="-224.47" y="446.14" width=".90101" height=".82837" stroke="#000" stroke-linecap="round" stroke-linejoin="round" stroke-width=".198"/><rect transform="rotate(-90)" x="-222.47" y="446.14" width=".90101" height=".82837" stroke="#000" stroke-linecap="round" stroke-linejoin="round" stroke-width=".198"/><rect transform="rotate(-90)" x="-228.97" y="450.75" width="7.9688" height="1.5014" fill="#32c832" stroke="#000" stroke-linecap="round" stroke-linejoin="round" stroke-width=".198"/><rect transform="rotate(-90)" x="-228.47" y="451.07" width=".90101" height=".82837" stroke="#000" stroke-linecap="round" stroke-linejoin="round" stroke-width=".198"/><rect transform="rotate(-90)" x="-226.47" y="451.07" width=".90101" height=".82837" stroke="#000" stroke-linecap="round" stroke-linejoin="round" stroke-width=".198"/><rect transform="rotate(-90)" x="-224.47" y="451.07" width=".90101" height=".82837" stroke="#000" stroke-linecap="round" stroke-linejoin="round" stroke-width=".198"/><rect transform="rotate(-90)" x="-222.47" y="451.07" width=".90101" height=".82837" stroke="#000" stroke-linecap="round" stroke-linejoin="round" stroke-width=".198"/><rect transform="rotate(-90)" x="-230.02" y="456.98" width="10.02" height="7.8016" fill="#ffffc8" stroke="#000" stroke-linecap="round" stroke-linejoin="round" stroke-width=".19844"/><rect transform="rotate(-90)" x="-230.92" y="459.88" width="11.822" height="2" fill="#c8c8c8" stroke="#000" stroke-linecap="round" stroke-linejoin="round" stroke-width=".198"/><rect transform="rotate(-90)" x="-228.97" y="457.63" width="7.9688" height="1.5014" fill="#32c832" stroke="#000" stroke-linecap="round" stroke-linejoin="round" stroke-width=".198"/><rect transform="rotate(-90)" x="-228.47" y="457.96" width=".90101" height=".82837" stroke="#000" stroke-linecap="round" stroke-linejoin="round" stroke-width=".198"/><rect transform="rotate(-90)" x="-226.47" y="457.96" width=".90101" height=".82837" stroke="#000" stroke-linecap="round" stroke-linejoin="round" stroke-width=".198"/><rect transform="rotate(-90)" x="-224.47" y="457.96" width=".90101" height=".82837" stroke="#000" stroke-linecap="round" stroke-linejoin="round" stroke-width=".198"/><rect transform="rotate(-90)" x="-222.47" y="457.96" width=".90101" height=".82837" stroke="#000" stroke-linecap="round" stroke-linejoin="round" stroke-width=".198"/><rect transform="rotate(-90)" x="-228.97" y="462.55" width="7.9688" height="1.5014" fill="#32c832" stroke="#000" stroke-linecap="round" stroke-linejoin="round" stroke-width=".198"/><rect transform="rotate(-90)" x="-228.47" y="462.88" width=".90101" height=".82837" stroke="#000" stroke-linecap="round" stroke-linejoin="round" stroke-width=".198"/><rect transform="rotate(-90)" x="-226.47" y="462.88" width=".90101" height=".82837" stroke="#000" stroke-linecap="round" stroke-linejoin="round" stroke-width=".198"/><rect transform="rotate(-90)" x="-224.47" y="462.88" width=".90101" height=".82837" stroke="#000" stroke-linecap="round" stroke-linejoin="round" stroke-width=".198"/><rect transform="rotate(-90)" x="-222.47" y="462.88" width=".90101" height=".82837" stroke="#000" stroke-linecap="round" stroke-linejoin="round" stroke-width=".198"/><path d="m466.28 205.74v13.526" fill="none" marker-end="url(#ConcaveTriangle-16-42-5-1-1-7-6-6-2-1-6-9-3-7-3-7-8-93-94-8-4-0-3)" marker-start="url(#ConcaveTriangle-16-42-5-1-1-7-6-6-2-1-6-9-3-7-3-7-8-93-94-8-0-12-0)" stroke="#000" stroke-linecap="round" stroke-linejoin="round" stroke-width=".198" style="paint-order:markers stroke fill"/><text x="470.94678" y="212" fill="#00af00" font-family="Inter" font-size="1.4111px" font-weight="bold" stroke-linecap="round" stroke-linejoin="round" stroke-width=".19844" text-anchor="middle" xml:space="preserve"><tspan x="470.94678" y="212" text-align="center">Sufficient</tspan><tspan x="470.94678" y="213.79901" text-align="center">distance</tspan></text><path d="m406 205.59v1.5172" fill="none" marker-end="url(#ConcaveTriangle-16-42-5-1-1-7-6-6-2-1-6-9-3-7-3-7-8-93-94-8-4-0-3-5)" marker-start="url(#ConcaveTriangle-16-42-5-1-1-7-6-6-2-1-6-9-3-7-3-7-8-93-94-8-0-12-0-6)" stroke="#000" stroke-linecap="round" stroke-linejoin="round" stroke-width=".198" style="paint-order:markers stroke fill"/><text x="400.60556" y="206.02663" fill="#af0000" font-family="Inter" font-size="1.4111px" font-weight="bold" stroke-linecap="round" stroke-linejoin="round" stroke-width=".19844" text-anchor="middle" xml:space="preserve"><tspan x="400.60556" y="206.02663" text-align="center">Too close</tspan><tspan x="400.60556" y="207.82564" text-align="center">to agressor</tspan></text><path d="m456.03 233.28c-0.15487 0.0166-0.41588 0.20925-0.80224 0.59197-0.23412 0.2319-0.51938 0.54102-0.74218 0.80405l-0.037 0.0437-0.0305-0.016c-0.0544-0.0285-0.15345-0.0778-0.20016-0.0997-0.21915-0.1025-0.36047-0.14617-0.45934-0.14213-0.0344 1e-3 -0.0534 6e-3 -0.0799 0.0188-0.0158 8e-3 -0.022 0.0123-0.0354 0.0259-0.0281 0.0281-0.0402 0.0586-0.0402 0.10028 0 0.0368 1e-3 0.0388 0.0655 0.0985 0.0809 0.0754 0.17872 0.1767 0.24463 0.25333 0.15972 0.1856 0.32145 0.42699 0.5115 0.7622 0.0335 0.0592 0.0402 0.0689 0.0519 0.077 0.0287 0.0198 0.0643 0.0178 0.0908-5e-3 0.0107-9e-3 0.0172-0.0218 0.037-0.0718 0.0952-0.23857 0.21915-0.502 0.34127-0.7252 0.20683-0.37787 0.43731-0.70883 0.70317-1.0089 0.1021-0.11524 0.19429-0.20986 0.36088-0.37019 0.11383-0.10937 0.14658-0.14496 0.16377-0.1771 0.0285-0.0534 0.0176-0.10473-0.0289-0.13607-0.0279-0.0188-0.0732-0.0283-0.11463-0.0239z" fill="#00af00"/><path d="m418.34 233.45c-0.17568 0.0499-0.46889 0.23504-0.83688 0.52706-0.0593 0.0475-0.10802 0.0855-0.1104 0.0855-2e-3 0-0.0487-0.0285-0.10446-0.0629-0.1377-0.0867-0.29083-0.17687-0.44633-0.26353-0.11278-0.0629-0.14601-0.0783-0.23861-0.10802-0.29083-0.0961-0.43328-0.10684-0.4772-0.0356-0.0154 0.0261-0.0214 0.10446-0.0142 0.18518 0.0155 0.165 0.0214 0.17094 0.3858 0.35493 0.19349 0.0985 0.31338 0.16382 0.43327 0.23504l0.0712 0.0427-0.17568 0.17806c-0.20656 0.20892-0.34544 0.36087-0.38462 0.41903-0.11395 0.17094-0.19705 0.33951-0.20892 0.42853-6e-3 0.0427 0.0107 0.0855 0.0392 0.10328 0.0249 0.0154 0.0795 0.0297 0.15788 0.0439 0.0736 0.0119 0.10446 0.0119 0.14838-1e-3 0.0309-0.01 0.0439-0.019 0.10446-0.0795 0.038-0.0392 0.11396-0.12464 0.16975-0.19112 0.17687-0.21248 0.37392-0.42378 0.51281-0.55198l0.0688-0.0641 0.0902 0.0677c0.38224 0.28371 0.70393 0.57928 0.91523 0.84163 0.0855 0.10565 0.10683 0.12226 0.1555 0.12226 0.0427 0 0.07-0.0178 0.0855-0.0593 9e-3 -0.0249 0.0107-0.0427 7e-3 -0.12939-8e-3 -0.19942-0.0297-0.35137-0.0558-0.40241-0.0475-0.0938-0.24217-0.3027-0.43566-0.46889-0.10208-0.0867-0.30033-0.2481-0.349-0.28252-0.0155-0.0107-0.0273-0.0214-0.0273-0.0237 0-0.0131 0.28964-0.22911 0.46057-0.34425 0.17095-0.11515 0.2849-0.18162 0.43922-0.25759 0.0724-0.0356 0.13889-0.0712 0.14838-0.0784 0.0273-0.0214 0.0451-0.0617 0.0415-0.0926-8e-3 -0.0558-0.0391-0.076-0.15551-0.0997-0.20298-0.038-0.36086-0.0534-0.41428-0.038z" fill="#af0000" stroke-width=".26458"/><path d="m406.02 210.98 5.3203-1.7111" fill="#af0000" marker-end="url(#ConcaveTriangle-16-42-5-1-1-7-6-6-2-1-6-9-3-7-3-7-8-93-94-8-4)" stroke="#000" stroke-linecap="round" stroke-linejoin="round" stroke-width=".198" style="paint-order:markers stroke fill"/><path d="m406 213 5.3203 1.7111" fill="#af0000" marker-end="url(#ConcaveTriangle-16-42-5-1-1-7-6-6-2-1-6-9-3-7-3-7-8-93-94-8-4-82)" stroke="#000" stroke-linecap="round" stroke-linejoin="round" stroke-width=".198" style="paint-order:markers stroke fill"/><text x="401.08398" y="212.07486" fill="#af0000" font-family="Inter" font-size="1.4111px" font-weight="bold" stroke-linecap="round" stroke-linejoin="round" stroke-width=".19844" text-anchor="middle" xml:space="preserve"><tspan x="401.08398" y="212.07486" text-align="center">Source/drain</tspan><tspan x="401.08398" y="213.87387" text-align="center">are seeing</tspan><tspan x="401.08398" y="215.67288" text-align="center">different </tspan><tspan x="401.08398" y="217.47189" text-align="center">impact</tspan></text><path d="m442 213 9.8101 5.4193" fill="#af0000" marker-end="url(#ConcaveTriangle-16-42-5-1-1-7-6-6-2-1-6-9-3-7-3-7-8-93-94-8-4-03)" stroke="#000" stroke-linecap="round" stroke-linejoin="round" stroke-width=".198" style="paint-order:markers stroke fill"/><path d="m440 213 6.2889 5.3203" fill="#af0000" marker-end="url(#ConcaveTriangle-16-42-5-1-1-7-6-6-2-1-6-9-3-7-3-7-8-93-94-8-4-82-9)" stroke="#000" stroke-linecap="round" stroke-linejoin="round" stroke-width=".198" style="paint-order:markers stroke fill"/><text x="440" y="207" fill="#00af00" font-family="Inter" font-size="1.4111px" font-weight="bold" stroke-linecap="round" stroke-linejoin="round" stroke-width=".19844" text-anchor="middle" xml:space="preserve"><tspan x="440" y="207" text-align="center">Source/drain</tspan><tspan x="440" y="208.79901" text-align="center">are seeing</tspan><tspan x="440" y="210.59802" text-align="center">same </tspan><tspan x="440" y="212.39703" text-align="center">impact</tspan></text><text x="394.84271" y="210.09895" fill="#00af00" font-family="Inter" font-size="1.4111px" stroke="#000000" stroke-linecap="round" stroke-linejoin="round" stroke-opacity=".37297" stroke-width=".19791" style="paint-order:markers stroke fill" xml:space="preserve"><tspan x="394.84271" y="210.09895" stroke-width=".19791">    </tspan></text><text x="475.84271" y="211.09895" fill="#00af00" font-family="Inter" font-size="1.4111px" stroke="#000000" stroke-linecap="round" stroke-linejoin="round" stroke-opacity=".37297" stroke-width=".19791" style="paint-order:markers stroke fill" xml:space="preserve"><tspan x="475.84271" y="211.09895" stroke-width=".19791">    </tspan></text></g></svg>
