<svg width="59.763mm" height="22.948mm" version="1.1" viewBox="0 0 59.763 22.948" xml:space="preserve" xmlns="http://www.w3.org/2000/svg"><defs><marker id="ConcaveTriangle-16-42-5-1-1-7-6-6-2-1-6-9-3-7-3-7-8-93-94-8-0-12-0-6-0" overflow="visible" markerHeight="0.60000002" markerWidth="0.60000002" orient="auto-start-reverse" preserveAspectRatio="xMidYMid" viewBox="0 0 1 1"><path transform="scale(.7)" d="m-2-4 11 4-11 4c2-2.33 2-5.66 0-8z" fill="context-stroke" fill-rule="evenodd"/></marker><marker id="ConcaveTriangle-16-42-5-1-1-7-6-6-2-1-6-9-3-7-3-7-8-93-94-8-4-0-3-5-0" overflow="visible" markerHeight="0.60000002" markerWidth="0.60000002" orient="auto-start-reverse" preserveAspectRatio="xMidYMid" viewBox="0 0 1 1"><path transform="scale(.7)" d="m-2-4 11 4-11 4c2-2.33 2-5.66 0-8z" fill="context-stroke" fill-rule="evenodd"/></marker><marker id="ConcaveTriangle-16-42-5-1-1-7-6-6-2-1-6-9-3-7-3-7-8-93-94-8-0-12-0-6-0-3" overflow="visible" markerHeight="0.60000002" markerWidth="0.60000002" orient="auto-start-reverse" preserveAspectRatio="xMidYMid" viewBox="0 0 1 1"><path transform="scale(.7)" d="m-2-4 11 4-11 4c2-2.33 2-5.66 0-8z" fill="context-stroke" fill-rule="evenodd"/></marker><marker id="ConcaveTriangle-16-42-5-1-1-7-6-6-2-1-6-9-3-7-3-7-8-93-94-8-4-0-3-5-0-4" overflow="visible" markerHeight="0.60000002" markerWidth="0.60000002" orient="auto-start-reverse" preserveAspectRatio="xMidYMid" viewBox="0 0 1 1"><path transform="scale(.7)" d="m-2-4 11 4-11 4c2-2.33 2-5.66 0-8z" fill="context-stroke" fill-rule="evenodd"/></marker><marker id="ConcaveTriangle-16-42-5-1-1-7-6-6-2-1-6-9-3-7-3-7-8-93-94-8-0-12-0-6-0-4" overflow="visible" markerHeight="0.60000002" markerWidth="0.60000002" orient="auto-start-reverse" preserveAspectRatio="xMidYMid" viewBox="0 0 1 1"><path transform="scale(.7)" d="m-2-4 11 4-11 4c2-2.33 2-5.66 0-8z" fill="context-stroke" fill-rule="evenodd"/></marker><marker id="ConcaveTriangle-16-42-5-1-1-7-6-6-2-1-6-9-3-7-3-7-8-93-94-8-0-12-0-6-0-4-6" overflow="visible" markerHeight="0.60000002" markerWidth="0.60000002" orient="auto-start-reverse" preserveAspectRatio="xMidYMid" viewBox="0 0 1 1"><path transform="scale(.7)" d="m-2-4 11 4-11 4c2-2.33 2-5.66 0-8z" fill="context-stroke" fill-rule="evenodd"/></marker><marker id="ConcaveTriangle-16-42-5-1-1-7-6-6-2-1-6-9-3-7-3-7-8-93-94-8-0-12-0-6-0-2" overflow="visible" markerHeight="0.60000002" markerWidth="0.60000002" orient="auto-start-reverse" preserveAspectRatio="xMidYMid" viewBox="0 0 1 1"><path transform="scale(.7)" d="m-2-4 11 4-11 4c2-2.33 2-5.66 0-8z" fill="context-stroke" fill-rule="evenodd"/></marker><marker id="ConcaveTriangle-16-42-5-1-1-7-6-6-2-1-6-9-3-7-3-7-8-93-94-8-4-0-3-5-0-0" overflow="visible" markerHeight="0.60000002" markerWidth="0.60000002" orient="auto-start-reverse" preserveAspectRatio="xMidYMid" viewBox="0 0 1 1"><path transform="scale(.7)" d="m-2-4 11 4-11 4c2-2.33 2-5.66 0-8z" fill="context-stroke" fill-rule="evenodd"/></marker><marker id="ConcaveTriangle-16-42-5-1-1-7-6-6-2-1-6-9-3-7-3-7-8-93-94-8-0-12-0-6-0-3-1" overflow="visible" markerHeight="0.60000002" markerWidth="0.60000002" orient="auto-start-reverse" preserveAspectRatio="xMidYMid" viewBox="0 0 1 1"><path transform="scale(.7)" d="m-2-4 11 4-11 4c2-2.33 2-5.66 0-8z" fill="context-stroke" fill-rule="evenodd"/></marker><marker id="ConcaveTriangle-16-42-5-1-1-7-6-6-2-1-6-9-3-7-3-7-8-93-94-8-4-0-3-5-0-4-1" overflow="visible" markerHeight="0.60000002" markerWidth="0.60000002" orient="auto-start-reverse" preserveAspectRatio="xMidYMid" viewBox="0 0 1 1"><path transform="scale(.7)" d="m-2-4 11 4-11 4c2-2.33 2-5.66 0-8z" fill="context-stroke" fill-rule="evenodd"/></marker><marker id="ConcaveTriangle-16-42-5-1-1-7-6-6-2-1-6-9-3-7-3-7-8-93-94-8-0-12-0-6-0-4-6-0" overflow="visible" markerHeight="0.60000002" markerWidth="0.60000002" orient="auto-start-reverse" preserveAspectRatio="xMidYMid" viewBox="0 0 1 1"><path transform="scale(.7)" d="m-2-4 11 4-11 4c2-2.33 2-5.66 0-8z" fill="context-stroke" fill-rule="evenodd"/></marker><marker id="ConcaveTriangle-16-42-5-1-1-7-6-6-2-1-6-9-3-7-3-7-8-93-94-8-0-12-0-6-0-3-1-8" overflow="visible" markerHeight="0.60000002" markerWidth="0.60000002" orient="auto-start-reverse" preserveAspectRatio="xMidYMid" viewBox="0 0 1 1"><path transform="scale(.7)" d="m-2-4 11 4-11 4c2-2.33 2-5.66 0-8z" fill="context-stroke" fill-rule="evenodd"/></marker><marker id="ConcaveTriangle-16-42-5-1-1-7-6-6-2-1-6-9-3-7-3-7-8-93-94-8-4-0-3-5-0-4-1-5" overflow="visible" markerHeight="0.60000002" markerWidth="0.60000002" orient="auto-start-reverse" preserveAspectRatio="xMidYMid" viewBox="0 0 1 1"><path transform="scale(.7)" d="m-2-4 11 4-11 4c2-2.33 2-5.66 0-8z" fill="context-stroke" fill-rule="evenodd"/></marker><marker id="ConcaveTriangle-16-42-5-1-1-7-6-6-2-1-6-9-3-7-3-7-8-93-94-8-0-12-0-6-0-2-0" overflow="visible" markerHeight="0.60000002" markerWidth="0.60000002" orient="auto-start-reverse" preserveAspectRatio="xMidYMid" viewBox="0 0 1 1"><path transform="scale(.7)" d="m-2-4 11 4-11 4c2-2.33 2-5.66 0-8z" fill="context-stroke" fill-rule="evenodd"/></marker><marker id="ConcaveTriangle-16-42-5-1-1-7-6-6-2-1-6-9-3-7-3-7-8-93-94-8-4-0-3-5-0-0-4" overflow="visible" markerHeight="0.60000002" markerWidth="0.60000002" orient="auto-start-reverse" preserveAspectRatio="xMidYMid" viewBox="0 0 1 1"><path transform="scale(.7)" d="m-2-4 11 4-11 4c2-2.33 2-5.66 0-8z" fill="context-stroke" fill-rule="evenodd"/></marker><marker id="ConcaveTriangle-16-42-5-1-1-7-6-6-2-1-6-9-3-7-3-7-8-93-94-8-0-12-0-6-0-3-1-8-8" overflow="visible" markerHeight="0.60000002" markerWidth="0.60000002" orient="auto-start-reverse" preserveAspectRatio="xMidYMid" viewBox="0 0 1 1"><path transform="scale(.7)" d="m-2-4 11 4-11 4c2-2.33 2-5.66 0-8z" fill="context-stroke" fill-rule="evenodd"/></marker><marker id="ConcaveTriangle-16-42-5-1-1-7-6-6-2-1-6-9-3-7-3-7-8-93-94-8-4-0-3-5-0-4-1-5-7" overflow="visible" markerHeight="0.60000002" markerWidth="0.60000002" orient="auto-start-reverse" preserveAspectRatio="xMidYMid" viewBox="0 0 1 1"><path transform="scale(.7)" d="m-2-4 11 4-11 4c2-2.33 2-5.66 0-8z" fill="context-stroke" fill-rule="evenodd"/></marker><marker id="ConcaveTriangle-16-42-5-1-1-7-6-6-2-1-6-9-3-7-3-7-8-93-94-8-0-12-0-6-0-3-1-0" overflow="visible" markerHeight="0.60000002" markerWidth="0.60000002" orient="auto-start-reverse" preserveAspectRatio="xMidYMid" viewBox="0 0 1 1"><path transform="scale(.7)" d="m-2-4 11 4-11 4c2-2.33 2-5.66 0-8z" fill="context-stroke" fill-rule="evenodd"/></marker><marker id="ConcaveTriangle-16-42-5-1-1-7-6-6-2-1-6-9-3-7-3-7-8-93-94-8-4-0-3-5-0-4-1-8" overflow="visible" markerHeight="0.60000002" markerWidth="0.60000002" orient="auto-start-reverse" preserveAspectRatio="xMidYMid" viewBox="0 0 1 1"><path transform="scale(.7)" d="m-2-4 11 4-11 4c2-2.33 2-5.66 0-8z" fill="context-stroke" fill-rule="evenodd"/></marker><marker id="ConcaveTriangle-16-42-5-1-1-7-6-6-2-1-6-9-3-7-3-7-8-93-94-8-0-12-0-6-0-3-1-0-2" overflow="visible" markerHeight="0.60000002" markerWidth="0.60000002" orient="auto-start-reverse" preserveAspectRatio="xMidYMid" viewBox="0 0 1 1"><path transform="scale(.7)" d="m-2-4 11 4-11 4c2-2.33 2-5.66 0-8z" fill="context-stroke" fill-rule="evenodd"/></marker><marker id="ConcaveTriangle-16-42-5-1-1-7-6-6-2-1-6-9-3-7-3-7-8-93-94-8-4-0-3-5-0-4-1-8-3" overflow="visible" markerHeight="0.60000002" markerWidth="0.60000002" orient="auto-start-reverse" preserveAspectRatio="xMidYMid" viewBox="0 0 1 1"><path transform="scale(.7)" d="m-2-4 11 4-11 4c2-2.33 2-5.66 0-8z" fill="context-stroke" fill-rule="evenodd"/></marker></defs><g transform="translate(-404.3 -245.87)"><rect x="450" y="250" width="3.8677" height="4" fill="#b7e07b" stroke="#000" stroke-linecap="round" stroke-linejoin="round" stroke-opacity=".37297" stroke-width=".26458" style="paint-order:markers stroke fill"/><text x="450.97247" y="253.05327" fill="#000000" font-family="inter" font-size="2.8222px" stroke="#000000" stroke-linecap="round" stroke-linejoin="round" stroke-width=".198" style="paint-order:markers stroke fill" xml:space="preserve"><tspan x="450.97247" y="253.05327" font-size="2.8222px" stroke="none" stroke-width=".198">A</tspan></text><rect x="456" y="250" width="3.8677" height="4" fill="#7be0d7" stroke="#000" stroke-linecap="round" stroke-linejoin="round" stroke-opacity=".37297" stroke-width=".26458" style="paint-order:markers stroke fill"/><text x="456.97247" y="253.05327" fill="#000000" font-family="inter" font-size="2.8222px" stroke="#000000" stroke-linecap="round" stroke-linejoin="round" stroke-width=".198" style="paint-order:markers stroke fill" xml:space="preserve"><tspan x="456.97247" y="253.05327" font-size="2.8222px" stroke="none" stroke-width=".198">B</tspan></text><rect x="450" y="256" width="3.8677" height="4" fill="#7be0d7" stroke="#000" stroke-linecap="round" stroke-linejoin="round" stroke-opacity=".37297" stroke-width=".26458" style="paint-order:markers stroke fill"/><text x="450.97247" y="259.05325" fill="#000000" font-family="inter" font-size="2.8222px" stroke="#000000" stroke-linecap="round" stroke-linejoin="round" stroke-width=".198" style="paint-order:markers stroke fill" xml:space="preserve"><tspan x="450.97247" y="259.05325" font-size="2.8222px" stroke="none" stroke-width=".198">B</tspan></text><rect x="456" y="256" width="3.8677" height="4" fill="#b7e07b" stroke="#000" stroke-linecap="round" stroke-linejoin="round" stroke-opacity=".37297" stroke-width=".26458" style="paint-order:markers stroke fill"/><text x="456.97247" y="259.05325" fill="#000000" font-family="inter" font-size="2.8222px" stroke="#000000" stroke-linecap="round" stroke-linejoin="round" stroke-width=".198" style="paint-order:markers stroke fill" xml:space="preserve"><tspan x="456.97247" y="259.05325" font-size="2.8222px" stroke="none" stroke-width=".198">A</tspan></text><rect x="446.03" y="262.13" width="1.9339" height="2" fill="#c8c8c8" stroke="#000" stroke-linecap="round" stroke-linejoin="round" stroke-opacity=".37297" stroke-width=".26458" style="paint-order:markers stroke fill"/><rect x="461.93" y="262.13" width="1.9339" height="2" fill="#c8c8c8" stroke="#000" stroke-linecap="round" stroke-linejoin="round" stroke-opacity=".37297" stroke-width=".26458" style="paint-order:markers stroke fill"/><rect transform="rotate(-90)" x="-264.07" y="450" width="1.9339" height="4" fill="#c8c8c8" stroke="#000" stroke-linecap="round" stroke-linejoin="round" stroke-opacity=".37297" stroke-width=".26458" style="paint-order:markers stroke fill"/><rect transform="rotate(-90)" x="-264.07" y="456" width="1.9339" height="4" fill="#c8c8c8" stroke="#000" stroke-linecap="round" stroke-linejoin="round" stroke-opacity=".37297" stroke-width=".26458" style="paint-order:markers stroke fill"/><rect x="446" y="246" width="1.9339" height="2" fill="#c8c8c8" stroke="#000" stroke-linecap="round" stroke-linejoin="round" stroke-opacity=".37297" stroke-width=".26458" style="paint-order:markers stroke fill"/><rect x="461.9" y="246" width="1.9339" height="2" fill="#c8c8c8" stroke="#000" stroke-linecap="round" stroke-linejoin="round" stroke-opacity=".37297" stroke-width=".26458" style="paint-order:markers stroke fill"/><rect transform="rotate(-90)" x="-247.93" y="449.97" width="1.9339" height="4" fill="#c8c8c8" stroke="#000" stroke-linecap="round" stroke-linejoin="round" stroke-opacity=".37297" stroke-width=".26458" style="paint-order:markers stroke fill"/><rect transform="rotate(-90)" x="-247.93" y="455.97" width="1.9339" height="4" fill="#c8c8c8" stroke="#000" stroke-linecap="round" stroke-linejoin="round" stroke-opacity=".37297" stroke-width=".26458" style="paint-order:markers stroke fill"/><rect x="446.07" y="250" width="1.9339" height="4" fill="#c8c8c8" stroke="#000" stroke-linecap="round" stroke-linejoin="round" stroke-opacity=".37297" stroke-width=".26458" style="paint-order:markers stroke fill"/><rect x="462" y="250" width="1.9339" height="4" fill="#c8c8c8" stroke="#000" stroke-linecap="round" stroke-linejoin="round" stroke-opacity=".37297" stroke-width=".26458" style="paint-order:markers stroke fill"/><rect x="446.07" y="256" width="1.9339" height="4" fill="#c8c8c8" stroke="#000" stroke-linecap="round" stroke-linejoin="round" stroke-opacity=".37297" stroke-width=".26458" style="paint-order:markers stroke fill"/><rect x="462" y="256" width="1.9339" height="4" fill="#c8c8c8" stroke="#000" stroke-linecap="round" stroke-linejoin="round" stroke-opacity=".37297" stroke-width=".26458" style="paint-order:markers stroke fill"/><rect x="426.07" y="250" width="3.8677" height="4" fill="#b7e07b" stroke="#000" stroke-linecap="round" stroke-linejoin="round" stroke-opacity=".37297" stroke-width=".26458" style="paint-order:markers stroke fill"/><text x="427.0386" y="253.05327" fill="#000000" font-family="inter" font-size="2.8222px" stroke="#000000" stroke-linecap="round" stroke-linejoin="round" stroke-width=".198" style="paint-order:markers stroke fill" xml:space="preserve"><tspan x="427.0386" y="253.05327" font-size="2.8222px" stroke="none" stroke-width=".198">A</tspan></text><rect x="432.07" y="250" width="3.8677" height="4" fill="#7be0d7" stroke="#000" stroke-linecap="round" stroke-linejoin="round" stroke-opacity=".37297" stroke-width=".26458" style="paint-order:markers stroke fill"/><text x="433.0386" y="253.05327" fill="#000000" font-family="inter" font-size="2.8222px" stroke="#000000" stroke-linecap="round" stroke-linejoin="round" stroke-width=".198" style="paint-order:markers stroke fill" xml:space="preserve"><tspan x="433.0386" y="253.05327" font-size="2.8222px" stroke="none" stroke-width=".198">B</tspan></text><rect x="426.07" y="256" width="3.8677" height="4" fill="#7be0d7" stroke="#000" stroke-linecap="round" stroke-linejoin="round" stroke-opacity=".37297" stroke-width=".26458" style="paint-order:markers stroke fill"/><text x="427.0386" y="259.05325" fill="#000000" font-family="inter" font-size="2.8222px" stroke="#000000" stroke-linecap="round" stroke-linejoin="round" stroke-width=".198" style="paint-order:markers stroke fill" xml:space="preserve"><tspan x="427.0386" y="259.05325" font-size="2.8222px" stroke="none" stroke-width=".198">B</tspan></text><rect x="432.07" y="256" width="3.8677" height="4" fill="#b7e07b" stroke="#000" stroke-linecap="round" stroke-linejoin="round" stroke-opacity=".37297" stroke-width=".26458" style="paint-order:markers stroke fill"/><text x="433.0386" y="259.05325" fill="#000000" font-family="inter" font-size="2.8222px" stroke="#000000" stroke-linecap="round" stroke-linejoin="round" stroke-width=".198" style="paint-order:markers stroke fill" xml:space="preserve"><tspan x="433.0386" y="259.05325" font-size="2.8222px" stroke="none" stroke-width=".198">A</tspan></text><rect x="422.13" y="250" width="1.9339" height="4" fill="#c8c8c8" stroke="#000" stroke-linecap="round" stroke-linejoin="round" stroke-opacity=".37297" stroke-width=".26458" style="paint-order:markers stroke fill"/><rect x="438.07" y="250" width="1.9339" height="4" fill="#c8c8c8" stroke="#000" stroke-linecap="round" stroke-linejoin="round" stroke-opacity=".37297" stroke-width=".26458" style="paint-order:markers stroke fill"/><rect x="422.13" y="256" width="1.9339" height="4" fill="#c8c8c8" stroke="#000" stroke-linecap="round" stroke-linejoin="round" stroke-opacity=".37297" stroke-width=".26458" style="paint-order:markers stroke fill"/><rect x="438.07" y="256" width="1.9339" height="4" fill="#c8c8c8" stroke="#000" stroke-linecap="round" stroke-linejoin="round" stroke-opacity=".37297" stroke-width=".26458" style="paint-order:markers stroke fill"/><rect x="406" y="250" width="3.8677" height="4" fill="#b7e07b" stroke="#000" stroke-linecap="round" stroke-linejoin="round" stroke-opacity=".37297" stroke-width=".26458" style="paint-order:markers stroke fill"/><text x="406.97247" y="253.05327" fill="#000000" font-family="inter" font-size="2.8222px" stroke="#000000" stroke-linecap="round" stroke-linejoin="round" stroke-width=".198" style="paint-order:markers stroke fill" xml:space="preserve"><tspan x="406.97247" y="253.05327" font-size="2.8222px" stroke="none" stroke-width=".198">A</tspan></text><rect x="412" y="250" width="3.8677" height="4" fill="#7be0d7" stroke="#000" stroke-linecap="round" stroke-linejoin="round" stroke-opacity=".37297" stroke-width=".26458" style="paint-order:markers stroke fill"/><text x="412.97247" y="253.05327" fill="#000000" font-family="inter" font-size="2.8222px" stroke="#000000" stroke-linecap="round" stroke-linejoin="round" stroke-width=".198" style="paint-order:markers stroke fill" xml:space="preserve"><tspan x="412.97247" y="253.05327" font-size="2.8222px" stroke="none" stroke-width=".198">B</tspan></text><rect x="406" y="256" width="3.8677" height="4" fill="#7be0d7" stroke="#000" stroke-linecap="round" stroke-linejoin="round" stroke-opacity=".37297" stroke-width=".26458" style="paint-order:markers stroke fill"/><text x="406.97247" y="259.05325" fill="#000000" font-family="inter" font-size="2.8222px" stroke="#000000" stroke-linecap="round" stroke-linejoin="round" stroke-width=".198" style="paint-order:markers stroke fill" xml:space="preserve"><tspan x="406.97247" y="259.05325" font-size="2.8222px" stroke="none" stroke-width=".198">B</tspan></text><rect x="412" y="256" width="3.8677" height="4" fill="#b7e07b" stroke="#000" stroke-linecap="round" stroke-linejoin="round" stroke-opacity=".37297" stroke-width=".26458" style="paint-order:markers stroke fill"/><text x="412.97247" y="259.05325" fill="#000000" font-family="inter" font-size="2.8222px" stroke="#000000" stroke-linecap="round" stroke-linejoin="round" stroke-width=".198" style="paint-order:markers stroke fill" xml:space="preserve"><tspan x="412.97247" y="259.05325" font-size="2.8222px" stroke="none" stroke-width=".198">A</tspan></text><path d="m411.33 252h-0.81678" fill="none" marker-end="url(#ConcaveTriangle-16-42-5-1-1-7-6-6-2-1-6-9-3-7-3-7-8-93-94-8-4-0-3-5-0)" marker-start="url(#ConcaveTriangle-16-42-5-1-1-7-6-6-2-1-6-9-3-7-3-7-8-93-94-8-0-12-0-6-0)" stroke="#00af00" stroke-linecap="round" stroke-linejoin="round" stroke-width=".198" style="paint-order:markers stroke fill"/><path d="m407.87 254.67v0.65786" fill="none" marker-end="url(#ConcaveTriangle-16-42-5-1-1-7-6-6-2-1-6-9-3-7-3-7-8-93-94-8-4-0-3-5-0-4)" marker-start="url(#ConcaveTriangle-16-42-5-1-1-7-6-6-2-1-6-9-3-7-3-7-8-93-94-8-0-12-0-6-0-3)" stroke="#00af00" stroke-linecap="round" stroke-linejoin="round" stroke-width=".198" style="paint-order:markers stroke fill"/><path d="m405.05 252h0.81678" fill="none" marker-start="url(#ConcaveTriangle-16-42-5-1-1-7-6-6-2-1-6-9-3-7-3-7-8-93-94-8-0-12-0-6-0-4)" stroke="#af0000" stroke-linecap="round" stroke-linejoin="round" stroke-width=".19791" style="paint-order:markers stroke fill"/><path d="m407.87 249v0.81678" fill="none" marker-start="url(#ConcaveTriangle-16-42-5-1-1-7-6-6-2-1-6-9-3-7-3-7-8-93-94-8-0-12-0-6-0-4-6)" stroke="#af0000" stroke-linecap="round" stroke-linejoin="round" stroke-width=".19791" style="paint-order:markers stroke fill"/><path d="m431.4 252.05h-0.81678" fill="none" marker-end="url(#ConcaveTriangle-16-42-5-1-1-7-6-6-2-1-6-9-3-7-3-7-8-93-94-8-4-0-3-5-0-0)" marker-start="url(#ConcaveTriangle-16-42-5-1-1-7-6-6-2-1-6-9-3-7-3-7-8-93-94-8-0-12-0-6-0-2)" stroke="#00af00" stroke-linecap="round" stroke-linejoin="round" stroke-width=".198" style="paint-order:markers stroke fill"/><path d="m427.93 254.72v0.65786" fill="none" marker-end="url(#ConcaveTriangle-16-42-5-1-1-7-6-6-2-1-6-9-3-7-3-7-8-93-94-8-4-0-3-5-0-4-1)" marker-start="url(#ConcaveTriangle-16-42-5-1-1-7-6-6-2-1-6-9-3-7-3-7-8-93-94-8-0-12-0-6-0-3-1)" stroke="#00af00" stroke-linecap="round" stroke-linejoin="round" stroke-width=".198" style="paint-order:markers stroke fill"/><path d="m427.93 249.05v0.81678" fill="none" marker-start="url(#ConcaveTriangle-16-42-5-1-1-7-6-6-2-1-6-9-3-7-3-7-8-93-94-8-0-12-0-6-0-4-6-0)" stroke="#af0000" stroke-linecap="round" stroke-linejoin="round" stroke-width=".19791" style="paint-order:markers stroke fill"/><path d="m425.39 252h-0.65786" fill="none" marker-end="url(#ConcaveTriangle-16-42-5-1-1-7-6-6-2-1-6-9-3-7-3-7-8-93-94-8-4-0-3-5-0-4-1-5)" marker-start="url(#ConcaveTriangle-16-42-5-1-1-7-6-6-2-1-6-9-3-7-3-7-8-93-94-8-0-12-0-6-0-3-1-8)" stroke="#00af00" stroke-linecap="round" stroke-linejoin="round" stroke-width=".198" style="paint-order:markers stroke fill"/><path d="m455.46 251.99h-0.81678" fill="none" marker-end="url(#ConcaveTriangle-16-42-5-1-1-7-6-6-2-1-6-9-3-7-3-7-8-93-94-8-4-0-3-5-0-0-4)" marker-start="url(#ConcaveTriangle-16-42-5-1-1-7-6-6-2-1-6-9-3-7-3-7-8-93-94-8-0-12-0-6-0-2-0)" stroke="#00af00" stroke-linecap="round" stroke-linejoin="round" stroke-width=".198" style="paint-order:markers stroke fill"/><path d="m452 254.66v0.65786" fill="none" marker-end="url(#ConcaveTriangle-16-42-5-1-1-7-6-6-2-1-6-9-3-7-3-7-8-93-94-8-4-0-3-5-0-4-1-8)" marker-start="url(#ConcaveTriangle-16-42-5-1-1-7-6-6-2-1-6-9-3-7-3-7-8-93-94-8-0-12-0-6-0-3-1-0)" stroke="#00af00" stroke-linecap="round" stroke-linejoin="round" stroke-width=".198" style="paint-order:markers stroke fill"/><path d="m449.45 251.94h-0.65786" fill="none" marker-end="url(#ConcaveTriangle-16-42-5-1-1-7-6-6-2-1-6-9-3-7-3-7-8-93-94-8-4-0-3-5-0-4-1-5-7)" marker-start="url(#ConcaveTriangle-16-42-5-1-1-7-6-6-2-1-6-9-3-7-3-7-8-93-94-8-0-12-0-6-0-3-1-8-8)" stroke="#00af00" stroke-linecap="round" stroke-linejoin="round" stroke-width=".198" style="paint-order:markers stroke fill"/><path d="m452 248.66v0.65786" fill="none" marker-end="url(#ConcaveTriangle-16-42-5-1-1-7-6-6-2-1-6-9-3-7-3-7-8-93-94-8-4-0-3-5-0-4-1-8-3)" marker-start="url(#ConcaveTriangle-16-42-5-1-1-7-6-6-2-1-6-9-3-7-3-7-8-93-94-8-0-12-0-6-0-3-1-0-2)" stroke="#00af00" stroke-linecap="round" stroke-linejoin="round" stroke-width=".198" style="paint-order:markers stroke fill"/><path d="m456.61 266.28c-0.15487 0.0166-0.41588 0.20925-0.80224 0.59197-0.23412 0.2319-0.51938 0.54102-0.74218 0.80405l-0.037 0.0437-0.0305-0.016c-0.0544-0.0285-0.15345-0.0778-0.20016-0.0997-0.21915-0.1025-0.36047-0.14617-0.45934-0.14213-0.0344 1e-3 -0.0534 6e-3 -0.0799 0.0188-0.0158 8e-3 -0.022 0.0123-0.0354 0.0259-0.0281 0.0281-0.0402 0.0586-0.0402 0.10028 0 0.0368 1e-3 0.0388 0.0655 0.0985 0.0809 0.0754 0.17872 0.1767 0.24463 0.25333 0.15972 0.1856 0.32145 0.42699 0.5115 0.7622 0.0335 0.0592 0.0402 0.0689 0.0519 0.077 0.0287 0.0198 0.0643 0.0178 0.0908-5e-3 0.0107-9e-3 0.0172-0.0218 0.037-0.0718 0.0952-0.23857 0.21915-0.502 0.34127-0.7252 0.20683-0.37787 0.43731-0.70883 0.70317-1.0089 0.1021-0.11524 0.19429-0.20986 0.36088-0.37019 0.11383-0.10937 0.14658-0.14496 0.16377-0.1771 0.0285-0.0534 0.0176-0.10473-0.0289-0.13607-0.0279-0.0188-0.0732-0.0283-0.11463-0.0239z" fill="#00af00"/><path d="m432.06 266.45c-0.17568 0.0499-0.46889 0.23504-0.83688 0.52706-0.0593 0.0475-0.10802 0.0855-0.1104 0.0855-2e-3 0-0.0487-0.0285-0.10446-0.0629-0.1377-0.0867-0.29083-0.17687-0.44633-0.26353-0.11278-0.0629-0.14601-0.0783-0.23861-0.10802-0.29083-0.0961-0.43328-0.10684-0.4772-0.0356-0.0154 0.0261-0.0214 0.10446-0.0142 0.18518 0.0155 0.165 0.0214 0.17094 0.3858 0.35493 0.19349 0.0985 0.31338 0.16382 0.43327 0.23504l0.0712 0.0427-0.17568 0.17806c-0.20656 0.20892-0.34544 0.36087-0.38462 0.41903-0.11395 0.17094-0.19705 0.33951-0.20892 0.42853-6e-3 0.0427 0.0107 0.0855 0.0392 0.10328 0.0249 0.0154 0.0795 0.0297 0.15788 0.0439 0.0736 0.0119 0.10446 0.0119 0.14838-1e-3 0.0309-0.01 0.0439-0.019 0.10446-0.0795 0.038-0.0392 0.11396-0.12464 0.16975-0.19112 0.17687-0.21248 0.37392-0.42378 0.51281-0.55198l0.0688-0.0641 0.0902 0.0677c0.38224 0.28371 0.70393 0.57928 0.91523 0.84163 0.0855 0.10565 0.10683 0.12226 0.1555 0.12226 0.0427 0 0.07-0.0178 0.0855-0.0593 9e-3 -0.0249 0.0107-0.0427 7e-3 -0.12939-8e-3 -0.19942-0.0297-0.35137-0.0558-0.40241-0.0475-0.0938-0.24217-0.3027-0.43566-0.46889-0.10208-0.0867-0.30033-0.2481-0.349-0.28252-0.0155-0.0107-0.0273-0.0214-0.0273-0.0237 0-0.0131 0.28964-0.22911 0.46057-0.34425 0.17095-0.11515 0.2849-0.18162 0.43922-0.25759 0.0724-0.0356 0.13889-0.0712 0.14838-0.0784 0.0273-0.0214 0.0451-0.0617 0.0415-0.0926-8e-3 -0.0558-0.0391-0.076-0.15551-0.0997-0.20298-0.038-0.36086-0.0534-0.41428-0.038z" fill="#af0000" stroke-width=".26458"/><path d="m411.95 266.45c-0.17568 0.0499-0.46889 0.23504-0.83688 0.52706-0.0593 0.0475-0.10802 0.0855-0.1104 0.0855-2e-3 0-0.0487-0.0285-0.10446-0.0629-0.1377-0.0867-0.29083-0.17687-0.44633-0.26353-0.11278-0.0629-0.14601-0.0783-0.23861-0.10802-0.29083-0.0961-0.43328-0.10684-0.4772-0.0356-0.0154 0.0261-0.0214 0.10446-0.0142 0.18518 0.0155 0.165 0.0214 0.17094 0.3858 0.35493 0.19349 0.0985 0.31338 0.16382 0.43327 0.23504l0.0712 0.0427-0.17568 0.17806c-0.20656 0.20892-0.34544 0.36087-0.38462 0.41903-0.11395 0.17094-0.19705 0.33951-0.20892 0.42853-6e-3 0.0427 0.0107 0.0855 0.0392 0.10328 0.0249 0.0154 0.0795 0.0297 0.15788 0.0439 0.0736 0.0119 0.10446 0.0119 0.14838-1e-3 0.0309-0.01 0.0439-0.019 0.10446-0.0795 0.038-0.0392 0.11396-0.12464 0.16975-0.19112 0.17687-0.21248 0.37392-0.42378 0.51281-0.55198l0.0688-0.0641 0.0902 0.0677c0.38224 0.28371 0.70393 0.57928 0.91523 0.84163 0.0855 0.10565 0.10683 0.12226 0.1555 0.12226 0.0427 0 0.07-0.0178 0.0855-0.0593 9e-3 -0.0249 0.0107-0.0427 7e-3 -0.12939-8e-3 -0.19942-0.0297-0.35137-0.0558-0.40241-0.0475-0.0938-0.24217-0.3027-0.43566-0.46889-0.10208-0.0867-0.30033-0.2481-0.349-0.28252-0.0155-0.0107-0.0273-0.0214-0.0273-0.0237 0-0.0131 0.28964-0.22911 0.46057-0.34425 0.17095-0.11515 0.2849-0.18162 0.43922-0.25759 0.0724-0.0356 0.13889-0.0712 0.14838-0.0784 0.0273-0.0214 0.0451-0.0617 0.0415-0.0926-8e-3 -0.0558-0.0391-0.076-0.15551-0.0997-0.20298-0.038-0.36086-0.0534-0.41428-0.038z" fill="#af0000" stroke-width=".26458"/></g></svg>
