<svg width="8121" height="2741" xmlns="http://www.w3.org/2000/svg" xmlns:xlink="http://www.w3.org/1999/xlink" xml:space="preserve" overflow="hidden"><g transform="translate(-236 -1116)"><text fill="#64CCC9" font-family="Arial,Arial_MSFontService,sans-serif" font-weight="400" font-size="165" transform="matrix(1 0 0 1 328.615 2650)">•</text><text font-family="Tahoma,Tahoma_MSFontService,sans-serif" font-weight="400" font-size="165" transform="matrix(1 0 0 1 534.865 2650)">Use multiples of unit </text><text font-family="Tahoma,Tahoma_MSFontService,sans-serif" font-weight="400" font-size="165" transform="matrix(1 0 0 1 534.865 2907)">sized devices;</text><text fill="#64CCC9" font-family="Arial,Arial_MSFontService,sans-serif" font-weight="400" font-size="165" transform="matrix(1 0 0 1 328.615 3188)">•</text><text font-family="Tahoma,Tahoma_MSFontService,sans-serif" font-weight="400" font-size="165" transform="matrix(1 0 0 1 534.865 3188)">Use dummies to create </text><text font-family="Tahoma,Tahoma_MSFontService,sans-serif" font-weight="400" font-size="165" transform="matrix(1 0 0 1 534.865 3445)">similar surroundings.</text><rect x="3164.5" y="1659.5" width="2296" height="526" stroke="#000000" stroke-width="20.625" stroke-linejoin="round" stroke-miterlimit="10" fill="none"/><text font-family="Arial,Arial_MSFontService,sans-serif" font-style="italic" font-weight="400" font-size="202" transform="matrix(1 0 0 1 3924.59 1876)">Gradient </text><text font-family="Arial,Arial_MSFontService,sans-serif" font-style="italic" font-weight="400" font-size="202" transform="matrix(1 0 0 1 3880.17 2118)">mismatch</text><rect x="310.5" y="1659.5" width="2296" height="526" stroke="#000000" stroke-width="20.625" stroke-linejoin="round" stroke-miterlimit="10" fill="none"/><text font-family="Arial,Arial_MSFontService,sans-serif" font-style="italic" font-weight="400" font-size="202" transform="matrix(1 0 0 1 875.004 1876)">Mask</text><text font-family="Arial,Arial_MSFontService,sans-serif" font-style="italic" font-weight="400" font-size="202" transform="matrix(1 0 0 1 1356.83 1876)">-</text><text font-family="Arial,Arial_MSFontService,sans-serif" font-style="italic" font-weight="400" font-size="202" transform="matrix(1 0 0 1 1423.86 1876)">related     </text><text font-family="Arial,Arial_MSFontService,sans-serif" font-style="italic" font-weight="400" font-size="202" transform="matrix(1 0 0 1 1026.55 2118)">mismatch    </text><text fill="#64CCC9" font-family="Arial,Arial_MSFontService,sans-serif" font-weight="400" font-size="165" transform="matrix(1 0 0 1 3181.92 2634)">•</text><text font-family="Tahoma,Tahoma_MSFontService,sans-serif" font-weight="400" font-size="165" transform="matrix(1 0 0 1 3346.92 2634)">Maximize unit device size;</text><text fill="#64CCC9" font-family="Arial,Arial_MSFontService,sans-serif" font-weight="400" font-size="165" transform="matrix(1 0 0 1 3181.92 2914)">•</text><text font-family="Tahoma,Tahoma_MSFontService,sans-serif" font-weight="400" font-size="165" transform="matrix(1 0 0 1 3346.92 2914)">Maximize Area/Perimeter </text><text font-family="Tahoma,Tahoma_MSFontService,sans-serif" font-weight="400" font-size="165" transform="matrix(1 0 0 1 3346.92 3172)">ratio (use square shape);</text><text fill="#64CCC9" font-family="Arial,Arial_MSFontService,sans-serif" font-weight="400" font-size="165" transform="matrix(1 0 0 1 3181.92 3452)">•</text><text font-family="Tahoma,Tahoma_MSFontService,sans-serif" font-weight="400" font-size="165" transform="matrix(1 0 0 1 3346.92 3452)">Place matched devices </text><text font-family="Tahoma,Tahoma_MSFontService,sans-serif" font-weight="400" font-size="165" transform="matrix(1 0 0 1 3346.92 3709)">close to each other.</text><text fill="#64CCC9" font-family="Arial,Arial_MSFontService,sans-serif" font-weight="400" font-size="165" transform="matrix(1 0 0 1 6067.38 2670)">•</text><text font-family="Tahoma,Tahoma_MSFontService,sans-serif" font-weight="400" font-size="165" transform="matrix(1 0 0 1 6232.38 2670)">Use devices with the </text><text font-family="Tahoma,Tahoma_MSFontService,sans-serif" font-weight="400" font-size="165" transform="matrix(1 0 0 1 6232.38 2927)">same size, orientation, </text><text font-family="Tahoma,Tahoma_MSFontService,sans-serif" font-weight="400" font-size="165" transform="matrix(1 0 0 1 6232.38 3185)">location;</text><text fill="#64CCC9" font-family="Arial,Arial_MSFontService,sans-serif" font-weight="400" font-size="165" transform="matrix(1 0 0 1 6067.38 3465)">•</text><text font-family="Tahoma,Tahoma_MSFontService,sans-serif" font-weight="400" font-size="165" transform="matrix(1 0 0 1 6232.38 3465)">Maximize the dispersion </text><text font-family="Tahoma,Tahoma_MSFontService,sans-serif" font-weight="400" font-size="165" transform="matrix(1 0 0 1 6232.38 3723)">of the device distribution</text><rect x="6050.5" y="1650.5" width="2296" height="526" stroke="#000000" stroke-width="20.625" stroke-linejoin="round" stroke-miterlimit="10" fill="none"/><text font-family="Arial,Arial_MSFontService,sans-serif" font-weight="400" font-size="202" transform="matrix(1 0 0 1 6816.63 1867)">Random </text><text font-family="Arial,Arial_MSFontService,sans-serif" font-weight="400" font-size="202" transform="matrix(1 0 0 1 6766.49 2109)">mismatch</text><rect x="310.5" y="1171.5" width="8035" height="337" stroke="#000000" stroke-width="20.625" stroke-linejoin="round" stroke-miterlimit="10" fill="none"/><text font-family="Arial,Arial_MSFontService,sans-serif" font-weight="700" font-size="248" transform="matrix(1 0 0 1 2862.95 1432)">Mismatch Compensation</text></g></svg>