<svg width="552.42px" height="246.75px" enable-background="new 0 0 552.423 246.747" version="1.1" viewBox="0 0 552.42 246.75" xml:space="preserve" xmlns="http://www.w3.org/2000/svg">

	
		<line x1="130.46" x2="130.46" y1="47.275" y2="16.876" fill="none" stroke="#000" stroke-width="12"/>
		<circle cx="130.46" cy="16.876" r="14.888"/>
	


	
		<line x1="130.46" x2="130.46" y1="193.09" y2="226.5" fill="none" stroke="#000" stroke-width="13"/>
		<polygon points="172.41 220.32 130.57 246.75 88.736 220.32 88.736 220.05 172.41 220.05"/>
	

<rect x=".5" y="47.275" width="259.91" height="13.656" stroke="#000"/>
<rect x=".5" y="179.43" width="259.91" height="13.656" stroke="#000"/>
<rect x=".5" y="60.931" width="259.91" height="22.467" fill="#fff" stroke="#000"/>
<rect x=".5" y="83.398" width="259.91" height="14.097" fill="#5A94EF" stroke="#000"/>
<rect x=".5" y="97.495" width="259.91" height="42.289" fill="#F7DEDE" stroke="#000"/>
<rect x=".5" y="139.78" width="259.91" height="39.648" fill="#CE4A42" stroke="#000"/>

	<path d="m177.32 211.02h7.559c2.256 0 3.994 0.469 5.215 1.406s1.831 2.271 1.831 3.999c0 1.338-0.313 2.402-0.938 3.193s-1.543 1.284-2.754 1.479c1.455 0.313 2.585 0.965 3.391 1.955 0.806 0.992 1.208 2.229 1.208 3.714 0 1.953-0.664 3.462-1.992 4.526s-3.218 1.597-5.669 1.597h-7.852v-21.869zm2.959 2.432v6.592h4.38c1.445 0 2.522-0.271 3.23-0.813 0.708-0.543 1.062-1.37 1.062-2.483 0-1.104-0.354-1.929-1.062-2.476s-1.785-0.82-3.23-0.82h-4.38zm0 8.994v8.013h4.746c1.592 0 2.771-0.329 3.538-0.989 0.767-0.658 1.15-1.667 1.15-3.024 0-1.367-0.383-2.375-1.15-3.024s-1.946-0.975-3.538-0.975h-4.746z"/>
	<path d="m204.15 216.09c2.344 0 4.185 0.762 5.522 2.285s2.007 3.633 2.007 6.328c0 2.686-0.669 4.793-2.007 6.32-1.338 1.529-3.179 2.293-5.522 2.293-2.354 0-4.197-0.764-5.53-2.293-1.333-1.527-2-3.635-2-6.32 0-2.695 0.667-4.805 2-6.328s3.176-2.285 5.53-2.285zm0 2.286c-1.445 0-2.588 0.564-3.428 1.691-0.84 1.129-1.26 2.674-1.26 4.637s0.417 3.508 1.252 4.637c0.835 1.127 1.98 1.691 3.435 1.691 1.436 0 2.573-0.566 3.413-1.699s1.26-2.676 1.26-4.629c0-1.943-0.42-3.483-1.26-4.621s-1.977-1.707-3.412-1.707z"/>
	<path d="m226.94 218.97v-8.877h2.695v22.793h-2.695v-2.461c-0.566 0.977-1.282 1.702-2.146 2.175-0.864 0.474-1.902 0.711-3.113 0.711-1.982 0-3.596-0.791-4.841-2.373s-1.868-3.662-1.868-6.24 0.623-4.658 1.868-6.24 2.859-2.373 4.841-2.373c1.211 0 2.249 0.237 3.113 0.711s1.58 1.198 2.146 2.174zm-9.184 5.728c0 1.982 0.408 3.537 1.223 4.666 0.815 1.127 1.936 1.691 3.362 1.691s2.549-0.564 3.369-1.691c0.82-1.129 1.23-2.684 1.23-4.666s-0.41-3.537-1.23-4.666c-0.82-1.127-1.943-1.691-3.369-1.691s-2.546 0.564-3.362 1.691c-0.815 1.129-1.223 2.683-1.223 4.666z"/>
	<path d="m242.01 234.41c-0.762 1.953-1.504 3.228-2.227 3.823s-1.689 0.894-2.9 0.894h-2.153v-2.256h1.582c0.742 0 1.318-0.176 1.729-0.527s0.864-1.182 1.362-2.49l0.483-1.23-6.636-16.143h2.856l5.127 12.832 5.127-12.832h2.856l-7.206 17.929z"/>
	<path d="m251.44 217.38h3.091v3.721h-3.091v-3.721zm0 11.792h3.091v3.721h-3.091v-3.721z"/>
	<path d="m285.43 229.77v-5.874h-4.834v-2.432h7.764v9.39c-1.143 0.811-2.402 1.424-3.779 1.838-1.377 0.415-2.847 0.623-4.409 0.623-3.418 0-6.091-0.998-8.02-2.996-1.929-1.996-2.893-4.777-2.893-8.342 0-3.574 0.964-6.359 2.893-8.357 1.929-1.996 4.602-2.995 8.02-2.995 1.426 0 2.781 0.176 4.065 0.527s2.468 0.869 3.552 1.553v3.149c-1.094-0.928-2.256-1.626-3.486-2.095s-2.524-0.703-3.882-0.703c-2.676 0-4.685 0.747-6.028 2.241s-2.014 3.721-2.014 6.68c0 2.949 0.671 5.171 2.014 6.665s3.352 2.241 6.028 2.241c1.045 0 1.978-0.09 2.798-0.271 0.819-0.18 1.556-0.461 2.211-0.842z"/>
	<path d="m307.28 222.99v9.902h-2.695v-9.814c0-1.553-0.303-2.715-0.908-3.486s-1.514-1.157-2.725-1.157c-1.455 0-2.602 0.464-3.442 1.392s-1.26 2.192-1.26 3.794v9.272h-2.71v-16.406h2.71v2.549c0.645-0.986 1.404-1.724 2.278-2.212s1.883-0.732 3.025-0.732c1.885 0 3.311 0.584 4.277 1.75 0.967 1.166 1.45 2.882 1.45 5.148z"/>
	<path d="m323.46 218.97v-8.877h2.695v22.793h-2.695v-2.461c-0.566 0.977-1.281 1.702-2.146 2.175-0.863 0.474-1.901 0.711-3.112 0.711-1.982 0-3.597-0.791-4.841-2.373-1.246-1.582-1.868-3.662-1.868-6.24s0.622-4.658 1.868-6.24c1.244-1.582 2.858-2.373 4.841-2.373 1.211 0 2.249 0.237 3.112 0.711 0.864 0.473 1.579 1.198 2.146 2.174zm-9.185 5.728c0 1.982 0.407 3.537 1.224 4.666 0.814 1.127 1.936 1.691 3.361 1.691s2.549-0.564 3.369-1.691c0.82-1.129 1.23-2.684 1.23-4.666s-0.41-3.537-1.23-4.666c-0.82-1.127-1.943-1.691-3.369-1.691s-2.547 0.564-3.361 1.691c-0.817 1.129-1.224 2.683-1.224 4.666z"/>


	<path d="m192.24 22.814v-5.874h-4.834v-2.432h7.764v9.39c-1.143 0.811-2.402 1.424-3.779 1.838-1.377 0.415-2.847 0.623-4.409 0.623-3.418 0-6.091-0.998-8.02-2.996-1.929-1.996-2.893-4.777-2.893-8.342 0-3.574 0.964-6.359 2.893-8.357 1.929-1.996 4.602-2.995 8.02-2.995 1.426 0 2.781 0.176 4.065 0.527s2.468 0.869 3.552 1.553v3.149c-1.094-0.928-2.256-1.626-3.486-2.095s-2.524-0.703-3.882-0.703c-2.676 0-4.685 0.747-6.028 2.241s-2.014 3.721-2.014 6.68c0 2.949 0.671 5.171 2.014 6.665s3.352 2.241 6.028 2.241c1.045 0 1.978-0.09 2.798-0.271 0.82-0.179 1.557-0.461 2.211-0.842z"/>
	<path d="m213.29 16.574v9.36h-2.695v-2.49c-0.615 0.996-1.382 1.731-2.3 2.204-0.918 0.474-2.041 0.711-3.369 0.711-1.68 0-3.015-0.471-4.006-1.414-0.991-0.941-1.487-2.204-1.487-3.786 0-1.846 0.618-3.237 1.853-4.175s3.079-1.406 5.53-1.406h3.779v-0.264c0-1.24-0.408-2.199-1.223-2.879-0.815-0.678-1.96-1.018-3.435-1.018-0.938 0-1.851 0.112-2.739 0.337s-1.743 0.562-2.563 1.011v-2.49c0.986-0.381 1.943-0.666 2.871-0.857 0.928-0.189 1.831-0.285 2.71-0.285 2.373 0 4.146 0.615 5.317 1.846s1.757 3.095 1.757 5.595zm-5.376 1.114c-2.178 0-3.687 0.249-4.526 0.747s-1.26 1.348-1.26 2.549c0 0.957 0.315 1.717 0.945 2.278s1.487 0.842 2.571 0.842c1.494 0 2.693-0.529 3.596-1.59 0.903-1.059 1.355-2.468 1.355-4.226v-0.601h-2.681z"/>
	<path d="m221.5 4.87v4.658h5.552v2.095h-5.552v8.906c0 1.338 0.183 2.197 0.549 2.578s1.111 0.571 2.234 0.571h2.769v2.256h-2.769c-2.08 0-3.516-0.388-4.307-1.165-0.791-0.775-1.187-2.189-1.187-4.24v-8.906h-1.978v-2.095h1.978v-4.658h2.711z"/>
	<path d="m244.63 17.058v1.318h-12.393c0.117 1.855 0.676 3.27 1.677 4.241s2.395 1.457 4.182 1.457c1.035 0 2.039-0.127 3.01-0.381s1.936-0.635 2.893-1.143v2.55c-0.967 0.41-1.958 0.723-2.974 0.938s-2.046 0.322-3.091 0.322c-2.617 0-4.69-0.762-6.218-2.285s-2.292-3.584-2.292-6.182c0-2.686 0.725-4.816 2.175-6.395 1.45-1.576 3.406-2.365 5.867-2.365 2.207 0 3.953 0.711 5.237 2.131 1.285 1.422 1.927 3.352 1.927 5.794zm-2.696-0.791c-0.02-1.475-0.432-2.651-1.238-3.53s-1.873-1.318-3.201-1.318c-1.504 0-2.708 0.425-3.611 1.274s-1.423 2.046-1.56 3.589l9.61-0.015z"/>
	<path d="m249.75 10.422h3.091v3.721h-3.091v-3.721zm0 11.792h3.091v3.721h-3.091v-3.721z"/>
	<path d="m279.67 7.126v8.159h8.159v2.49h-8.159v8.159h-2.461v-8.159h-8.159v-2.49h8.159v-8.159h2.461z"/>
	<path d="m299.6 25.935-8.35-21.87h3.091l6.929 18.413 6.943-18.413h3.076l-8.336 21.87h-3.353z"/>
	<path d="m321.94 28.105v-3.424h-2.818v-1.418h4.526v5.474c-0.666 0.473-1.4 0.83-2.203 1.072s-1.66 0.363-2.57 0.363c-1.993 0-3.552-0.582-4.676-1.747-1.125-1.164-1.687-2.785-1.687-4.863 0-2.084 0.562-3.708 1.687-4.872 1.124-1.164 2.683-1.746 4.676-1.746 0.831 0 1.621 0.103 2.369 0.307 0.749 0.205 1.439 0.507 2.071 0.905v1.837c-0.638-0.541-1.315-0.948-2.032-1.222-0.718-0.273-1.472-0.41-2.264-0.41-1.56 0-2.731 0.436-3.514 1.307s-1.175 2.169-1.175 3.895c0 1.72 0.392 3.015 1.175 3.886 0.782 0.871 1.954 1.307 3.514 1.307 0.609 0 1.153-0.053 1.632-0.158 0.477-0.107 0.907-0.27 1.289-0.493z"/>


	<path d="m313.04 56.825c2.453 0 4.414 0.822 5.883 2.467s2.203 3.85 2.203 6.615c0 2.758-0.734 4.959-2.203 6.604s-3.43 2.467-5.883 2.467c-2.461 0-4.428-0.82-5.9-2.461s-2.209-3.844-2.209-6.609 0.736-4.971 2.209-6.615 3.439-2.468 5.9-2.468zm0 1.922c-1.719 0-3.084 0.641-4.096 1.922s-1.518 3.027-1.518 5.238c0 2.203 0.506 3.945 1.518 5.227s2.377 1.922 4.096 1.922 3.08-0.641 4.084-1.922 1.506-3.023 1.506-5.227c0-2.211-0.502-3.957-1.506-5.238s-2.365-1.922-4.084-1.922z"/>
	<path d="m335.65 61.512-4.746 6.387 4.992 6.738h-2.543l-3.82-5.156-3.82 5.156h-2.543l5.098-6.867-4.664-6.258h2.543l3.48 4.676 3.48-4.676h2.543z"/>
	<path d="m338.94 56.403h2.156v2.73h-2.156v-2.73zm0 5.109h2.156v13.125h-2.156v-13.125z"/>
	<path d="m354.25 63.504v-7.102h2.156v18.234h-2.156v-1.969c-0.453 0.781-1.025 1.361-1.717 1.74s-1.521 0.568-2.49 0.568c-1.586 0-2.877-0.633-3.873-1.898s-1.494-2.93-1.494-4.992 0.498-3.727 1.494-4.992 2.287-1.898 3.873-1.898c0.969 0 1.799 0.189 2.49 0.568s1.263 0.96 1.717 1.741zm-7.348 4.582c0 1.586 0.326 2.83 0.979 3.732s1.549 1.354 2.689 1.354 2.039-0.451 2.695-1.354 0.984-2.146 0.984-3.732-0.328-2.83-0.984-3.732-1.555-1.354-2.695-1.354-2.037 0.451-2.689 1.354-0.979 2.146-0.979 3.732z"/>
	<path d="m372.07 67.536v1.055h-9.914c0.094 1.484 0.541 2.615 1.342 3.393s1.916 1.166 3.346 1.166c0.828 0 1.631-0.102 2.408-0.305s1.549-0.508 2.314-0.914v2.039c-0.773 0.328-1.566 0.578-2.379 0.75s-1.637 0.258-2.473 0.258c-2.094 0-3.752-0.609-4.975-1.828s-1.834-2.867-1.834-4.945c0-2.148 0.58-3.854 1.74-5.115s2.725-1.893 4.693-1.893c1.766 0 3.162 0.568 4.189 1.705s1.543 2.681 1.543 4.634zm-2.156-0.633c-0.016-1.18-0.346-2.121-0.99-2.824s-1.498-1.055-2.561-1.055c-1.203 0-2.166 0.34-2.889 1.02s-1.139 1.637-1.248 2.871l7.688-0.012z"/>


	
		<line x1="278.04" x2="300.06" y1="68.541" y2="68.541" fill="none" stroke="#000" stroke-width="3"/>
		<polygon points="267.45 68.541 282.37 62.444 278.83 68.541 282.37 74.638"/>
	



	<line x1="278.04" x2="300.06" y1="91.645" y2="91.645"/>
	
		
			<line x1="278.04" x2="300.06" y1="91.645" y2="91.645" fill="none" stroke="#5A94EF" stroke-width="3"/>
			<polygon points="267.45 91.645 282.37 85.547 278.83 91.645 282.37 97.742" fill="#5A94EF"/>
		
	



	<line x1="278.04" x2="300.06" y1="119.27" y2="119.27"/>
	
		<line x1="278.04" x2="300.06" y1="119.27" y2="119.27" fill="none" stroke="#FF7BAC" stroke-width="3"/>
		<polygon points="267.45 119.27 282.37 113.17 278.83 119.27 282.37 125.36" fill="#FF7BAC"/>
	



	<line x1="278.04" x2="300.06" y1="160.53" y2="160.53"/>
	
		
			<line x1="278.04" x2="300.06" y1="160.53" y2="160.53" fill="none" stroke="#CE4A42" stroke-width="3"/>
			<polygon points="267.45 160.53 282.37 154.43 278.83 160.53 282.37 166.63" fill="#CE4A42"/>
		
	

<path d="m305.94 108.7h4.863c3.391 0 5.879 0.705 7.465 2.115s2.379 3.615 2.379 6.615c0 3.016-0.797 5.23-2.391 6.645s-4.078 2.121-7.453 2.121h-4.863zm2.367 1.945v13.605h2.859c2.414 0 4.182-0.547 5.303-1.641s1.682-2.82 1.682-5.18c0-2.344-0.561-4.061-1.682-5.15s-2.889-1.635-5.303-1.635h-2.859z"/><path d="m335.56 119.09v1.055h-9.914c0.094 1.484 0.541 2.615 1.342 3.393s1.916 1.166 3.346 1.166c0.828 0 1.631-0.102 2.408-0.305s1.549-0.508 2.314-0.914v2.039c-0.773 0.328-1.566 0.578-2.379 0.75s-1.637 0.258-2.473 0.258c-2.094 0-3.752-0.609-4.975-1.828s-1.834-2.867-1.834-4.945c0-2.148 0.58-3.854 1.74-5.115s2.725-1.893 4.693-1.893c1.766 0 3.162 0.568 4.189 1.705s1.543 2.681 1.543 4.634zm-2.156-0.633c-0.016-1.18-0.346-2.121-0.99-2.824s-1.498-1.055-2.561-1.055c-1.203 0-2.166 0.34-2.889 1.02s-1.139 1.637-1.248 2.871z"/><path d="m341.18 124.23v6.961h-2.168v-18.117h2.168v1.992c0.453-0.781 1.025-1.361 1.717-1.74s1.518-0.568 2.479-0.568c1.594 0 2.889 0.633 3.885 1.898s1.494 2.93 1.494 4.992-0.498 3.727-1.494 4.992-2.291 1.898-3.885 1.898c-0.961 0-1.787-0.189-2.479-0.568s-1.264-0.959-1.717-1.74zm7.336-4.582c0-1.586-0.326-2.83-0.979-3.732s-1.549-1.354-2.689-1.354-2.037 0.451-2.689 1.354-0.979 2.146-0.979 3.732 0.326 2.83 0.979 3.732 1.549 1.354 2.689 1.354 2.037-0.451 2.689-1.354 0.979-2.146 0.979-3.732z"/><path d="m354.33 107.96h2.156v18.234h-2.156z"/><path d="m372.22 119.09v1.055h-9.914c0.094 1.484 0.541 2.615 1.342 3.393s1.916 1.166 3.346 1.166c0.828 0 1.631-0.102 2.408-0.305s1.549-0.508 2.314-0.914v2.039c-0.773 0.328-1.566 0.578-2.379 0.75s-1.637 0.258-2.473 0.258c-2.094 0-3.752-0.609-4.975-1.828s-1.834-2.867-1.834-4.945c0-2.148 0.58-3.854 1.74-5.115s2.725-1.893 4.693-1.893c1.766 0 3.162 0.568 4.189 1.705s1.543 2.681 1.543 4.634zm-2.156-0.633c-0.016-1.18-0.346-2.121-0.99-2.824s-1.498-1.055-2.561-1.055c-1.203 0-2.166 0.34-2.889 1.02s-1.139 1.637-1.248 2.871z"/><path d="m377.9 109.34v3.727h4.441v1.676h-4.441v7.125c0 1.07 0.146 1.758 0.439 2.063s0.889 0.457 1.787 0.457h2.215v1.805h-2.215c-1.664 0-2.813-0.311-3.445-0.932s-0.949-1.752-0.949-3.393v-7.125h-1.582v-1.676h1.582v-3.727z"/><path d="m385.17 107.96h2.156v2.73h-2.156zm0 5.11h2.156v13.125h-2.156z"/><path d="m396.93 112.75c1.875 0 3.348 0.609 4.418 1.828s1.605 2.906 1.605 5.063c0 2.148-0.535 3.834-1.605 5.057s-2.543 1.834-4.418 1.834c-1.883 0-3.357-0.611-4.424-1.834s-1.6-2.908-1.6-5.057c0-2.156 0.533-3.844 1.6-5.063s2.541-1.828 4.424-1.828zm0 1.829c-1.156 0-2.07 0.451-2.742 1.354s-1.008 2.139-1.008 3.709 0.334 2.807 1.002 3.709 1.584 1.354 2.748 1.354c1.148 0 2.059-0.453 2.73-1.359s1.008-2.141 1.008-3.703c0-1.555-0.336-2.787-1.008-3.697s-1.581-1.367-2.73-1.367z"/><path d="m417.44 118.27v7.922h-2.156v-7.852c0-1.242-0.242-2.172-0.727-2.789s-1.211-0.926-2.18-0.926c-1.164 0-2.082 0.371-2.754 1.113s-1.008 1.754-1.008 3.035v7.418h-2.168v-13.125h2.168v2.039c0.516-0.789 1.123-1.379 1.822-1.77s1.506-0.586 2.42-0.586c1.508 0 2.648 0.467 3.422 1.4s1.161 2.308 1.161 4.121z"/><path d="m449 118.71v7.488h-2.156v-1.992c-0.492 0.797-1.105 1.385-1.84 1.764s-1.633 0.568-2.695 0.568c-1.344 0-2.412-0.377-3.205-1.131s-1.189-1.764-1.189-3.029c0-1.477 0.494-2.59 1.482-3.34s2.463-1.125 4.424-1.125h3.023v-0.211c0-0.992-0.326-1.76-0.979-2.303s-1.568-0.814-2.748-0.814c-0.75 0-1.48 0.09-2.191 0.27s-1.395 0.449-2.051 0.809v-1.992c0.789-0.305 1.555-0.533 2.297-0.686s1.465-0.229 2.168-0.229c1.898 0 3.316 0.492 4.254 1.477s1.406 2.476 1.406 4.476zm-4.3 0.89c-1.742 0-2.949 0.199-3.621 0.598s-1.008 1.078-1.008 2.039c0 0.766 0.252 1.373 0.756 1.822s1.189 0.674 2.057 0.674c1.195 0 2.154-0.424 2.877-1.271s1.084-1.975 1.084-3.381v-0.48h-2.145z"/><path d="m458.9 127.42c-0.609 1.563-1.203 2.582-1.781 3.059s-1.352 0.715-2.32 0.715h-1.723v-1.805h1.266c0.594 0 1.055-0.141 1.383-0.422s0.691-0.945 1.09-1.992l0.387-0.984-5.309-12.914h2.285l4.102 10.266 4.102-10.266h2.285z"/><path d="m478.87 119.09v1.055h-9.914c0.094 1.484 0.541 2.615 1.342 3.393s1.916 1.166 3.346 1.166c0.828 0 1.631-0.102 2.408-0.305s1.549-0.508 2.314-0.914v2.039c-0.773 0.328-1.566 0.578-2.379 0.75s-1.637 0.258-2.473 0.258c-2.094 0-3.752-0.609-4.975-1.828s-1.834-2.867-1.834-4.945c0-2.148 0.58-3.854 1.74-5.115s2.725-1.893 4.693-1.893c1.766 0 3.162 0.568 4.189 1.705s1.543 2.681 1.543 4.634zm-2.157-0.633c-0.016-1.18-0.346-2.121-0.99-2.824s-1.498-1.055-2.561-1.055c-1.203 0-2.166 0.34-2.889 1.02s-1.139 1.637-1.248 2.871z"/><path d="m490.02 115.09c-0.242-0.141-0.506-0.244-0.791-0.311s-0.6-0.1-0.943-0.1c-1.219 0-2.154 0.396-2.807 1.189s-0.979 1.932-0.979 3.416v6.914h-2.168v-13.125h2.168v2.039c0.453-0.797 1.043-1.389 1.77-1.775s1.609-0.58 2.648-0.58c0.148 0 0.313 0.01 0.492 0.029s0.379 0.049 0.598 0.088z"/><path d="m507.63 108.7h3.188l7.758 14.637v-14.637h2.297v17.496h-3.188l-7.758-14.637v14.637h-2.297z"/><path d="m527.23 119.99h1.564l3.887 10.201h-1.434l-0.93-2.617h-4.598l-0.93 2.617h-1.455zm0.779 1.359-1.873 5.076h3.752z"/><path d="m541.51 113.58h5.83v1.775h-5.83z"/><path d="m431.87 108.48h2.156v18.234h-2.156z"/><path d="m305.94 80.246h2.367v17.496h-2.367z"/><path d="m323.84 89.82v7.922h-2.156v-7.852c0-1.242-0.242-2.172-0.727-2.789s-1.211-0.926-2.18-0.926c-1.164 0-2.082 0.371-2.754 1.113s-1.008 1.754-1.008 3.035v7.418h-2.168v-13.124h2.168v2.039c0.516-0.789 1.123-1.379 1.822-1.77s1.506-0.586 2.42-0.586c1.508 0 2.648 0.467 3.422 1.4s1.161 2.307 1.161 4.12z"/><path d="m326.59 84.617h2.285l4.102 11.016 4.102-11.016h2.285l-4.922 13.125h-2.93z"/><path d="m353.57 90.64v1.055h-9.914c0.094 1.484 0.541 2.615 1.342 3.393s1.916 1.166 3.346 1.166c0.828 0 1.631-0.102 2.408-0.305s1.549-0.508 2.314-0.914v2.039c-0.773 0.328-1.566 0.578-2.379 0.75s-1.637 0.258-2.473 0.258c-2.094 0-3.752-0.609-4.975-1.828s-1.834-2.867-1.834-4.945c0-2.148 0.58-3.854 1.74-5.115s2.725-1.893 4.693-1.893c1.766 0 3.162 0.568 4.189 1.705s1.543 2.681 1.543 4.634zm-2.156-0.633c-0.016-1.18-0.346-2.121-0.99-2.824s-1.498-1.055-2.561-1.055c-1.203 0-2.166 0.34-2.889 1.02s-1.139 1.637-1.248 2.871z"/><path d="m364.71 86.632c-0.242-0.141-0.506-0.244-0.791-0.311s-0.6-0.1-0.943-0.1c-1.219 0-2.154 0.396-2.807 1.189s-0.979 1.932-0.979 3.416v6.914h-2.168v-13.123h2.168v2.039c0.453-0.797 1.043-1.389 1.77-1.775s1.609-0.58 2.648-0.58c0.148 0 0.313 0.01 0.492 0.029s0.379 0.049 0.598 0.088z"/><path d="m375.34 85.003v2.039c-0.609-0.313-1.242-0.547-1.898-0.703s-1.336-0.234-2.039-0.234c-1.07 0-1.873 0.164-2.408 0.492s-0.803 0.82-0.803 1.477c0 0.5 0.191 0.893 0.574 1.178s1.152 0.557 2.309 0.814l0.738 0.164c1.531 0.328 2.619 0.791 3.264 1.389s0.967 1.432 0.967 2.502c0 1.219-0.482 2.184-1.447 2.895s-2.291 1.066-3.979 1.066c-0.703 0-1.436-0.068-2.197-0.205s-1.564-0.342-2.408-0.615v-2.227c0.797 0.414 1.582 0.725 2.355 0.932s1.539 0.311 2.297 0.311c1.016 0 1.797-0.174 2.344-0.521s0.82-0.838 0.82-1.471c0-0.586-0.197-1.035-0.592-1.348s-1.26-0.613-2.596-0.902l-0.75-0.176c-1.336-0.281-2.301-0.713-2.895-1.295s-0.891-1.381-0.891-2.396c0-1.234 0.438-2.188 1.313-2.859s2.117-1.008 3.727-1.008c0.797 0 1.547 0.059 2.25 0.176s1.352 0.291 1.945 0.525z"/><path d="m379.48 79.507h2.156v2.73h-2.156zm0 5.11h2.156v13.125h-2.156z"/><path d="m391.23 84.3c1.875 0 3.348 0.609 4.418 1.828s1.605 2.906 1.605 5.063c0 2.148-0.535 3.834-1.605 5.057s-2.543 1.834-4.418 1.834c-1.883 0-3.357-0.611-4.424-1.834s-1.6-2.908-1.6-5.057c0-2.156 0.533-3.844 1.6-5.063s2.541-1.828 4.424-1.828zm0 1.828c-1.156 0-2.07 0.451-2.742 1.354s-1.008 2.139-1.008 3.709 0.334 2.807 1.002 3.709 1.584 1.354 2.748 1.354c1.148 0 2.059-0.453 2.73-1.359s1.008-2.141 1.008-3.703c0-1.555-0.336-2.787-1.008-3.697s-1.582-1.367-2.73-1.367z"/><path d="m411.74 89.82v7.922h-2.156v-7.852c0-1.242-0.242-2.172-0.727-2.789s-1.211-0.926-2.18-0.926c-1.164 0-2.082 0.371-2.754 1.113s-1.008 1.754-1.008 3.035v7.418h-2.168v-13.124h2.168v2.039c0.516-0.789 1.123-1.379 1.822-1.77s1.506-0.586 2.42-0.586c1.508 0 2.648 0.467 3.422 1.4s1.161 2.307 1.161 4.12z"/><path d="m443.31 90.253v7.488h-2.156v-1.991c-0.492 0.797-1.105 1.385-1.84 1.764s-1.633 0.568-2.695 0.568c-1.344 0-2.412-0.377-3.205-1.131s-1.189-1.764-1.189-3.029c0-1.477 0.494-2.59 1.482-3.34s2.463-1.125 4.424-1.125h3.023v-0.211c0-0.992-0.326-1.76-0.979-2.303s-1.568-0.814-2.748-0.814c-0.75 0-1.48 0.09-2.191 0.27s-1.395 0.449-2.051 0.809v-1.992c0.789-0.305 1.555-0.533 2.297-0.686s1.465-0.229 2.168-0.229c1.898 0 3.316 0.492 4.254 1.477s1.406 2.475 1.406 4.475zm-4.301 0.891c-1.742 0-2.949 0.199-3.621 0.598s-1.008 1.078-1.008 2.039c0 0.766 0.252 1.373 0.756 1.822s1.189 0.674 2.057 0.674c1.195 0 2.154-0.424 2.877-1.271s1.084-1.975 1.084-3.381v-0.48h-2.145z"/><path d="m453.21 98.96c-0.609 1.563-1.203 2.582-1.781 3.059s-1.352 0.715-2.32 0.715h-1.723v-1.805h1.266c0.594 0 1.055-0.141 1.383-0.422s0.691-0.945 1.09-1.992l0.387-0.984-5.309-12.914h2.285l4.102 10.266 4.102-10.266h2.285z"/><path d="m473.18 90.64v1.055h-9.914c0.094 1.484 0.541 2.615 1.342 3.393s1.916 1.166 3.346 1.166c0.828 0 1.631-0.102 2.408-0.305s1.549-0.508 2.314-0.914v2.039c-0.773 0.328-1.566 0.578-2.379 0.75s-1.637 0.258-2.473 0.258c-2.094 0-3.752-0.609-4.975-1.828s-1.834-2.867-1.834-4.945c0-2.148 0.58-3.854 1.74-5.115s2.725-1.893 4.693-1.893c1.766 0 3.162 0.568 4.189 1.705s1.543 2.681 1.543 4.634zm-2.156-0.633c-0.016-1.18-0.346-2.121-0.99-2.824s-1.498-1.055-2.561-1.055c-1.203 0-2.166 0.34-2.889 1.02s-1.139 1.637-1.248 2.871z"/><path d="m484.32 86.632c-0.242-0.141-0.506-0.244-0.791-0.311s-0.6-0.1-0.943-0.1c-1.219 0-2.154 0.396-2.807 1.189s-0.979 1.932-0.979 3.416v6.914h-2.168v-13.123h2.168v2.039c0.453-0.797 1.043-1.389 1.77-1.775s1.609-0.58 2.648-0.58c0.148 0 0.313 0.01 0.492 0.029s0.379 0.049 0.598 0.088z"/><path d="m512.75 89.82v7.922h-2.156v-7.852c0-1.242-0.242-2.172-0.727-2.789s-1.211-0.926-2.18-0.926c-1.164 0-2.082 0.371-2.754 1.113s-1.008 1.754-1.008 3.035v7.418h-2.168v-13.124h2.168v2.039c0.516-0.789 1.123-1.379 1.822-1.77s1.506-0.586 2.42-0.586c1.508 0 2.648 0.467 3.422 1.4s1.161 2.307 1.161 4.12z"/><path d="m425.55 79.591h2.156v18.234h-2.156z"/><path d="m305.94 149.96h6.047c1.805 0 3.195 0.375 4.172 1.125s1.465 1.816 1.465 3.199c0 1.07-0.25 1.922-0.75 2.555s-1.234 1.027-2.203 1.184c1.164 0.25 2.068 0.771 2.713 1.564s0.967 1.783 0.967 2.971c0 1.563-0.531 2.77-1.594 3.621s-2.574 1.277-4.535 1.277h-6.281v-17.496zm2.367 1.946v5.273h3.504c1.156 0 2.018-0.217 2.584-0.65s0.85-1.096 0.85-1.986c0-0.883-0.283-1.543-0.85-1.98s-1.428-0.656-2.584-0.656h-3.504zm0 7.195v6.41h3.797c1.273 0 2.217-0.264 2.83-0.791s0.92-1.334 0.92-2.42c0-1.094-0.307-1.9-0.92-2.42s-1.557-0.779-2.83-0.779z"/><path d="m322.09 162.28v-7.945h2.156v7.863c0 1.242 0.242 2.174 0.727 2.795s1.211 0.932 2.18 0.932c1.164 0 2.084-0.371 2.76-1.113s1.014-1.754 1.014-3.035v-7.441h2.156v13.125h-2.156v-2.016c-0.523 0.797-1.131 1.389-1.822 1.775s-1.494 0.58-2.408 0.58c-1.508 0-2.652-0.469-3.434-1.406s-1.173-2.309-1.173-4.114z"/><path d="m337.52 149.22h2.156v18.234h-2.156z"/><path d="m344.11 149.22h2.168v10.77l6.434-5.66h2.754l-6.961 6.141 7.254 6.984h-2.813l-6.668-6.41v6.41h-2.168z"/><path d="m388.85 154.02c1.875 0 3.348 0.609 4.418 1.828s1.605 2.906 1.605 5.063c0 2.148-0.535 3.834-1.605 5.057s-2.543 1.834-4.418 1.834c-1.883 0-3.357-0.611-4.424-1.834s-1.6-2.908-1.6-5.057c0-2.156 0.533-3.844 1.6-5.063s2.541-1.828 4.424-1.828zm0 1.828c-1.156 0-2.07 0.451-2.742 1.354s-1.008 2.139-1.008 3.709 0.334 2.807 1.002 3.709 1.584 1.354 2.748 1.354c1.148 0 2.059-0.453 2.73-1.359s1.008-2.141 1.008-3.703c0-1.555-0.336-2.787-1.008-3.697s-1.582-1.367-2.73-1.367z"/><path d="m398.45 149.22h2.156v18.234h-2.156z"/><path d="m416.34 160.36v1.055h-9.914c0.094 1.484 0.541 2.615 1.342 3.393s1.916 1.166 3.346 1.166c0.828 0 1.631-0.102 2.408-0.305s1.549-0.508 2.314-0.914v2.039c-0.773 0.328-1.566 0.578-2.379 0.75s-1.637 0.258-2.473 0.258c-2.094 0-3.752-0.609-4.975-1.828s-1.834-2.867-1.834-4.945c0-2.148 0.58-3.854 1.74-5.115s2.725-1.893 4.693-1.893c1.766 0 3.162 0.568 4.189 1.705s1.543 2.681 1.543 4.634zm-2.156-0.633c-0.016-1.18-0.346-2.121-0.99-2.824s-1.498-1.055-2.561-1.055c-1.203 0-2.166 0.34-2.889 1.02s-1.139 1.637-1.248 2.871z"/><path d="m428.25 154.72v2.039c-0.609-0.313-1.242-0.547-1.898-0.703s-1.336-0.234-2.039-0.234c-1.07 0-1.873 0.164-2.408 0.492s-0.803 0.82-0.803 1.477c0 0.5 0.191 0.893 0.574 1.178s1.152 0.557 2.309 0.814l0.738 0.164c1.531 0.328 2.619 0.791 3.264 1.389s0.967 1.432 0.967 2.502c0 1.219-0.482 2.184-1.447 2.895s-2.291 1.066-3.979 1.066c-0.703 0-1.436-0.068-2.197-0.205s-1.564-0.342-2.408-0.615v-2.227c0.797 0.414 1.582 0.725 2.355 0.932s1.539 0.311 2.297 0.311c1.016 0 1.797-0.174 2.344-0.521s0.82-0.838 0.82-1.471c0-0.586-0.197-1.035-0.592-1.348s-1.26-0.613-2.596-0.902l-0.75-0.176c-1.336-0.281-2.301-0.713-2.895-1.295s-0.891-1.381-0.891-2.396c0-1.234 0.438-2.188 1.313-2.859s2.117-1.008 3.727-1.008c0.797 0 1.547 0.059 2.25 0.176s1.352 0.291 1.945 0.525z"/><path d="m442.1 165.49v6.961h-2.168v-18.117h2.168v1.992c0.453-0.781 1.025-1.361 1.717-1.74s1.518-0.568 2.479-0.568c1.594 0 2.889 0.633 3.885 1.898s1.494 2.93 1.494 4.992-0.498 3.727-1.494 4.992-2.291 1.898-3.885 1.898c-0.961 0-1.787-0.189-2.479-0.568s-1.264-0.959-1.717-1.74zm7.336-4.582c0-1.586-0.326-2.83-0.979-3.732s-1.549-1.354-2.689-1.354-2.037 0.451-2.689 1.354-0.979 2.146-0.979 3.732 0.326 2.83 0.979 3.732 1.549 1.354 2.689 1.354 2.037-0.451 2.689-1.354 0.979-2.146 0.979-3.732z"/><path d="m468.11 156.74 5.953 6.094c0.461-0.695 0.82-1.439 1.078-2.232s0.41-1.635 0.457-2.525h2.18c-0.094 1.031-0.344 2.051-0.75 3.059s-0.973 2.004-1.699 2.988l3.27 3.34h-2.953l-1.676-1.723c-0.813 0.695-1.664 1.213-2.555 1.553s-1.848 0.51-2.871 0.51c-1.883 0-3.422-0.537-4.617-1.611s-1.793-2.451-1.793-4.131c0-1 0.262-1.939 0.785-2.818s1.309-1.705 2.355-2.479c-0.375-0.492-0.66-0.982-0.855-1.471s-0.293-0.967-0.293-1.436c0-1.266 0.434-2.283 1.301-3.053s2.02-1.154 3.457-1.154c0.648 0 1.295 0.07 1.939 0.211s1.299 0.352 1.963 0.633v2.133c-0.68-0.367-1.328-0.646-1.945-0.838s-1.191-0.287-1.723-0.287c-0.82 0-1.486 0.217-1.998 0.65s-0.768 0.994-0.768 1.682c0 0.398 0.115 0.799 0.346 1.201s0.701 0.969 1.412 1.704zm-1.652 1.312c-0.711 0.633-1.232 1.264-1.564 1.893s-0.498 1.287-0.498 1.975c0 1.141 0.414 2.09 1.242 2.848s1.867 1.137 3.117 1.137c0.742 0 1.438-0.123 2.086-0.369s1.258-0.619 1.828-1.119z"/><path d="m489.32 149.96h3.188l7.758 14.637v-14.637h2.297v17.496h-3.188l-7.758-14.637v14.637h-2.297z"/><path d="m508.92 161.25h1.564l3.887 10.201h-1.434l-0.93-2.617h-4.598l-0.93 2.617h-1.455zm0.78 1.359-1.873 5.076h3.752z"/><path d="m523.2 154.85h5.83v1.775h-5.83z"/><g transform="translate(-1.2046)" aria-label="h"><path d="m380.63 167.52h-2.2031v-7.4531q0-0.90234-0.10547-1.6875-0.10546-0.79687-0.38671-1.2422-0.29297-0.49219-0.84375-0.72657-0.55079-0.24609-1.4297-0.24609-0.90235 0-1.8867 0.44531-0.98438 0.44532-1.8867 1.1367v9.7734h-2.2031v-18.234h2.2031v6.5977q1.0312-0.85547 2.1328-1.3359 1.1016-0.48047 2.2617-0.48047 2.1211 0 3.2344 1.2774 1.1133 1.2773 1.1133 3.6797z"/></g></svg>
