<svg width="57.099mm" height="23.131mm" version="1.1" viewBox="0 0 57.099 23.131" xml:space="preserve" xmlns="http://www.w3.org/2000/svg"><g transform="translate(-419.9 -39.968)"><rect x="420" y="50" width="56.901" height="13" fill="#ffffc8" stroke="#000" stroke-linecap="round" stroke-linejoin="round" stroke-width=".19844"/><path d="m424 50v6.4229c0 1.1457 0.76864 2.0681 1.7234 2.0681h11.553c0.95477 0 1.7234-0.92237 1.7234-2.0681v-6.4229z" fill="#96fa96" stroke="#000" stroke-linecap="round" stroke-linejoin="round" stroke-width=".19844"/><path d="m424.87 50v1.5129c0 0.26987 0.11619 0.48713 0.26052 0.48713h1.7464c0.14433 0 0.26052-0.21726 0.26052-0.48713v-1.5129z" fill="#32c832" stroke="#000" stroke-linecap="round" stroke-linejoin="round" stroke-width=".19844"/><text x="425.31787" y="51.425308" fill="none" font-family="Arial" font-size="1.4111px" font-weight="bold" stroke="#000000" stroke-linecap="round" stroke-linejoin="round" stroke-width=".19844" xml:space="preserve"><tspan x="425.31787" y="51.425308" fill="#000000" font-family="sans-serif" font-style="italic" font-weight="normal" stroke="none" stroke-width=".19844">n<tspan baseline-shift="super" font-size="65%">+</tspan></tspan></text><path d="m436 50v1.5129c0 0.26987 0.11619 0.48713 0.26052 0.48713h1.7464c0.14433 0 0.26052-0.21726 0.26052-0.48713v-1.5129z" fill="#32c832" stroke="#000" stroke-linecap="round" stroke-linejoin="round" stroke-width=".19844"/><text x="436.45157" y="51.425297" fill="none" font-family="Arial" font-size="1.4111px" font-weight="bold" stroke="#000000" stroke-linecap="round" stroke-linejoin="round" stroke-width=".19844" xml:space="preserve"><tspan x="436.45157" y="51.425297" fill="#000000" font-family="sans-serif" font-style="italic" font-weight="normal" stroke="none" stroke-width=".19844">n<tspan baseline-shift="super" font-size="65%">+</tspan></tspan></text><path d="m439 50v7.4893c0 1.336 0.11619 2.4115 0.26052 2.4115h1.7464c0.14433 0 0.26052-1.0755 0.26052-2.4115v-7.4893z" fill="#ff6432" stroke="#000" stroke-linecap="round" stroke-linejoin="round" stroke-width=".19844"/><path d="m421.73 50v7.4893c0 1.336 0.11619 2.4115 0.26052 2.4115h1.7464c0.14433 0 0.26052-1.0755 0.26052-2.4115v-7.4893z" fill="#ff6432" stroke="#000" stroke-linecap="round" stroke-linejoin="round" stroke-width=".19844"/><text transform="rotate(-90)" x="-59.004822" y="423.37476" fill="none" font-family="Arial" font-size="1.4111px" font-weight="bold" stroke="#000000" stroke-linecap="round" stroke-linejoin="round" stroke-width=".19844" xml:space="preserve"><tspan x="-59.004822" y="423.37476" fill="#000000" font-family="sans-serif" font-style="italic" font-weight="bold" stroke="none" stroke-width=".19844">STI</tspan></text><text transform="rotate(-90)" x="-59.004822" y="440.71356" fill="none" font-family="Arial" font-size="1.4111px" font-weight="bold" stroke="#000000" stroke-linecap="round" stroke-linejoin="round" stroke-width=".19844" xml:space="preserve"><tspan x="-59.004822" y="440.71356" fill="#000000" font-family="sans-serif" font-style="italic" font-weight="bold" stroke="none" stroke-width=".19844">STI</tspan></text><text x="433.1445" y="57.517517" fill="none" font-family="Arial" font-size="1.4111px" font-weight="bold" stroke="#000000" stroke-linecap="round" stroke-linejoin="round" stroke-width=".19844" xml:space="preserve"><tspan x="433.1445" y="57.517517" fill="#000000" font-family="sans-serif" font-style="italic" font-weight="normal" stroke="none" stroke-width=".19844">NWELL</tspan></text><text x="421.02689" y="62.072113" fill="none" font-family="Arial" font-size="1.4111px" font-weight="bold" stroke="#000000" stroke-linecap="round" stroke-linejoin="round" stroke-width=".19844" xml:space="preserve"><tspan x="421.02689" y="62.072113" fill="#000000" font-family="sans-serif" font-style="italic" font-weight="normal" stroke="none" stroke-width=".19844">p-substrate</tspan></text><text x="425.65161" y="44.709961" fill="none" font-family="Arial" font-size="1.4111px" font-weight="bold" stroke="#000000" stroke-linecap="round" stroke-linejoin="round" stroke-width=".19844" xml:space="preserve"><tspan x="425.65161" y="44.709961" fill="#000000" font-family="sans-serif" font-style="italic" font-weight="normal" stroke="none" stroke-width=".19844">R<tspan baseline-shift="sub" font-size="65%">-</tspan></tspan></text><g transform="translate(345.34 108.84)" stroke-width=".19844"><title>Resistor_US</title><g transform="translate(-.49504 -21.714)" fill="none" stroke="#000" stroke-linecap="round" stroke-width=".19844"><path d="m89.151-36.129h-1"/><path d="m87.901-35.504 0.25-0.625"/><path d="m85.151-36.129 0.25-0.625"/><path d="m86.901-35.504 0.5-1.25"/><path d="m87.401-36.754 0.5 1.25"/><path d="m85.901-35.504 0.5-1.25"/><path d="m86.401-36.754 0.5 1.25"/><path d="m85.401-36.754 0.5 1.25"/><path d="m85.151-36.129h-1"/></g><title>Resistor_US</title></g><path d="m426 50v-4" fill="#c8c8c8" stroke="#000" stroke-linecap="round" stroke-linejoin="round" stroke-width=".19844"/><circle cx="426" cy="45.64" r=".35968" fill="none" stroke="#000" stroke-linecap="round" stroke-linejoin="bevel" stroke-width=".19844" style="paint-order:normal"/><text x="436.65161" y="44.709961" fill="none" font-family="Arial" font-size="1.4111px" font-weight="bold" stroke="#000000" stroke-linecap="round" stroke-linejoin="round" stroke-width=".19844" xml:space="preserve"><tspan x="436.65161" y="44.709961" fill="#000000" font-family="sans-serif" font-style="italic" font-weight="normal" stroke="none" stroke-width=".19844">R<tspan baseline-shift="sub" font-size="65%">+</tspan></tspan></text><path d="m437 50v-4" fill="#c8c8c8" stroke="#000" stroke-linecap="round" stroke-linejoin="round" stroke-width=".19844"/><circle cx="437" cy="45.64" r=".35968" fill="none" stroke="#000" stroke-linecap="round" stroke-linejoin="bevel" stroke-width=".19844" style="paint-order:normal"/><path d="m429 51-1.8663 0.0049" fill="none" stroke="#000" stroke-dasharray="0.198, 0.594" stroke-linecap="round" stroke-linejoin="round" stroke-width=".198"/><path d="m435.8 50.995-1.8663 0.0049" fill="none" stroke="#000" stroke-dasharray="0.198, 0.594" stroke-linecap="round" stroke-linejoin="round" stroke-width=".198"/><path d="m426 43v-1h11v1" fill="none" stroke="#646464" stroke-linecap="round" stroke-linejoin="round" stroke-width=".198"/><text x="426.18518" y="41.047306" fill="#646464" font-family="Arial" font-size="1.4111px" font-weight="bold" stroke-linecap="round" stroke-linejoin="round" stroke-width=".19844" xml:space="preserve"><tspan x="426.18518" y="41.047306" fill="#646464" font-family="sans-serif" font-style="italic" font-weight="normal" stroke-width=".19844">NWELL resistor</tspan></text><path d="m441.27 50v6.4229c0 1.1457 0.79504 2.0681 1.7826 2.0681h11.95c0.98756 0 1.7826-0.92237 1.7826-2.0681v-6.4229z" fill="#e1e132" stroke="#000" stroke-linecap="round" stroke-linejoin="round" stroke-width=".19844"/><path d="m442.13 50v1.5129c0 0.26987 0.68699 0.48713 1.5404 0.48713h10.326c0.85336 0 1.5404-0.21726 1.5404-0.48713v-1.5129z" fill="#32c832" stroke="#000" stroke-linecap="round" stroke-linejoin="round" stroke-width=".19844"/><text x="442.5853" y="51.425308" fill="none" font-family="Arial" font-size="1.4111px" font-weight="bold" stroke="#000000" stroke-linecap="round" stroke-linejoin="round" stroke-width=".19844" xml:space="preserve"><tspan x="442.5853" y="51.425308" fill="#000000" font-family="sans-serif" font-style="italic" font-weight="normal" stroke="none" stroke-width=".19844">n<tspan baseline-shift="super" font-size="65%">+</tspan></tspan></text><text x="450.62442" y="57.58696" fill="none" font-family="Arial" font-size="1.4111px" font-weight="bold" stroke="#000000" stroke-linecap="round" stroke-linejoin="round" stroke-width=".19844" xml:space="preserve"><tspan x="450.62442" y="57.58696" fill="#000000" font-family="sans-serif" font-style="italic" font-weight="normal" stroke="none" stroke-width=".19844">PWELL</tspan></text><text x="453.71899" y="51.425297" fill="none" font-family="Arial" font-size="1.4111px" font-weight="bold" stroke="#000000" stroke-linecap="round" stroke-linejoin="round" stroke-width=".19844" xml:space="preserve"><tspan x="453.71899" y="51.425297" fill="#000000" font-family="sans-serif" font-style="italic" font-weight="normal" stroke="none" stroke-width=".19844">n<tspan baseline-shift="super" font-size="65%">+</tspan></tspan></text><text x="442.91904" y="44.709961" fill="none" font-family="Arial" font-size="1.4111px" font-weight="bold" stroke="#000000" stroke-linecap="round" stroke-linejoin="round" stroke-width=".19844" xml:space="preserve"><tspan x="442.91904" y="44.709961" fill="#000000" font-family="sans-serif" font-style="italic" font-weight="normal" stroke="none" stroke-width=".19844">R<tspan baseline-shift="sub" font-size="65%">-</tspan></tspan></text><g transform="translate(362.61 108.84)" stroke-width=".19844"><title>Resistor_US</title><g transform="translate(-.49504 -21.714)" fill="none" stroke="#000" stroke-linecap="round" stroke-width=".19844"><path d="m89.151-36.129h-1"/><path d="m87.901-35.504 0.25-0.625"/><path d="m85.151-36.129 0.25-0.625"/><path d="m86.901-35.504 0.5-1.25"/><path d="m87.401-36.754 0.5 1.25"/><path d="m85.901-35.504 0.5-1.25"/><path d="m86.401-36.754 0.5 1.25"/><path d="m85.401-36.754 0.5 1.25"/><path d="m85.151-36.129h-1"/></g><title>Resistor_US</title></g><path d="m443.27 50v-4" fill="#c8c8c8" stroke="#000" stroke-linecap="round" stroke-linejoin="round" stroke-width=".19844"/><circle cx="443.27" cy="45.64" r=".35968" fill="none" stroke="#000" stroke-linecap="round" stroke-linejoin="bevel" stroke-width=".19844" style="paint-order:normal"/><text x="453.91904" y="44.709961" fill="none" font-family="Arial" font-size="1.4111px" font-weight="bold" stroke="#000000" stroke-linecap="round" stroke-linejoin="round" stroke-width=".19844" xml:space="preserve"><tspan x="453.91904" y="44.709961" fill="#000000" font-family="sans-serif" font-style="italic" font-weight="normal" stroke="none" stroke-width=".19844">R<tspan baseline-shift="sub" font-size="65%">+</tspan></tspan></text><path d="m454.27 50v-4" fill="#c8c8c8" stroke="#000" stroke-linecap="round" stroke-linejoin="round" stroke-width=".19844"/><circle cx="454.27" cy="45.64" r=".35968" fill="none" stroke="#000" stroke-linecap="round" stroke-linejoin="bevel" stroke-width=".19844" style="paint-order:normal"/><text x="459.65161" y="44.709953" fill="none" font-family="Arial" font-size="1.4111px" font-weight="bold" stroke="#000000" stroke-linecap="round" stroke-linejoin="round" stroke-width=".19844" xml:space="preserve"><tspan x="459.65161" y="44.709953" fill="#000000" font-family="sans-serif" font-style="italic" font-weight="normal" stroke="none" stroke-width=".19844">R<tspan baseline-shift="sub" font-size="65%">-</tspan></tspan></text><path d="m460 47.826v-1.7516" fill="#c8c8c8" stroke="#000" stroke-linecap="round" stroke-linejoin="round" stroke-width=".19844"/><circle cx="460" cy="45.64" r=".35968" fill="none" stroke="#000" stroke-linecap="round" stroke-linejoin="bevel" stroke-width=".19844" style="paint-order:normal"/><text x="470.65161" y="44.709953" fill="none" font-family="Arial" font-size="1.4111px" font-weight="bold" stroke="#000000" stroke-linecap="round" stroke-linejoin="round" stroke-width=".19844" xml:space="preserve"><tspan x="470.65161" y="44.709953" fill="#000000" font-family="sans-serif" font-style="italic" font-weight="normal" stroke="none" stroke-width=".19844">R<tspan baseline-shift="sub" font-size="65%">+</tspan></tspan></text><path d="m471 47v-1" fill="#c8c8c8" stroke="#000" stroke-linecap="round" stroke-linejoin="round" stroke-width=".19844"/><circle cx="471" cy="45.64" r=".35968" fill="none" stroke="#000" stroke-linecap="round" stroke-linejoin="bevel" stroke-width=".19844" style="paint-order:normal"/><path d="m446.27 51-1.8663 0.0049" fill="none" stroke="#000" stroke-dasharray="0.198, 0.594" stroke-linecap="round" stroke-linejoin="round" stroke-width=".198"/><path d="m453.07 50.995-1.8663 0.0049" fill="none" stroke="#000" stroke-dasharray="0.198, 0.594" stroke-linecap="round" stroke-linejoin="round" stroke-width=".198"/><path d="m443.27 43v-1h11v1" fill="none" stroke="#646464" stroke-linecap="round" stroke-linejoin="round" stroke-width=".198"/><text x="443.45261" y="41.047306" fill="#646464" font-family="Arial" font-size="1.4111px" font-weight="bold" stroke="#000000" stroke-linecap="round" stroke-linejoin="round" stroke-width=".19844" xml:space="preserve"><tspan x="443.45261" y="41.047306" fill="#646464" font-family="sans-serif" font-style="italic" font-weight="normal" stroke="none" stroke-width=".19844">Diffusion resistor</tspan></text><path d="m456.78 50v7.4893c0 1.336 0.93351 2.4115 2.0931 2.4115h14.031c1.1596 0 2.0931-1.0755 2.0931-2.4115v-7.4893z" fill="#ff6432" stroke="#000" stroke-linecap="round" stroke-linejoin="round" stroke-width=".19844"/><text x="464.20261" y="58.116676" fill="none" font-family="Arial" font-size="1.4111px" font-weight="bold" stroke="#000000" stroke-linecap="round" stroke-linejoin="round" stroke-width=".19844" xml:space="preserve"><tspan x="464.20261" y="58.116676" fill="#000000" font-family="sans-serif" font-style="italic" font-weight="bold" stroke="none" stroke-width=".19844">STI</tspan></text><rect x="459" y="49" width="13" height="1" fill="none" stroke="#000" stroke-linecap="round" stroke-linejoin="round" stroke-width=".198"/><rect x="459" y="47.099" width="13" height="1.901" fill="#c8c8c8" stroke="#000" stroke-linecap="round" stroke-linejoin="round" stroke-width=".198"/><g transform="translate(379.34 105.84)" stroke-width=".19844"><title>Resistor_US</title><g transform="translate(-.49504 -21.714)" fill="none" stroke="#000" stroke-linecap="round" stroke-width=".19844"><path d="m89.151-36.129h-1"/><path d="m87.901-35.504 0.25-0.625"/><path d="m85.151-36.129 0.25-0.625"/><path d="m86.901-35.504 0.5-1.25"/><path d="m87.401-36.754 0.5 1.25"/><path d="m85.901-35.504 0.5-1.25"/><path d="m86.401-36.754 0.5 1.25"/><path d="m85.401-36.754 0.5 1.25"/><path d="m85.151-36.129h-1"/></g><title>Resistor_US</title></g><path d="m462.99 48-3.0074 0.0049" fill="none" stroke="#000" stroke-dasharray="0.198, 0.594" stroke-linecap="round" stroke-linejoin="round" stroke-width=".198"/><path d="m470.89 47.995-2.9853 0.0049" fill="none" stroke="#000" stroke-dasharray="0.198001, 0.594001" stroke-linecap="round" stroke-linejoin="round" stroke-width=".198"/><path d="m471 48v-1" fill="#c8c8c8" stroke="#000" stroke-linecap="round" stroke-linejoin="round" stroke-width=".198"/><path d="m460 47v1" fill="#c8c8c8" stroke="#000" stroke-linecap="round" stroke-linejoin="round" stroke-width=".198"/><path d="m460 43v-1h11v1" fill="none" stroke="#646464" stroke-linecap="round" stroke-linejoin="round" stroke-width=".198"/><text x="459" y="41.047306" fill="#646464" font-family="Arial" font-size="1.4111px" font-weight="bold" stroke="#000000" stroke-linecap="round" stroke-linejoin="round" stroke-width=".19844" xml:space="preserve"><tspan x="459" y="41.047306" fill="#646464" font-family="sans-serif" font-style="italic" font-weight="normal" stroke="none" stroke-width=".19844">Polysilicon resistor</tspan></text></g></svg>
