<svg width="78.198mm" height="23.508mm" version="1.1" viewBox="0 0 78.198 23.508" xml:space="preserve" xmlns="http://www.w3.org/2000/svg"><defs><marker id="ConcaveTriangle-16-42-5-1-1-7-6-6-2-1-6-9-3-7-3-7-8-93-94-8-0" overflow="visible" markerHeight="0.60000002" markerWidth="0.60000002" orient="auto-start-reverse" preserveAspectRatio="xMidYMid" viewBox="0 0 1 1"><path transform="scale(.7)" d="m-2-4 11 4-11 4c2-2.33 2-5.66 0-8z" fill="context-stroke" fill-rule="evenodd"/></marker><marker id="ConcaveTriangle-16-42-5-1-1-7-6-6-2-1-6-9-3-7-3-7-8-93-94-8-0-9" overflow="visible" markerHeight="0.60000002" markerWidth="0.60000002" orient="auto-start-reverse" preserveAspectRatio="xMidYMid" viewBox="0 0 1 1"><path transform="scale(.7)" d="m-2-4 11 4-11 4c2-2.33 2-5.66 0-8z" fill="context-stroke" fill-rule="evenodd"/></marker><marker id="ConcaveTriangle-16-42-5-1-1-7-6-6-2-1-6-9-3-7-3-7-8-93-94-8-0-95" overflow="visible" markerHeight="0.60000002" markerWidth="0.60000002" orient="auto-start-reverse" preserveAspectRatio="xMidYMid" viewBox="0 0 1 1"><path transform="scale(.7)" d="m-2-4 11 4-11 4c2-2.33 2-5.66 0-8z" fill="context-stroke" fill-rule="evenodd"/></marker><marker id="ConcaveTriangle-16-42-5-1-1-7-6-6-2-1-6-9-3-7-3-7-8-93-94-8-0-9-2" overflow="visible" markerHeight="0.60000002" markerWidth="0.60000002" orient="auto-start-reverse" preserveAspectRatio="xMidYMid" viewBox="0 0 1 1"><path transform="scale(.7)" d="m-2-4 11 4-11 4c2-2.33 2-5.66 0-8z" fill="context-stroke" fill-rule="evenodd"/></marker></defs><g transform="translate(-421.9 -12.901)" stroke-linecap="round" stroke-linejoin="round"><text x="461.05518" y="14.936417" fill="none" font-family="Arial" font-size="1.4111px" font-weight="bold" stroke="#000000" stroke-width=".19844" xml:space="preserve"><tspan x="461.05518" y="14.936417" fill="#000000" font-family="sans-serif" font-style="italic" font-weight="normal" stroke="none" stroke-width=".19844" text-align="center" text-anchor="middle">Resistors</tspan></text><text x="431" y="21.985306" fill="none" font-family="Arial" font-size="1.4111px" font-weight="bold" stroke="#000000" stroke-width=".19844" xml:space="preserve"><tspan x="431" y="21.985306" fill="#000000" font-family="sans-serif" font-style="italic" font-weight="normal" stroke="none" stroke-width=".19844" text-align="center" text-anchor="middle">NWELL resistors</tspan></text><text x="451" y="22" fill="none" font-family="Arial" font-size="1.4111px" font-weight="bold" stroke="#000000" stroke-width=".19844" xml:space="preserve"><tspan x="451" y="22" fill="#000000" font-family="sans-serif" font-style="italic" font-weight="normal" stroke="none" stroke-width=".19844" text-align="center" text-anchor="middle">Diffusion resistors</tspan></text><text x="471" y="22" fill="none" font-family="Arial" font-size="1.4111px" font-weight="bold" stroke="#000000" stroke-width=".19844" xml:space="preserve"><tspan x="471" y="22" fill="#000000" font-family="sans-serif" font-style="italic" font-weight="normal" stroke="none" stroke-width=".19844" text-align="center" text-anchor="middle">Polysilicon resistors</tspan></text><text x="490.58813" y="22" fill="none" font-family="Arial" font-size="1.4111px" font-weight="bold" stroke="#000000" stroke-width=".19844" xml:space="preserve"><tspan x="490.58813" y="22" fill="#000000" font-family="sans-serif" font-style="italic" font-weight="normal" stroke="none" stroke-width=".19844" text-align="center" text-anchor="middle">Metal resistors</tspan></text><text x="423" y="24" fill="#000000" font-family="sans-serif" font-size="1.4111px" stroke-width=".198" xml:space="preserve"><tspan x="423" y="24"/><tspan x="423" y="25.763887" fill="#00c800" font-size="1.0583px">+High resistivity (≈2kΩ/□)</tspan><tspan x="423" y="27.527775" fill="#c80000" font-size="1.0583px">- Low accuracy</tspan><tspan x="423" y="29.291662" fill="#c80000" font-size="1.0583px">- High temperature coefficient</tspan><tspan x="423" y="31.05555" fill="#c80000" font-size="1.0583px">- Highly voltage-dependent</tspan><tspan x="423" y="32.819439" fill="#c80000" font-size="1.0583px">- Large parasitics</tspan><tspan x="423" y="34.583324" font-size="1.0583px"/></text><text x="442" y="24.040195" fill="#000000" font-family="sans-serif" font-size="1.4111px" stroke-width=".198" xml:space="preserve"><tspan x="442" y="24.040195"/><tspan x="442" y="25.804083" fill="#c80000" font-size="1.0583px">- Low resistivity (≈50Ω/□)</tspan><tspan x="442" y="27.56797" fill="#c86400" font-size="1.0583px">- Moderate accuracy</tspan><tspan x="442" y="29.331858" fill="#c86400" font-size="1.0583px">- Moderate temperature coefficient</tspan><tspan x="442" y="31.095745" fill="#c80000" font-size="1.0583px">- Voltage-dependent parasitics</tspan><tspan x="442" y="32.859634" font-size="1.0583px"/></text><text x="461.94421" y="24.040195" fill="#000000" font-family="sans-serif" font-size="1.4111px" stroke-width=".198" xml:space="preserve"><tspan x="461.94421" y="24.040195"/><tspan x="461.94421" y="25.804083" fill="#00c800" font-size="1.0583px">+High resistivity (≈1kΩ/□)</tspan><tspan x="461.94421" y="27.56797" fill="#00c800" font-size="1.0583px">+ High accuracy</tspan><tspan x="461.94421" y="29.331858" fill="#00c800" font-size="1.0583px">+ Low temperature coefficient</tspan><tspan x="461.94421" y="31.095745" fill="#00c800" font-size="1.0583px">+ Low parasitics</tspan><tspan x="461.94421" y="32.859634" fill="#c80000" font-size="1.0583px">- Limited maximum current </tspan><tspan x="461.94421" y="34.62352" fill="#c80000" font-size="1.0583px">due to EM</tspan><tspan x="461.94421" y="36.387409" font-size="1.0583px"/></text><text x="481.94421" y="24.045362" fill="#000000" font-family="sans-serif" font-size="1.4111px" stroke-width=".198" xml:space="preserve"><tspan x="481.94421" y="24.045362"/><tspan x="481.94421" y="25.80925" fill="#00c800" font-size="1.0583px">+ Useful for a very small </tspan><tspan x="481.94421" y="27.573137" fill="#00c800" font-size="1.0583px">resistors and signal shorts</tspan><tspan x="481.94421" y="29.337025" fill="#c86400" font-size="1.0583px">- Low resistivity (≈1-50Ω/□)</tspan><tspan x="481.94421" y="31.100912" fill="#c86400" font-size="1.0583px">- High temperature coefficient</tspan><tspan x="481.94421" y="32.864799" fill="#c86400" font-size="1.0583px">- Large capacitive parasitics</tspan><tspan x="481.94421" y="34.628689" fill="#c86400" font-size="1.0583px">- Limited maximum current </tspan><tspan x="481.94421" y="36.392574" fill="#c86400" font-size="1.0583px">due to EM</tspan><tspan x="481.94421" y="38.156464" font-size="1.0583px"/></text><rect x="422" y="20" width="18" height="3" fill="none" stroke="#000" stroke-width=".198"/><rect x="442" y="20" width="18" height="3" fill="none" stroke="#000" stroke-width=".198"/><rect x="462" y="20" width="18" height="3" fill="none" stroke="#000" stroke-width=".198"/><rect x="482" y="20" width="18" height="3" fill="none" stroke="#000" stroke-width=".198"/><rect x="452" y="13" width="18" height="3" fill="none" stroke="#000" stroke-width=".198"/><path d="m455 16c-7 3-24 0-24 3.2662" fill="none" marker-end="url(#ConcaveTriangle-16-42-5-1-1-7-6-6-2-1-6-9-3-7-3-7-8-93-94-8-0)" stroke="#000" stroke-width=".198"/><path d="m459 16c-1.1853 0.79021-2.4597 1.145-3.4436 1.4436-2.7989 0.8493-4.5564 1.0633-4.5564 1.8438" fill="none" marker-end="url(#ConcaveTriangle-16-42-5-1-1-7-6-6-2-1-6-9-3-7-3-7-8-93-94-8-0-9)" stroke="#000" stroke-width=".198"/><path d="m467.1 16.099c7 3 24 0 24 3.2662" fill="none" marker-end="url(#ConcaveTriangle-16-42-5-1-1-7-6-6-2-1-6-9-3-7-3-7-8-93-94-8-0-95)" stroke="#000" stroke-width=".198"/><path d="m463.1 16.099c1.1853 0.79021 2.4597 1.145 3.4436 1.4436 2.7989 0.8493 4.5564 1.0633 4.5564 1.8438" fill="none" marker-end="url(#ConcaveTriangle-16-42-5-1-1-7-6-6-2-1-6-9-3-7-3-7-8-93-94-8-0-9-2)" stroke="#000" stroke-width=".198"/></g></svg>
