<svg width="49.555mm" height="40.248mm" version="1.1" viewBox="0 0 49.555 40.248" xmlns="http://www.w3.org/2000/svg">
 <defs>
  <marker id="ConcaveTriangle-16-42-5-1-1-7-6-6-2-1-6-9-3-7-3-7-8-93-94-8-4" overflow="visible" markerHeight="0.60000002" markerWidth="0.60000002" orient="auto-start-reverse" preserveAspectRatio="xMidYMid" viewBox="0 0 1 1">
   <path transform="scale(.7)" d="m-2-4 11 4-11 4c2-2.33 2-5.66 0-8z" fill="context-stroke" fill-rule="evenodd"/>
  </marker>
  <marker id="ConcaveTriangle-16-42-5-1-1-7-6-6-2-1-6-9-3-7-3-7-8-93-94-8-9-0-6" overflow="visible" markerHeight="0.60000002" markerWidth="0.60000002" orient="auto-start-reverse" preserveAspectRatio="xMidYMid" viewBox="0 0 1 1">
   <path transform="scale(.7)" d="m-2-4 11 4-11 4c2-2.33 2-5.66 0-8z" fill="context-stroke" fill-rule="evenodd"/>
  </marker>
  <marker id="ConcaveTriangle-16-42-5-1-1-7-6-6-2-1-6-9-3-7-3-7-8-93-94-8-4-1" overflow="visible" markerHeight="0.60000002" markerWidth="0.60000002" orient="auto-start-reverse" preserveAspectRatio="xMidYMid" viewBox="0 0 1 1">
   <path transform="scale(.7)" d="m-2-4 11 4-11 4c2-2.33 2-5.66 0-8z" fill="context-stroke" fill-rule="evenodd"/>
  </marker>
  <marker id="ConcaveTriangle-16-42-5-1-1-7-6-6-2-1-6-9-3-7-3-7-8-93-94-8-0-1-1" overflow="visible" markerHeight="0.60000002" markerWidth="0.60000002" orient="auto-start-reverse" preserveAspectRatio="xMidYMid" viewBox="0 0 1 1">
   <path transform="scale(.7)" d="m-2-4 11 4-11 4c2-2.33 2-5.66 0-8z" fill="context-stroke" fill-rule="evenodd"/>
  </marker>
  <marker id="ConcaveTriangle-16-42-5-1-1-7-6-6-2-1-6-9-3-7-3-7-8-93-94-8-9-0-6-9" overflow="visible" markerHeight="0.60000002" markerWidth="0.60000002" orient="auto-start-reverse" preserveAspectRatio="xMidYMid" viewBox="0 0 1 1">
   <path transform="scale(.7)" d="m-2-4 11 4-11 4c2-2.33 2-5.66 0-8z" fill="context-stroke" fill-rule="evenodd"/>
  </marker>
  <marker id="ConcaveTriangle-16-42-5-1-1-7-6-6-2-1-6-9-3-7-3-7-8-93-94-8-9-0-6-6" overflow="visible" markerHeight="0.60000002" markerWidth="0.60000002" orient="auto-start-reverse" preserveAspectRatio="xMidYMid" viewBox="0 0 1 1">
   <path transform="scale(.7)" d="m-2-4 11 4-11 4c2-2.33 2-5.66 0-8z" fill="context-stroke" fill-rule="evenodd"/>
  </marker>
  <marker id="ConcaveTriangle-16-42-5-1-1-7-6-6-2-1-6-9-3-7-3-7-8-93-94-8-4-5" overflow="visible" markerHeight="0.60000002" markerWidth="0.60000002" orient="auto-start-reverse" preserveAspectRatio="xMidYMid" viewBox="0 0 1 1">
   <path transform="scale(.7)" d="m-2-4 11 4-11 4c2-2.33 2-5.66 0-8z" fill="context-stroke" fill-rule="evenodd"/>
  </marker>
  <marker id="ConcaveTriangle-16-42-5-1-1-7-6-6-2-1-6-9-3-7-3-7-8-93-94-8-4-5-8" overflow="visible" markerHeight="0.60000002" markerWidth="0.60000002" orient="auto-start-reverse" preserveAspectRatio="xMidYMid" viewBox="0 0 1 1">
   <path transform="scale(.7)" d="m-2-4 11 4-11 4c2-2.33 2-5.66 0-8z" fill="context-stroke" fill-rule="evenodd"/>
  </marker>
  <marker id="ConcaveTriangle-16-42-5-1-1-7-6-6-2-1-6-9-3-7-3-7-8-93-94-8-4-6" overflow="visible" markerHeight="0.60000002" markerWidth="0.60000002" orient="auto-start-reverse" preserveAspectRatio="xMidYMid" viewBox="0 0 1 1">
   <path transform="scale(.7)" d="m-2-4 11 4-11 4c2-2.33 2-5.66 0-8z" fill="context-stroke" fill-rule="evenodd"/>
  </marker>
  <marker id="ConcaveTriangle-16-42-5-1-1-7-6-6-2-1-6-9-3-7-3-7-8-93-94-8-4-9" overflow="visible" markerHeight="0.60000002" markerWidth="0.60000002" orient="auto-start-reverse" preserveAspectRatio="xMidYMid" viewBox="0 0 1 1">
   <path transform="scale(.7)" d="m-2-4 11 4-11 4c2-2.33 2-5.66 0-8z" fill="context-stroke" fill-rule="evenodd"/>
  </marker>
  <marker id="ConcaveTriangle-16-42-5-1-1-7-6-6-2-1-6-9-3-7-3-7-8-93-94-8-4-5-4" overflow="visible" markerHeight="0.60000002" markerWidth="0.60000002" orient="auto-start-reverse" preserveAspectRatio="xMidYMid" viewBox="0 0 1 1">
   <path transform="scale(.7)" d="m-2-4 11 4-11 4c2-2.33 2-5.66 0-8z" fill="context-stroke" fill-rule="evenodd"/>
  </marker>
  <marker id="ConcaveTriangle-16-42-5-1-1-7-6-6-2-1-6-9-3-7-3-7-8-93-94-8-4-6-3" overflow="visible" markerHeight="0.60000002" markerWidth="0.60000002" orient="auto-start-reverse" preserveAspectRatio="xMidYMid" viewBox="0 0 1 1">
   <path transform="scale(.7)" d="m-2-4 11 4-11 4c2-2.33 2-5.66 0-8z" fill="context-stroke" fill-rule="evenodd"/>
  </marker>
  <marker id="ConcaveTriangle-16-42-5-1-1-7-6-6-2-1-6-9-3-7-3-7-8-93-94-8-4-5-8-2" overflow="visible" markerHeight="0.60000002" markerWidth="0.60000002" orient="auto-start-reverse" preserveAspectRatio="xMidYMid" viewBox="0 0 1 1">
   <path transform="scale(.7)" d="m-2-4 11 4-11 4c2-2.33 2-5.66 0-8z" fill="context-stroke" fill-rule="evenodd"/>
  </marker>
  <marker id="ConcaveTriangle-16-42-5-1-1-7-6-6-2-1-6-9-3-7-3-7-8-93-94-8-4-5-8-2-2" overflow="visible" markerHeight="0.60000002" markerWidth="0.60000002" orient="auto-start-reverse" preserveAspectRatio="xMidYMid" viewBox="0 0 1 1">
   <path transform="scale(.7)" d="m-2-4 11 4-11 4c2-2.33 2-5.66 0-8z" fill="context-stroke" fill-rule="evenodd"/>
  </marker>
  <marker id="ConcaveTriangle-16-42-5-1-1-7-6-6-2-1-6-9-3-7-3-7-8-93-94-8-4-6-3-1" overflow="visible" markerHeight="0.60000002" markerWidth="0.60000002" orient="auto-start-reverse" preserveAspectRatio="xMidYMid" viewBox="0 0 1 1">
   <path transform="scale(.7)" d="m-2-4 11 4-11 4c2-2.33 2-5.66 0-8z" fill="context-stroke" fill-rule="evenodd"/>
  </marker>
  <marker id="ConcaveTriangle-16-42-5-1-1-7-6-6-2-1-6-9-3-7-3-7-8-93-94-8-4-5-4-5" overflow="visible" markerHeight="0.60000002" markerWidth="0.60000002" orient="auto-start-reverse" preserveAspectRatio="xMidYMid" viewBox="0 0 1 1">
   <path transform="scale(.7)" d="m-2-4 11 4-11 4c2-2.33 2-5.66 0-8z" fill="context-stroke" fill-rule="evenodd"/>
  </marker>
  <marker id="ConcaveTriangle-16-42-5-1-1-7-6-6-2-1-6-9-3-7-3-7-8-93-94-8-4-9-7" overflow="visible" markerHeight="0.60000002" markerWidth="0.60000002" orient="auto-start-reverse" preserveAspectRatio="xMidYMid" viewBox="0 0 1 1">
   <path transform="scale(.7)" d="m-2-4 11 4-11 4c2-2.33 2-5.66 0-8z" fill="context-stroke" fill-rule="evenodd"/>
  </marker>
  <marker id="ConcaveTriangle-16-42-5-1-1-7-6-6-2-1-6-9-3-7-3-7-8-93-94-8-9-0-6-1" overflow="visible" markerHeight="0.60000002" markerWidth="0.60000002" orient="auto-start-reverse" preserveAspectRatio="xMidYMid" viewBox="0 0 1 1">
   <path transform="scale(.7)" d="m-2-4 11 4-11 4c2-2.33 2-5.66 0-8z" fill="context-stroke" fill-rule="evenodd"/>
  </marker>
  <marker id="ConcaveTriangle-16-42-5-1-1-7-6-6-2-1-6-9-3-7-3-7-8-93-94-8-9-0-6-9-6" overflow="visible" markerHeight="0.60000002" markerWidth="0.60000002" orient="auto-start-reverse" preserveAspectRatio="xMidYMid" viewBox="0 0 1 1">
   <path transform="scale(.7)" d="m-2-4 11 4-11 4c2-2.33 2-5.66 0-8z" fill="context-stroke" fill-rule="evenodd"/>
  </marker>
  <marker id="ConcaveTriangle-16-42-5-1-1-7-6-6-2-1-6-9-3-7-3-7-8-93-94-8-9-0-6-6-7" overflow="visible" markerHeight="0.60000002" markerWidth="0.60000002" orient="auto-start-reverse" preserveAspectRatio="xMidYMid" viewBox="0 0 1 1">
   <path transform="scale(.7)" d="m-2-4 11 4-11 4c2-2.33 2-5.66 0-8z" fill="context-stroke" fill-rule="evenodd"/>
  </marker>
  <marker id="ConcaveTriangle-16-42-5-1-1-7-6-6-2-1-6-9-3-7-3-7-8-93-94-8-4-6-3-1-9" overflow="visible" markerHeight="0.60000002" markerWidth="0.60000002" orient="auto-start-reverse" preserveAspectRatio="xMidYMid" viewBox="0 0 1 1">
   <path transform="scale(.7)" d="m-2-4 11 4-11 4c2-2.33 2-5.66 0-8z" fill="context-stroke" fill-rule="evenodd"/>
  </marker>
 </defs>
 <g transform="translate(-107.33 -99.974)" stroke-linecap="round" stroke-linejoin="round">
  <rect x="110" y="109.99" width="45.906" height="15" fill="#ffffc8" stroke="#000" stroke-width=".19844"/>
  <path d="m114 109.99v6.4229c0 1.1457 1.9422 2.0681 4.3546 2.0681h29.192c2.4124 0 4.3546-0.92237 4.3546-2.0681v-6.4229z" fill="#96fa96" stroke="#000" stroke-width=".19844"/>
  <path d="m118.84 109.99v1.5129c0 0.26987 0.11619 0.48713 0.26052 0.48713h1.7464c0.14433 0 0.26052-0.21726 0.26052-0.48713v-1.5129z" fill="#e1e132" stroke="#000" stroke-width=".19844"/>
  <path d="m124.86 109.99v1.5129c0 0.26987 0.11619 0.48713 0.26052 0.48713h1.7464c0.14433 0 0.26052-0.21726 0.26052-0.48713v-1.5129z" fill="#e1e132" stroke="#000" stroke-width=".19844"/>
  <text x="119.33444" y="111.30962" fill="none" font-family="Arial" font-size="1.4111px" font-weight="bold" stroke="#000000" stroke-width=".19844" xml:space="preserve"><tspan x="119.33444" y="111.30962" fill="#000000" font-family="sans-serif" font-style="italic" font-weight="normal" stroke="none" stroke-width=".19844">p<tspan baseline-shift="super" font-size="65%">+</tspan></tspan></text>
  <text x="125.2887" y="111.36192" fill="none" font-family="Arial" font-size="1.4111px" font-weight="bold" stroke="#000000" stroke-width=".19844" xml:space="preserve"><tspan x="125.2887" y="111.36192" fill="#000000" font-family="sans-serif" font-style="italic" font-weight="normal" stroke="none" stroke-width=".19844">p<tspan baseline-shift="super" font-size="65%">+</tspan></tspan></text>
  <path d="m124.83 109.99v1l-3.7226-0.41284 3e-3 -0.58716z" fill="#ffff32" stroke="#000" stroke-width=".19844"/>
  <path d="m121.12 109.99-0.01-1h3.7204l-9e-3 1" fill="#c8c8c8" stroke="#000" stroke-width=".19844"/>
  <path d="m124.82 109.99h-3.7111" fill="#ffff32" stroke="#000" stroke-width=".19844"/>
  <path d="m129 109.99v1.5129c0 0.26987 0.11619 0.48713 0.26052 0.48713h1.7464c0.14433 0 0.26052-0.21726 0.26052-0.48713v-1.5129z" fill="#e1e132" stroke="#000" stroke-width=".19844"/>
  <path d="m135.02 109.99v1.5129c0 0.26987 0.11619 0.48713 0.26052 0.48713h1.7464c0.14433 0 0.26052-0.21726 0.26052-0.48713v-1.5129z" fill="#e1e132" stroke="#000" stroke-width=".19844"/>
  <text x="129.48985" y="111.30962" fill="none" font-family="Arial" font-size="1.4111px" font-weight="bold" stroke="#000000" stroke-width=".19844" xml:space="preserve"><tspan x="129.48985" y="111.30962" fill="#000000" font-family="sans-serif" font-style="italic" font-weight="normal" stroke="none" stroke-width=".19844">p<tspan baseline-shift="super" font-size="65%">+</tspan></tspan></text>
  <text x="135.44409" y="111.36192" fill="none" font-family="Arial" font-size="1.4111px" font-weight="bold" stroke="#000000" stroke-width=".19844" xml:space="preserve"><tspan x="135.44409" y="111.36192" fill="#000000" font-family="sans-serif" font-style="italic" font-weight="normal" stroke="none" stroke-width=".19844">p<tspan baseline-shift="super" font-size="65%">+</tspan></tspan></text>
  <path d="m134.99 109.99v1l-3.7226-0.41284 3e-3 -0.58716z" fill="#ffff32" stroke="#000" stroke-width=".19844"/>
  <path d="m131.28 109.99-0.01-1h3.7204l-9e-3 1" fill="#c8c8c8" stroke="#000" stroke-width=".19844"/>
  <path d="m134.98 109.99h-3.7111" fill="#ffff32" stroke="#000" stroke-width=".19844"/>
  <path d="m139 109.99v1.5129c0 0.26987 0.11619 0.48713 0.26052 0.48713h1.7464c0.14433 0 0.26052-0.21726 0.26052-0.48713v-1.5129z" fill="#e1e132" stroke="#000" stroke-width=".19844"/>
  <path d="m145.02 109.99v1.5129c0 0.26987 0.11619 0.48713 0.26052 0.48713h1.7464c0.14433 0 0.26052-0.21726 0.26052-0.48713v-1.5129z" fill="#e1e132" stroke="#000" stroke-width=".19844"/>
  <text x="139.48985" y="111.30962" fill="none" font-family="Arial" font-size="1.4111px" font-weight="bold" stroke="#000000" stroke-width=".19844" xml:space="preserve"><tspan x="139.48985" y="111.30962" fill="#000000" font-family="sans-serif" font-style="italic" font-weight="normal" stroke="none" stroke-width=".19844">p<tspan baseline-shift="super" font-size="65%">+</tspan></tspan></text>
  <text x="145.44411" y="111.36192" fill="none" font-family="Arial" font-size="1.4111px" font-weight="bold" stroke="#000000" stroke-width=".19844" xml:space="preserve"><tspan x="145.44411" y="111.36192" fill="#000000" font-family="sans-serif" font-style="italic" font-weight="normal" stroke="none" stroke-width=".19844">p<tspan baseline-shift="super" font-size="65%">+</tspan></tspan></text>
  <path d="m144.99 109.99v1l-3.7226-0.41284 3e-3 -0.58716z" fill="#ffff32" stroke="#000" stroke-width=".19844"/>
  <path d="m141.28 109.99-0.01-1h3.7204l-9e-3 1" fill="#c8c8c8" stroke="#000" stroke-width=".19844"/>
  <path d="m144.98 109.99h-3.7111" fill="#ffff32" stroke="#000" stroke-width=".19844"/>
  <path d="m149 109.99v1.5129c0 0.26987 0.11619 0.48713 0.26052 0.48713h1.7464c0.14432 0 0.26051-0.21726 0.26051-0.48713v-1.5129z" fill="#32c832" stroke="#000" stroke-width=".19844"/>
  <text x="149.44664" y="111.41322" fill="none" font-family="Arial" font-size="1.4111px" font-weight="bold" stroke="#000000" stroke-width=".19844" xml:space="preserve"><tspan x="149.44664" y="111.41322" fill="#000000" font-family="sans-serif" font-style="italic" font-weight="normal" stroke="none" stroke-width=".19844">n<tspan baseline-shift="super" font-size="65%">+</tspan></tspan></text>
  <path d="m114.86 109.99v1.5129c0 0.26987 0.11619 0.48713 0.26052 0.48713h1.7464c0.14433 0 0.26052-0.21726 0.26052-0.48713v-1.5129z" fill="#32c832" stroke="#000" stroke-width=".19844"/>
  <text x="115.31291" y="111.41322" fill="none" font-family="Arial" font-size="1.4111px" font-weight="bold" stroke="#000000" stroke-width=".19844" xml:space="preserve"><tspan x="115.31291" y="111.41322" fill="#000000" font-family="sans-serif" font-style="italic" font-weight="normal" stroke="none" stroke-width=".19844">n<tspan baseline-shift="super" font-size="65%">+</tspan></tspan></text>
  <path d="m151.86 109.99v7.4893c0 1.336 0.11619 2.4115 0.26052 2.4115h1.7464c0.14433 0 0.26052-1.0755 0.26052-2.4115v-7.4893z" fill="#ff6432" stroke="#000" stroke-width=".19844"/>
  <path d="m111.73 109.99v7.4893c0 1.336 0.11619 2.4115 0.26052 2.4115h1.7464c0.14433 0 0.26052-1.0755 0.26052-2.4115v-7.4893z" fill="#ff6432" stroke="#000" stroke-width=".19844"/>
  <text transform="rotate(-90)" x="-118.99275" y="113.36981" fill="none" font-family="Arial" font-size="1.4111px" font-weight="bold" stroke="#000000" stroke-width=".19844" xml:space="preserve"><tspan x="-118.99275" y="113.36981" fill="#000000" font-family="sans-serif" font-style="italic" font-weight="bold" stroke="none" stroke-width=".19844">STI</tspan></text>
  <text transform="rotate(-90)" x="-118.99275" y="153.57487" fill="none" font-family="Arial" font-size="1.4111px" font-weight="bold" stroke="#000000" stroke-width=".19844" xml:space="preserve"><tspan x="-118.99275" y="153.57487" fill="#000000" font-family="sans-serif" font-style="italic" font-weight="bold" stroke="none" stroke-width=".19844">STI</tspan></text>
  <text x="143.94682" y="117.50544" fill="none" font-family="Arial" font-size="1.4111px" font-weight="bold" stroke="#000000" stroke-width=".19844" xml:space="preserve"><tspan x="143.94682" y="117.50544" fill="#000000" font-family="sans-serif" font-style="italic" font-weight="normal" stroke="none" stroke-width=".19844">NWELL</tspan></text>
  <text x="128.8806" y="124.01388" fill="none" font-family="Arial" font-size="1.4111px" font-weight="bold" stroke="#000000" stroke-width=".19844" xml:space="preserve"><tspan x="128.8806" y="124.01388" fill="#000000" font-family="sans-serif" font-style="italic" font-weight="normal" stroke="none" stroke-width=".19844">p-substrate</tspan></text>
  <path d="m113 131.89v8" fill="none" marker-start="url(#ConcaveTriangle-16-42-5-1-1-7-6-6-2-1-6-9-3-7-3-7-8-93-94-8-4-1)" stroke="#000" stroke-width=".198"/>
  <path d="m113 139.89h40" fill="none" stroke="#000" stroke-width=".198"/>
  <text x="109.76405" y="130.70856" fill="#000000" font-family="sans-serif" font-size="1.4111px" font-style="italic" stroke-width=".19844" text-anchor="middle" xml:space="preserve"><tspan x="109.76405" y="130.70856" text-align="center">Doping</tspan><tspan x="109.76405" y="132.48878" text-align="center">level</tspan></text>
  <path d="m140.25 139.89h13" fill="none" marker-end="url(#ConcaveTriangle-16-42-5-1-1-7-6-6-2-1-6-9-3-7-3-7-8-93-94-8-0-1-1)" stroke="#000" stroke-width=".198"/>
  <path d="m122 138h22" fill="none" stroke="#00bae6" stroke-width=".33073"/>
  <text x="119.99507" y="114.06436" fill="none" font-family="Arial" font-size="1.4111px" font-weight="bold" stroke="#000000" stroke-width=".19844" xml:space="preserve"><tspan x="119.99507" y="114.06436" fill="#000000" font-family="sans-serif" font-style="italic" font-weight="normal" stroke="none" stroke-width=".19844">Device A</tspan></text>
  <text x="129.9124" y="114.05038" fill="none" font-family="Arial" font-size="1.4111px" font-weight="bold" stroke="#000000" stroke-width=".19844" xml:space="preserve"><tspan x="129.9124" y="114.05038" fill="#000000" font-family="sans-serif" font-style="italic" font-weight="normal" stroke="none" stroke-width=".19844">Device B</tspan></text>
  <text x="139.94614" y="114.04456" fill="none" font-family="Arial" font-size="1.4111px" font-weight="bold" stroke="#000000" stroke-width=".19844" xml:space="preserve"><tspan x="139.94614" y="114.04456" fill="#000000" font-family="sans-serif" font-style="italic" font-weight="normal" stroke="none" stroke-width=".19844">Device C</tspan></text>
  <path d="m118.84 134.99v1.5129c0 0.26987 0.1162 0.48713 0.26052 0.48713h1.7464c0.14433 0 0.26052-0.21726 0.26052-0.48713v-1.5129z" fill="#e1e132" stroke="#000" stroke-width=".19844"/>
  <path d="m124.86 134.99v1.5129c0 0.26987 0.11619 0.48713 0.26052 0.48713h1.7464c0.14433 0 0.26052-0.21726 0.26052-0.48713v-1.5129z" fill="#e1e132" stroke="#000" stroke-width=".19844"/>
  <text x="119.33444" y="136.30962" fill="none" font-family="Arial" font-size="1.4111px" font-weight="bold" stroke="#000000" stroke-width=".19844" xml:space="preserve"><tspan x="119.33444" y="136.30962" fill="#000000" font-family="sans-serif" font-style="italic" font-weight="normal" stroke="none" stroke-width=".19844">p<tspan baseline-shift="super" font-size="65%">+</tspan></tspan></text>
  <text x="125.2887" y="136.36191" fill="none" font-family="Arial" font-size="1.4111px" font-weight="bold" stroke="#000000" stroke-width=".19844" xml:space="preserve"><tspan x="125.2887" y="136.36191" fill="#000000" font-family="sans-serif" font-style="italic" font-weight="normal" stroke="none" stroke-width=".19844">p<tspan baseline-shift="super" font-size="65%">+</tspan></tspan></text>
  <path d="m124.83 134.99v1l-3.7226-0.41284 3e-3 -0.58716z" fill="#ffff32" stroke="#000" stroke-width=".19844"/>
  <path d="m121.12 134.99-0.01-1h3.7204l-9e-3 1" fill="#c8c8c8" stroke="#000" stroke-width=".19844"/>
  <path d="m124.82 134.99h-3.7111" fill="#ffff32" stroke="#000" stroke-width=".19844"/>
  <path d="m129 134.99v1.5129c0 0.26987 0.1162 0.48713 0.26052 0.48713h1.7464c0.14433 0 0.26052-0.21726 0.26052-0.48713v-1.5129z" fill="#e1e132" stroke="#000" stroke-width=".19844"/>
  <path d="m135.02 134.99v1.5129c0 0.26987 0.11619 0.48713 0.26052 0.48713h1.7464c0.14433 0 0.26052-0.21726 0.26052-0.48713v-1.5129z" fill="#e1e132" stroke="#000" stroke-width=".19844"/>
  <text x="129.48985" y="136.30962" fill="none" font-family="Arial" font-size="1.4111px" font-weight="bold" stroke="#000000" stroke-width=".19844" xml:space="preserve"><tspan x="129.48985" y="136.30962" fill="#000000" font-family="sans-serif" font-style="italic" font-weight="normal" stroke="none" stroke-width=".19844">p<tspan baseline-shift="super" font-size="65%">+</tspan></tspan></text>
  <text x="135.44411" y="136.36191" fill="none" font-family="Arial" font-size="1.4111px" font-weight="bold" stroke="#000000" stroke-width=".19844" xml:space="preserve"><tspan x="135.44411" y="136.36191" fill="#000000" font-family="sans-serif" font-style="italic" font-weight="normal" stroke="none" stroke-width=".19844">p<tspan baseline-shift="super" font-size="65%">+</tspan></tspan></text>
  <path d="m134.99 134.99v1l-3.7226-0.41284 3e-3 -0.58716z" fill="#ffff32" stroke="#000" stroke-width=".19844"/>
  <path d="m131.28 134.99-0.01-1h3.7204l-9e-3 1" fill="#c8c8c8" stroke="#000" stroke-width=".19844"/>
  <path d="m134.98 134.99h-3.7111" fill="#ffff32" stroke="#000" stroke-width=".19844"/>
  <path d="m139 134.99v1.5129c0 0.26987 0.11619 0.48713 0.26051 0.48713h1.7464c0.14433 0 0.26052-0.21726 0.26052-0.48713v-1.5129z" fill="#e1e132" stroke="#000" stroke-width=".19844"/>
  <path d="m145.02 134.99v1.5129c0 0.26987 0.11619 0.48713 0.26052 0.48713h1.7464c0.14433 0 0.26052-0.21726 0.26052-0.48713v-1.5129z" fill="#e1e132" stroke="#000" stroke-width=".19844"/>
  <text x="139.48985" y="136.30962" fill="none" font-family="Arial" font-size="1.4111px" font-weight="bold" stroke="#000000" stroke-width=".19844" xml:space="preserve"><tspan x="139.48985" y="136.30962" fill="#000000" font-family="sans-serif" font-style="italic" font-weight="normal" stroke="none" stroke-width=".19844">p<tspan baseline-shift="super" font-size="65%">+</tspan></tspan></text>
  <text x="145.44411" y="136.36191" fill="none" font-family="Arial" font-size="1.4111px" font-weight="bold" stroke="#000000" stroke-width=".19844" xml:space="preserve"><tspan x="145.44411" y="136.36191" fill="#000000" font-family="sans-serif" font-style="italic" font-weight="normal" stroke="none" stroke-width=".19844">p<tspan baseline-shift="super" font-size="65%">+</tspan></tspan></text>
  <path d="m144.99 134.99v1l-3.7226-0.41284 3e-3 -0.58716z" fill="#ffff32" stroke="#000" stroke-width=".19844"/>
  <path d="m141.28 134.99-0.01-1h3.7204l-9e-3 1" fill="#c8c8c8" stroke="#000" stroke-width=".19844"/>
  <path d="m144.98 134.99h-3.7111" fill="#ffff32" stroke="#000" stroke-width=".19844"/>
  <text x="119.99507" y="132.51988" fill="none" font-family="Arial" font-size="1.4111px" font-weight="bold" stroke="#000000" stroke-width=".19844" xml:space="preserve"><tspan x="119.99507" y="132.51988" fill="#000000" font-family="sans-serif" font-style="italic" font-weight="normal" stroke="none" stroke-width=".19844">Device A</tspan></text>
  <text x="129.9124" y="132.50591" fill="none" font-family="Arial" font-size="1.4111px" font-weight="bold" stroke="#000000" stroke-width=".19844" xml:space="preserve"><tspan x="129.9124" y="132.50591" fill="#000000" font-family="sans-serif" font-style="italic" font-weight="normal" stroke="none" stroke-width=".19844">Device B</tspan></text>
  <text x="139.94615" y="132.50008" fill="none" font-family="Arial" font-size="1.4111px" font-weight="bold" stroke="#000000" stroke-width=".19844" xml:space="preserve"><tspan x="139.94615" y="132.50008" fill="#000000" font-family="sans-serif" font-style="italic" font-weight="normal" stroke="none" stroke-width=".19844">Device C</tspan></text>
  <rect x="148.99" y="104" width="5.1339" height="5.9879" fill="#ff6432" stroke="#000" stroke-width=".198"/>
  <text x="152.8864" y="101.00001" fill="#ff0000" font-family="sans-serif" font-size="1.4111px" font-style="italic" stroke-width=".19844" text-anchor="middle" xml:space="preserve"><tspan x="152.8864" y="101.00001" text-align="center">NWELL</tspan><tspan x="152.8864" y="102.78023" text-align="center">Photoresist</tspan></text>
  <rect x="111.73" y="104" width="5.4014" height="5.9879" fill="#ff6432" stroke="#000" stroke-width=".198"/>
  <text x="113.00542" y="101" fill="#ff0000" font-family="sans-serif" font-size="1.4111px" font-style="italic" stroke-width=".19844" text-anchor="middle" xml:space="preserve"><tspan x="113.00542" y="101" text-align="center">NWELL</tspan><tspan x="113.00542" y="102.78022" text-align="center">Photoresist</tspan></text>
  <path d="m118.43 102-1.3042 3.099" fill="#f00" stroke="#00bae6" stroke-width=".198"/>
  <path d="m117.13 105.1 1.658 4.2924" fill="#f00" marker-end="url(#ConcaveTriangle-16-42-5-1-1-7-6-6-2-1-6-9-3-7-3-7-8-93-94-8-9-0-6)" stroke="#00bae6" stroke-width=".198"/>
  <path d="m119.13 101.99-2 5" fill="#f00" stroke="#00bae6" stroke-width=".198"/>
  <path d="m117.13 106.99 0.98253 2.3578" fill="#f00" marker-end="url(#ConcaveTriangle-16-42-5-1-1-7-6-6-2-1-6-9-3-7-3-7-8-93-94-8-9-0-6-9)" stroke="#00bae6" stroke-width=".198"/>
  <path d="m119.83 102-2.7312 6.9989" fill="#f00" stroke="#00bae6" stroke-width=".198"/>
  <path d="m123 102v6" fill="#f00" marker-end="url(#ConcaveTriangle-16-42-5-1-1-7-6-6-2-1-6-9-3-7-3-7-8-93-94-8-4)" stroke="#00bae6" stroke-width=".198"/>
  <path d="m121 102v6" fill="#f00" marker-end="url(#ConcaveTriangle-16-42-5-1-1-7-6-6-2-1-6-9-3-7-3-7-8-93-94-8-4-5)" stroke="#00bae6" stroke-width=".198"/>
  <path d="m127 102v6" fill="#f00" marker-end="url(#ConcaveTriangle-16-42-5-1-1-7-6-6-2-1-6-9-3-7-3-7-8-93-94-8-4-6)" stroke="#00bae6" stroke-width=".198"/>
  <path d="m125 102v6" fill="#f00" marker-end="url(#ConcaveTriangle-16-42-5-1-1-7-6-6-2-1-6-9-3-7-3-7-8-93-94-8-4-5-8)" stroke="#00bae6" stroke-width=".198"/>
  <path d="m131 102v6" fill="#f00" marker-end="url(#ConcaveTriangle-16-42-5-1-1-7-6-6-2-1-6-9-3-7-3-7-8-93-94-8-4-9)" stroke="#00bae6" stroke-width=".198"/>
  <path d="m129 102v6" fill="#f00" marker-end="url(#ConcaveTriangle-16-42-5-1-1-7-6-6-2-1-6-9-3-7-3-7-8-93-94-8-4-5-4)" stroke="#00bae6" stroke-width=".198"/>
  <path d="m135 102v6" fill="#f00" marker-end="url(#ConcaveTriangle-16-42-5-1-1-7-6-6-2-1-6-9-3-7-3-7-8-93-94-8-4-6-3)" stroke="#00bae6" stroke-width=".198"/>
  <path d="m133 102v6" fill="#f00" marker-end="url(#ConcaveTriangle-16-42-5-1-1-7-6-6-2-1-6-9-3-7-3-7-8-93-94-8-4-5-8-2)" stroke="#00bae6" stroke-width=".198"/>
  <path d="m139 102v6" fill="#f00" marker-end="url(#ConcaveTriangle-16-42-5-1-1-7-6-6-2-1-6-9-3-7-3-7-8-93-94-8-4-9-7)" stroke="#00bae6" stroke-width=".198"/>
  <path d="m137 102v6" fill="#f00" marker-end="url(#ConcaveTriangle-16-42-5-1-1-7-6-6-2-1-6-9-3-7-3-7-8-93-94-8-4-5-4-5)" stroke="#00bae6" stroke-width=".198"/>
  <path d="m143 102v6" fill="#f00" marker-end="url(#ConcaveTriangle-16-42-5-1-1-7-6-6-2-1-6-9-3-7-3-7-8-93-94-8-4-6-3-1)" stroke="#00bae6" stroke-width=".198"/>
  <path d="m145 102v6" fill="#f00" marker-end="url(#ConcaveTriangle-16-42-5-1-1-7-6-6-2-1-6-9-3-7-3-7-8-93-94-8-4-6-3-1-9)" stroke="#00bae6" stroke-width=".198"/>
  <path d="m141 102v6" fill="#f00" marker-end="url(#ConcaveTriangle-16-42-5-1-1-7-6-6-2-1-6-9-3-7-3-7-8-93-94-8-4-5-8-2-2)" stroke="#00bae6" stroke-width=".198"/>
  <path d="m117.1 109 0.22599 0.38528" fill="#f00" marker-end="url(#ConcaveTriangle-16-42-5-1-1-7-6-6-2-1-6-9-3-7-3-7-8-93-94-8-9-0-6-6)" stroke="#00bae6" stroke-width=".198"/>
  <path d="m147.6 102 1.3042 3.099" fill="#f00" stroke="#00bae6" stroke-width=".198"/>
  <path d="m148.9 105.1-1.658 4.2924" fill="#f00" marker-end="url(#ConcaveTriangle-16-42-5-1-1-7-6-6-2-1-6-9-3-7-3-7-8-93-94-8-9-0-6-1)" stroke="#00bae6" stroke-width=".198"/>
  <path d="m146.9 101.99 2 5" fill="#f00" stroke="#00bae6" stroke-width=".198"/>
  <path d="m148.9 106.99-0.98253 2.3578" fill="#f00" marker-end="url(#ConcaveTriangle-16-42-5-1-1-7-6-6-2-1-6-9-3-7-3-7-8-93-94-8-9-0-6-9-6)" stroke="#00bae6" stroke-width=".198"/>
  <path d="m146.2 102 2.7312 6.9989" fill="#f00" stroke="#00bae6" stroke-width=".198"/>
  <path d="m148.93 109-0.22599 0.38528" fill="#f00" marker-end="url(#ConcaveTriangle-16-42-5-1-1-7-6-6-2-1-6-9-3-7-3-7-8-93-94-8-9-0-6-6-7)" stroke="#00bae6" stroke-width=".198"/>
  <path d="m117 112v27.889" fill="#f00" stroke="#000" stroke-dasharray="0.198, 0.594" stroke-width=".198"/>
  <path d="m149 112v27.889" fill="#f00" stroke="#000" stroke-dasharray="0.198, 0.594" stroke-width=".198"/>
  <path d="m117 138c1.8356-13.455 3.3337-0.0262 5 0" fill="none" stroke="#00bae6" stroke-width=".33073"/>
  <path d="m149 138c-1.8356-13.455-3.3337-0.0262-5 0" fill="none" stroke="#00bae6" stroke-width=".33073"/>
 </g>
</svg>
