<svg width="45mm" height="30.223mm" version="1.1" viewBox="0 0 45 30.223" xml:space="preserve" xmlns="http://www.w3.org/2000/svg" xmlns:xlink="http://www.w3.org/1999/xlink"><defs><linearGradient id="linearGradient11"><stop stop-color="#c83200" offset=".17623"/><stop stop-color="#c83200" stop-opacity="0" offset="1"/></linearGradient><linearGradient id="linearGradient12" x1="640" x2="660" y1="180" y2="180" gradientTransform="matrix(1.5012 0 0 1 -790.78 -830)" gradientUnits="userSpaceOnUse" xlink:href="#linearGradient11"/><linearGradient id="linearGradient13" x1="640" x2="660" y1="180" y2="180" gradientTransform="matrix(1.5012 0 0 1.005 -790.78 -855.84)" gradientUnits="userSpaceOnUse" xlink:href="#linearGradient11"/></defs><g transform="translate(-640 -169.9)"><rect transform="rotate(90)" x="170" y="-660" width="30.024" height="20" fill="url(#linearGradient12)" opacity=".65"/><rect transform="scale(-1)" x="-655.12" y="-200.02" width="10.02" height="7.8016" fill="#ffffc8" stroke="#000" stroke-linecap="round" stroke-linejoin="round" stroke-width=".19844"/><rect transform="scale(-1)" x="-656.02" y="-197.12" width="11.822" height="2" fill="#c8c8c8" stroke="#000" stroke-linecap="round" stroke-linejoin="round" stroke-width=".198"/><rect transform="scale(-1)" x="-654.07" y="-199.45" width="7.9688" height="1.5014" fill="#32c832" stroke="#000" stroke-linecap="round" stroke-linejoin="round" stroke-width=".198"/><rect transform="scale(-1)" x="-653.57" y="-199.12" width=".90101" height=".82837" stroke="#000" stroke-linecap="round" stroke-linejoin="round" stroke-width=".198"/><rect transform="scale(-1)" x="-651.57" y="-199.12" width=".90101" height=".82837" stroke="#000" stroke-linecap="round" stroke-linejoin="round" stroke-width=".198"/><rect transform="scale(-1)" x="-649.57" y="-199.12" width=".90101" height=".82837" stroke="#000" stroke-linecap="round" stroke-linejoin="round" stroke-width=".198"/><rect transform="scale(-1)" x="-647.57" y="-199.12" width=".90101" height=".82837" stroke="#000" stroke-linecap="round" stroke-linejoin="round" stroke-width=".198"/><rect transform="scale(-1)" x="-654.07" y="-194.45" width="7.9688" height="1.5014" fill="#32c832" stroke="#000" stroke-linecap="round" stroke-linejoin="round" stroke-width=".198"/><rect transform="scale(-1)" x="-653.57" y="-194.12" width=".90101" height=".82837" stroke="#000" stroke-linecap="round" stroke-linejoin="round" stroke-width=".198"/><rect transform="scale(-1)" x="-651.57" y="-194.12" width=".90101" height=".82837" stroke="#000" stroke-linecap="round" stroke-linejoin="round" stroke-width=".198"/><rect transform="scale(-1)" x="-649.57" y="-194.12" width=".90101" height=".82837" stroke="#000" stroke-linecap="round" stroke-linejoin="round" stroke-width=".198"/><rect transform="scale(-1)" x="-647.57" y="-194.12" width=".90101" height=".82837" stroke="#000" stroke-linecap="round" stroke-linejoin="round" stroke-width=".198"/><rect transform="scale(-1)" x="-655.12" y="-190.02" width="10.02" height="7.8016" fill="#ffffc8" stroke="#000" stroke-linecap="round" stroke-linejoin="round" stroke-width=".19844"/><rect transform="scale(-1)" x="-656.02" y="-187.12" width="11.822" height="2" fill="#c8c8c8" stroke="#000" stroke-linecap="round" stroke-linejoin="round" stroke-width=".198"/><rect transform="scale(-1)" x="-654.07" y="-189.45" width="7.9688" height="1.5014" fill="#32c832" stroke="#000" stroke-linecap="round" stroke-linejoin="round" stroke-width=".198"/><rect transform="scale(-1)" x="-653.57" y="-189.12" width=".90101" height=".82837" stroke="#000" stroke-linecap="round" stroke-linejoin="round" stroke-width=".198"/><rect transform="scale(-1)" x="-651.57" y="-189.12" width=".90101" height=".82837" stroke="#000" stroke-linecap="round" stroke-linejoin="round" stroke-width=".198"/><rect transform="scale(-1)" x="-649.57" y="-189.12" width=".90101" height=".82837" stroke="#000" stroke-linecap="round" stroke-linejoin="round" stroke-width=".198"/><rect transform="scale(-1)" x="-647.57" y="-189.12" width=".90101" height=".82837" stroke="#000" stroke-linecap="round" stroke-linejoin="round" stroke-width=".198"/><rect transform="scale(-1)" x="-654.07" y="-184.45" width="7.9688" height="1.5014" fill="#32c832" stroke="#000" stroke-linecap="round" stroke-linejoin="round" stroke-width=".198"/><rect transform="scale(-1)" x="-653.57" y="-184.12" width=".90101" height=".82837" stroke="#000" stroke-linecap="round" stroke-linejoin="round" stroke-width=".198"/><rect transform="scale(-1)" x="-651.57" y="-184.12" width=".90101" height=".82837" stroke="#000" stroke-linecap="round" stroke-linejoin="round" stroke-width=".198"/><rect transform="scale(-1)" x="-649.57" y="-184.12" width=".90101" height=".82837" stroke="#000" stroke-linecap="round" stroke-linejoin="round" stroke-width=".198"/><rect transform="scale(-1)" x="-647.57" y="-184.12" width=".90101" height=".82837" stroke="#000" stroke-linecap="round" stroke-linejoin="round" stroke-width=".198"/><rect x="640.1" y="170" width="19.901" height="9.9008" fill="none" stroke="#000" stroke-linecap="round" stroke-linejoin="round" stroke-width=".19844"/><text x="650.18341" y="173.4799" fill="#000000" font-family="sans-serif" font-size="1.4111px" font-style="italic" stroke-linecap="round" stroke-linejoin="round" stroke-width=".19844" text-anchor="middle" xml:space="preserve"><tspan x="650.18341" y="173.4799" text-align="center">Noisy or </tspan><tspan x="650.18341" y="175.26013" text-align="center">high-current circuit</tspan><tspan x="650.18341" y="177.04034" text-align="center">(Driver, LDO etc.)</tspan></text><rect transform="rotate(90)" x="170" y="-685" width="30.024" height="20.099" fill="url(#linearGradient13)" opacity=".65"/><rect x="665" y="170" width="19.901" height="9.9008" fill="none" stroke="#000" stroke-linecap="round" stroke-linejoin="round" stroke-width=".19844"/><text x="675.08417" y="173.4799" fill="#000000" font-family="sans-serif" font-size="1.4111px" font-style="italic" stroke-linecap="round" stroke-linejoin="round" stroke-width=".19844" text-anchor="middle" xml:space="preserve"><tspan x="675.08417" y="173.4799" text-align="center">Noisy or </tspan><tspan x="675.08417" y="175.26013" text-align="center">high-current circuit</tspan><tspan x="675.08417" y="177.04034" text-align="center">(Driver, LDO etc.)</tspan></text><rect transform="rotate(-90)" x="-196.13" y="665.17" width="10.02" height="7.8016" fill="#ffffc8" stroke="#000" stroke-linecap="round" stroke-linejoin="round" stroke-width=".19844"/><rect transform="rotate(-90)" x="-197.03" y="668.07" width="11.822" height="2" fill="#c8c8c8" stroke="#000" stroke-linecap="round" stroke-linejoin="round" stroke-width=".198"/><rect transform="rotate(-90)" x="-195.08" y="665.81" width="7.9688" height="1.5014" fill="#32c832" stroke="#000" stroke-linecap="round" stroke-linejoin="round" stroke-width=".198"/><rect transform="rotate(-90)" x="-194.58" y="666.14" width=".90101" height=".82837" stroke="#000" stroke-linecap="round" stroke-linejoin="round" stroke-width=".198"/><rect transform="rotate(-90)" x="-192.58" y="666.14" width=".90101" height=".82837" stroke="#000" stroke-linecap="round" stroke-linejoin="round" stroke-width=".198"/><rect transform="rotate(-90)" x="-190.58" y="666.14" width=".90101" height=".82837" stroke="#000" stroke-linecap="round" stroke-linejoin="round" stroke-width=".198"/><rect transform="rotate(-90)" x="-188.58" y="666.14" width=".90101" height=".82837" stroke="#000" stroke-linecap="round" stroke-linejoin="round" stroke-width=".198"/><rect transform="rotate(-90)" x="-195.08" y="670.75" width="7.9688" height="1.5014" fill="#32c832" stroke="#000" stroke-linecap="round" stroke-linejoin="round" stroke-width=".198"/><rect transform="rotate(-90)" x="-194.58" y="671.07" width=".90101" height=".82837" stroke="#000" stroke-linecap="round" stroke-linejoin="round" stroke-width=".198"/><rect transform="rotate(-90)" x="-192.58" y="671.07" width=".90101" height=".82837" stroke="#000" stroke-linecap="round" stroke-linejoin="round" stroke-width=".198"/><rect transform="rotate(-90)" x="-190.58" y="671.07" width=".90101" height=".82837" stroke="#000" stroke-linecap="round" stroke-linejoin="round" stroke-width=".198"/><rect transform="rotate(-90)" x="-188.58" y="671.07" width=".90101" height=".82837" stroke="#000" stroke-linecap="round" stroke-linejoin="round" stroke-width=".198"/><rect transform="rotate(-90)" x="-196.13" y="676.98" width="10.02" height="7.8016" fill="#ffffc8" stroke="#000" stroke-linecap="round" stroke-linejoin="round" stroke-width=".19844"/><rect transform="rotate(-90)" x="-197.03" y="679.88" width="11.822" height="2" fill="#c8c8c8" stroke="#000" stroke-linecap="round" stroke-linejoin="round" stroke-width=".198"/><rect transform="rotate(-90)" x="-195.08" y="677.63" width="7.9688" height="1.5014" fill="#32c832" stroke="#000" stroke-linecap="round" stroke-linejoin="round" stroke-width=".198"/><rect transform="rotate(-90)" x="-194.58" y="677.96" width=".90101" height=".82837" stroke="#000" stroke-linecap="round" stroke-linejoin="round" stroke-width=".198"/><rect transform="rotate(-90)" x="-192.58" y="677.96" width=".90101" height=".82837" stroke="#000" stroke-linecap="round" stroke-linejoin="round" stroke-width=".198"/><rect transform="rotate(-90)" x="-190.58" y="677.96" width=".90101" height=".82837" stroke="#000" stroke-linecap="round" stroke-linejoin="round" stroke-width=".198"/><rect transform="rotate(-90)" x="-188.58" y="677.96" width=".90101" height=".82837" stroke="#000" stroke-linecap="round" stroke-linejoin="round" stroke-width=".198"/><rect transform="rotate(-90)" x="-195.08" y="682.55" width="7.9688" height="1.5014" fill="#32c832" stroke="#000" stroke-linecap="round" stroke-linejoin="round" stroke-width=".198"/><rect transform="rotate(-90)" x="-194.58" y="682.88" width=".90101" height=".82837" stroke="#000" stroke-linecap="round" stroke-linejoin="round" stroke-width=".198"/><rect transform="rotate(-90)" x="-192.58" y="682.88" width=".90101" height=".82837" stroke="#000" stroke-linecap="round" stroke-linejoin="round" stroke-width=".198"/><rect transform="rotate(-90)" x="-190.58" y="682.88" width=".90101" height=".82837" stroke="#000" stroke-linecap="round" stroke-linejoin="round" stroke-width=".198"/><rect transform="rotate(-90)" x="-188.58" y="682.88" width=".90101" height=".82837" stroke="#000" stroke-linecap="round" stroke-linejoin="round" stroke-width=".198"/></g></svg>
