<svg width="78.119mm" height="21.143mm" version="1.1" viewBox="0 0 78.119 21.143" xml:space="preserve" xmlns="http://www.w3.org/2000/svg"><g transform="translate(-649.08 -130.88)" stroke-linecap="round" stroke-linejoin="round"><rect transform="scale(-1)" x="-660.1" y="-147.88" width="10.02" height="7.8016" fill="#ffffc8" stroke="#000" stroke-width=".19844"/><rect transform="scale(-1)" x="-661" y="-144.98" width="11.822" height="2" fill="#c8c8c8" stroke="#000" stroke-width=".198"/><rect transform="scale(-1)" x="-659.08" y="-147.31" width="7.9688" height="1.5014" fill="#32c832" stroke="#000" stroke-width=".198"/><rect transform="scale(-1)" x="-658.55" y="-146.98" width=".90101" height=".82837" stroke="#000" stroke-width=".198"/><rect transform="scale(-1)" x="-656.55" y="-146.98" width=".90101" height=".82837" stroke="#000" stroke-width=".198"/><rect transform="scale(-1)" x="-654.55" y="-146.98" width=".90101" height=".82837" stroke="#000" stroke-width=".198"/><rect transform="scale(-1)" x="-652.55" y="-146.98" width=".90101" height=".82837" stroke="#000" stroke-width=".198"/><rect transform="scale(-1)" x="-659.08" y="-142.3" width="7.9688" height="1.5014" fill="#32c832" stroke="#000" stroke-width=".198"/><rect transform="scale(-1)" x="-658.55" y="-141.98" width=".90101" height=".82837" stroke="#000" stroke-width=".198"/><rect transform="scale(-1)" x="-656.55" y="-141.98" width=".90101" height=".82837" stroke="#000" stroke-width=".198"/><rect transform="scale(-1)" x="-654.55" y="-141.98" width=".90101" height=".82837" stroke="#000" stroke-width=".198"/><rect transform="scale(-1)" x="-652.55" y="-141.98" width=".90101" height=".82837" stroke="#000" stroke-width=".198"/><rect transform="rotate(-90)" x="-149.1" y="663.1" width="10.02" height="7.8016" fill="#ffffc8" stroke="#000" stroke-width=".19844"/><rect transform="rotate(-90)" x="-150" y="666" width="11.822" height="2" fill="#c8c8c8" stroke="#000" stroke-width=".198"/><rect transform="rotate(-90)" x="-148.05" y="663.67" width="7.9688" height="1.5014" fill="#32c832" stroke="#000" stroke-width=".198"/><rect transform="rotate(-90)" x="-147.55" y="664" width=".90101" height=".82837" stroke="#000" stroke-width=".198"/><rect transform="rotate(-90)" x="-145.55" y="664" width=".90101" height=".82837" stroke="#000" stroke-width=".198"/><rect transform="rotate(-90)" x="-143.55" y="664" width=".90101" height=".82837" stroke="#000" stroke-width=".198"/><rect transform="rotate(-90)" x="-141.55" y="664" width=".90101" height=".82837" stroke="#000" stroke-width=".198"/><rect transform="rotate(-90)" x="-148.05" y="668.67" width="7.9688" height="1.5014" fill="#32c832" stroke="#000" stroke-width=".198"/><rect transform="rotate(-90)" x="-147.55" y="669" width=".90101" height=".82837" stroke="#000" stroke-width=".198"/><rect transform="rotate(-90)" x="-145.55" y="669" width=".90101" height=".82837" stroke="#000" stroke-width=".198"/><rect transform="rotate(-90)" x="-143.55" y="669" width=".90101" height=".82837" stroke="#000" stroke-width=".198"/><rect transform="rotate(-90)" x="-141.55" y="669" width=".90101" height=".82837" stroke="#000" stroke-width=".198"/><rect transform="rotate(-90)" x="-149.1" y="680.1" width="10.02" height="7.8016" fill="#ffffc8" stroke="#000" stroke-width=".19844"/><rect transform="rotate(-90)" x="-150" y="683" width="11.822" height="2" fill="#c8c8c8" stroke="#000" stroke-width=".198"/><rect transform="rotate(-90)" x="-148.05" y="680.76" width="7.9688" height="1.5014" fill="#32c832" stroke="#000" stroke-width=".198"/><rect transform="rotate(-90)" x="-147.55" y="681.07" width=".90101" height=".82837" stroke="#000" stroke-width=".198"/><rect transform="rotate(-90)" x="-145.55" y="681.07" width=".90101" height=".82837" stroke="#000" stroke-width=".198"/><rect transform="rotate(-90)" x="-143.55" y="681.07" width=".90101" height=".82837" stroke="#000" stroke-width=".198"/><rect transform="rotate(-90)" x="-141.55" y="681.07" width=".90101" height=".82837" stroke="#000" stroke-width=".198"/><rect transform="rotate(-90)" x="-148.05" y="685.67" width="7.9688" height="1.5014" fill="#32c832" stroke="#000" stroke-width=".198"/><rect transform="rotate(-90)" x="-147.55" y="686" width=".90101" height=".82837" stroke="#000" stroke-width=".198"/><rect transform="rotate(-90)" x="-145.55" y="686" width=".90101" height=".82837" stroke="#000" stroke-width=".198"/><rect transform="rotate(-90)" x="-143.55" y="686" width=".90101" height=".82837" stroke="#000" stroke-width=".198"/><rect transform="rotate(-90)" x="-141.55" y="686" width=".90101" height=".82837" stroke="#000" stroke-width=".198"/><rect transform="rotate(-90)" x="-148.79" y="689.9" width="13.494" height="7.8016" fill="#ffffc8" stroke="#000" stroke-width=".19844"/><rect transform="rotate(-90)" x="-150" y="692.8" width="15.921" height="2" fill="#c8c8c8" stroke="#000" stroke-width=".198"/><rect transform="rotate(-90)" x="-148.11" y="690.6" width="12.032" height="1.5014" fill="#32c832" stroke="#000" stroke-width=".198"/><rect transform="rotate(-90)" x="-147.55" y="690.92" width=".90101" height=".82837" stroke="#000" stroke-width=".198"/><rect transform="rotate(-90)" x="-145.55" y="690.92" width=".90101" height=".82837" stroke="#000" stroke-width=".198"/><rect transform="rotate(-90)" x="-143.55" y="690.92" width=".90101" height=".82837" stroke="#000" stroke-width=".198"/><rect transform="rotate(-90)" x="-141.55" y="690.92" width=".90101" height=".82837" stroke="#000" stroke-width=".198"/><rect transform="rotate(-90)" x="-148.11" y="695.47" width="12.032" height="1.5014" fill="#32c832" stroke="#000" stroke-width=".198"/><rect transform="rotate(-90)" x="-147.55" y="695.8" width=".90101" height=".82837" stroke="#000" stroke-width=".198"/><rect transform="rotate(-90)" x="-145.55" y="695.8" width=".90101" height=".82837" stroke="#000" stroke-width=".198"/><rect transform="rotate(-90)" x="-143.55" y="695.8" width=".90101" height=".82837" stroke="#000" stroke-width=".198"/><rect transform="rotate(-90)" x="-141.55" y="695.8" width=".90101" height=".82837" stroke="#000" stroke-width=".198"/><rect transform="rotate(-90)" x="-139.62" y="690.93" width=".90101" height=".82837" stroke="#000" stroke-width=".198"/><rect transform="rotate(-90)" x="-137.62" y="690.93" width=".90101" height=".82837" stroke="#000" stroke-width=".198"/><rect transform="rotate(-90)" x="-139.62" y="695.81" width=".90101" height=".82837" stroke="#000" stroke-width=".198"/><rect transform="rotate(-90)" x="-137.62" y="695.81" width=".90101" height=".82837" stroke="#000" stroke-width=".198"/><rect transform="rotate(-90)" x="-149.1" y="707.1" width="10.02" height="7.8016" fill="#ffffc8" stroke="#000" stroke-width=".19844"/><rect transform="rotate(-90)" x="-150" y="710" width="11.822" height="2" fill="#c8c8c8" stroke="#000" stroke-width=".198"/><rect transform="rotate(-90)" x="-148.05" y="707.77" width="7.9688" height="1.5014" fill="#32c832" stroke="#000" stroke-width=".198"/><rect transform="rotate(-90)" x="-147.55" y="708.1" width=".90101" height=".82837" stroke="#000" stroke-width=".198"/><rect transform="rotate(-90)" x="-145.55" y="708.1" width=".90101" height=".82837" stroke="#000" stroke-width=".198"/><rect transform="rotate(-90)" x="-143.55" y="708.1" width=".90101" height=".82837" stroke="#000" stroke-width=".198"/><rect transform="rotate(-90)" x="-141.55" y="708.1" width=".90101" height=".82837" stroke="#000" stroke-width=".198"/><rect transform="rotate(-90)" x="-148.05" y="712.67" width="7.9688" height="1.5014" fill="#32c832" stroke="#000" stroke-width=".198"/><rect transform="rotate(-90)" x="-147.55" y="713" width=".90101" height=".82837" stroke="#000" stroke-width=".198"/><rect transform="rotate(-90)" x="-145.55" y="713" width=".90101" height=".82837" stroke="#000" stroke-width=".198"/><rect transform="rotate(-90)" x="-143.55" y="713" width=".90101" height=".82837" stroke="#000" stroke-width=".198"/><rect transform="rotate(-90)" x="-141.55" y="713" width=".90101" height=".82837" stroke="#000" stroke-width=".198"/><rect transform="rotate(-90)" x="-149.1" y="717.1" width="10.02" height="10" fill="#ffffc8" stroke="#000" stroke-width=".19844"/><rect transform="rotate(-90)" x="-150" y="720" width="11.822" height="4.0993" fill="#c8c8c8" stroke="#000" stroke-width=".198"/><rect transform="rotate(-90)" x="-148.03" y="717.77" width="7.9688" height="1.5014" fill="#32c832" stroke="#000" stroke-width=".198"/><rect transform="rotate(-90)" x="-147.53" y="718.1" width=".90101" height=".82837" stroke="#000" stroke-width=".198"/><rect transform="rotate(-90)" x="-145.53" y="718.1" width=".90101" height=".82837" stroke="#000" stroke-width=".198"/><rect transform="rotate(-90)" x="-143.53" y="718.1" width=".90101" height=".82837" stroke="#000" stroke-width=".198"/><rect transform="rotate(-90)" x="-141.53" y="718.1" width=".90101" height=".82837" stroke="#000" stroke-width=".198"/><rect transform="rotate(-90)" x="-148.08" y="724.89" width="7.9688" height="1.5014" fill="#32c832" stroke="#000" stroke-width=".198"/><rect transform="rotate(-90)" x="-147.58" y="725.22" width=".90101" height=".82837" stroke="#000" stroke-width=".198"/><rect transform="rotate(-90)" x="-145.58" y="725.22" width=".90101" height=".82837" stroke="#000" stroke-width=".198"/><rect transform="rotate(-90)" x="-143.58" y="725.22" width=".90101" height=".82837" stroke="#000" stroke-width=".198"/><rect transform="rotate(-90)" x="-141.58" y="725.22" width=".90101" height=".82837" stroke="#000" stroke-width=".198"/><text x="661.13306" y="131.95728" fill="none" font-family="Arial" font-size="1.4111px" font-weight="bold" stroke="#000000" stroke-width=".19844" xml:space="preserve"><tspan x="661.13306" y="131.95728" fill="#000000" font-family="sans-serif" font-style="italic" font-weight="normal" stroke="none" stroke-width=".19844" text-align="center" text-anchor="middle">Different orientation</tspan></text><text x="688.03247" y="131.97864" fill="none" font-family="Arial" font-size="1.4111px" font-weight="bold" stroke="#000000" stroke-width=".19844" xml:space="preserve"><tspan x="688.03247" y="131.97864" fill="#000000" font-family="sans-serif" font-style="italic" font-weight="normal" stroke="none" stroke-width=".19844" text-align="center" text-anchor="middle">Different width</tspan></text><text x="717.2309" y="131.95728" fill="none" font-family="Arial" font-size="1.4111px" font-weight="bold" stroke="#000000" stroke-width=".19844" xml:space="preserve"><tspan x="717.2309" y="131.95728" fill="#000000" font-family="sans-serif" font-style="italic" font-weight="normal" stroke="none" stroke-width=".19844" text-align="center" text-anchor="middle">Different length</tspan></text><text x="711" y="152" fill="none" font-family="Arial" font-size="1.4111px" font-weight="bold" stroke="#000000" stroke-width=".19844" xml:space="preserve"><tspan x="711" y="152" fill="#000000" font-family="sans-serif" font-weight="bold" stroke="none" stroke-width=".19844" text-align="center" text-anchor="middle">L</tspan></text><text x="722.17603" y="152" fill="none" font-family="Arial" font-size="1.4111px" font-weight="bold" stroke="#000000" stroke-width=".19844" xml:space="preserve"><tspan x="722.17603" y="152" fill="#000000" font-family="sans-serif" font-weight="bold" stroke="none" stroke-width=".19844" text-align="center" text-anchor="middle">2L</tspan></text><text x="684" y="152" fill="none" font-family="Arial" font-size="1.4111px" font-weight="bold" stroke="#000000" stroke-width=".19844" xml:space="preserve"><tspan x="684" y="152" fill="#000000" font-family="sans-serif" font-weight="bold" stroke="none" stroke-width=".19844" text-align="center" text-anchor="middle">W</tspan></text><text x="693.77704" y="152" fill="none" font-family="Arial" font-size="1.4111px" font-weight="bold" stroke="#000000" stroke-width=".19844" xml:space="preserve"><tspan x="693.77704" y="152" fill="#000000" font-family="sans-serif" font-weight="bold" stroke="none" stroke-width=".19844" text-align="center" text-anchor="middle">2W</tspan></text><text x="655" y="152" fill="none" font-family="Arial" font-size="1.4111px" font-weight="bold" stroke="#000000" stroke-width=".19844" xml:space="preserve"><tspan x="655" y="152" fill="#000000" font-family="sans-serif" font-weight="bold" stroke="none" stroke-width=".19844" text-align="center" text-anchor="middle">R90</tspan></text><text x="667.09259" y="152" fill="none" font-family="Arial" font-size="1.4111px" font-weight="bold" stroke="#000000" stroke-width=".19844" xml:space="preserve"><tspan x="667.09259" y="152" fill="#000000" font-family="sans-serif" font-weight="bold" stroke="none" stroke-width=".19844" text-align="center" text-anchor="middle">R0</tspan></text></g></svg>
