<svg width="6.0612mm" height="5.0889mm" version="1.1" viewBox="0 0 6.0612 5.0889" xml:space="preserve" xmlns="http://www.w3.org/2000/svg"><defs><style>.cls-1{fill:none;}</style></defs><g transform="translate(-144.87 -6.0854)"><path d="m149.01 7.9154h-0.16921c-0.13804 0-0.25381-0.11912-0.25381-0.2605 0-0.07126 0.0301-0.13582 0.0835-0.18368l0.10909-0.10687c0.10799-0.10687 0.10799-0.28165 0-0.38852l-0.24824-0.24603c-0.049-0.04898-0.12134-0.07793-0.19481-0.07793-0.0735 0-0.14472 0.02894-0.19481 0.07793l-0.10464 0.10464c-0.0501 0.05566-0.11689 0.08572-0.18925 0.08572-0.14248 0-0.26159-0.11578-0.26159-0.25271v-0.17033c0-0.15029-0.12134-0.27943-0.27274-0.27943h-0.3384c-0.15139 0-0.27162 0.12802-0.27162 0.27943v0.16921c0 0.13693-0.11911 0.25271-0.2616 0.25271-0.0712 0-0.13692-0.03006-0.18479-0.08238l-0.10798-0.10687c-0.049-0.05009-0.12134-0.07793-0.19481-0.07793-0.0735 0-0.14471 0.02894-0.19481 0.07793l-0.25046 0.24491c-0.10687 0.10687-0.10687 0.28165 0 0.38741l0.10464 0.10464c0.0557 0.05009 0.0868 0.11689 0.0868 0.18814 0 0.14249-0.11577 0.2605-0.25381 0.2605h-0.1692c-0.15251 0-0.28053 0.11912-0.28053 0.27052v0.33843c0 0.15029 0.12802 0.27052 0.28053 0.27052h0.1692c0.13804 0 0.25381 0.11912 0.25381 0.2605 0 0.07124-0.0312 0.13804-0.0868 0.18814l-0.10464 0.10353c-0.10687 0.10687-0.10687 0.28165 0 0.38741l0.24824 0.24714c0.049 0.05009 0.12133 0.07793 0.19481 0.07793 0.0735 0 0.14471-0.02894 0.1948-0.07793l0.10799-0.10687c0.0468-0.05232 0.11355-0.08238 0.18479-0.08238 0.14248 0 0.2616 0.11578 0.2616 0.25271v0.16921c0 0.15029 0.12022 0.27942 0.27273 0.27942h0.33841c0.15139 0 0.27162-0.12802 0.27162-0.27942v-0.16922c0-0.13693 0.11911-0.25271 0.2616-0.25271 0.0712 0 0.13803 0.03117 0.18924 0.08573l0.10464 0.10464c0.0501 0.04898 0.12134 0.07793 0.19481 0.07793 0.0735 0 0.14472-0.02895 0.19481-0.07793l0.24824-0.24714c0.10686-0.10687 0.10686-0.28165 0-0.38852l-0.10909-0.10687c-0.0534-0.04786-0.0835-0.11355-0.0835-0.18369 0-0.1425 0.11577-0.2605 0.25381-0.2605h0.1692c0.1514 0 0.25938-0.11912 0.25938-0.27052v-0.33954c2e-3 -0.1514-0.10575-0.27052-0.25715-0.27052z" fill="none" stroke="#000" stroke-width=".26458"/><path d="m147.51 7.9393c-0.10081 0-0.18917 9.7e-5 -0.26636 0.0013-0.0386 5.93e-4 -0.0741 0.0012-0.10734 0.0026-0.0333 0.0013-0.0642 0.0032-0.0926 0.0055-0.0283 0.0024-0.0546 0.0053-0.0784 9e-3s-0.0451 0.0084-0.0647 0.01369c-0.01 0.0026-0.0195 0.0054-0.0284 0.0085-9e-3 0.0031-0.017 0.0066-0.025 0.01026-8e-3 0.0036-0.0156 0.0074-0.0227 0.01155-7e-3 0.0041-0.0136 0.0089-0.0199 0.01369-6e-3 0.0047-0.0126 0.0096-0.0182 0.01497-5e-3 0.0054-0.0105 0.01111-0.0153 0.01711-5e-3 6e-3 -0.01 0.01212-0.0136 0.01882-4e-3 0.0067-8e-3 0.01397-0.0114 0.02139-7e-3 0.01483-0.0132 0.03081-0.0182 0.04876-5e-3 0.01794-9e-3 0.03766-0.0119 0.05902-3e-3 0.02135-6e-3 0.04465-7e-3 0.06971-2e-3 0.02506-3e-3 0.05177-3e-3 0.08084-2e-3 0.05812-2e-3 0.12467-2e-3 0.20059v1.822c0 0.07592 1.3e-4 0.14246 2e-3 0.20059 7.9e-4 0.02907 2e-3 0.0562 3e-3 0.08127 2e-3 0.02506 4e-3 0.04794 7e-3 0.06929s7e-3 0.04108 0.0119 0.05902c5e-3 0.01794 0.0111 0.03435 0.0182 0.04919 4e-3 0.0074 7e-3 0.01427 0.0114 0.02096 4e-3 0.0067 9e-3 0.01324 0.0136 0.01924 5e-3 6e-3 0.01 0.01175 0.0153 0.01711 6e-3 0.0054 0.0119 0.01022 0.0182 0.01497 6e-3 0.0047 0.0128 0.0091 0.0199 0.01326 7e-3 0.0041 0.0147 0.0083 0.0227 0.01198 8e-3 0.0036 0.0161 0.0067 0.025 0.0098 9e-3 0.0031 0.0186 0.0063 0.0284 9e-3 0.0197 0.0054 0.0409 0.0096 0.0647 0.01326 0.0238 0.0037 0.05 0.0066 0.0784 9e-3s0.0593 0.0042 0.0926 0.0055 0.0687 0.0024 0.10734 3e-3c0.0772 0.0012 0.16555 8.28e-4 0.26636 8.28e-4h2.4194c0.10082 0 0.18918 3.31e-4 0.26637-8.28e-4 0.0386-5.92e-4 0.0746-0.0017 0.10791-3e-3 0.0333-0.0013 0.0636-0.0032 0.092-0.0055 0.0284-0.0024 0.0546-0.0053 0.0784-9e-3s0.0456-0.0079 0.0653-0.01326c0.01-0.0026 0.0189-0.0059 0.0278-9e-3 9e-3 -0.0031 0.0176-0.0062 0.0256-0.0098s0.0156-0.0078 0.0227-0.01198c7e-3 -0.0041 0.0136-0.0085 0.0199-0.01326 6e-3 -0.0047 0.0121-0.0096 0.0176-0.01497 6e-3 -0.0054 0.0111-0.0111 0.0159-0.01711 5e-3 -6e-3 9e-3 -0.01255 0.0131-0.01924 4e-3 -0.0067 8e-3 -0.01354 0.0119-0.02096 7e-3 -0.01483 0.0127-0.03124 0.0176-0.04919 5e-3 -0.01794 9e-3 -0.03766 0.0119-0.05902 3e-3 -0.02135 6e-3 -0.04423 7e-3 -0.06929 2e-3 -0.02506 3e-3 -0.0522 4e-3 -0.08127 1e-3 -0.05812 1e-3 -0.12467 1e-3 -0.20059v-1.822c0-0.07592 4.4e-4 -0.14246-1e-3 -0.20059-7.9e-4 -0.02907-2e-3 -0.05577-4e-3 -0.08084-2e-3 -0.02506-4e-3 -0.04836-7e-3 -0.06971s-7e-3 -0.04108-0.0119-0.05902c-5e-3 -0.01794-0.0105-0.03393-0.0176-0.04876-4e-3 -0.0074-8e-3 -0.01469-0.0119-0.02139-4e-3 -0.0067-8e-3 -0.01281-0.0131-0.01882-5e-3 -6e-3 -0.0103-0.01175-0.0159-0.01711-5e-3 -0.0054-0.0113-0.01022-0.0176-0.01497-6e-3 -0.0047-0.0128-0.0095-0.0199-0.01369-7e-3 -0.0041-0.0147-0.0079-0.0227-0.01155-8e-3 -0.0036-0.0167-0.0071-0.0256-0.01026-9e-3 -0.0031-0.018-0.0059-0.0278-0.0085-0.0197-0.0054-0.0415-0.01-0.0653-0.01369-0.0238-0.0037-0.05-0.0066-0.0784-9e-3 -0.0283-0.0024-0.0587-0.0042-0.092-0.0055s-0.0693-2e-3 -0.10791-0.0026c-0.0772-0.0012-0.16555-0.0013-0.26637-0.0013z" fill="#fff" stroke="#000" stroke-linecap="round" stroke-linejoin="round" stroke-miterlimit="10" stroke-width=".39688" style="paint-order:stroke fill markers"/><text x="147.9138" y="9.2321558" fill="none" font-family="Inter" font-size="1.0583px" stroke="#000000" stroke-linecap="round" stroke-linejoin="round" stroke-miterlimit="10" stroke-width=".26458" text-align="center" text-anchor="middle" style="line-height:1.5;paint-order:stroke fill markers" xml:space="preserve"><tspan x="147.9138" y="9.2321558" fill="#000000" font-size="1.0583px" font-weight="bold" stroke="none" stroke-width=".26458">dc</tspan></text><text x="148.47475" y="10.566003" fill="none" font-family="Inter" font-size="1.0583px" stroke="#000000" stroke-linecap="round" stroke-linejoin="round" stroke-miterlimit="10" stroke-width=".26458" text-align="center" text-anchor="middle" style="line-height:1.5;paint-order:stroke fill markers" xml:space="preserve"><tspan x="148.47475" y="10.566003" fill="#000000" font-size="1.0583px" font-weight="bold" stroke="none" stroke-width=".26458">tran</tspan></text></g><style type="text/css">
	.st0{fill:#000000;}
</style></svg>
