<svg width="5.1198mm" height="5.1154mm" version="1.1" viewBox="0 0 5.1198 5.1154" xml:space="preserve" xmlns="http://www.w3.org/2000/svg"><defs><style>.cls-1{fill:none;}</style></defs><g transform="translate(-147.14 -64.639)" stroke="#000" stroke-linecap="round" stroke-linejoin="round" stroke-miterlimit="10"><g transform="matrix(.97101 0 0 .97019 110.4 41.54)" fill="none" stroke-width=".2726"><path d="m38.968 23.945c-1 0-1 0-1 1" style="paint-order:stroke fill markers"/><path d="m41.968 23.945c1 0 1 0 1 1v3" style="paint-order:stroke fill markers"/><path d="m41.968 28.945c1 0 1 0 1-1" style="paint-order:stroke fill markers"/><path d="m38.968 28.945c-1 0-1 0-1-1" style="paint-order:stroke fill markers"/><path d="m37.968 24.945v3" style="paint-order:stroke fill markers"/><path d="m38.968 23.945h3" style="paint-order:stroke fill markers"/><path d="m41.968 28.945h-3" style="paint-order:stroke fill markers"/></g><path d="m149.7 64.771v4.851" fill="#fff" stroke-width=".19844" style="paint-order:stroke fill markers"/><path d="m147.27 67.196h4.8551" fill="#fff" stroke-width=".19844" style="paint-order:stroke fill markers"/><path d="m150.44 65.5 1 1" fill="#fff" stroke-width=".26458" style="paint-order:stroke fill markers"/><path d="m151.44 65.5-1 1" fill="#fff" stroke-width=".26458" style="paint-order:stroke fill markers"/><path d="m148.5 67.685v1.4142" fill="#fff" stroke-width=".26458" style="paint-order:stroke fill markers"/><path d="m149.21 68.392h-1.4142" fill="#fff" stroke-width=".26458" style="paint-order:stroke fill markers"/><path d="m150.48 68.136h1" fill="#fff" stroke-width=".26458" style="paint-order:stroke fill markers"/><path d="m148 66h1" fill="#fff" stroke-width=".26458" style="paint-order:stroke fill markers"/><path d="m150.48 68.649h1" fill="#fff" stroke-width=".26458" style="paint-order:stroke fill markers"/></g><style type="text/css">
	.st0{fill:#000000;}
</style></svg>
