<svg width="6.2646mm" height="6.2646mm" version="1.1" viewBox="0 0 6.2646 6.2646" xml:space="preserve" xmlns="http://www.w3.org/2000/svg"><defs><style>.cls-1{fill:none;}</style></defs><g transform="translate(-145 -14.49)" fill="none" stroke="#000" stroke-linecap="round" stroke-linejoin="round"><path d="m146.89 15.755c-0.0778 0-0.14598 1.42e-4 -0.20557 0.0026-0.0298 0.0012-0.0573 0.0032-0.083 0.0059s-0.0495 0.0062-0.0714 0.01093c-0.0219 0.0047-0.0418 0.01106-0.0602 0.01867-0.0184 0.0075-0.0353 0.01673-0.0505 0.02766-8e-3 0.0055-0.0147 0.0116-0.0215 0.01801-7e-3 0.0066-0.0135 0.01311-0.0196 0.02059-6e-3 0.0074-0.0119 0.01525-0.0174 0.02382-5e-3 0.0086-0.0106 0.01794-0.0154 0.02766-5e-3 0.0098-0.01 0.01991-0.0138 0.03088-4e-3 0.01093-8e-3 0.02245-0.0119 0.03475-4e-3 0.01243-7e-3 0.02553-0.0103 0.03924-3e-3 0.01371-6e-3 0.02791-9e-3 0.0431-6e-3 0.03038-0.01 0.06425-0.0138 0.10101-4e-3 0.03679-7e-3 0.07655-9e-3 0.12032-2e-3 0.04378-4e-3 0.09147-5e-3 0.14285-1e-3 0.05138-2e-3 0.10642-3e-3 0.16601-1e-3 0.11916-1e-3 0.25552-1e-3 0.41117v1.2451c0 0.15564 8e-5 0.292 1e-3 0.41117 6.1e-4 0.05958 1e-3 0.11463 3e-3 0.16601 1e-3 0.05138 3e-3 0.09907 5e-3 0.14285 2e-3 0.04378 6e-3 0.08419 9e-3 0.12098 4e-3 0.03678 8e-3 0.06997 0.0138 0.10038 3e-3 0.0152 6e-3 0.0294 9e-3 0.0431 3e-3 0.01371 7e-3 0.02694 0.0103 0.03925 4e-3 0.01243 8e-3 0.02377 0.0119 0.03474 4e-3 0.01093 9e-3 0.02115 0.0138 0.03091 5e-3 0.0098 0.01 0.0191 0.0154 0.02766 6e-3 0.0086 0.0112 0.01636 0.0174 0.02382 6e-3 0.0074 0.0128 0.01482 0.0196 0.02124 7e-3 0.0066 0.0139 0.01202 0.0215 0.01737 0.0152 0.01093 0.0321 0.02007 0.0505 0.02766 0.0184 0.0075 0.0383 0.01379 0.0602 0.01867 0.0219 0.0047 0.0457 0.0089 0.0714 0.0116s0.0532 0.0045 0.083 0.0059c0.0555 0.0022 0.12018 0.0018 0.19142 0.0019h2.5045c0.0778 0 0.14565 5e-4 0.20524-0.0019 0.0298-0.0012 0.0576-0.0032 0.0833-0.0059s0.0495-0.0068 0.0714-0.0116 0.0418-0.01106 0.0602-0.01867c0.0184-0.0075 0.035-0.01673 0.0502-0.02766 8e-3 -0.0055 0.015-0.01092 0.0219-0.01737 7e-3 -0.0065 0.0135-0.01378 0.0196-0.02124 6e-3 -0.0074 0.0119-0.01525 0.0174-0.02382 5e-3 -0.0086 0.0106-0.01793 0.0154-0.02766 5e-3 -0.0098 0.01-0.0199 0.0138-0.03091 4e-3 -0.01093 8e-3 -0.02245 0.0119-0.03474 4e-3 -0.01243 7e-3 -0.02555 0.0103-0.03925 3e-3 -0.01371 6e-3 -0.02791 9e-3 -0.0431 5e-3 -0.03039 0.01-0.0636 0.0138-0.10038 4e-3 -0.03679 7e-3 -0.07721 9e-3 -0.12098 2e-3 -0.04378 4e-3 -0.09147 6e-3 -0.14285 1e-3 -0.05138 2e-3 -0.10642 3e-3 -0.16601 1e-3 -0.11281 1e-3 -0.24388 1e-3 -0.38929v-1.267c0-0.15565-7e-5 -0.292-1e-3 -0.41117-6e-4 -0.05958-1e-3 -0.11463-3e-3 -0.16601-1e-3 -0.05138-3e-3 -0.09907-6e-3 -0.14285-2e-3 -0.04378-6e-3 -0.08353-9e-3 -0.12032-4e-3 -0.03678-8e-3 -0.07063-0.0138-0.10101-3e-3 -0.0152-6e-3 -0.0294-9e-3 -0.0431-3e-3 -0.01371-7e-3 -0.02696-0.0103-0.03925-4e-3 -0.01242-8e-3 -0.02377-0.0119-0.03475-4e-3 -0.01092-9e-3 -0.02115-0.0138-0.03088-5e-3 -0.0098-0.01-0.01911-0.0154-0.02766-6e-3 -0.0086-0.0112-0.01636-0.0174-0.02382-6e-3 -0.0074-0.0128-0.01418-0.0196-0.02059-7e-3 -0.0065-0.0143-0.01257-0.0219-0.01801-0.0152-0.01093-0.0318-0.02007-0.0502-0.02766-0.0184-0.0075-0.0383-0.01379-0.0602-0.01867-0.0219-0.0048-0.0457-0.0082-0.0714-0.01093-0.0257-0.0027-0.0535-0.0045-0.0833-0.0059-0.0596-0.0025-0.12741-0.0026-0.20524-0.0026z" stroke-miterlimit="10" stroke-width=".26458" style="paint-order:stroke fill markers"/><path d="m147.13 15.623v-1" stroke-width=".26458" style="paint-order:markers stroke fill"/><path d="m148.13 15.623v-1" stroke-width=".26458" style="paint-order:markers stroke fill"/><path d="m149.13 15.623v-1" stroke-width=".26458" style="paint-order:markers stroke fill"/><path d="m147.13 20.623v-1" stroke-width=".26458" style="paint-order:markers stroke fill"/><path d="m148.13 20.623v-1" stroke-width=".26458" style="paint-order:markers stroke fill"/><path d="m149.13 20.623v-1" stroke-width=".26458" style="paint-order:markers stroke fill"/><path d="m146.13 18.618h-1" stroke-width=".26458" style="paint-order:markers stroke fill"/><path d="m146.13 17.62h-1" stroke-width=".26458" style="paint-order:markers stroke fill"/><path d="m146.13 16.623h-1" stroke-width=".26458" style="paint-order:markers stroke fill"/><path d="m151.13 18.618h-1" stroke-width=".26458" style="paint-order:markers stroke fill"/><path d="m151.13 17.62h-1" stroke-width=".26458" style="paint-order:markers stroke fill"/><path d="m151.13 16.623h-1" stroke-width=".26458" style="paint-order:markers stroke fill"/><path d="m147.55 16.656c-0.0483 0-0.0906 6.2e-5 -0.12761 8.42e-4 -0.0185 3.77e-4 -0.0358 7.9e-4 -0.0517 0.0016-0.0159 8.42e-4 -0.0305 2e-3 -0.0441 0.0035s-0.0261 0.0034-0.0376 0.0057c-0.0114 0.0024-0.0219 0.0053-0.0313 0.0087-5e-3 0.0017-9e-3 0.0035-0.0133 0.0054-4e-3 2e-3 -8e-3 0.0042-0.0122 0.0065-4e-3 0.0023-7e-3 0.0047-0.0106 0.0073-3e-3 0.0026-7e-3 0.0057-0.01 0.0087s-6e-3 0.0061-8e-3 0.0095c-3e-3 0.0034-5e-3 0.0071-7e-3 0.01088-2e-3 0.0038-4e-3 0.0077-6e-3 0.01197-2e-3 0.0043-4e-3 0.0089-5e-3 0.01361-3e-3 0.0094-6e-3 0.01988-9e-3 0.03129-2e-3 0.01141-4e-3 0.02369-6e-3 0.03728-1e-3 0.01358-3e-3 0.02841-4e-3 0.04435-8.4e-4 0.01594-1e-3 0.03293-2e-3 0.05142-7.3e-4 0.03698-5.2e-4 0.07931-5.2e-4 0.12761v1.1593c0 0.0483-2.1e-4 0.09063 5.2e-4 0.12761 3.8e-4 0.01849 1e-3 0.03576 2e-3 0.0517 8.5e-4 0.01594 2e-3 0.0305 4e-3 0.04408 1e-3 0.01358 3e-3 0.02614 6e-3 0.03755 2e-3 0.01141 5e-3 0.02186 9e-3 0.03129 2e-3 0.0047 4e-3 0.0091 5e-3 0.01333 2e-3 0.0043 4e-3 0.0084 6e-3 0.01224 2e-3 0.0038 5e-3 0.0075 7e-3 0.01088 3e-3 0.0034 5e-3 0.0065 8e-3 0.0095s6e-3 0.0058 0.01 0.0084c3e-3 0.0026 7e-3 0.0053 0.0106 0.0076 4e-3 0.0023 8e-3 0.0043 0.0122 0.0062 4e-3 2e-3 9e-3 4e-3 0.0133 0.0057 9e-3 0.0034 0.0199 0.0061 0.0313 0.0084 0.0114 0.0024 0.024 0.0042 0.0376 0.0057s0.0281 0.0027 0.0441 0.0035c0.0159 8.43e-4 0.0332 0.0015 0.0517 0.0019 0.037 7.38e-4 0.0793 8.43e-4 0.12761 8.43e-4h1.1591c0.0483 0 0.0906-6.2e-5 0.12761-8.43e-4 0.0185-3.77e-4 0.0355-0.0011 0.0514-0.0019 0.0159-8.42e-4 0.0308-0.0021 0.0444-0.0035 0.0136-0.0015 0.0261-0.0034 0.0375-0.0057 0.0114-0.0024 0.0216-0.0051 0.031-0.0084 5e-3 -0.0017 9e-3 -0.0037 0.0136-0.0057 4e-3 -2e-3 8e-3 -0.0039 0.012-0.0062s7e-3 -5e-3 0.0109-0.0076c3e-3 -0.0026 7e-3 -0.0054 0.01-0.0084s6e-3 -0.0061 8e-3 -0.0095c3e-3 -0.0034 5e-3 -0.0071 7e-3 -0.01088 2e-3 -0.0038 5e-3 -8e-3 6e-3 -0.01224 2e-3 -0.0043 4e-3 -0.0086 5e-3 -0.01333 3e-3 -0.0094 6e-3 -0.01988 9e-3 -0.03129 2e-3 -0.01141 4e-3 -0.02396 6e-3 -0.03755 1e-3 -0.01358 3e-3 -0.02814 4e-3 -0.04408 8.4e-4 -0.01594 1e-3 -0.03321 2e-3 -0.0517 7.3e-4 -0.03698 8.4e-4 -0.07931 8.4e-4 -0.12761v-1.1591c0-0.0483-6e-5 -0.09063-8.4e-4 -0.12761-3.8e-4 -0.01849-7.9e-4 -0.03548-2e-3 -0.05143-8.5e-4 -0.01594-2e-3 -0.03076-4e-3 -0.04435-1e-3 -0.01358-3e-3 -0.02586-6e-3 -0.03728-2e-3 -0.01141-5e-3 -0.02186-9e-3 -0.03129-2e-3 -0.0047-3e-3 -0.0094-5e-3 -0.01361-2e-3 -0.0043-4e-3 -0.0082-6e-3 -0.01197-2e-3 -0.0038-5e-3 -0.0075-7e-3 -0.01088-3e-3 -0.0034-5e-3 -0.0065-8e-3 -0.0095s-6e-3 -0.0061-0.01-0.0087c-3e-3 -0.0026-7e-3 -0.0051-0.0109-0.0073-4e-3 -0.0023-8e-3 -0.0045-0.012-0.0065s-9e-3 -0.0037-0.0136-0.0054c-9e-3 -0.0034-0.0196-0.0063-0.031-0.0087s-0.024-0.0042-0.0375-0.0057c-0.0136-0.0015-0.0284-0.0027-0.0444-0.0035-0.0159-8.42e-4 -0.0329-0.0013-0.0514-0.0016-0.037-7.37e-4 -0.0793-8.42e-4 -0.12761-8.42e-4z" stroke-miterlimit="10" stroke-width=".19844" style="paint-order:markers fill stroke"/></g><style type="text/css">
	.st0{fill:#000000;}
</style></svg>
