<svg width="7.1565mm" height="5.3067mm" version="1.1" viewBox="0 0 7.1565 5.3067" xml:space="preserve" xmlns="http://www.w3.org/2000/svg"><defs><style>.cls-1{fill:none;}</style></defs><g transform="translate(-144.99 -23.019)" fill="none" stroke="#000" stroke-linecap="round" stroke-linejoin="round"><path d="m150.97 25.693a1.5 1.5 0 0 1-1.5 1.5 1.5 1.5 0 0 1-1.5-1.5 1.5 1.5 0 0 1 1.5-1.5 1.5 1.5 0 0 1 1.5 1.5z" stroke-width=".265" style="paint-order:stroke markers fill"/><path d="m150.53 26.754 0.57181 0.57187" stroke-width=".265" style="paint-order:markers stroke fill"/><path d="m151.08 27.304 0.79948 0.75656" stroke-width=".52917" style="paint-order:markers stroke fill"/><path d="m146.07 24.121v1" stroke-width=".19844"/><path d="m146.07 25.121h0.59922v1" stroke-width=".19844"/><path d="m146.08 26.121h0.58944" stroke-width=".19844"/><path d="m146.67 26.121h0.40078v1" stroke-width=".19844"/><circle cx="147.07" cy="27.337" r=".21529" stroke-width=".19844"/><circle cx="148.02" cy="27.618" r=".21529" stroke-width=".19844"/><circle cx="145.85" cy="26.109" r=".21529" stroke-width=".19844"/><circle cx="146.07" cy="23.906" r=".21529" stroke-width=".19844"/><path d="m147.38 24.121v1" stroke-width=".19844"/><circle cx="147.38" cy="23.906" r=".21529" stroke-width=".19844"/><circle cx="146.25" cy="27.067" r=".21529" stroke-width=".19844"/><path d="m147.38 25.121h0.70248" stroke-width=".19844"/><path d="m146.12 23.151c-1 0-1 0-1 1" stroke-miterlimit="10" stroke-width=".26458" style="paint-order:stroke fill markers"/><path d="m149.12 23.151c1 0 1 0 1 1" stroke-miterlimit="10" stroke-width=".26458" style="paint-order:stroke fill markers"/><path d="m149.12 28.151c1 0 1 0 1-1" stroke-miterlimit="10" stroke-width=".26458" style="paint-order:stroke fill markers"/><path d="m146.12 28.151c-1 0-1 0-1-1" stroke-miterlimit="10" stroke-width=".26458" style="paint-order:stroke fill markers"/><path d="m145.12 24.151v3" stroke-miterlimit="10" stroke-width=".26458" style="paint-order:stroke fill markers"/><path d="m146.12 23.151h3" stroke-miterlimit="10" stroke-width=".26458" style="paint-order:stroke fill markers"/><path d="m149.12 28.151h-3" stroke-miterlimit="10" stroke-width=".26458" style="paint-order:stroke fill markers"/><path d="m150.12 24.121v0.2205" stroke-miterlimit="10" stroke-width=".26458" style="paint-order:stroke fill markers"/><path d="m148.02 26.79v0.61239" stroke-miterlimit="10" stroke-width=".19844" style="paint-order:stroke fill markers"/><path d="m148.02 26.79h0.42528" stroke-miterlimit="10" stroke-width=".19844" style="paint-order:stroke fill markers"/></g><style type="text/css">
	.st0{fill:#000000;}
</style></svg>
