<svg width="5.2646mm" height="6.1635mm" version="1.1" viewBox="0 0 5.2646 6.1635" xml:space="preserve" xmlns="http://www.w3.org/2000/svg"><defs><style>.cls-1{fill:none;}</style><marker id="RoundedArrow-6-8-6-7-6-6-7-1-7-5-7-1" overflow="visible" markerHeight="0.5" markerWidth="0.5" orient="auto-start-reverse" preserveAspectRatio="xMidYMid" viewBox="0 0 1 1"><path transform="scale(.7)" d="m-0.21115-4.1056 6.4223 3.2111a1 1 90 0 1 0 1.7889l-6.4223 3.2111a1.2361 1.2361 31.717 0 1-1.7889-1.1056v-6a1.2361 1.2361 148.28 0 1 1.7889-1.1056z" fill="context-stroke" fill-rule="evenodd"/></marker><marker id="RoundedArrow-6-8-6-7-6-6-7-1-7-3-9-0-0" overflow="visible" markerHeight="0.5" markerWidth="0.5" orient="auto-start-reverse" preserveAspectRatio="xMidYMid" viewBox="0 0 1 1"><path transform="scale(.7)" d="m-0.21115-4.1056 6.4223 3.2111a1 1 90 0 1 0 1.7889l-6.4223 3.2111a1.2361 1.2361 31.717 0 1-1.7889-1.1056v-6a1.2361 1.2361 148.28 0 1 1.7889-1.1056z" fill="context-stroke" fill-rule="evenodd"/></marker></defs><g transform="translate(-186.8 -29.633)" stroke="#000" stroke-linecap="round" stroke-linejoin="round" stroke-miterlimit="10"><path d="m186.93 30.766v3.8989" fill="#fff" stroke-width=".26458" style="paint-order:stroke fill markers"/><path d="m187.93 29.766c-0.86771 0-1 0.17615-1 1" fill="none" stroke-width=".26458" style="paint-order:stroke fill markers"/><path d="m187.93 35.665c-0.86771 0-1-0.17615-1-1" fill="none" stroke-width=".26458" style="paint-order:stroke fill markers"/><path d="m190.42 30.277c0 0.8677 0.17615 1 1 1" fill="none" stroke-width=".26458" style="paint-order:stroke fill markers"/><path d="m190.93 35.665c0.8677 0 1-0.17615 1-1" fill="none" stroke-width=".26458" style="paint-order:stroke fill markers"/><path d="m187.93 35.665h3.0024" fill="none" stroke-width=".26458" style="paint-order:stroke fill markers"/><path d="m187.93 29.766h2.4889l1.5111 1.5111v3.8024" fill="none" stroke-width=".26458" style="paint-order:stroke fill markers"/><path d="m191.93 31.277h-0.54629" fill="none" stroke-width=".26458" style="paint-order:stroke fill markers"/><path d="m190.42 29.766v0.51113" fill="none" stroke-width=".26458" style="paint-order:stroke fill markers"/><path d="m187.94 32.182v1.0669" stroke-width=".18521" style="paint-order:stroke fill markers"/><path d="m188.2 32.182v1.0669" stroke-width=".18521" style="paint-order:stroke fill markers"/><path d="m188.2 32.182h0.60624" stroke-width=".18521" style="paint-order:stroke fill markers"/><path d="m188.2 33.249h0.39038" marker-end="url(#RoundedArrow-6-8-6-7-6-6-7-1-7-5-7-1)" stroke-width=".18521" style="paint-order:stroke fill markers"/><path d="m187.49 32.715h0.45221" stroke-width=".18521" style="paint-order:stroke fill markers"/><path d="m188.81 32.182v-0.44669" stroke-width=".18521" style="paint-order:stroke fill markers"/><path d="m188.88 33.273v0.40476" stroke-width=".18521" style="paint-order:stroke fill markers"/><path d="m190.86 32.182v1.0669" stroke-width=".18521" style="paint-order:stroke fill markers"/><path d="m190.6 32.182v1.0669" stroke-width=".18521" style="paint-order:stroke fill markers"/><path d="m190.6 32.182h-0.60624" stroke-width=".18521" style="paint-order:stroke fill markers"/><path d="m190.6 33.249h-0.39038" marker-end="url(#RoundedArrow-6-8-6-7-6-6-7-1-7-3-9-0-0)" stroke-width=".18521" style="paint-order:stroke fill markers"/><path d="m191.31 32.715h-0.45221" stroke-width=".18521" style="paint-order:stroke fill markers"/><path d="m189.99 32.182v-0.44669" stroke-width=".18521" style="paint-order:stroke fill markers"/><path d="m189.92 33.273v0.40476" stroke-width=".18521" style="paint-order:stroke fill markers"/></g><style type="text/css">
	.st0{fill:#000000;}
</style></svg>
