<svg width="5.265mm" height="5.2283mm" version="1.1" viewBox="0 0 5.265 5.2283" xml:space="preserve" xmlns="http://www.w3.org/2000/svg"><defs><style>.cls-1{fill:none;}</style></defs><g transform="translate(-146.84 -56.621)" stroke="#000" stroke-linecap="round" stroke-linejoin="round" stroke-miterlimit="10"><path d="m147.81 56.753c-0.10419 0-0.1954 1.88e-4 -0.27516 0.0034-0.0399 0.0016-0.0767 0.0042-0.1111 0.0078s-0.0663 0.0082-0.0956 0.01452c-0.0293 0.0063-0.0559 0.0147-0.0805 0.02481-0.0246 0.01-0.0473 0.02223-0.0676 0.03676-0.0102 0.0073-0.0197 0.01542-0.0289 0.02393-9e-3 0.0087-0.018 0.01742-0.0263 0.02736-8e-3 0.0098-0.0159 0.02027-0.0233 0.03165-7e-3 0.01143-0.0142 0.02384-0.0207 0.03676-7e-3 0.01307-0.0128 0.02646-0.0185 0.04104-6e-3 0.01452-0.011 0.02983-0.0159 0.04618-5e-3 0.01652-0.01 0.03393-0.0138 0.05215-4e-3 0.01822-8e-3 0.03709-0.0121 0.05727-7e-3 0.04037-0.0134 0.08538-0.0185 0.13423-5e-3 0.04888-9e-3 0.10173-0.0125 0.15989-3e-3 0.05818-5e-3 0.12154-7e-3 0.18982-2e-3 0.06827-3e-3 0.14141-4e-3 0.2206-2e-3 0.15834-2e-3 0.33955-2e-3 0.54637v1.6545c0 0.20682 1e-4 0.38802 2e-3 0.54637 8.1e-4 0.07917 2e-3 0.15232 4e-3 0.2206 2e-3 0.06827 4e-3 0.13165 7e-3 0.18982 3e-3 0.05818 7e-3 0.11187 0.0125 0.16076 5e-3 0.04888 0.0112 0.09298 0.0185 0.13339 4e-3 0.0202 8e-3 0.03907 0.0121 0.05727 4e-3 0.01822 9e-3 0.0358 0.0138 0.05215 5e-3 0.01652 0.0102 0.03158 0.0159 0.04616 6e-3 0.01452 0.012 0.02811 0.0185 0.04107 6e-3 0.01307 0.0133 0.02538 0.0207 0.03676 7e-3 0.01143 0.015 0.02174 0.0233 0.03165 8e-3 0.0098 0.0171 0.01969 0.0263 0.02822 9e-3 0.0087 0.0187 0.01597 0.0289 0.02308 0.0203 0.01452 0.043 0.02667 0.0676 0.03676 0.0246 0.01 0.0512 0.01833 0.0805 0.02481 0.0293 0.0063 0.0612 0.01179 0.0956 0.01542 0.0344 0.0036 0.0712 6e-3 0.1111 0.0078 0.0743 0.0029 0.16086 0.0024 0.25622 0.0025h3.3524c0.10419 0 0.19497 6.65e-4 0.27473-0.0025 0.0399-0.0016 0.0772-0.0042 0.11153-0.0078 0.0344-0.0036 0.0663-0.0091 0.0956-0.01542 0.0293-0.0064 0.0559-0.0147 0.0805-0.02481 0.0246-0.01 0.0468-0.02223 0.0672-0.03676 0.0102-0.0073 0.0201-0.01451 0.0293-0.02308 9e-3 -0.0087 0.018-0.01831 0.0263-0.02822 8e-3 -0.0098 0.0159-0.02027 0.0233-0.03165 7e-3 -0.01143 0.0142-0.02383 0.0207-0.03676 6e-3 -0.01306 0.0128-0.02645 0.0185-0.04107 6e-3 -0.01452 0.011-0.02983 0.0159-0.04616 5e-3 -0.01651 0.01-0.03395 0.0138-0.05215 4e-3 -0.01822 8e-3 -0.03709 0.0121-0.05727 7e-3 -0.04038 0.0134-0.08451 0.0185-0.13339 5e-3 -0.04888 9e-3 -0.1026 0.0125-0.16076 3e-3 -0.05818 6e-3 -0.12154 7e-3 -0.18982 2e-3 -0.06827 3e-3 -0.14141 4e-3 -0.2206 1e-3 -0.14991 2e-3 -0.32407 2e-3 -0.5173v-1.6836c0-0.20682-1e-4 -0.38802-2e-3 -0.54637-8.1e-4 -0.07917-2e-3 -0.15232-4e-3 -0.2206-2e-3 -0.06827-4e-3 -0.13165-7e-3 -0.18982-3e-3 -0.05818-7e-3 -0.111-0.0125-0.15989-5e-3 -0.04888-0.0112-0.09385-0.0185-0.13423-4e-3 -0.0202-8e-3 -0.03907-0.0121-0.05727-4e-3 -0.01822-9e-3 -0.03582-0.0138-0.05215-5e-3 -0.01651-0.0102-0.03159-0.0159-0.04618-6e-3 -0.01451-0.012-0.02811-0.0185-0.04104-7e-3 -0.01307-0.0133-0.02539-0.0207-0.03676-7e-3 -0.01143-0.015-0.02174-0.0233-0.03165-8e-3 -0.0098-0.0171-0.01884-0.0263-0.02736-9e-3 -0.0087-0.0191-0.0167-0.0293-0.02393-0.0203-0.01452-0.0426-0.02667-0.0672-0.03676-0.0246-0.01-0.0512-0.01833-0.0805-0.02481-0.0293-0.0064-0.0612-0.01089-0.0956-0.01452-0.0344-0.0036-0.0717-6e-3 -0.11153-0.0078-0.0798-0.0033-0.17054-0.0034-0.27473-0.0034z" fill="none" stroke-width=".26458" style="paint-order:stroke fill markers"/><rect x="147.52" y="58.356" width="3.9092" height="1.6884" fill="#fff" stroke-width=".26458" style="paint-order:stroke fill markers"/><rect transform="scale(1,-1)" x="150.06" y="-60.471" width=".40793" height="2.5403" fill="#fff" stroke-width=".26458" style="paint-order:stroke fill markers"/><rect transform="scale(-1)" x="-148.94" y="-60.471" width=".40793" height="2.5403" fill="#fff" stroke-width=".26458" style="paint-order:stroke fill markers"/><rect x="147.74" y="58.536" width=".37569" height=".37765" stroke-width=".066146" style="paint-order:stroke fill markers"/><rect x="147.73" y="59.444" width=".37569" height=".37765" stroke-width=".066146" style="paint-order:stroke fill markers"/><rect x="150.86" y="58.536" width=".37569" height=".37765" stroke-width=".066146" style="paint-order:stroke fill markers"/><rect x="150.85" y="59.444" width=".37569" height=".37765" stroke-width=".066146" style="paint-order:stroke fill markers"/><rect x="149.3" y="58.536" width=".37569" height=".37765" stroke-width=".066146" style="paint-order:stroke fill markers"/><rect x="149.29" y="59.444" width=".37569" height=".37765" stroke-width=".066146" style="paint-order:stroke fill markers"/></g><style type="text/css">
	.st0{fill:#000000;}
</style></svg>
