<svg width="6.4586mm" height="5.2646mm" version="1.1" viewBox="0 0 6.4586 5.2646" xml:space="preserve" xmlns="http://www.w3.org/2000/svg"><defs><style>.cls-1{fill:none;}</style></defs><g transform="translate(-147.9 -35.868)"><path d="m149.03 36c-1 0-1 0-1 1" fill="none" stroke="#000" stroke-linecap="round" stroke-linejoin="round" stroke-miterlimit="10" stroke-width=".26458" style="paint-order:stroke fill markers"/><path d="m152.03 36c1 0 1 0 1 1v3" fill="none" stroke="#000" stroke-linecap="round" stroke-linejoin="round" stroke-miterlimit="10" stroke-width=".26458" style="paint-order:stroke fill markers"/><path d="m152.03 41c1 0 1 0 1-1" fill="none" stroke="#000" stroke-linecap="round" stroke-linejoin="round" stroke-miterlimit="10" stroke-width=".26458" style="paint-order:stroke fill markers"/><path d="m149.03 41c-1 0-1 0-1-1" fill="none" stroke="#000" stroke-linecap="round" stroke-linejoin="round" stroke-miterlimit="10" stroke-width=".26458" style="paint-order:stroke fill markers"/><path d="m148.03 37v3" fill="none" stroke="#000" stroke-linecap="round" stroke-linejoin="round" stroke-miterlimit="10" stroke-width=".26458" style="paint-order:stroke fill markers"/><path d="m149.03 36h3" fill="none" stroke="#000" stroke-linecap="round" stroke-linejoin="round" stroke-miterlimit="10" stroke-width=".26458" style="paint-order:stroke fill markers"/><path d="m152.03 41h-3" fill="none" stroke="#000" stroke-linecap="round" stroke-linejoin="round" stroke-miterlimit="10" stroke-width=".26458" style="paint-order:stroke fill markers"/><path d="m149.03 36v5" fill="#a0a0a0" stroke="#000" stroke-linecap="round" stroke-linejoin="round" stroke-miterlimit="10" stroke-width=".19844" style="paint-order:stroke fill markers"/><path d="m148 36.967h2.0331" fill="#a0a0a0" stroke="#000" stroke-linecap="round" stroke-linejoin="round" stroke-miterlimit="10" stroke-width=".19844" style="paint-order:stroke fill markers"/><path d="m148.03 38h5" fill="#a0a0a0" stroke="#000" stroke-linecap="round" stroke-linejoin="round" stroke-miterlimit="10" stroke-width=".19844" style="paint-order:stroke fill markers"/><path d="m148.03 39h5" fill="#a0a0a0" stroke="#000" stroke-linecap="round" stroke-linejoin="round" stroke-miterlimit="10" stroke-width=".19844" style="paint-order:stroke fill markers"/><path d="m148.03 40h5" fill="#a0a0a0" stroke="#000" stroke-linecap="round" stroke-linejoin="round" stroke-miterlimit="10" stroke-width=".19844" style="paint-order:stroke fill markers"/><path d="m150.03 36v5" fill="#a0a0a0" stroke="#000" stroke-linecap="round" stroke-linejoin="round" stroke-miterlimit="10" stroke-width=".19844" style="paint-order:stroke fill markers"/><path d="m151.33 36.848c-0.0917 0-0.17213 1.17e-4 -0.24237 0.0016-0.0351 7.16e-4 -0.0679 0.0015-0.0982 0.0031s-0.0579 0.0039-0.0837 0.0067c-0.0258 0.0029-0.0496 0.0064-0.0713 0.01085-0.0217 0.0045-0.0415 0.01009-0.0594 0.01654-9e-3 0.0032-0.0172 0.0066-0.0253 0.01033-8e-3 0.0038-0.016 8e-3 -0.0232 0.0124-7e-3 0.0044-0.0137 0.0089-0.0202 0.01395-6e-3 5e-3 -0.0129 0.0108-0.0186 0.01654-6e-3 0.0057-0.011 0.01161-0.016 0.01809-5e-3 0.0065-0.01 0.01341-0.014 0.02067-4e-3 0.0073-9e-3 0.01465-0.0124 0.02274-4e-3 0.0081-7e-3 0.01688-0.0103 0.02584-6e-3 0.01792-0.0121 0.03775-0.0165 0.05943-5e-3 0.02168-8e-3 0.045-0.0109 0.0708-3e-3 0.0258-5e-3 0.05395-7e-3 0.08423s-3e-3 0.06255-4e-3 0.09767c-1e-3 0.07023-1e-3 0.15063-1e-3 0.24236v2.2014c0 0.09173-3.9e-4 0.17213 1e-3 0.24236 7.2e-4 0.03512 2e-3 0.06791 4e-3 0.09819s4e-3 0.05792 7e-3 0.08372 6e-3 0.04964 0.0109 0.07131c5e-3 0.02168 0.0101 0.04151 0.0165 0.05943 3e-3 9e-3 7e-3 0.01724 0.0103 0.02532 4e-3 0.0081 8e-3 0.016 0.0124 0.02325 4e-3 0.0073 9e-3 0.0142 0.014 0.02067 5e-3 0.0065 0.0103 0.01235 0.016 0.01809 6e-3 0.0057 0.0121 0.01098 0.0186 0.01602 6e-3 5e-3 0.0129 0.01008 0.0202 0.01447 7e-3 0.0044 0.0152 0.0081 0.0232 0.01188 8e-3 0.0038 0.0164 0.0076 0.0253 0.01085 0.0179 0.0064 0.0377 0.01154 0.0594 0.01602 0.0217 0.0045 0.0455 8e-3 0.0713 0.01085 0.0258 0.0029 0.0534 0.0051 0.0837 0.0067s0.0631 0.0029 0.0982 0.0036c0.0702 0.0014 0.15064 0.0016 0.24237 0.0016h2.2014c0.0917 0 0.17213-1.17e-4 0.24236-0.0016 0.0351-7.17e-4 0.0674-2e-3 0.0977-0.0036s0.0584-0.0039 0.0842-0.0067c0.0258-0.0029 0.0496-0.0064 0.0713-0.01085 0.0217-0.0045 0.041-0.0096 0.0589-0.01602 9e-3 -0.0032 0.0178-0.0071 0.0258-0.01085 8e-3 -0.0038 0.0155-0.0075 0.0227-0.01188 7e-3 -0.0044 0.0142-0.0094 0.0207-0.01447 6e-3 -5e-3 0.0129-0.01029 0.0186-0.01602 6e-3 -0.0057 0.011-0.01162 0.016-0.01809 5e-3 -0.0065 0.01-0.01341 0.014-0.02067 4e-3 -0.0073 9e-3 -0.01517 0.0124-0.02325 4e-3 -0.0081 7e-3 -0.01636 0.0103-0.02532 6e-3 -0.01792 0.0121-0.03775 0.0165-0.05943 5e-3 -0.02168 8e-3 -0.04551 0.0109-0.07131 3e-3 -0.0258 5e-3 -0.05344 7e-3 -0.08372s2e-3 -0.06307 3e-3 -0.09819c1e-3 -0.07023 2e-3 -0.15063 2e-3 -0.24236v-2.2015c0-0.09173-1.1e-4 -0.17213-2e-3 -0.24236-7.1e-4 -0.03512-1e-3 -0.06739-3e-3 -0.09767s-4e-3 -0.05843-7e-3 -0.08423-6e-3 -0.04912-0.0109-0.0708c-5e-3 -0.02168-0.0101-0.04151-0.0165-0.05943-3e-3 -9e-3 -7e-3 -0.01775-0.0103-0.02584-4e-3 -0.0081-8e-3 -0.01548-0.0124-0.02274-4e-3 -0.0073-9e-3 -0.0142-0.014-0.02067-5e-3 -0.0065-0.0103-0.01235-0.016-0.01809-6e-3 -0.0057-0.0121-0.0115-0.0186-0.01654-6e-3 -5e-3 -0.0134-0.0096-0.0207-0.01395-7e-3 -0.0044-0.0147-0.0086-0.0227-0.0124s-0.0169-0.0071-0.0258-0.01033c-0.0179-0.0065-0.0372-0.01206-0.0589-0.01654-0.0217-0.0045-0.0455-8e-3 -0.0713-0.01085-0.0258-0.0029-0.054-0.0051-0.0842-0.0067-0.0303-0.0016-0.0625-0.0024-0.0977-0.0031-0.0702-0.0014-0.15063-0.0016-0.24236-0.0016z" fill="#fff" stroke="#000" stroke-linecap="round" stroke-linejoin="round" stroke-miterlimit="10" stroke-width=".19844" style="paint-order:markers fill stroke"/><g transform="matrix(.11099 0 0 .11099 151.05 37.35)" stroke-width="79.46"><path d="m4.323 16.25c-1.193-0.896-2.683-1.94-4.323-3.13l5.814-2.237 2.386 1.79c-1.79 2.086-2.982 2.831-3.877 3.577zm15.952-6.261c-0.447-1.193-0.745-2.385-1.193-3.578-0.447-1.343-0.894-2.535-1.64-3.579-0.299-0.447-0.895-1.49-1.64-1.49-0.15 0-0.299 0.148-0.448 0.148-0.447 0.15-1.043 1.043-1.193 1.64-0.447 0.745-1.342 1.938-1.938 2.683-0.149 0.299-0.447 0.597-0.596 0.746-0.447 0.298-0.894 0.745-1.491 1.043-0.15 0-0.298 0.149-0.447 0.149-0.447 0-0.745 0.298-1.043 0.447-0.447 0.447-0.894 1.043-1.342 1.49 0 0.15-0.15 0.299-0.298 0.448l2.236 1.64c1.64-1.938 3.578-3.876 4.92-7.603 0 0-0.448 4.026-4.026 8.349-2.236 2.534-4.025 3.876-4.324 4.174 0 0 0.597-0.149 1.194 0.15 1.193 0.446 1.789 2.087 2.236 3.279 0.298 0.894 0.745 1.64 1.043 2.534 1.193-0.298 1.938-0.745 2.683-1.491s1.491-1.64 2.236-2.385c1.342-1.64 2.982-3.728 5.069-2.684 0.298 0.15 0.745 0.447 0.894 0.596 0.447 0.298 0.745 0.596 1.193 1.043 0.745 0.597 1.043 1.044 1.64 1.343-1.491-2.982-2.534-5.964-3.727-9.094z" stroke-width="79.46"/></g></g><style type="text/css">
	.st0{fill:#000000;}
</style></svg>
