<svg width="5.9463mm" height="5.8566mm" version="1.1" viewBox="0 0 5.9463 5.8566" xml:space="preserve" xmlns="http://www.w3.org/2000/svg"><defs><style>.cls-1{fill:none;}</style></defs><g transform="translate(-148.43 -81.227)"><g transform="matrix(.98708 0 0 .73385 111.11 64.724)" fill="none" stroke="#000" stroke-linecap="round" stroke-linejoin="round" stroke-miterlimit="10" stroke-width=".31087"><path d="m38.968 23.945c-1 0-1 0-1 1" style="paint-order:stroke fill markers"/><path d="m41.968 23.945c1 0 1 0 1 1v3" style="paint-order:stroke fill markers"/><path d="m41.968 28.945c1 0 1 0 1-1" style="paint-order:stroke fill markers"/><path d="m38.968 28.945c-1 0-1 0-1-1" style="paint-order:stroke fill markers"/><path d="m37.968 24.945v3" style="paint-order:stroke fill markers"/><path d="m38.968 23.945h3" style="paint-order:stroke fill markers"/><path d="m41.968 28.945h-3" style="paint-order:stroke fill markers"/></g><path d="m149.52 86.965h3" fill="none" stroke="#000" stroke-linecap="round" stroke-linejoin="round" stroke-miterlimit="10" stroke-width=".2376" style="paint-order:stroke fill markers"/><path d="m151.02 86.965v-1" fill="none" stroke="#000" stroke-linecap="round" stroke-linejoin="round" stroke-miterlimit="10" stroke-width=".2376" style="paint-order:stroke fill markers"/><path d="m149.51 84.178c0.16093 1.3294 0.27623 1.4059 0.42552 0" fill="none" stroke="#000" stroke-linecap="round" stroke-linejoin="round" stroke-miterlimit="10" stroke-width=".18521" style="paint-order:stroke fill markers"/><path d="m149.09 84.153c0.16093-1.3294 0.27623-1.4059 0.42552 0" fill="none" stroke="#000" stroke-linecap="round" stroke-linejoin="round" stroke-miterlimit="10" stroke-width=".18521" style="paint-order:stroke fill markers"/><path d="m150.36 84.202c0.16093 1.3294 0.27623 1.4059 0.42552 0" fill="none" stroke="#000" stroke-linecap="round" stroke-linejoin="round" stroke-miterlimit="10" stroke-width=".18521" style="paint-order:stroke fill markers"/><path d="m149.94 84.178c0.16093-1.3294 0.27624-1.4059 0.42553 0" fill="none" stroke="#000" stroke-linecap="round" stroke-linejoin="round" stroke-miterlimit="10" stroke-width=".18521" style="paint-order:stroke fill markers"/><ellipse cx="152.92" cy="82.672" rx="1.2549" ry="1.2462" fill="#fff" stroke="#000" stroke-linecap="round" stroke-linejoin="round" stroke-miterlimit="10" stroke-width=".39688" style="paint-order:stroke fill markers"/><path d="m152.92 81.912a0.89089 0.89089 0 0 0-0.89089 0.89089 0.89089 0.89089 0 0 0 0.0512 0.29436 0.79784 0.79784 0 0 1-0.0219-0.1814 0.79784 0.79784 0 0 1 0.79781-0.7978 0.79784 0.79784 0 0 1 0.44414 0.13558l0.15893-0.15892a0.89089 0.89089 0 0 0-0.53927-0.1827zm0.67919 0.26753c-0.0187 3.07e-4 -0.0377 0.0076-0.0534 0.02088l-0.68252 0.57769c-0.0314 0.02658-0.10513 0.10483-1.5e-4 0.20982 0.10501 0.10501 0.18323 0.03109 0.20981-2.82e-4l0.57784-0.68224c0.0266-0.03138 0.0291-0.0759 0-0.10498-0.0145-0.01453-0.0329-0.02119-0.0516-0.02087zm0.13732 0.26782-0.15008 0.15008a0.79784 0.79784 0 0 1 0.0673 0.31147h0.14964a0.89089 0.89089 0 0 0 7e-3 -0.106 0.89089 0.89089 0 0 0-0.0744-0.35554z"/><path d="m151.21 84.227c0.16093 1.3294 0.27623 1.4059 0.42552 0" fill="none" stroke="#000" stroke-linecap="round" stroke-linejoin="round" stroke-miterlimit="10" stroke-width=".18521" style="paint-order:stroke fill markers"/><path d="m150.79 84.202c0.16093-1.3294 0.27624-1.4059 0.42553 0" fill="none" stroke="#000" stroke-linecap="round" stroke-linejoin="round" stroke-miterlimit="10" stroke-width=".18521" style="paint-order:stroke fill markers"/></g><style type="text/css">
	.st0{fill:#000000;}
</style></svg>
