<svg width="4.1191mm" height="4.5361mm" version="1.1" viewBox="0 0 4.1191 4.5361" xml:space="preserve" xmlns="http://www.w3.org/2000/svg"><defs><style>.cls-1{fill:none;}</style></defs><g transform="translate(-148.96 -74.613)"><path d="m150.13 79.149h-0.97809c-0.10432 0-0.18968-0.08532-0.18968-0.18968v-2.3044c0-0.10429 0.0854-0.18967 0.18968-0.18967h3.7397c0.10432 0 0.1897 0.08538 0.1897 0.18967v2.3044c0 0.10436-0.0854 0.18968-0.1897 0.18968h-2.7616" fill-rule="evenodd" stroke-width=".26458"/><path d="m149.18 76.303v2.576c0 0.01007 5e-3 0.01868 0.0132 0.02402 8e-3 0.0054 0.0183 0.0058 0.0274 0.0014 0.2656-0.12739 0.56315-0.1988 0.8774-0.1988s0.61181 0.07142 0.87741 0.1988c9e-3 0.0044 0.0189 0.0037 0.0273-0.0014 8e-3 -0.0054 0.0133-0.01398 0.0133-0.02402v-2.6c0-0.01099-6e-3 -0.02051-0.0157-0.02542-0.27184-0.13499-0.57821-0.21092-0.90231-0.21092-0.32409 0-0.63042 0.07593-0.90226 0.21092-0.01 0.0048-0.0157 0.01439-0.0157 0.02542v0.02392" fill="#fff" fill-rule="evenodd" stroke-width=".26458"/><path d="m149.22 76.303v2.5651c0.13419-0.0635 0.27625-0.113 0.42427-0.14655 0.14771-0.03351 0.30113-0.05112 0.45833-0.05112 0.15721 0 0.31062 0.0176 0.45836 0.05112 0.14803 0.03354 0.29008 0.08305 0.42425 0.14655v-2.5847c-0.13426-0.06632-0.27714-0.11801-0.42656-0.15301-0.14631-0.03416-0.29901-0.05225-0.45605-0.05225-0.15701 0-0.3097 0.01808-0.45603 0.05225-0.1494 0.035-0.29228 0.08669-0.42657 0.15301zm-0.0708 9e-3v-0.03297c0-0.01211 3e-3 -0.02357 0.01-0.03351 6e-3 -0.01007 0.015-0.01811 0.0259-0.0236 0.14038-0.0697 0.28973-0.12392 0.44583-0.16042 0.15175-0.03547 0.30978-0.05427 0.47205-0.05427 0.16229 0 0.32034 0.01881 0.47209 0.05427 0.15607 0.0365 0.30545 0.09072 0.4458 0.16042 0.011 0.0055 0.0198 0.01357 0.026 0.0236 6e-3 0.01 0.01 0.0214 0.01 0.03351v2.6c0 0.01099-3e-3 0.02143-8e-3 0.03071-5e-3 0.0093-0.0125 0.01719-0.022 0.0231-9e-3 6e-3 -0.0197 0.0093-0.0303 0.0098-0.0105 8.84e-4 -0.021-0.0016-0.031-0.0064-0.13227-0.06349-0.27269-0.11284-0.41933-0.14604-0.14212-0.03225-0.29033-0.04923-0.44287-0.04923-0.1525 0-0.30071 0.01697-0.44283 0.04923-0.14664 0.0332-0.28704 0.08254-0.41936 0.14604-0.01 0.0048-0.0206 7e-3 -0.031 0.0064-0.0106-8.83e-4 -0.021-0.0039-0.0304-0.0098-9e-3 -0.0058-0.0168-0.01378-0.022-0.0231-5e-3 -0.0093-8e-3 -0.01969-8e-3 -0.03071v-2.567" stroke-width=".26458"/><path d="m152.86 76.303v2.576c0 0.01007-5e-3 0.01868-0.0132 0.02402-8e-3 0.0054-0.0183 0.0058-0.0274 0.0014-0.26558-0.12739-0.56314-0.1988-0.87738-0.1988-0.31426 0-0.61182 0.07142-0.87742 0.1988-9e-3 0.0044-0.0189 0.0037-0.0274-0.0014-8e-3 -0.0054-0.0132-0.01398-0.0132-0.02402v-2.6c0-0.01099 6e-3 -0.02051 0.0157-0.02542 0.27181-0.13499 0.57818-0.21092 0.90227-0.21092s0.63045 0.07593 0.90226 0.21092c0.01 0.0048 0.0157 0.01439 0.0157 0.02542v0.02392" fill="#fff" fill-rule="evenodd" stroke-width=".26458"/><path d="m152.82 76.303v2.5651c-0.13417-0.0635-0.27625-0.113-0.42428-0.14655-0.1477-0.03351-0.30111-0.05112-0.45832-0.05112s-0.31062 0.0176-0.45832 0.05112c-0.14803 0.03354-0.29012 0.08305-0.42429 0.14655v-2.5847c0.13426-0.06632 0.27717-0.11801 0.42656-0.15301 0.14634-0.03416 0.29901-0.05225 0.45605-0.05225 0.15705 0 0.30971 0.01808 0.45602 0.05225 0.14942 0.035 0.29232 0.08669 0.42658 0.15301zm0.0708 9e-3v-0.03297c0-0.01211-3e-3 -0.02357-0.01-0.03351-6e-3 -0.01007-0.015-0.01811-0.026-0.0236-0.14037-0.0697-0.28974-0.12392-0.44581-0.16042-0.15175-0.03547-0.30981-0.05427-0.47208-0.05427-0.16229 0-0.32031 0.01881-0.47206 0.05427-0.1561 0.0365-0.30544 0.09072-0.44583 0.16042-0.011 0.0055-0.0198 0.01357-0.0259 0.0236-6e-3 0.01-0.01 0.0214-0.01 0.03351v2.6c0 0.01099 3e-3 0.02143 8e-3 0.03071 5e-3 0.0093 0.0126 0.01719 0.022 0.0231 9e-3 6e-3 0.0197 0.0093 0.0303 0.0098 0.0104 8.84e-4 0.021-0.0016 0.031-0.0064 0.13227-0.06349 0.27271-0.11284 0.41933-0.14604 0.14214-0.03225 0.29035-0.04923 0.44286-0.04923 0.15253 0 0.30074 0.01697 0.44286 0.04923 0.14661 0.0332 0.28706 0.08254 0.41933 0.14604 0.0101 0.0048 0.0206 7e-3 0.0311 0.0064 0.0106-8.83e-4 0.0209-0.0039 0.0303-0.0098 9e-3 -0.0058 0.0169-0.01378 0.022-0.0231 5e-3 -0.0093 8e-3 -0.01969 8e-3 -0.03071v-2.567" stroke-width=".26458"/><g transform="matrix(.0070598 0 0 .0070598 149.12 74.613)" stroke-width="37.478"><path d="m119.51 131.07c5.35-0.82 9.6 1.96 14.07 3.52 38.61 13.52 77.26 26.93 115.68 40.97 9.33 3.41 17.44 3.09 26.6-0.38 41.55-15.74 83.28-30.96 125.01-46.23 4.03-1.47 7.88-4.06 12.86-3.35 2.83 3.27 1.68 7.35 1.7 11.07 0.11 28.63-0.45 57.28 0.31 85.9 0.32 11.92-4.9 18.96-14.29 24.49-16.91 9.96-35.39 15.62-54.4 19.6-61.87 12.96-123.32 11.84-184.14-6.3-11.42-3.41-22.35-7.98-32.49-14.38-8.46-5.34-12.72-12.18-12.48-22.84 0.62-27.3 0.18-54.62 0.23-81.93 0-3.41-0.65-6.99 1.35-10.15z"/><path d="m529.5 75.18c-4.38 2.8-8.92 4.49-13.34 6.02-6.86 2.36-11.73 4.6-12.7 4.96-0.5 0.19-10.25 3.74-25.5 9.31-3.31 4.18-5.24 8.89-4.1 14.53 2.19 10.9 2.71 21.95 3.17 32.99 0.96 23.59 1.71 47.18 0.23 70.78-0.24 3.83-0.62 7.65-2.08 11.26-0.46 1.15-0.95 2.49-2.43 2.49-1.25 0.01-1.81-1.17-2.47-2.09-1.43-1.99-1.8-4.6-3.74-6.57-2.09 2.45-2.25 5.49-3.2 8.18-0.87 2.44-1.51 4.96-2.37 7.4-0.8 2.25-2.03 2.2-3.27 0.33-1.84-2.74-3.21-5.68-3.53-9.04-0.11-1.11-0.21-2.24-0.4-3.34-0.21-1.25-0.54-2.54-1.99-2.85-1.39-0.3-2.36 0.58-3.17 1.55-2.4 2.87-3.41 6.57-5.64 9.9-1.86-5.51-2.8-10.91-2.89-16.4-0.4-24.86 2-49.33 9.93-73.07 2.22-6.62 4.14-13.35 5.75-20.16 1.03-4.32 3.06-8.2 5.79-11.74 2.56-3.3 4.7-6.83 6.56-10.54-62.25 22.76-185.88 68.02-196.91 72.53-1.24 0.5-5.57 2.31-11.13 1.86-1.76-0.15-3.55-0.52-5.41-1.19-83.39-29.58-166.83-59.01-250.25-88.51-1.24-0.43-2.39-1.07-4.41-1.99 3.51-4.77 8.38-4.65 12.41-5.87 81.26-24.78 162.6-49.3 243.85-74.11 7.48-2.28 14.28-2.43 21.8-0.25 79.5 22.99 159.08 45.68 238.6 68.57 3.99 1.15 8.46 1.58 12.84 5.06z"/></g></g><style type="text/css">
	.st0{fill:#000000;}
</style></svg>
