<svg width="6.2653mm" height="7.2646mm" version="1.1" viewBox="0 0 6.2653 7.2646" xml:space="preserve" xmlns="http://www.w3.org/2000/svg"><defs><style>.cls-1{fill:none;}</style></defs><g transform="translate(-138.72 -46.132)" stroke-linecap="round" stroke-linejoin="round" stroke-miterlimit="10"><path d="m139.32 47.265v5" fill="#fff" stroke="#000" stroke-width=".26458" style="paint-order:stroke fill markers"/><path d="m140.32 46.265c-0.8677 0-1 0.17615-1 1" fill="none" stroke="#000" stroke-width=".26458" style="paint-order:stroke fill markers"/><path d="m140.32 53.265c-0.8677 0-1-0.17615-1-1" fill="none" stroke="#000" stroke-width=".26458" style="paint-order:stroke fill markers"/><path d="m142.81 46.776c0 0.8677 0.17615 1 1 1" fill="none" stroke="#000" stroke-width=".26458" style="paint-order:stroke fill markers"/><path d="m143.32 53.265c0.8677 0 1-0.17615 1-1" fill="none" stroke="#000" stroke-width=".26458" style="paint-order:stroke fill markers"/><path d="m140.32 53.265h3.0024" fill="none" stroke="#000" stroke-width=".26458" style="paint-order:stroke fill markers"/><path d="m140.32 46.265h2.4889l1.5111 1.5111v4.4889" fill="none" stroke="#000" stroke-width=".26458" style="paint-order:stroke fill markers"/><path d="m144.32 47.776h-0.54629" fill="none" stroke="#000" stroke-width=".26458" style="paint-order:stroke fill markers"/><path d="m142.81 46.265v0.51113" fill="none" stroke="#000" stroke-width=".26458" style="paint-order:stroke fill markers"/><path d="m139.86 50.015c-0.12503 0-0.23449 8.5e-5 -0.33021 0.0016-0.0479 7.27e-4 -0.0921 0.0019-0.13333 0.0035-0.0413 0.0016-0.0796 0.0037-0.11472 0.0065-0.0352 0.0029-0.0671 0.0066-0.0966 0.01117-0.0295 0.0045-0.0567 0.01001-0.0811 0.01655-0.0122 0.0033-0.0236 0.0069-0.0346 0.01077-0.011 0.0039-0.0216 0.0078-0.0315 0.01232-0.01 0.0044-0.0191 0.0091-0.0279 0.01425-9e-3 0.0051-0.017 0.01073-0.0248 0.01655-8e-3 0.0059-0.0154 0.01191-0.0222 0.01848-7e-3 0.0065-0.0131 0.01343-0.0191 0.02079-6e-3 0.0074-0.0114 0.01527-0.0165 0.02348-5e-3 0.0082-0.0101 0.0167-0.0145 0.02578-9e-3 0.01817-0.0161 0.03843-0.0222 0.06042-6e-3 0.02201-0.0111 0.04579-0.015 0.07197-4e-3 0.02619-7e-3 0.05471-9e-3 0.08544s-4e-3 0.06366-5e-3 0.0993c-2e-3 0.07128-2e-3 0.15284-2e-3 0.24594v0.74476c0 0.0931 1.2e-4 0.17466 2e-3 0.24594 9.7e-4 0.03564 2e-3 0.06857 5e-3 0.0993 2e-3 0.03073 5e-3 0.05926 9e-3 0.08544 4e-3 0.02619 9e-3 0.05036 0.015 0.07236 6e-3 0.02201 0.0134 0.04185 0.0222 0.06005 4e-3 0.0091 9e-3 0.01759 0.0145 0.02578 5e-3 0.0082 0.0106 0.01612 0.0165 0.02348 6e-3 0.0074 0.0123 0.01421 0.0191 0.02078 7e-3 0.0065 0.0144 0.01265 0.0222 0.01848 8e-3 0.0059 0.016 0.01143 0.0248 0.01655 9e-3 0.0051 0.018 0.0098 0.0279 0.01425 0.01 0.0044 0.0205 0.0089 0.0315 0.0127 0.011 0.0039 0.0224 0.0072 0.0346 0.01039 0.0244 0.0065 0.0516 0.01201 0.0811 0.01655 0.0295 0.0045 0.0615 0.0082 0.0966 0.01117 0.0352 0.0029 0.0735 0.0053 0.11472 0.0069 0.0413 0.0016 0.0855 0.0027 0.13333 0.0035 0.0891 0.0013 0.19304 0.0011 0.30747 0.0011h4.023c0.12504 0 0.23398 2.99e-4 0.3297-0.0011 0.0479-7.27e-4 0.0926-0.0019 0.13384-0.0035 0.0413-0.0016 0.0796-0.0041 0.11472-0.0069 0.0352-0.0029 0.0671-0.0066 0.0966-0.01117 0.0295-0.0045 0.0562-0.01001 0.0806-0.01655 0.0122-0.0033 0.0241-0.0065 0.0351-0.01039 0.011-0.0039 0.0216-0.0082 0.0315-0.0127 0.01-0.0044 0.0191-0.0091 0.0279-0.01425 9e-3 -0.0051 0.017-0.01073 0.0248-0.01655 8e-3 -0.0059 0.0154-0.01191 0.0222-0.01848 7e-3 -0.0065 0.0131-0.01343 0.0191-0.02078 6e-3 -0.0074 0.0114-0.01528 0.0165-0.02348 5e-3 -0.0082 0.0101-0.0167 0.0145-0.02578 9e-3 -0.01817 0.0161-0.03804 0.0222-0.06005 6e-3 -0.02201 0.0111-0.04618 0.015-0.07236 4e-3 -0.02619 7e-3 -0.05471 9e-3 -0.08544s4e-3 -0.06366 5e-3 -0.0993c2e-3 -0.06748 2e-3 -0.14588 2e-3 -0.23286v-0.75785c0-0.0931-1.2e-4 -0.17466-2e-3 -0.24594-9.7e-4 -0.03564-2e-3 -0.06856-5e-3 -0.0993-2e-3 -0.03073-5e-3 -0.05926-9e-3 -0.08545s-9e-3 -0.04997-0.015-0.07197c-6e-3 -0.02201-0.0134-0.04225-0.0222-0.06042-4e-3 -0.0091-9e-3 -0.01759-0.0145-0.02578-5e-3 -0.0082-0.0106-0.01612-0.0165-0.02348-6e-3 -0.0074-0.0123-0.01422-0.0191-0.02079-7e-3 -0.0065-0.0144-0.01265-0.0222-0.01848-8e-3 -0.0059-0.016-0.01143-0.0248-0.01655-9e-3 -0.0051-0.018-0.0098-0.0279-0.01425-0.01-0.0044-0.0205-0.0085-0.0315-0.01232-0.011-0.0039-0.0229-0.0075-0.0351-0.01077-0.0244-0.0065-0.0511-0.01201-0.0806-0.01655-0.0295-0.0045-0.0615-0.0082-0.0966-0.01117-0.0352-0.0029-0.0735-0.0049-0.11472-0.0065-0.0413-0.0016-0.086-0.0027-0.13384-0.0035-0.0957-0.0015-0.20466-0.0016-0.3297-0.0016z" stroke="#000" stroke-width=".26458" style="paint-order:stroke fill markers"/><text x="141.85666" y="51.425243" fill="none" font-family="Inter" font-size="1.0583px" stroke="#000000" stroke-width=".26458" text-align="center" text-anchor="middle" style="line-height:1.5;paint-order:stroke fill markers" xml:space="preserve"><tspan x="141.85666" y="51.425243" fill="#ffffff" font-size="1.0583px" font-weight="bold" stroke="none" stroke-width=".26458">Verilog-A</tspan></text><path d="m141.86 47.873-0.28648 1.3564" fill="#fff" stroke="#000" stroke-width=".26458" style="paint-order:stroke fill markers"/><path d="m142.24 48.04 0.51318 0.45018-0.51318 0.54982" fill="none" stroke="#000" stroke-width=".26458" style="paint-order:stroke fill markers"/><path d="m141.19 48.04-0.51317 0.45018 0.51317 0.54982" fill="none" stroke="#000" stroke-width=".26458" style="paint-order:stroke fill markers"/></g><style type="text/css">
	.st0{fill:#000000;}
</style></svg>
