<svg width="48.603mm" height="48.603mm" version="1.1" viewBox="0 0 48.603 48.603" xml:space="preserve" xmlns="http://www.w3.org/2000/svg"><defs><style>.cls-1{fill:none;}</style></defs><g transform="translate(-35.705 -174.27)"><circle cx="60.007" cy="198.57" r="23.64" fill="#ffa31a" stroke="#000" stroke-linecap="round" stroke-linejoin="round" stroke-miterlimit="10" stroke-width="1.3229" style="paint-order:markers fill stroke"/><path d="m65.806 186.97c-3.5394 0.13247-5.9841 0.97641-7.5411 2.3652-0.47428 0.42304-0.69822 0.96562-0.99994 1.4728-3.7651-1.401-6.517-0.4545-8.1189 1.1813-0.8148 0.83206-1.3494 1.8071-1.664 2.7053-0.24839 0.7091-0.26154 1.2904-0.23668 1.8536-2.7121 2.1246-4.1024 3.7544-5.9278 6.5138a0.66146 0.66146 0 0 0 0.18758 0.91571 0.66146 0.66146 0 0 0 0.91622-0.18552c1.8425-2.7853 3.0342-4.214 5.8141-6.3614a0.66146 0.66146 0 0 0 0.07441-0.0837 0.66146 0.66146 0 0 0 0.0956 0c2.3441-0.96457 4.0587-0.73357 4.8772-0.0413a0.66146 0.66146 0 0 0 0.01344 4e-3c1.6618 1.5123 3.5604 2.5163 6.7035 2.6856a0.66146 0.66146 0 0 0 0.0016 2e-3c0.99878 0.0648 1.7074 0.59436 2.2071 1.4314 0.49813 0.83443 0.72831 1.9752 0.62322 3.084l-2.6779 2.3906-3.6504-0.0584a0.66146 0.66146 0 0 0-0.67179 0.65216 0.66146 0.66146 0 0 0 0.65061 0.67179l2.2149 0.0336-0.64492 0.57568a0.66146 0.66146 0 0 0-0.05271 0.93586 0.66146 0.66146 0 0 0 0.93379 0.0527l1.342-1.1973 0.3359 0.50384a0.66146 0.66146 0 0 0 0.91777 0.18345 0.66146 0.66146 0 0 0 0.18345-0.91777l-0.44131-0.65991 2.4748-2.2071c1.2848 0.15298 2.3614-0.0189 3.2169-0.42375 0.20449-0.0968 0.32262-0.24022 0.50746-0.35191l-0.83561 2.1094-3.0804 0.57826a0.66146 0.66146 0 0 0-0.52916 0.77153 0.66146 0.66146 0 0 0 0.77359 0.5271l1.9177-0.35915-0.59531 0.9157a0.66146 0.66146 0 0 0 0.19327 0.91622 0.66146 0.66146 0 0 0 0.91571-0.19533l1.094-1.6795 0.57051 0.3359a0.66146 0.66146 0 0 0 0.90588-0.23668 0.66146 0.66146 0 0 0-0.23616-0.90589l-0.62683-0.36741 1.4609-3.6856c4.3957-1.2406 6.8643-3.7589 7.2399-6.6327 0.38625-2.9556-1.3914-6.0446-4.7925-8.1876a0.66146 0.66146 0 0 0-0.01189-2e-3 0.66146 0.66146 0 0 0-0.0217-0.0176c-1.752-0.96718-3.4755-1.5724-5.9707-1.6113a0.66146 0.66146 0 0 0-0.02532 0.01 0.66146 0.66146 0 0 0-0.0098-0.01z" color="#000000" stroke-linecap="round" stroke-linejoin="round" stroke-miterlimit="10" style="-inkscape-stroke:none;paint-order:stroke markers fill"/><circle cx="52.246" cy="193.54" r=".68028" fill="#fff"/></g><style type="text/css">
	.st0{fill:#000000;}
</style></svg>
