<svg width="16.706mm" height="16.075mm" version="1.1" viewBox="0 0 16.706 16.075" xmlns="http://www.w3.org/2000/svg">
 <g transform="translate(-18.991 -67.024)">
  <text x="20.106615" y="68.562714" fill="none" font-family="Bahnschrift" font-size="2.1167px" font-weight="300" stroke="#000000" stroke-linecap="round" stroke-linejoin="round" stroke-width=".19844" text-align="center" text-anchor="middle" style="line-height:1.5;paint-order:markers stroke fill" xml:space="preserve"><tspan x="20.106615" y="68.562714" fill="#000000" font-family="sans-serif" font-style="italic" font-weight="normal" stroke="none" stroke-width=".19844">V<tspan baseline-shift="sub" font-size="65%">in</tspan></tspan></text>
  <text x="27.437765" y="73" fill="none" font-family="Bahnschrift" font-size="2.1167px" font-weight="300" stroke="#000000" stroke-linecap="round" stroke-linejoin="round" stroke-width=".19844" text-align="center" text-anchor="middle" style="line-height:1.5;paint-order:markers stroke fill" xml:space="preserve"><tspan x="27.437765" y="73" fill="#000000" font-family="sans-serif" font-style="italic" font-weight="normal" stroke="none" stroke-width=".19844">R<tspan baseline-shift="sub" font-size="65%">1</tspan></tspan></text>
  <text x="33.79137" y="76.644501" fill="none" font-family="Bahnschrift" font-size="2.1167px" font-weight="300" stroke="#000000" stroke-linecap="round" stroke-linejoin="round" stroke-width=".19844" text-align="center" text-anchor="middle" style="line-height:1.5;paint-order:markers stroke fill" xml:space="preserve"><tspan x="33.79137" y="76.644501" fill="#000000" font-family="sans-serif" font-style="italic" font-weight="normal" stroke="none" stroke-width=".19844">V<tspan baseline-shift="sub" font-size="65%">out</tspan></tspan></text>
  <text x="27.437765" y="80" fill="none" font-family="Bahnschrift" font-size="2.1167px" font-weight="300" stroke="#000000" stroke-linecap="round" stroke-linejoin="round" stroke-width=".19844" text-align="center" text-anchor="middle" style="line-height:1.5;paint-order:markers stroke fill" xml:space="preserve"><tspan x="27.437765" y="80" fill="#000000" font-family="sans-serif" font-style="italic" font-weight="normal" stroke="none" stroke-width=".19844">R<tspan baseline-shift="sub" font-size="65%">2</tspan></tspan></text>
  <path d="m25 69v1" fill="none" stroke="#000" stroke-linecap="round" stroke-linejoin="round" stroke-width=".19844"/>
  <path d="m25 75v2" fill="none" stroke="#000" stroke-linecap="round" stroke-linejoin="round" stroke-width=".19844"/>
  <path d="m30 76h-5" fill="none" stroke="#000" stroke-linecap="round" stroke-linejoin="round" stroke-width=".19844"/>
  <circle cx="25.003" cy="76" r=".29766"/>
  <path d="m25 69v-1" fill="none" stroke="#000" stroke-linecap="round" stroke-linejoin="round" stroke-width=".19844"/>
  <path d="m25 68h-1.0746" fill="none" stroke="#000" stroke-linecap="round" stroke-linejoin="round" stroke-width=".19844"/>
  <path d="m25 70v1" fill="none" stroke="#000" stroke-linecap="round" stroke-linejoin="round" stroke-width=".19844"/>
  <path d="m25 77v1" fill="none" stroke="#000" stroke-linecap="round" stroke-linejoin="round" stroke-width=".19844"/>
  <g transform="translate(-2.4248e-6 -2.5915)" fill="none" stroke="#000" stroke-linecap="round" stroke-linejoin="round" stroke-width=".19844">
   <path d="m25 84.592-2e-6 0.40848"/>
   <path d="m25 85h-0.59151l0.59151 0.59152 0.59151-0.59151h-0.59151"/>
  </g>
  <path d="m23.425 67.5h-1v1l1 2e-6" fill="none" stroke="#000" stroke-linecap="round" stroke-linejoin="round" stroke-width=".19844"/>
  <path d="m23.425 67.5 0.5 0.5" fill="none" stroke="#000" stroke-linecap="round" stroke-linejoin="round" stroke-width=".19844"/>
  <path d="m23.425 68.5 0.5-0.5" fill="none" stroke="#000" stroke-linecap="round" stroke-linejoin="round" stroke-width=".19844"/>
  <path d="m31 75.5h-1v1l1 2e-6" fill="none" stroke="#000" stroke-linecap="round" stroke-linejoin="round" stroke-width=".19844"/>
  <path d="m31 75.5 0.5 0.5" fill="none" stroke="#000" stroke-linecap="round" stroke-linejoin="round" stroke-width=".19844"/>
  <path d="m31 76.5 0.5-0.5" fill="none" stroke="#000" stroke-linecap="round" stroke-linejoin="round" stroke-width=".19844"/>
  <path d="m25 77v1l0.625 0.25-1.25 0.5 1.25 0.5-1.25 0.5 1.25 0.5-1.25 0.5 0.625 0.25" fill="none" stroke="#000" stroke-linecap="round" stroke-linejoin="round" stroke-width=".19844"/>
  <path d="m25 81v1" fill="none" stroke="#000" stroke-linecap="round" stroke-linejoin="round" stroke-width=".19844"/>
  <path d="m25 70.265v1l0.625 0.25-1.25 0.5 1.25 0.5-1.25 0.5 1.25 0.5-1.25 0.5 0.625 0.25" fill="none" stroke="#000" stroke-linecap="round" stroke-linejoin="round" stroke-width=".19844"/>
  <path d="m25 74.265v1" fill="none" stroke="#000" stroke-linecap="round" stroke-linejoin="round" stroke-width=".19844"/>
 </g>
</svg>
