<svg width="21.817mm" height="9.895mm" version="1.1" viewBox="0 0 21.817 9.895" xmlns="http://www.w3.org/2000/svg">
 <g transform="translate(-7.8442 -7.3125)">
  <path d="m20.559 13.445h2.6315" fill="none" stroke="#000" stroke-linecap="round" stroke-linejoin="round" stroke-width=".19844" style="paint-order:markers stroke fill"/>
  <text x="23.776814" y="14.595798" fill="#000000" font-family="inter" font-size="1.7639px" stroke="#000000" stroke-linecap="round" stroke-linejoin="round" stroke-width=".19844" xml:space="preserve"><tspan x="23.776814" y="14.595798" fill="#000000" font-size="1.7639px" font-style="italic" stroke="none" stroke-width=".19844">C<tspan baseline-shift="sub" font-size="65%">1</tspan></tspan></text>
  <path d="m21.875 13.312v-2" fill="none" stroke="#000" stroke-linecap="round" stroke-linejoin="round" stroke-width=".19844" style="paint-order:markers stroke fill"/>
  <path d="m21.875 16.313v-2" fill="none" stroke="#000" stroke-linecap="round" stroke-linejoin="round" stroke-width=".19844" style="paint-order:markers stroke fill"/>
  <path d="m20.559 14.18h2.6315" fill="none" stroke="#000" stroke-linecap="round" stroke-linejoin="round" stroke-width=".19844" style="paint-order:markers stroke fill"/>
  <g transform="rotate(-90 74.734 22.23)" stroke-width=".19844">
   <title>Resistor_US</title>
   <path d="m86.651-33.629v-1" fill="none" stroke="#000" stroke-linecap="round" stroke-width=".19844"/>
   <path d="m86.026-34.879 0.625 0.25" fill="none" stroke="#000" stroke-linecap="round" stroke-width=".19844"/>
   <path d="m86.651-37.629 0.625 0.25" fill="none" stroke="#000" stroke-linecap="round" stroke-width=".19844"/>
   <path d="m86.026-35.879 1.25 0.5" fill="none" stroke="#000" stroke-linecap="round" stroke-width=".19844"/>
   <path d="m87.276-35.379-1.25 0.5" fill="none" stroke="#000" stroke-linecap="round" stroke-width=".19844"/>
   <path d="m86.026-36.879 1.25 0.5" fill="none" stroke="#000" stroke-linecap="round" stroke-width=".19844"/>
   <path d="m87.276-36.379-1.25 0.5" fill="none" stroke="#000" stroke-linecap="round" stroke-width=".19844"/>
   <path d="m87.276-37.379-1.25 0.5" fill="none" stroke="#000" stroke-linecap="round" stroke-width=".19844"/>
   <path d="m86.651-37.629v-1" fill="none" stroke="#000" stroke-linecap="round" stroke-width=".19844"/>
   <title>Resistor_US</title>
  </g>
  <g transform="translate(11.365 -59.692)">
   <g transform="matrix(0 .83511 -.85711 0 51.549 43.532)" fill="none" stroke="#000" stroke-linecap="round" stroke-linejoin="round" stroke-width=".23455">
    <path d="m32.299 43.246v1.1341" style="paint-order:stroke fill markers"/>
    <path d="m32.299 44.38h-1.1974" style="paint-order:stroke fill markers"/>
    <path d="m31.102 44.38v-1.1459" style="paint-order:stroke fill markers"/>
    <path d="m31.102 43.234 0.59282-0.59282" style="paint-order:stroke fill markers"/>
    <path d="m32.299 43.246-0.60462-0.60462" style="paint-order:stroke fill markers"/>
   </g>
  </g>
  <g transform="matrix(-.44713 0 0 .44713 51.014 -28.797)" stroke-width=".4438">
   <title>GND</title>
   <g transform="translate(-.26259 -.11701)" stroke-width=".4438">
    <g transform="translate(33.547 3.5594)" fill="none" stroke="#000" stroke-linecap="round" stroke-width=".4438">
     <path d="m31.884 97.901v-0.91358" stroke-linejoin="round"/>
     <path d="m30.561 97.901h2.6458"/>
     <path d="m31.884 99.224 1.3229-1.3229"/>
     <path d="m30.561 97.901 1.3229 1.3229"/>
    </g>
   </g>
   <title>GND</title>
  </g>
  <path d="m18.875 10.312h6" stroke="#000" stroke-linecap="round" stroke-linejoin="round" stroke-width=".19844"/>
  <path d="m21.875 11.312v-1" stroke="#000" stroke-linecap="round" stroke-linejoin="round" stroke-width=".19844"/>
  <circle cx="21.875" cy="10.313" r=".29766"/>
  <path d="m13.875 10.312h-1" stroke="#000" stroke-linecap="round" stroke-linejoin="round" stroke-width=".19844"/>
  <g transform="translate(-2.125 -59.688)">
   <g transform="matrix(0 .83511 -.85711 0 51.549 43.532)" fill="none" stroke="#000" stroke-linecap="round" stroke-linejoin="round" stroke-width=".23455">
    <path d="m32.299 43.246v1.1341" style="paint-order:stroke fill markers"/>
    <path d="m32.299 44.38h-1.1974" style="paint-order:stroke fill markers"/>
    <path d="m31.102 44.38v-1.1459" style="paint-order:stroke fill markers"/>
    <path d="m31.102 43.234 0.59282-0.59282" style="paint-order:stroke fill markers"/>
    <path d="m32.299 43.246-0.60462-0.60462" style="paint-order:stroke fill markers"/>
   </g>
  </g>
  <text x="7.6899967" y="10.524917" fill="#000000" font-family="inter" font-size="1.7639px" stroke="#000000" stroke-linecap="round" stroke-linejoin="round" stroke-width=".19844" xml:space="preserve"><tspan x="7.6899967" y="10.524917" fill="#000000" font-size="1.7639px" font-style="italic" stroke="none" stroke-width=".19844">V<tspan baseline-shift="sub" font-size="65%">in</tspan></tspan></text>
  <text x="26.875" y="10.595799" fill="#000000" font-family="inter" font-size="1.7639px" stroke="#000000" stroke-linecap="round" stroke-linejoin="round" stroke-width=".19844" xml:space="preserve"><tspan x="26.875" y="10.595799" fill="#000000" font-size="1.7639px" font-style="italic" stroke="none" stroke-width=".19844">V<tspan baseline-shift="sub" font-size="65%">out</tspan></tspan></text>
  <text x="15.574909" y="8.5957994" fill="#000000" font-family="inter" font-size="1.7639px" stroke="#000000" stroke-linecap="round" stroke-linejoin="round" stroke-width=".19844" xml:space="preserve"><tspan x="15.574909" y="8.5957994" fill="#000000" font-size="1.7639px" font-style="italic" stroke="none" stroke-width=".19844">R<tspan baseline-shift="sub" font-size="65%">1</tspan></tspan></text>
 </g>
</svg>
